<svg xmlns="http://www.w3.org/2000/svg" viewBox="0 0 1000 886.7" class="regionskarte" preserveAspectRatio="xMidYMid meet" data-land="EG" data-minlon="24.3220" data-maxlon="37.2655" data-minlat="21.7045" data-maxlat="31.9463" data-umbruch="0">
<!-- Umrisse: Natural Earth (ne_10m_admin_1_states_provinces),
     gemeinfrei. Erzeugt von tools/regionen_bauen.py, nicht von
     Hand aendern. -->
<g class="regionen">
<path id="r-EG-SIN" data-de="Schimal Sina" data-en="North Sinai" data-cx="727.9" data-cy="133.7" d="M766.9,63.6L767.7,66L770.7,75.1L773.2,82.4L776.1,89.9L780.1,100L784.8,112.1L786.5,119L786.7,122.6L787.1,124.1L788.4,125.7L789.1,126.8L789.1,127.9L788.4,130.5L788.3,132L788.4,133L789,133.9L793.2,137.4L794,138.7L796.6,145.8L801.1,158.6L804.1,166.9L804.4,167.4L804.5,167.9L804.5,168.4L804.5,169L805,173.7L808.4,182.7L811.4,190.9L813.4,199.8L813.2,205.8L813.8,207.8L815.6,211.4L816.2,212.7L816.1,212.7L783.9,207.8L774.2,204.3L765.3,199.6L749.6,193.9L729.8,183.5L680.5,175L659.2,176L658.7,175.2L658,174L657.3,172.2L656.4,154.6L654.9,146.5L650.8,136.2L643.7,125.2L643.6,124.9L643.3,123.7L643,121.9L642.9,114.2L639.7,84.2L639.5,76.7L639.5,76.6L639.7,76.7L643.1,76.8L646.3,76.4L652.1,74.9L658.9,71.6L660.3,70.7L663.4,69.1L664.3,68.5L664.8,68.5L664.8,69.1L662.4,70L658.1,73.2L655.6,73.9L651.3,75.8L644.7,77.4L648.4,77.4L648.4,78L647.3,78.6L649.7,78.6L650.6,78.2L651.1,77.4L651.6,77.4L651.6,77.9L651.9,78L652.2,77.9L652.6,78L657.4,75L661.4,73.8L662.2,73.2L662.7,73.2L663,73.7L664.1,73.9L663.8,74.4L663.2,74.4L663.2,75L664.1,74.8L665.9,73.9L665.9,73.2L663.8,73.2L663.8,72.7L664.8,72.3L666.1,72.6L667.3,73.4L668,74.4L668.2,74.9L668.4,75.8L668.5,76.2L667.5,76.2L670,77.1L671.2,77.1L672.3,76.2L672.3,75.6L671.5,75.2L671.2,75L671.2,74.4L674.1,73.7L674.9,73.2L674.5,72.6L674.7,71.9L675.1,71.2L675.4,70.3L674.9,70.3L674.4,70.8L672.8,72L672.5,72.3L672.3,72.6L672.3,72.9L672.8,73.2L671.8,73.4L670,73.4L668.2,73.1L666.9,72.7L669.3,72.4L670.6,71.1L671.6,69.4L672.8,67.9L673.7,67.5L675.6,67.1L676.5,66.7L678,65.3L678.9,64.9L680.2,64.9L680.2,65.5L678.1,65.5L678.1,66.1L679,66.7L681.8,70.3L682.6,71.7L682.3,72.2L681.3,72.4L680.2,73.2L680.1,73L680.1,72.8L680,72.6L679.6,72.7L679.6,73.2L680.9,74.1L681.6,75.2L681.6,76.5L680.8,78L683.5,76.9L685,76.6L686,76.8L686.5,76.6L686.9,76.7L687.6,76.8L687.6,76.2L686.5,75.6L686,75.6L686,76.2L685.5,76.2L685.5,75.6L689.6,74L690.7,73.2L691.3,73.2L690.7,73.9L691.3,74.4L691.9,74L692.5,73.9L693,74.3L693.4,75L693.9,75L694,74.3L694,73.4L693.9,73.3L695,73.2L694.3,72.8L693.5,72.9L692.8,72.9L691.9,72.7L700.3,72L699.6,70.5L700.6,70.1L701.9,70L701.9,68.5L702.7,68.9L703,69.1L703.5,69.1L704.5,68.8L707.6,70.4L709,70.8L714.7,71.4L716.2,72L716.2,71.4L717.9,71.9L720.5,71.8L736.5,67.8L751.3,62.1L763,54.8L763.2,54.7L765.1,58.1L765.5,59.5L766.9,63.6ZM668.8,74.9L668.5,74.4L668.1,74.4L668.7,74L669.1,74.1L669.4,74.7L669.6,75.6L668.8,74.9ZM699.5,65.5L701.8,66L703.9,67L707.2,69.7L705.6,68.5L693.5,63.5L691.3,63.2L693.7,63.2L697.7,65.1L699.5,65.5ZM676.5,62.3L678.5,61.1L690.7,62.6L690.2,62.9L689.3,62.9L686.9,62.5L684.6,62.2L682.3,61.9L679.6,62.6L678.4,62.3L676.4,63L667,67.8L665.4,69.1L666.3,67.8L668.1,66.9L669.6,66.2L670.6,65.6L671.6,64.9L675.6,63.1L676.5,62.3Z"><title>North Sinai</title></path>
<path id="r-EG-ASN" data-de="Aswan" data-en="Aswan" data-cx="614.8" data-cy="719.8" d="M554.2,861.5L549.6,861.5L552,853.8L553.8,848.3L553.9,846.1L553.2,844.2L551.5,842.5L550.1,841.7L548.6,841.5L547.2,841.7L545.7,842.6L543.7,844.8L540.2,852.3L540.2,852.2L540.1,852L539.5,851L538.8,850.2L535.4,847.6L534.6,846.8L533.9,845.9L533.5,845L533.3,844.1L533.6,842.9L534.1,841.6L535.3,839.8L536.3,838.7L537.4,837.8L539.3,836.8L541.2,836.2L543.2,835.9L547.1,835.7L548.9,835.4L550.8,834.7L552.7,833.8L553.9,833.1L556.6,830.9L562.1,823.7L562.7,822.3L563.2,820.9L563.8,818.2L563.9,817.6L563.4,812.9L562.1,807.8L561.8,805.9L561.8,805L562.1,803.7L562.7,802.3L564.1,800.1L565.1,798.9L566.3,797.9L567.3,797.4L568.3,797L569.3,796.8L570.3,796.7L572,796.7L578.7,798.6L579.5,798.7L580.4,798.6L604.9,786.4L607.1,785.8L608.1,785.6L609,785.7L610,786.1L611.7,787.2L615.2,790.2L616.1,790.7L617.2,790.9L618.2,790.9L620.3,790.5L621.3,790.5L622.2,790.7L623,791.2L623.6,791.9L624.6,793.6L625.2,794.3L626,794.6L626.9,794.2L627.6,793.4L629.2,790L629.7,789.2L630.4,788.3L631.2,786.7L631.9,784.3L632.8,779.4L633.6,777L634.4,775.4L635.1,774.4L635.4,773.9L636.1,772.3L638.4,764.5L642.2,755.9L644.1,753.1L650.9,745.6L651.6,744.4L652.1,743.2L652.3,741.6L652.3,740.2L651.8,738.7L651,738.2L650,738.1L639.6,739.7L631.9,739.4L628.8,738.8L627.9,738.4L627,738L626.4,737L626.1,735.7L626.5,733.5L626.9,732.3L627.6,730.8L628.1,728.5L629.2,722L630.2,718.2L630.7,717.3L632.5,714.5L634,712.7L635.7,711L636.6,710.4L637.5,709.9L638.4,709.5L640.3,709L649.8,707.7L650.8,707.3L651.6,706.7L652.1,705.8L652.2,704.7L651.5,703L650.8,702.2L649.9,701.5L648.1,700.7L644.6,698.6L643.8,697.8L643.1,697L642.7,695.8L642.5,694.3L642.8,691.8L643.3,689.2L643.8,688L644,687.7L644.4,687.2L645.1,686.6L645.9,686.2L646.9,685.9L648.7,685.6L653.6,685.8L655.5,685.5L656.4,685.1L657.4,684.7L658.3,684.1L659.1,683.3L659.7,682.4L660,681.7L660.7,681L660.8,680.1L661.7,677L661.6,675.4L660.6,671.8L660.5,670.7L660.6,668L660.8,666.9L660.8,664.9L661.4,660.6L661.4,659.6L660.7,653.5L660.9,648.8L661.1,647L661.1,645.8L661,645.5L661.4,642.1L664.3,635.1L665.1,631.8L664.8,630.6L664.8,630.1L664.2,626.9L662.7,622.3L659.4,615.2L658.8,613.8L658.6,612.5L657.7,603.7L656.6,600.4L655.7,598.5L654.3,596.5L652.7,594.6L650,592.5L643.7,588.8L645.1,587.6L645.7,587.3L646.5,586.7L646.8,585.9L647,584.6L647.1,580L647.6,578L663.3,590.2L666.2,594L668.9,598.7L669.9,601.2L670.5,603.7L671.2,608.9L671.4,620.5L671.9,623.5L672.3,624.8L680.6,642.6L680.7,643.3L680.6,644.9L680,647.1L679.8,647.8L678.8,649.7L677.6,651.6L671.3,660.2L670.6,661.7L669,668.6L668.3,674.5L670.5,689.3L671.2,691.2L673,694.7L675.1,700.6L675.7,702.1L677,703.9L678.5,705.2L680.1,706.3L680.9,707.1L681.8,708.1L682.7,709.9L683,711.2L683.1,712.4L683,713.7L683,715.3L683.5,719.9L683.4,721.3L683,722.2L681.4,724.9L681.2,726.3L681.3,728.5L683,736.6L683.5,737.9L685.6,741.4L686.5,743.4L686.8,744.8L686.9,746L686.7,746.9L686.2,749.1L683.4,756.5L683,757.4L682.5,758.1L680.1,760.1L679.4,760.9L678.8,761.9L677.7,764.9L677.3,765.8L676.7,766.7L675.2,768.4L674.8,769.6L674.9,770.7L675.5,771.6L676.3,772.3L681.6,775.7L686.2,777.5L687.1,778L687.8,778.7L688.5,779.5L689.5,781.4L690.2,782.3L691.7,783.7L692.3,784.6L692.8,785.5L696.1,796.8L696.2,799L695.9,800L695.3,800.4L694.5,800.4L693.7,800.1L692.9,799.7L687.9,795.8L681.6,789.2L679.8,788.1L678,787.4L676.1,787.2L669.8,788.3L669,788.3L668.2,788.2L667.4,787.9L666.5,787.5L664.7,786.1L661.3,782.3L660.4,781.5L659.5,780.9L658.7,780.7L657.9,780.8L657.3,781.4L656.9,782.2L656.1,784.8L655.6,785.7L654,787.2L653.4,788.4L653.4,789.5L653.9,793.3L653.8,795.8L653.5,797.3L653.1,798.5L652,800.3L650,803L640,812.4L637.6,815.2L634.7,817.9L633.4,818.8L631.8,819.6L628.3,820.8L624.6,821.4L620.3,821.3L619.3,821.2L617.4,820.5L615.5,819.6L614.6,819L613.9,818.4L610.7,814.6L607.2,811.6L606.3,811.1L605.5,810.6L604.6,810.5L603.8,810.8L603,811.5L602.5,812.3L601.6,814.2L596.6,828.9L595.3,831.1L594,832.9L592.9,834.1L589.8,836.5L588.9,837L588,837.3L587.1,837.5L584.4,837.6L583.4,837.8L582.4,838.2L581.5,839L580.9,839.9L579.8,841.8L578.5,843.6L577.6,844.3L561.6,852.1L559.9,853.2L558.2,854.6L556.4,856.8L554.3,861.1L554.2,861.5Z"><title>Aswan</title></path>
<path id="r-EG-BA" data-de="al-Bahr al-ahmar" data-en="Red Sea" data-cx="736.7" data-cy="545.4" d="M633.7,861.5L627.4,861.5L619.5,861.5L611.6,861.5L603.7,861.5L595.8,861.5L587.9,861.5L580,861.5L572.1,861.5L564.2,861.5L556.2,861.5L554.2,861.5L554.3,861.1L556.4,856.8L558.2,854.6L559.9,853.2L561.6,852.1L577.6,844.3L578.5,843.6L579.8,841.8L580.9,839.9L581.5,839L582.4,838.2L583.4,837.8L584.4,837.6L587.1,837.5L588,837.3L588.9,837L589.8,836.5L592.9,834.1L594,832.9L595.3,831.1L596.6,828.9L601.6,814.2L602.5,812.3L603,811.5L603.8,810.8L604.6,810.5L605.5,810.6L606.3,811.1L607.2,811.6L610.7,814.6L613.9,818.4L614.6,819L615.5,819.6L617.4,820.5L619.3,821.2L620.3,821.3L624.6,821.4L628.3,820.8L631.8,819.6L633.4,818.8L634.7,817.9L637.6,815.2L640,812.4L650,803L652,800.3L653.1,798.5L653.5,797.3L653.8,795.8L653.9,793.3L653.4,789.5L653.4,788.4L654,787.2L655.6,785.7L656.1,784.8L656.9,782.2L657.3,781.4L657.9,780.8L658.7,780.7L659.5,780.9L660.4,781.5L661.3,782.3L664.7,786.1L666.5,787.5L667.4,787.9L668.2,788.2L669,788.3L669.8,788.3L676.1,787.2L678,787.4L679.8,788.1L681.6,789.2L687.9,795.8L692.9,799.7L693.7,800.1L694.5,800.4L695.3,800.4L695.9,800L696.2,799L696.1,796.8L692.8,785.5L692.3,784.6L691.7,783.7L690.2,782.3L689.5,781.4L688.5,779.5L687.8,778.7L687.1,778L686.2,777.5L681.6,775.7L676.3,772.3L675.5,771.6L674.9,770.7L674.8,769.6L675.2,768.4L676.7,766.7L677.3,765.8L677.7,764.9L678.8,761.9L679.4,760.9L680.1,760.1L682.5,758.1L683,757.4L683.4,756.5L686.2,749.1L686.7,746.9L686.9,746L686.8,744.8L686.5,743.4L685.6,741.4L683.5,737.9L683,736.6L681.3,728.5L681.2,726.3L681.4,724.9L683,722.2L683.4,721.3L683.5,719.9L683,715.3L683,713.7L683.1,712.4L683,711.2L682.7,709.9L681.8,708.1L680.9,707.1L680.1,706.3L678.5,705.2L677,703.9L675.7,702.1L675.1,700.6L673,694.7L671.2,691.2L670.5,689.3L668.3,674.5L669,668.6L670.6,661.7L671.3,660.2L677.6,651.6L678.8,649.7L679.8,647.8L680,647.1L680.6,644.9L680.7,643.3L680.6,642.6L672.3,624.8L671.9,623.5L671.4,620.5L671.2,608.9L670.5,603.7L669.9,601.2L668.9,598.7L666.2,594L663.3,590.2L647.6,578L645.2,575.7L644.5,574.8L643.5,572.9L642.7,570.5L641.3,564L641.2,559.4L641.3,558.2L642.2,555.3L643.1,553.6L644.2,551.9L649.3,546.1L656.8,539.3L658.5,537.4L659.9,535.3L663.9,527.1L664.6,524.8L665,522.4L665.1,520.4L665,517.3L664.2,511L663.1,506.9L662.3,504.9L661.2,503L658.2,498.8L655.5,496.3L653.6,495L652.1,494.2L646.1,492.4L641.2,492.1L638.9,492.3L634.9,493L619.3,500.6L617,501.1L608.8,490.7L606.7,486.8L606,485.8L605.2,484.8L604,484L603,483.6L598,482.4L595.7,481.6L593.7,480.5L592.3,479.5L591.2,478.4L590,476.8L588.1,473.9L587,471.6L586.8,470.6L586.4,466.7L586,465.4L585.1,463.8L583.1,461L581.3,458L580.1,455.1L576.7,451.7L563.8,442.7L555.5,425.4L553.7,422.4L552.6,421L547.8,416L544.6,413.4L542.8,412.3L542.3,411.7L541.7,411L541.1,409.7L539.9,406.2L539.2,404.9L538.2,403.7L536.5,402.2L535.3,401.4L534.2,400.8L529.3,399.3L521.5,395.9L514.7,392L514,391.3L513.3,390.4L512.7,389.5L512.2,388.3L511.5,385.9L511.2,384.7L511.1,382.2L511.4,374.5L512.8,366.3L512.8,364.9L512.8,362.9L512.4,360.2L512.1,358.5L510.3,353.9L509.8,352L509.2,343.8L508.8,341.4L507.6,338L503.4,329.9L503.1,328.8L502.9,327.8L502.6,324.1L501.8,320.2L501.7,319.3L501.9,317.7L502.3,315.7L504.5,310L508.3,303.6L508.8,302.6L509.2,300.8L511.6,279.7L511.8,277.9L512.3,275.4L513.8,271.4L515.4,268.4L520.6,261.6L525,254.5L527.2,251.6L530.7,248L531.7,246.4L532.7,244.5L534.1,240.9L534.9,239.1L535.5,237.5L535.6,236.3L535.3,232.9L535.7,229.2L541.3,236L542.9,237.4L543.4,238L544,238.8L545.1,241.2L545.4,241.9L546.3,243L549.4,246.2L550.9,247.3L553.2,248.7L554.6,249.4L583.1,257.8L586.4,259.3L597,257.7L603.2,258.1L604.4,257.9L606.1,257.3L629.6,247.2L631.8,245.9L635,244.9L636.4,244.7L643.9,244.6L644.1,245.5L644.2,247.4L643.7,248.1L643,248.8L642.6,249.8L641.7,250.1L641.5,250.9L642,251.8L641.7,254.4L641.5,257.4L642,258.4L644.4,260.8L645.2,261.9L645.5,262.8L645.5,264.5L645.8,265.4L647.5,267.3L647.9,267.5L651.1,272L653.8,272.5L655.5,274.3L656.6,276.9L660,289.8L660.3,291.5L661.1,291.8L664.8,293.9L666.7,295.7L667.6,296.8L668.4,298.4L669.1,298.7L670,298.9L670.7,299.3L670.9,299.8L671.5,301.6L673.7,305.8L674.4,306.4L674.4,306.8L674.3,306.9L674.1,306.9L673.8,307L677.2,309.7L678.7,311.6L678.6,313.5L679.2,314L679.7,314.9L680.1,316L680.2,316.8L680.5,317.1L682.3,319.5L685.9,323.4L686.8,325.2L687.6,325.7L688.5,326L689.1,326.5L689.5,327.7L689.5,328.6L689.7,329.3L691,329.5L692.3,330.2L694.9,333.3L696.6,334.3L696.5,334.8L696.6,335.5L696.6,336L696.4,336.7L697,337.3L697.9,337.5L698.7,337.3L699.4,338.6L701.1,339.3L704.6,340.2L710.1,345.2L711.8,348.9L712.7,349.7L713.3,350.6L715,354.6L715.1,355.6L715.1,356.2L715.5,356.9L715.8,358.5L716.2,359.2L716.2,359.7L715.7,359.7L714.6,359.7L713.7,357.8L711.9,356.7L709.8,355.9L708.2,355L707.7,355L707.2,356.2L707,357L707.2,357.6L707.7,358.5L709.2,360.1L710,361.1L710.3,362.4L710.8,363.1L711.9,362.8L713.1,362.3L713.6,362.4L713.4,363.6L713.1,364.9L712.6,366L711.9,366.9L712.2,367.2L712.6,367.8L713,368.1L714.4,369.1L714.9,369.2L715.1,369.6L715.8,371.2L716.2,371.7L716.2,372.3L715.4,371.6L713.6,369.2L713,369.2L713,369.9L713.3,370.3L713.6,371.1L713,371.1L712.5,369.4L711.1,369.6L709.6,370.8L708.8,372.3L710.6,373.2L711.9,374.9L714.1,378.8L713.8,379.3L713.6,380L713.5,380.8L713.6,381.8L714.8,382.7L718.2,384.2L719.4,385.3L719.6,386.1L719.7,388L719.9,388.9L720.4,389.6L721.8,391L722.3,391.8L722.8,393.6L723.4,397.4L723.9,398.6L726.4,401.1L729.4,403.1L732.7,404.7L734.2,405.8L735.2,407.2L735.4,408.1L735.2,411.4L735,411.7L734.3,412.3L734.2,412.6L734.2,413.1L734.6,413.9L734.7,414.4L734.8,416.3L735.1,417.8L735.9,419L737.4,420L738.7,421.2L740.1,423.2L740.7,424.6L739.5,424.4L739.5,425.8L740.1,427L741.6,429.2L742.3,430.5L743.2,433L744,434.2L745,435L746.1,435.6L747,436.3L747.4,437.2L747.9,439.9L748,441.3L747.4,442.3L746.1,442.3L745.3,441.5L744.6,441.2L743.7,442.9L743.5,444L743.5,445.6L743.7,447.1L744,448.2L744,450.5L742.5,455.7L743.2,458.2L744.3,459.1L746.8,459.9L748,460.6L748.8,461.9L749.6,464.5L752.1,467.9L753.2,470.2L755.8,477.9L757,480.2L758.5,482.6L759.6,484.8L761.4,487.6L768,502.7L771,507.2L773.9,514.7L780,523.2L780.5,524.3L781.3,526.8L786.5,534.6L789.3,537.7L789.9,538.6L796.7,552.1L797.7,556.2L799.6,559.9L800.4,564.3L801.8,566.7L805.1,571L805.6,572.1L806.3,574.6L806.8,575.8L809.1,579.4L810.1,583.1L813.6,589.4L820.3,601.1L820.6,603.9L821.4,606.2L822.6,607.8L824.2,609.6L824.4,611.2L824.5,614.4L824.7,616.1L825.1,617.4L825.8,618.3L826.7,619.1L827.9,619.9L829.9,621.8L831.2,624.3L833,631.1L833.4,632.2L834.8,634.5L836.3,637.2L837.4,638.2L837.4,639.6L836.1,642.3L836.1,644.7L839.3,645.9L843.2,653.3L853.6,661.5L855.2,663.5L858.1,671.9L860.2,674.2L863.1,678.5L864.4,678.3L863.8,677.1L863.1,675.9L863.9,675.8L865.5,677.5L867.6,678.4L870.4,681.4L871.5,683.8L871.7,686.3L874.1,687.8L876.5,687.3L878.4,687.9L880.4,688.5L882,689.4L883.2,690.7L884.8,694.6L886.2,696.4L885.7,697.2L884.5,695.6L882.9,693.8L881.8,693.7L879,695.1L877.9,695.7L876.3,695L874.9,694.4L873.4,694.1L872.4,694.3L871.2,694.1L869.8,693.5L869.3,692.7L868.4,691.7L867.6,691.4L867.5,691L866.3,690.4L864.7,689.9L864,690.5L862.9,692.5L862.4,695.1L862.9,699.2L862.2,702.8L861.6,705.5L862.3,707.7L863.7,708L864.4,709.1L864.3,710.3L864.1,710.9L864.2,712.4L864.3,713.4L864.4,715.3L864,718.9L863.9,726.4L863.7,727.8L863,730.2L862.8,731.5L863.1,732.8L863.8,734.1L865.5,736.5L866.8,739.1L867.3,740.4L867.6,741.9L867.5,746L868.1,750.1L868.8,753.3L869.4,756.1L873,762.5L874,764.9L875.5,768.2L876.6,776L877.1,777.4L878.7,780.4L881.9,784.6L884,785.8L883,784.4L880.9,780.4L882.4,780.5L883.4,781.3L884,782.5L884.5,784L885.4,788.3L885.6,789L886.9,789.9L887.5,790.9L888.1,792L889.1,793.2L890.5,795.1L893.4,797.4L896.2,798.6L897.6,799.1L897.8,799.4L898.8,800.1L899.9,800.7L901,801.1L905.3,801.4L911.5,802.6L917.5,804.7L919.7,806.1L923.4,809.8L924.7,811.9L925.1,815.9L926.4,818.6L928.7,820.7L931.2,822.6L932.4,823.1L933.5,823.6L933.3,822.3L933.7,822.3L935.3,824.2L934.9,826.7L936.2,830.3L941.5,832.7L944,834.2L945.7,835.4L950.4,839.5L957.4,846.5L958.8,847.3L960,847.2L960.3,846.7L960.4,846.1L960.7,845.8L961.3,846L962.7,846.9L963.3,847.5L963.7,848.1L964.8,850.7L965.4,851.7L966.6,852.8L969.6,854.7L971.4,855.4L971.7,858.5L971.6,859.6L971.1,860.5L970.5,861.4L970.5,861.5L952.4,861.5L934.5,861.5L916.5,861.5L898.5,861.5L880.5,861.5L862.6,861.5L844.6,861.5L826.6,861.5L808.6,861.5L790.6,861.5L772.7,861.5L754.7,861.5L754.2,861.5L753.6,861.5L736.7,861.5L718.7,861.5L700.8,861.5L684.4,861.5L682.8,861.5L682.7,861.5L674.9,861.5L667,861.5L659.1,861.5L651.2,861.5L643.2,861.5L635.3,861.5L633.7,861.5ZM744.2,446.4L745.4,446.4L745.8,446.4L747.4,449.7L747.9,451.5L748,453.5L746.9,452.5L746.4,451.3L744.2,446.4ZM748.2,384.1L749.9,384.8L750.4,386.2L750.7,387.8L751.7,388.9L751.7,389.4L751.1,389.3L750.1,389.1L748.7,387.5L748.3,387L746.6,386.5L745.9,386L745.1,385.2L744.3,384.6L742.6,385.4L741.9,384.8L741.3,383.8L741,382.9L741.5,382.3L742,382L742.5,381.8L743.2,381.8L744.9,382L745.5,382.4L746.2,382.8L746.8,383.4L747.2,383.7L748.2,384.1Z"><title>Red Sea</title></path>
<path id="r-EG-MT" data-de="Matruh" data-en="Matrouh" data-cx="246.2" data-cy="197.8" d="M50.9,333.3L50.9,299.1L50.9,264.6L50.9,250.1L50.9,239.4L50.4,234.4L49,229.7L42.6,214.5L41.9,211.5L41.7,208.2L42.4,201.9L42.4,199.8L41.3,196.3L37.3,189.7L36.8,186.1L38.1,181.6L38.2,179.9L37.8,178L31.2,161.7L29,157.9L28.3,156L28.3,152.7L29.6,149.6L32.8,144L34.1,141.1L34.8,139.8L36.9,137.3L39.2,135L43.7,128.3L45.2,125.3L46,122.4L46.2,120.7L48.6,114.7L49.4,110L50.3,106.5L51.5,103.5L52,100.5L50.9,97L47.6,90.1L46.6,85.7L43.8,80.3L43.3,78.5L41.5,69.3L41.5,62.2L40.7,54.9L40.7,51.7L41.7,49L54.2,39.1L57,31.8L59.2,28.8L64,25.1L63.9,25.8L64.9,31.4L65.7,34.2L67.1,35.9L68.8,36.4L72.7,36.6L75.7,38.1L77.3,38.1L80.9,37.6L81.6,37.8L82.5,38.2L83.4,38.4L84.8,37.6L86.7,37.1L89,36.9L101.6,33.4L116,28.7L119.5,28.2L127.1,28.5L157.6,36.7L179.9,39.6L181.2,40.3L182.4,40.7L186.3,40.4L187.8,40.6L193.4,43.2L196.5,44.1L200.1,44.1L202.9,43.1L204.2,43L205.6,43.8L206.6,44.8L207.4,45.1L208.1,45.2L209,45.4L211.1,46.6L216,48.1L221.2,48.7L223.1,49.2L224.4,50.1L224.9,49.7L225.6,49.3L225.9,48.9L226.8,49L231.7,48.9L232.2,49.1L232.8,49.5L233.3,50.1L233.3,50.4L233.2,50.7L233.3,51.3L233.9,52.4L234.3,52.9L234.7,53.1L234.9,53.3L235,54.6L235.2,55.1L235.8,56.1L236.5,58.7L237.3,59.9L239.2,61.4L241.4,62.6L243.8,63.4L248.7,64.1L250.6,64.9L252.3,65.2L254,64.3L257.9,66.3L262.5,65.5L271.5,61.3L272.8,61.1L273.6,61.7L274,62.9L274.1,64.6L274.3,65.3L275.7,68.5L276,71.3L276.2,72L278.5,73.4L282.2,73.9L296.1,73.9L297,74.1L297.7,74.6L298.3,75.2L298.9,75.6L299.9,75.8L302.2,75.6L304,75.8L307.3,76.6L308.8,76.8L310.3,76.4L313.7,74.8L315.4,74.4L316.9,74.7L318.3,75.3L319.5,76.1L320.4,77.1L321.1,77.4L323.9,77.4L324.9,77.6L325.7,77.9L327,78.6L340.8,83.3L343.5,84.8L345,85.4L346.9,85.7L347.4,86.2L347.9,88.5L348.2,89.3L348.7,89.7L350.2,90.1L363.6,96.9L376,96.4L378.3,96L388.9,91L400.3,85.7L404.4,82.7L407.6,81.1L407.6,81.2L409.7,139.3L413.3,146.7L464.1,177.3L404,213.3L353.8,263L338.2,274.6L276.9,290.3L271.2,292.6L267.5,296.6L265.4,299.8L232,370.4L52.4,370.5L50.9,370.5L50.9,340.1L50.9,333.3Z"><title>Matrouh</title></path>
<path id="r-EG-WAD" data-de="al-Wadi al-dschadid" data-en="New Valley" data-cx="358" data-cy="616" d="M50.9,424L50.9,416.3L50.9,387.1L50.9,373.9L50.9,370.5L52.4,370.5L232,370.4L334.6,370.4L491.8,370.4L490.9,372.3L490.5,373.3L490.2,376.7L490.5,379.1L491.3,381.8L498.4,397.1L499.8,399L501,400.5L511.3,410.1L515,412.4L522.1,415.3L523.4,416.2L524.8,417.4L528.5,421.3L529.4,422.7L539.1,442.3L549.8,455.6L557.2,461.9L589.5,502.7L601.8,514.3L602.5,515L603.9,515.8L605.8,516.7L606.9,517L608.3,517.3L610.5,517.4L614.3,516.8L621.1,514.8L638.9,506.4L641,505.8L644.5,505.4L645.9,505.4L647,505.6L647.8,506L648.6,506.6L649.4,507.3L650,508.2L650.5,509.1L650.9,510L651.2,511.8L651.2,513.5L651,514.7L650.7,515.6L649.9,517.3L646.7,523L646.3,524L646,525L645.4,529.1L644.9,531L644.5,531.9L644.1,532.8L643.5,533.6L642,535.3L631.4,543.8L629.1,546.2L628,547.9L627.6,548.8L627.4,549.7L627.3,551.5L627.5,552.8L630.1,563.3L632.2,575.7L633.3,578.9L634,580.2L634.8,581.3L636.4,583.1L643.7,588.8L650,592.5L652.7,594.6L654.3,596.5L655.7,598.5L656.6,600.4L657.7,603.7L658.6,612.5L658.8,613.8L659.4,615.2L662.7,622.3L664.2,626.9L664.8,630.1L664.8,630.6L665.1,631.8L664.3,635.1L661.4,642.1L661,645.5L661.1,645.8L661.1,647L660.9,648.8L660.7,653.5L661.4,659.6L661.4,660.6L660.8,664.9L660.8,666.9L660.6,668L660.5,670.7L660.6,671.8L661.6,675.4L661.7,677L660.8,680.1L660.7,681L660,681.7L659.7,682.4L659.1,683.3L658.3,684.1L657.4,684.7L656.4,685.1L655.5,685.5L653.6,685.8L648.7,685.6L646.9,685.9L645.9,686.2L645.1,686.6L644.4,687.2L644,687.7L643.8,688L643.3,689.2L642.8,691.8L642.5,694.3L642.7,695.8L643.1,697L643.8,697.8L644.6,698.6L648.1,700.7L649.9,701.5L650.8,702.2L651.5,703L652.2,704.7L652.1,705.8L651.6,706.7L650.8,707.3L649.8,707.7L640.3,709L638.4,709.5L637.5,709.9L636.6,710.4L635.7,711L634,712.7L632.5,714.5L630.7,717.3L630.2,718.2L629.2,722L628.1,728.5L627.6,730.8L626.9,732.3L626.5,733.5L626.1,735.7L626.4,737L627,738L627.9,738.4L628.8,738.8L631.9,739.4L639.6,739.7L650,738.1L651,738.2L651.8,738.7L652.3,740.2L652.3,741.6L652.1,743.2L651.6,744.4L650.9,745.6L644.1,753.1L642.2,755.9L638.4,764.5L636.1,772.3L635.4,773.9L635.1,774.4L634.4,775.4L633.6,777L632.8,779.4L631.9,784.3L631.2,786.7L630.4,788.3L629.7,789.2L629.2,790L627.6,793.4L626.9,794.2L626,794.6L625.2,794.3L624.6,793.6L623.6,791.9L623,791.2L622.2,790.7L621.3,790.5L620.3,790.5L618.2,790.9L617.2,790.9L616.1,790.7L615.2,790.2L611.7,787.2L610,786.1L609,785.7L608.1,785.6L607.1,785.8L604.9,786.4L580.4,798.6L579.5,798.7L578.7,798.6L572,796.7L570.3,796.7L569.3,796.8L568.3,797L567.3,797.4L566.3,797.9L565.1,798.9L564.1,800.1L562.7,802.3L562.1,803.7L561.8,805L561.8,805.9L562.1,807.8L563.4,812.9L563.9,817.6L563.8,818.2L563.2,820.9L562.7,822.3L562.1,823.7L556.6,830.9L553.9,833.1L552.7,833.8L550.8,834.7L548.9,835.4L547.1,835.7L543.2,835.9L541.2,836.2L539.3,836.8L537.4,837.8L536.3,838.7L535.3,839.8L534.1,841.6L533.6,842.9L533.3,844.1L533.5,845L533.9,845.9L534.6,846.8L535.4,847.6L538.8,850.2L539.5,851L540.1,852L540.2,852.2L540.2,852.3L540,852.8L536.1,861L535.1,861.6L532.2,861.6L524.7,861.6L517.1,861.6L509.6,861.6L502.1,861.6L494.6,861.6L487,861.6L479.5,861.6L472,861.6L464.5,861.6L457,861.6L449.4,861.6L441.9,861.6L434.4,861.6L426.9,861.6L419.4,861.6L411.9,861.6L404.3,861.6L396.8,861.6L389.3,861.6L381.8,861.6L374.3,861.6L366.7,861.6L359.2,861.6L351.7,861.6L344.2,861.6L336.7,861.6L329.1,861.6L321.6,861.6L314.1,861.6L306.6,861.6L299.1,861.6L291.6,861.6L284,861.6L276.5,861.6L269,861.6L261.5,861.6L254,861.6L246.4,861.6L238.9,861.6L231.4,861.6L223.9,861.6L216.4,861.6L208.8,861.6L201.3,861.6L193.8,861.6L186.3,861.5L178.8,861.5L171.2,861.5L163.7,861.5L156.2,861.5L148.7,861.5L141.2,861.5L133.7,861.5L126.1,861.5L118.6,861.5L111.1,861.5L103.6,861.5L96.1,861.5L88.5,861.5L81,861.5L73.5,861.5L66,861.5L58.4,861.5L50.9,861.5L50.9,836.3L50.9,811L50.9,785.7L50.9,760.5L50.9,735.2L50.9,709.9L50.9,684.7L50.9,659.4L50.9,634.1L50.9,608.9L50.9,583.6L50.9,558.3L50.9,533.1L50.9,507.8L50.9,482.5L50.9,457.3L50.9,440.4L50.9,424Z"><title>New Valley</title></path>
<path id="r-EG-SUZ" data-de="as-Suwais" data-en="Suez" data-cx="621.2" data-cy="202.4" d="M643.5,186.7L643.3,186.3L641.5,184.5L639.9,183.7L640.3,182.9L641.1,182.1L641.5,181.8L641.5,179.4L640.5,177.7L637.3,174.7L638,174.2L638.3,173.8L638.3,173.4L637.8,172.9L638.3,172.8L638.4,172.6L638.3,172.5L637.8,172.3L637.5,171.8L637.2,171.3L636.7,170.9L636.6,170.6L636.7,170.3L636.9,170.1L637.2,170L637.8,169.9L637.8,169.4L637.7,168.8L637.7,168.3L637.8,167.5L637.3,167.5L636.3,169.6L636.3,170.5L636.5,171.2L636.9,171.7L637.3,172.3L637.3,173.5L636.8,173.5L636.6,172.4L636,171.8L635.1,171.7L634.1,172.3L632.9,171.8L631.4,172.8L630,174.4L629.3,175.8L629.3,177.4L629.7,178.7L630.8,179.6L632.6,180L631.2,181.1L624.7,190L624.3,190.7L623.5,191.5L621.3,195.5L620.9,196.9L620.8,200.5L620.4,202L619.3,203.1L619.3,203.8L620.1,204.4L621,205.6L621.7,206.8L622.3,208.7L623.1,209.6L627.1,212.1L628.1,212.9L631.6,217L634,218.4L636.2,220.6L638.1,223.1L638.9,224.8L639.2,227L640,229.8L641,232.5L642,234L642,234.6L641.8,236.1L643.9,244.6L636.4,244.7L635,244.9L631.8,245.9L629.6,247.2L606.1,257.3L604.4,257.9L603.2,258.1L597,257.7L586.4,259.3L583.1,257.8L588,191.3L587.7,187.3L588.3,179.5L586.6,161.8L584.6,153.3L584.5,148.4L612.3,147.5L619,148L621.3,149.4L622.3,149.9L623.7,150.3L627.7,150.9L628.7,150.9L629.1,150.8L631.3,149.7L631.7,149.5L634.7,146.8L635.3,146.4L637.8,145.7L640.2,145.5L654.9,146.5L656.4,154.6L657.3,172.2L658,174L658.7,175.2L659.2,176L643.6,186.7L643.5,186.7Z"><title>Suez</title></path>
<path id="r-EG-JS" data-de="Dschanub Sina" data-en="South Sinai" data-cx="729.8" data-cy="270.1" d="M816.1,212.7L815.3,213.1L814.7,213.6L814.1,214.2L813.6,215L813.2,216L812.9,216.9L812.5,217.6L811.5,218L811.7,218.1L812,218.1L812.1,218.2L812,218.6L811.4,218.9L810.9,219.4L810.7,219.9L811,220.4L810.3,220.5L809.9,220.8L810,221.1L810.5,221.5L809.6,222.4L807.8,225.1L807.4,225.5L806.6,225.9L806.2,226.2L805.9,226.8L805.6,227.3L805.3,227.7L804.6,228.1L804.6,228.7L805.3,229.9L805,231.1L804.4,232.3L804,233.4L804,237.9L803.6,238.9L802.7,239.7L801.8,240.3L801.4,240.8L801.3,242.1L801,243.4L800.5,244.8L799.8,245.9L800,246.9L799.8,252.1L800,252.9L800.8,254L800.9,255L800.7,256.1L800.1,256.5L799.4,256.8L797.7,257.9L797.4,258.4L797.2,259.5L797.2,260L797.6,261.8L797.7,267L795.6,268.4L795.6,269L795.9,269.8L796.1,270.9L796.1,272.2L795.6,273.2L795.9,273.5L796.2,273.9L796.7,274.9L795.9,275.4L795.8,275.9L796,276.4L796.1,277L796,277.9L795.6,278.5L795.2,279L795.1,279.4L794.7,280.9L792.8,283.5L791.8,287.4L788.7,292.1L787.7,294.6L787.6,294.8L787.6,295L787.5,295.1L787.2,295.1L788.2,297.7L787.2,299.4L785.5,300.7L783.9,302.2L784.2,302.4L784.2,302.5L784.4,302.9L783.4,303.4L782.8,304.5L782.1,308.4L781.8,309.3L780.9,310.8L780.7,310.8L780.5,311.8L779.4,314L779.1,315L779.2,316.5L779.4,317.6L779.8,318.5L780.2,319.5L780.2,320L779.6,321.5L780.2,322.8L781.3,324L781.9,325.4L782.7,326L782.9,326.5L782.9,327.2L782.7,327.5L782.5,327.8L782.4,328.1L782.3,329.1L781.6,332.2L780.7,334.6L782,337L780.7,343.1L781.3,343.8L779.3,344.1L778.7,344.4L778.4,344.9L778.2,345.7L777.8,346.4L776.8,347L776.4,348.3L775.7,348.6L775.1,348.6L774.1,349L773.3,349.1L773.5,349.4L773.5,349.5L773.6,349.6L773.9,349.7L773.3,351L772.5,353.7L771.8,354.5L771.2,354.5L771,354L770.3,353.8L769.8,353.4L769.3,353.9L768.8,355.8L768.1,356.8L768.7,357.9L767.7,358.8L766.2,359.5L765.2,359.7L764.5,359.7L764.3,359.7L764.6,361.1L764.8,361.6L767.6,361.6L767.6,362.1L767,362.1L767,362.7L767.4,363.1L767.7,363.5L768.1,364.5L767.3,364.1L767,363.9L767.1,364.2L767.1,364.4L767.2,364.5L767.6,364.5L767.6,365.2L767,365.2L766.6,364.4L765.3,362.6L763.8,361.1L763.2,360.5L762.4,360.1L761.2,359.7L753.8,358.9L751.9,357.7L746.7,351.5L746.4,351.2L745.7,351.2L741.3,347.2L740.3,346.7L739.3,346.6L738.4,347.3L737.3,345L736.8,345.5L736.1,344.7L733.4,342.4L732.8,342.1L732.6,342L732.3,341.6L732,340.9L731.8,340.5L731.2,340.1L730.6,339.9L729.4,339.6L729.5,337.4L725.8,335.1L725.7,333.6L724.6,332.7L723.3,330.9L722.4,329L722.6,327.8L722.2,327.5L721.9,327.3L721.6,327L721.5,326.5L721,326.5L721,327.2L720.4,327.2L720.2,326.7L719.5,326L719.4,325.7L718.2,321.5L717.8,320.8L717.2,321.2L716.6,320L714.8,317.4L714.1,315.9L704,309.9L703.5,309L703.1,308.9L701.4,305.8L699.9,304.4L699,303.4L699,302.9L694,299.3L693.2,298.4L692.9,297.8L692.6,297.1L692,296L691.1,295L690.2,294.6L690.7,293.9L690.7,294.6L691.3,294.6L690.8,291.7L689.5,291.5L688.8,292.6L690.2,293.9L688.9,293.5L688.1,292.4L687.7,290.8L687.4,287.3L686.9,285.8L685.5,283.2L686.3,281.5L687.3,277.5L688.1,275.5L687.1,274.4L686.7,273.7L686.3,272L685.7,271.5L685,271.3L684.4,270.8L683.9,269.2L683.7,265.4L683.4,264.2L683.4,263.7L684.1,262.9L684.2,262.2L683.9,260.2L683.7,259.7L683.4,258.5L683.3,257.2L683.6,256.6L684.2,256L683.6,254.8L682.8,253.9L682.3,253.9L682.1,253L681.7,252.3L681,252.1L680.2,252.4L679.4,251.4L677.3,250.2L676.5,249.5L675.6,247.3L675.4,246.8L675.2,246.3L674.1,245.4L673.8,245L673.6,244.9L672.3,242.9L672,242.7L671.4,242.5L671.2,242.3L671,242.1L670.8,241.4L670.7,241.1L667.2,237.6L666,237.2L664.3,236.3L662.6,235.1L661.6,234L661.2,232.7L660.8,230.9L660.3,229.3L659.3,228.7L658.6,228.4L658,227.7L656.5,224L656.3,223.9L656.6,220.7L656.3,219.2L654.2,218.3L650.5,215.6L651.1,215.6L650.8,215L650.4,214.7L650,214.5L649.5,214.4L649.7,214.2L649.9,214.1L650,213.8L650,213.2L649.5,213.2L649.1,213.9L648.9,214.6L649,215.2L649.5,215.6L648.4,215.6L649,212.4L649.1,208.4L648.2,204.8L645.8,203.1L645.8,202.6L646.3,201.6L646.2,200.3L645.9,199.1L645.8,197.8L646,196.5L646.6,194.8L646.8,194L646.7,192.5L646.6,191.6L646.3,190.9L645.8,190.1L643.9,187.8L643.6,186.8L643.5,186.7L643.6,186.7L659.2,176L680.5,175L729.8,183.5L749.6,193.9L765.3,199.6L774.2,204.3L783.9,207.8L816.1,212.7ZM792.9,345.5L792.9,345.6L794.2,346.6L795.6,347.9L795.6,348.6L792.7,348.8L790,348.6L787.7,347.7L786.2,345.7L786.1,345.5L786.2,344.4L785.9,342.7L785.5,342L785.8,341.6L785.9,341.5L786.1,342L786.3,341.3L786.7,340.8L787.2,340.4L787.7,340.2L789,340.9L789.5,341.4L789.8,342L787.7,342.4L786.9,342.9L786.6,343.8L787,344.2L787.3,344.5L788.6,344.6L790.8,344.2L791.8,343.9L792,344.1L792.1,344.1L792.5,344.6L792.8,345.3L792.9,345.5ZM804.3,345.4L804.3,348.7L802.2,349.6L800.3,349L798.8,347.7L800.4,345.2L804.3,345.4Z"><title>South Sinai</title></path>
<path id="r-EG-PTS" data-de="Bur Saʿid" data-en="Port Said" data-cx="626.4" data-cy="70.6" d="M613,56.9L616.4,57.6L617.4,58.3L617.9,58.3L618.8,58.4L619,59.9L619.8,61L620.9,61.7L623.3,62.3L624.2,63.1L625.7,64.9L628.9,68L630.4,69L632.6,72.7L634.6,74.4L636.9,75.8L639.5,76.6L639.5,76.7L639.7,84.2L617.2,71.6L615.6,72.1L615.5,67.3L615.4,67.2L615.6,67.2L616,64.7L616,63.5L615.6,62L614.3,60.4L614.1,59.6L615.1,59L613.9,58.3L613,58L613,57.5L613,56.9Z"><title>Port Said</title></path>
<path id="r-EG-DK" data-de="ad-Daqahliyya" data-en="Dakahlia" data-cx="564.8" data-cy="77.6" d="M613,58L612.3,57.8L610.7,57.5L609.7,57.8L609.2,56.4L610.2,56.5L611.2,56.6L613,56.9L613,57.5L613,58ZM577.3,57.9L577.5,57.8L577.3,57.7L577.2,57.6L577.1,57.6L577,57.2L578.1,57.7L578.6,57.8L579.3,57.8L580,58.2L580.1,59L580.1,59.8L580.4,60.1L581.2,60.4L582.5,60.9L583.6,61.7L584.4,62.6L585,61.2L585.4,60.6L586,60.1L585.6,61L585.5,61.5L585.6,62L586,62.6L584.9,62.6L584.9,63.2L586,63.2L585.7,63.4L585.5,63.5L585.3,63.8L585.4,64.3L585.8,64.3L586,64.1L586.2,63.9L586.5,63.7L586.6,63.8L586.5,64.1L586.6,64.2L587,64.3L587,63.7L587.5,63.7L587.1,64.9L587.5,65.7L588.2,65.7L588.6,64.3L589.5,64.2L590.7,63L592.2,62L593.9,62.6L592.8,62.6L592.8,63.2L593.9,63.7L594.1,63.3L594.6,63L595,62.6L596.1,63.2L596.1,63.7L595.7,64.1L595.6,64.4L595.5,65.5L596.3,65.1L596.6,64.9L596.5,65.7L596.3,66.1L596,66.5L595.5,66.7L595.5,67.2L596,68L596,68.9L594.4,70.3L594.4,70.8L595.3,70.9L595.9,70.7L596.4,70.3L596.6,69.7L597.1,69.7L597.2,70.6L597.2,70.8L594.9,72.3L594.1,72.6L593.9,72.6L592.6,72.6L592.2,72.6L591.9,72.7L589.5,74.5L589.4,74.6L589.2,74.7L588.3,74.7L584.6,75.6L583.6,75.7L583.4,75.7L582.9,75.9L582.5,76L582.3,76L582.1,76L581.8,75.9L581.2,75.7L581.1,75.7L580.9,75.7L580.5,75.7L579.9,76L579.7,76.1L579.1,76.1L578.8,76.2L578.5,76.3L578.3,76.3L577.9,76.3L577.4,76.2L577,76.2L576.6,76.2L576.5,76.2L576.1,76.7L573.2,81.9L569.2,86.5L568.4,88L568.1,89L567.6,89.8L566.6,90.6L566,90.8L565.1,91L564.4,91.3L563.9,91.9L563.8,92.9L564.1,94.3L564,95.1L563.6,95.9L561.2,97.8L560.4,98.8L559.2,99.5L558.2,99.6L555.6,99.3L554.9,99.5L553.7,99.7L552.9,99.7L552.2,99.5L548.4,99.6L547,99.9L545.7,100.4L545,101L544.3,101.7L543.8,102.7L543.6,103.9L543.6,105.6L544.2,108.6L544.6,111.1L545.1,112.6L545.3,113.4L545.3,115.1L545,116.9L543.2,118.8L541.5,118.4L540.9,118.8L539.8,119.1L538.8,119.1L537.8,118.4L535.5,117.6L536.7,113.6L536.8,111.3L535.9,107.3L535.7,105L535.5,104.3L535.1,104.1L534.8,104.1L534.6,103.8L534.1,101.7L533.8,98L533,97.3L532.7,96.7L532.5,96L532.8,95.7L534.6,95.2L535.1,94.9L535.4,94.8L535.6,94.6L535.7,93.7L535.5,93.3L535.1,92.9L534.5,92.5L534.1,92.2L534.7,92.1L535,91.9L535.2,91.7L535.7,91.6L534.6,90.7L534.9,90L535.7,89.3L536.2,88.6L536.1,87.5L535.8,86.8L535.5,86.2L535.7,85.1L536.3,84.2L537.1,83.9L538,83.8L538.9,83.3L539.1,82.9L539.6,80.5L539.4,79.8L539.5,79.4L539.2,79.1L538.8,79.1L538.1,79.4L537.4,79.5L536.6,79.7L535.9,80.1L535.1,80.4L534.8,80.3L534.1,80.1L533.6,79.9L533.2,79.7L532.8,79.2L532.9,78.6L533.6,76.3L534.2,72.2L534.3,72L534.5,72.1L534.6,72.3L535.1,72.4L536.4,71.7L537,71.3L537.9,70.8L538.6,70.8L539.1,70.6L538.8,69.8L537.5,68.6L537.1,67.9L537,67.1L537.7,65.2L538,63.7L537.9,61.2L537.6,59.8L537.6,58.3L537.8,54.4L537.8,51.7L537.1,46.5L536.8,45.6L536.5,44.9L535.4,43.7L535.1,43.2L534.9,42.5L534.9,41.8L535.1,41L535.4,40.5L537.3,39L543,36.1L545.2,37L548.4,39.4L556.4,43L559,43.5L560.1,43.5L560.1,43.7L559.8,44.5L559.6,45L559.2,45.6L558.7,46.1L556,48L554.7,49.5L554.5,49.9L554.6,50.3L555.2,50.8L558.7,51.3L559.2,51.5L559.4,52.1L559.3,52.7L559.3,53.3L559.5,53.7L560,54L560.6,53.8L561.2,53.9L562.2,54.7L562.7,55L563.2,55L563.6,55.4L564.1,56.5L564.4,56.6L564.9,56.8L565.7,56.4L566.2,56L566.4,55.5L566.3,55.1L566.1,54.3L566.1,54.1L566.2,53.7L567.7,53.1L568.1,53.1L568.6,53.1L568.9,53.7L569.1,54.3L569.3,55L569,55.4L569,56.1L569.5,56.7L569.2,57.1L568.6,57.1L567.9,56.6L567.4,56.6L567.2,56.9L567.1,57.2L566.9,57.8L568.3,58.5L568.2,59.5L567.1,60.4L565.6,60.8L564.3,60.9L564.3,61.2L564.7,62L564.8,63.1L563.3,65L562,65.4L562.2,66.5L562.5,67.3L563.1,67.7L564,67.6L568.3,64L570.4,63L573.8,62.2L576.2,60.6L577.3,57.9ZM600.4,50.3L601.2,50.6L603.2,52.7L603.6,53.1L604.8,53.6L607.8,55.9L608.6,56.4L606.2,55.9L598.6,51.3L599,51.3L599.4,51.3L599.6,51.4L600.2,51.9L600,51.2L599.6,50.9L599.6,50.8L599.9,50.7L600.4,50.3Z"><title>Dakahlia</title></path>
<path id="r-EG-SHR" data-de="asch-Scharqiyya" data-en="Al Sharqia" data-cx="572.9" data-cy="111.4" d="M604.2,74.4L603.9,73.9L605.1,73.8L605.5,73.9L605.5,73.2L605.2,73.1L605.1,73.1L605.1,72.9L605,72.7L605.1,72.6L606,72L606.1,72.6L606.3,72.7L606.6,72.6L607.1,72.7L606.8,71.7L607.4,71.1L608.2,71L609.1,72.5L610.1,72.8L611.3,72.9L612.4,72.7L614.2,71.6L615.1,70.1L614.9,68.5L613.5,67.2L615.3,67.2L615.4,67.2L615.5,67.3L615.6,72.1L613.6,73L610.8,73.6L604.2,74.4ZM597.2,70.8L597.4,71.3L597.9,71.8L598.6,72L598.6,72.7L597.8,72.9L597.3,73.2L596.9,73.7L596.6,74.4L597,74.6L597.6,75L598.3,74.6L599,74.5L599.7,74.6L600.2,75L600.2,75.6L599.7,75.6L599.7,76.2L600.4,76.9L601.4,77.3L602.4,77.3L603.4,76.8L603.4,76.2L602.3,76.2L601.5,75.6L601,74.8L600.8,73.9L601.9,74.1L603.5,74.9L604.2,75L604.3,75.5L605.6,77.2L606.7,77.8L608,78.8L608.8,81.5L608.8,82.5L608.7,83.5L608.2,84.9L605.9,87.7L604.8,90.9L603.8,92.7L603.3,94.2L602.3,96.4L602.2,99.7L603.2,104.3L602.4,106.5L600.8,109.9L595.7,116.4L593.3,118.8L591.2,120.1L588.9,120.1L587,120.4L585.8,120.8L583.7,121.1L580.4,121.1L580.1,121L576.6,120L576.3,120L576.1,120L575.7,119.9L575.3,119.8L575.1,120L574.9,120.3L574.9,121.2L575.3,122.1L576.1,123.2L577,123.9L577.8,124.8L578.5,127L578.8,130.2L581.1,139.2L561.8,152L545.7,144.2L545,143.5L544.3,142.7L543.7,140.9L543,139.5L542.4,137.4L541.7,136.3L540.9,135.4L540.2,134.7L539.6,133.9L538.9,132.4L537.5,131.3L537,130.7L537.1,128.3L538.1,125.2L538.2,123.7L538.7,122.8L539.5,121.7L541.5,120.3L543.2,118.8L545,116.9L545.3,115.1L545.3,113.4L545.1,112.6L544.6,111.1L544.2,108.6L543.6,105.6L543.6,103.9L543.8,102.7L544.3,101.7L545,101L545.7,100.4L547,99.9L548.4,99.6L552.2,99.5L552.9,99.7L553.7,99.7L554.9,99.5L555.6,99.3L558.2,99.6L559.2,99.5L560.4,98.8L561.2,97.8L563.6,95.9L564,95.1L564.1,94.3L563.8,92.9L563.9,91.9L564.4,91.3L565.1,91L566,90.8L566.6,90.6L567.6,89.8L568.1,89L568.4,88L569.2,86.5L573.2,81.9L576.1,76.7L576.5,76.2L576.6,76.2L577,76.2L577.4,76.2L577.9,76.3L578.3,76.3L578.5,76.3L578.8,76.2L579.1,76.1L579.7,76.1L579.9,76L580.5,75.7L580.9,75.7L581.1,75.7L581.2,75.7L581.8,75.9L582.1,76L582.3,76L582.5,76L582.9,75.9L583.4,75.7L583.6,75.7L584.6,75.6L588.3,74.7L589.2,74.7L589.4,74.6L589.5,74.5L591.9,72.7L592.2,72.6L592.6,72.6L593.9,72.6L594.1,72.6L594.9,72.3L597.2,70.8Z"><title>Al Sharqia</title></path>
<path id="r-EG-IS" data-de="al-Ismaʿiliyya" data-en="Ismailia" data-cx="614.9" data-cy="111.3" d="M604.2,75L604.5,75L604.2,74.4L610.8,73.6L613.6,73L615.6,72.1L617.2,71.6L639.7,84.2L642.9,114.2L643,121.9L643.3,123.7L643.6,124.9L643.7,125.2L650.8,136.2L654.9,146.5L640.2,145.5L637.8,145.7L635.3,146.4L634.7,146.8L631.7,149.5L631.3,149.7L629.1,150.8L628.7,150.9L627.7,150.9L623.7,150.3L622.3,149.9L621.3,149.4L619,148L612.3,147.5L584.5,148.4L581.1,139.2L578.8,130.2L578.5,127L577.8,124.8L577,123.9L576.1,123.2L575.3,122.1L574.9,121.2L574.9,120.3L575.1,120L575.3,119.8L575.7,119.9L576.1,120L576.3,120L576.6,120L580.1,121L580.4,121.1L583.7,121.1L585.8,120.8L587,120.4L588.9,120.1L591.2,120.1L593.3,118.8L595.7,116.4L600.8,109.9L602.4,106.5L603.2,104.3L602.2,99.7L602.3,96.4L603.3,94.2L603.8,92.7L604.8,90.9L605.9,87.7L608.2,84.9L608.7,83.5L608.8,82.5L608.8,81.5L608,78.8L606.7,77.8L605.6,77.2L604.3,75.5L604.2,75Z"><title>Ismailia</title></path>
<path id="r-EG-DT" data-de="Dumyat" data-en="Damietta" data-cx="577.5" data-cy="51.6" d="M599.6,50.8L599.1,50.7L597.5,50.5L597.2,50.2L597,49.8L596.6,49.5L594.5,48.4L593.7,47.7L593.4,47.7L592.8,47.7L592.6,46.6L592.1,45.5L591.5,44.7L590.7,44.1L591.7,44.1L592.7,44L588.8,39.4L588,38L586.9,36.6L586,36.1L586,36.4L584.7,35.9L584.2,36.2L583.8,37L582.8,36.4L582.8,36.7L582.8,37.3L582.8,37.6L582.5,37.4L582,37.2L581.7,37L581.7,37.7L581.6,38.2L581.2,38.8L582.8,38.8L582.4,39.8L583.5,41.8L583.3,43L583.8,43L583.8,43.5L583.3,43.5L583.5,43.9L583.7,44.3L583.8,44.8L583.3,44.8L583,43.7L582.5,42.9L581.8,42.4L580.7,42.4L581,41.7L580.7,41.6L580.1,42.2L579.6,43.5L580.1,43.6L580.3,43.5L580.7,43L581.2,43.4L581.6,43.6L582.3,43.5L582.3,44.1L581.7,44.1L581.7,44.8L582,45.3L582.4,45.7L583,45.9L583.8,45.9L583.3,46.5L582.5,46.6L581.7,46.5L581.2,45.9L580.7,45.9L580.7,46.4L580.6,46.5L580.3,46.5L580.1,46.6L580.4,46.8L580.7,47.1L581.2,47.7L580.1,49.1L579.9,50L580.6,50.6L582.3,50.6L582.3,51.3L581.2,51.1L580.4,50.8L579.7,50.7L579,51.3L578.6,51.3L578,50.8L577.5,50.8L577.1,51.3L577,52.2L577.3,52.6L577.8,52.9L578,53.2L577,53.7L577,54.2L577.4,55L576.9,55.3L576,55.5L575.4,56.1L575.2,57.3L575.7,58L576.5,58.3L577.3,57.9L576.2,60.6L573.8,62.2L570.4,63L568.3,64L564,67.6L563.1,67.7L562.5,67.3L562.2,66.5L562,65.4L563.3,65L564.8,63.1L564.7,62L564.3,61.2L564.3,60.9L565.6,60.8L567.1,60.4L568.2,59.5L568.3,58.5L566.9,57.8L567.1,57.2L567.2,56.9L567.4,56.6L567.9,56.6L568.6,57.1L569.2,57.1L569.5,56.7L569,56.1L569,55.4L569.3,55L569.1,54.3L568.9,53.7L568.6,53.1L568.1,53.1L567.7,53.1L566.2,53.7L566.1,54.1L566.1,54.3L566.3,55.1L566.4,55.5L566.2,56L565.7,56.4L564.9,56.8L564.4,56.6L564.1,56.5L563.6,55.4L563.2,55L562.7,55L562.2,54.7L561.2,53.9L560.6,53.8L560,54L559.5,53.7L559.3,53.3L559.3,52.7L559.4,52.1L559.2,51.5L558.7,51.3L555.2,50.8L554.6,50.3L554.5,49.9L554.7,49.5L556,48L558.7,46.1L559.2,45.6L559.6,45L559.8,44.5L560.1,43.7L560.1,43.5L562.1,43.4L573.7,40.2L580.7,36.4L583.5,35.6L586.5,35.6L588.9,36.8L590,39.1L590.4,40.2L592.9,43.3L593.9,45.8L595.1,47.3L597.6,49.5L598.4,49.8L600.3,50.2L600.4,50.3L599.9,50.7L599.6,50.8Z"><title>Damietta</title></path>
<path id="r-EG-KFS" data-de="Kafr asch-Schaich" data-en="Kafr el-Sheikh" data-cx="504.6" data-cy="56.4" d="M469.4,43.5L467.3,42L466.2,39.4L466.7,37.9L469.5,39.4L471.6,40.9L473.9,41.9L476.7,42.2L480.1,41.8L490.9,39L513.9,31.1L513.9,31.7L512.7,31.9L505.6,34.5L499.6,37.7L495.5,39.6L492.2,41.8L491.8,42L490.8,42.1L490.1,42.4L487.2,44.3L485.9,44.8L482.8,45L482.1,45.4L481.8,45.4L480.6,47.1L480.6,47.7L482.2,48.1L482.7,48.2L483.2,47.7L483.8,47.7L484.9,48.4L487.1,48.3L489.2,47.7L490.1,46.8L490.8,45.4L492.4,45.8L494,47.1L494.9,48.3L495.4,48.3L495.9,46.8L497.1,45.3L498.5,44.1L499.7,43.5L500.4,43.3L501.2,43.7L502.2,44.3L503.4,44.8L504.1,44.7L505.1,44.4L506.2,44.3L507.1,44.8L506.9,44.9L506.7,44.9L506.5,45L506.6,45.4L507.6,45.6L508.9,45.2L510.3,44.4L511.3,43.5L511.1,43.5L510.9,43.5L510.8,43.4L510.8,43L511.1,42.8L511.1,42.7L511.1,42.6L511.3,42.4L513.9,43.5L514.4,44.1L515.2,43.6L515.7,42.9L516.6,41.1L516.1,40.4L516.4,39.8L517.6,38.8L517.8,38.3L517.8,37.8L517.7,37.4L518.2,37L518.6,36.9L521.4,37.1L522.2,37.4L523.5,38.2L523.7,38.6L523.6,39L523.8,39.3L524.5,39.4L525.1,39.2L525.6,38.8L525.9,38.3L524.5,37.6L525,37.3L525.5,37.1L526,37.2L524.5,35.2L521.4,33L517.7,31.5L514.2,31.3L515,30.9L516.9,30.3L523.5,29.3L525.9,29.6L533,31.7L543,36.1L537.3,39L535.4,40.5L535.1,41L534.9,41.8L534.9,42.5L535.1,43.2L535.4,43.7L536.5,44.9L536.8,45.6L537.1,46.5L537.8,51.7L537.8,54.4L537.6,58.3L537.6,59.8L537.9,61.2L538,63.7L537.7,65.2L537,67.1L537.1,67.9L537.5,68.6L538.8,69.8L539.1,70.6L538.6,70.8L537.9,70.8L537,71.3L536.4,71.7L535.1,72.4L533.5,71L533.1,70.7L532.3,70.5L531.5,70.4L530.6,70.5L529.7,70.9L528.1,72.4L527.3,72.4L525.5,71.6L521.4,71.4L520.8,72.2L520.7,73L520.7,73.9L520.8,75.3L520.7,75.8L520.5,76.5L520.2,77.3L519.7,79L519,79.7L517.8,80.3L512.2,80.6L511.5,80.8L510.8,81.3L509.9,81.7L509.6,81.9L509.5,82.1L509.7,82.4L509.4,82.5L508.9,82.8L507.6,82.6L506.5,82.8L505.2,83.3L504.3,83.4L499.7,81.8L499.5,81.7L498.9,81.5L498.4,81.6L497.7,83.3L496.9,82.1L495.6,80.8L494.9,80.3L494.7,79.6L494.9,78.3L494.9,77.4L494.6,76.5L493.5,75.1L493.3,74.7L492.7,74L489,72L485.5,67L484.9,66.3L484,66L483.6,65.8L482.7,64.7L482.1,64.3L481.6,64.4L481.2,64.6L481,64.9L480.6,64.9L480.6,65L479.3,64.9L479.3,64.4L478.8,62.1L478.4,61.3L477.9,61.3L477.9,62L477.4,62L477.3,61.7L477.2,61.6L477.2,61.5L476.9,61.3L476.9,60.8L477.7,59.9L478.4,58.5L478.9,56.9L479,55.1L478.9,54.2L478.7,53.5L478.4,53L477.9,52.5L477.6,52.3L477,51.9L476.6,51.6L476,51.2L475.6,51.6L475.3,52.2L475.3,52.5L474.6,52.2L474.1,51.8L473.8,51.2L473.7,50.4L473.3,49.5L472.6,49.1L471.9,48.9L471.6,48.6L471.6,46.5L471.5,44.8L470.8,43.7L469.5,43.5L469.4,43.5Z"><title>Kafr el-Sheikh</title></path>
<path id="r-EG-BH" data-de="al-Buhaira" data-en="Beheira" data-cx="458.2" data-cy="108.1" d="M446.3,57.3L449.2,58.1L452,58.4L451.4,58.8L450.5,59.8L449.9,60.1L449.8,60.6L449.9,60.7L450.2,60.7L450.4,60.8L449.5,61.4L449.8,62.1L450.6,62.7L451.4,63.2L454.7,61.3L454.3,62.3L454.7,62.8L455.3,62.9L455.7,62.9L456,62.3L458.3,60.1L458.6,60.6L458.9,60.8L459.1,60.3L459.2,60L459.4,59.7L459.4,59L459.9,59L459.9,59.9L460,60.6L460.4,61.1L461,61.3L461.3,60.8L462.1,58.4L460.9,57.8L459.8,58.1L458.7,58.7L457.3,59L457.3,58.4L457.5,58.4L458.1,58.5L458.3,58.4L458.3,57.8L457.1,58.2L452.5,58.4L452.5,57.8L455.4,57.1L458.1,55.7L462.8,51.6L464.5,48.9L465.6,45.5L465.9,41.8L465.2,38.8L465.8,38.8L466.2,40.5L466.8,42.1L467.9,43.3L469.5,43.5L469.4,43.5L469.5,43.5L470.8,43.7L471.5,44.8L471.6,46.5L471.6,48.6L471.9,48.9L472.6,49.1L473.3,49.5L473.7,50.4L473.8,51.2L474.1,51.8L474.6,52.2L475.3,52.5L475.3,52.2L475.6,51.6L476,51.2L476.6,51.6L477,51.9L477.6,52.3L477.9,52.5L478.4,53L478.7,53.5L478.9,54.2L479,55.1L478.9,56.9L478.4,58.5L477.7,59.9L476.9,60.8L476.9,61.3L477.2,61.5L477.2,61.6L477.3,61.7L477.4,62L477.9,62L477.9,61.3L478.4,61.3L478.8,62.1L479.3,64.4L479.3,64.9L480.6,65L480.6,64.9L481,64.9L481.2,64.6L481.6,64.4L482.1,64.3L482.7,64.7L483.6,65.8L484,66L484.9,66.3L485.5,67L489,72L492.7,74L493.3,74.7L493.5,75.1L494.6,76.5L494.9,77.4L494.9,78.3L494.7,79.6L494.9,80.3L495.6,80.8L496.9,82.1L497.7,83.3L496.7,83.9L496.9,84.4L498.7,87.2L499.1,88.6L498.4,89.7L497.4,90.9L497.2,91.8L498.9,92.2L499.7,92.5L500,93.3L499.9,94.3L499.7,95.2L499.3,95.7L497.5,96.9L499.9,96.4L501,96.4L501.8,96.9L501.6,97.7L500.7,98.2L498.6,98.7L498.2,99.2L497.4,100.2L496.9,101.4L497,102.3L498.1,102.7L499.1,102.4L499.9,102.4L500.2,103.8L499.8,104.1L499,105.3L498.5,106.5L498.9,107.1L499.6,107.4L500,108.4L500.2,109.6L500.4,113.3L500.8,115.4L501.8,116.9L503.4,117.7L503.4,118.3L502.5,118.7L502.1,119.3L502.1,120L502.3,120.7L502.7,121.2L503.2,121.1L503.8,121L504.4,121.2L504.4,122.5L504,123.6L503.4,124.6L502.9,125.4L503.9,127.4L504.3,128.4L504.4,129.3L504.3,130.1L503.9,131.3L503.7,132.5L503.9,133.8L506.1,135.3L506.6,136.2L503.1,137.2L502.5,138.4L503,139.6L467.2,171L464.1,177.3L413.3,146.7L409.7,139.3L414.3,128.5L417.7,125L430.4,119.2L433.1,117.3L435.6,114.7L437.6,111.9L439.7,108.1L438.6,104.8L437.5,102.7L433.9,98.5L429,90.7L428.4,89.1L428.2,87.2L429.3,85.1L430.7,83.5L431.7,82L431.7,81.5L431,79.2L429.5,78.3L429,77.4L428.7,77L428.6,76.7L428.5,76.4L428.4,75.7L428.4,75.4L428.5,75.1L428.7,75L429,74.6L433.4,72.7L438.7,69.7L439.6,69.1L441.6,66.2L446.1,57.8L446.3,57.3Z"><title>Beheira</title></path>
<path id="r-EG-ALX" data-de="al-Iskandariyya" data-en="Alexandria" data-cx="427" data-cy="96.2" d="M407.6,81.1L408.1,80.9L408.6,80L409.2,79.4L420.6,71.4L421.8,69.1L423.9,69.6L426.2,68.6L429.8,65.5L429.1,64.5L428.8,64.6L428.1,64.9L428.6,64.1L429.2,63.4L429.8,63.4L430.2,64.3L430.8,64.3L431.7,63.4L435.3,60.3L436.4,59.6L437.4,59.1L438.9,57.1L439.5,56.6L440.6,56.4L441.2,55.9L441.7,55.3L442.5,54.8L442.2,54.7L442,54.7L441.9,54.6L441.9,54.2L444.1,53.1L443.8,55.5L446,57.2L446.3,57.3L446.1,57.8L441.6,66.2L439.6,69.1L438.7,69.7L433.4,72.7L429,74.6L428.7,75L428.5,75.1L428.4,75.4L428.4,75.7L428.5,76.4L428.6,76.7L428.7,77L429,77.4L429.5,78.3L431,79.2L431.7,81.5L431.7,82L430.7,83.5L429.3,85.1L428.2,87.2L428.4,89.1L429,90.7L433.9,98.5L437.5,102.7L438.6,104.8L439.7,108.1L437.6,111.9L435.6,114.7L433.1,117.3L430.4,119.2L417.7,125L414.3,128.5L409.7,139.3L407.6,81.2L407.6,81.1Z"><title>Alexandria</title></path>
<path id="r-EG-C" data-de="al-Qahira" data-en="Cairo" data-cx="560.6" data-cy="164.2" d="M584.5,148.4L584.6,153.3L586.6,161.8L588.3,179.5L587.7,187.3L538.5,189.3L537.8,188.2L538.4,187.2L538.9,185.3L538.9,182.1L538.2,178.5L537.3,175.2L536.2,172.9L534.2,170.7L533.4,169.4L533,167.8L534.3,158.6L539.6,156.6L539.9,156.5L540,156.3L540.2,156.1L540.4,155.8L540.5,155.4L540.7,154.7L540.8,154.5L540.9,154.3L541.1,154.3L541.4,154.3L541.9,154.5L542.2,154.7L542.6,154.8L543,154.7L544,154.3L544.4,154L546.1,153.2L549.9,152.5L561.8,152L581.1,139.2L584.5,148.4Z"><title>Cairo</title></path>
<path id="r-EG-GZ" data-de="al-Dschiza" data-en="Giza" data-cx="410" data-cy="254.5" d="M419.3,275.9L406.8,308.4L397,321.2L385.3,329.8L349.5,348.5L344,352.6L340.1,358.4L334.6,370.4L232,370.4L265.4,299.8L267.5,296.6L271.2,292.6L276.9,290.3L338.2,274.6L353.8,263L404,213.3L464.1,177.3L467.2,171L503,139.6L504.4,140.3L506.9,138.6L508.9,139.1L509.5,139.4L509.6,140.2L509.6,141.2L509.8,142L510.3,143.2L510.5,143.3L511.3,143.6L512.1,143.8L513,144.2L513.1,144.5L513.6,144.8L513.8,145.7L513.9,147.7L514.3,149L515.3,149.9L516.6,150.3L518.2,150.4L518.8,150.1L519.9,149.3L520.6,149.1L521.2,149.3L522.2,150.2L523.1,150.6L525.1,152.1L526,152.6L527.2,153.3L528.8,155L529.8,155.5L532.8,155.8L533.6,156.3L534,156.9L534.3,157.8L534.3,158.6L533,167.8L533.4,169.4L534.2,170.7L536.2,172.9L537.3,175.2L538.2,178.5L538.9,182.1L538.9,185.3L538.4,187.2L537.8,188.2L538.5,189.3L587.7,187.3L588,191.3L583.1,257.8L554.6,249.4L553.2,248.7L550.9,247.3L549.4,246.2L546.3,243L545.4,241.9L545.1,241.2L544,238.8L543.4,238L542.9,237.4L541.3,236L535.7,229.2L535.9,228.2L535.9,227.5L535.9,226.6L535.7,225.7L535.3,224.8L534.6,223.6L534.1,222.9L533.4,222.4L532.7,221.9L531.6,221.3L529.3,220.6L527.3,220.3L523.8,220.4L518.3,196.2L516.1,194L512.5,191.3L496.3,193.2L480.1,200.5L466.1,208.6L460.4,213.1L424.4,247.4L421.2,269.3L419.3,275.9Z"><title>Giza</title></path>
<path id="r-EG-MN" data-de="al-Minya" data-en="Minya" data-cx="423.7" data-cy="324.8" d="M334.6,370.4L340.1,358.4L344,352.6L349.5,348.5L385.3,329.8L397,321.2L406.8,308.4L419.3,275.9L498.1,274L499.4,275.5L511.6,279.7L509.2,300.8L508.8,302.6L508.3,303.6L504.5,310L502.3,315.7L501.9,317.7L501.7,319.3L501.8,320.2L502.6,324.1L502.9,327.8L503.1,328.8L503.4,329.9L507.6,338L508.8,341.4L509.2,343.8L509.8,352L510.3,353.9L512.1,358.5L512.4,360.2L512.8,362.9L512.8,364.9L512.8,366.3L511.4,374.5L503.1,375.5L502.3,375.4L497.8,373.6L497.3,373.6L496.6,373.7L494.1,374.2L492.6,374.2L490.5,373.3L490.9,372.3L491.8,370.4L334.6,370.4Z"><title>Minya</title></path>
<path id="r-EG-FYM" data-de="al-Fayyum" data-en="Faiyum" data-cx="474.1" data-cy="224.2" d="M523.8,220.4L520.7,223.5L517.7,229.3L514.6,232.6L513.1,235.4L510.7,239L505.4,244.6L498.9,248L466.8,256.8L463.1,257.1L458,253.5L424.4,247.4L460.4,213.1L466.1,208.6L480.1,200.5L496.3,193.2L512.5,191.3L516.1,194L518.3,196.2L523.8,220.4Z"><title>Faiyum</title></path>
<path id="r-EG-BNS" data-de="Bani Suwaif" data-en="Beni Suef" data-cx="477.6" data-cy="250" d="M463.1,257.1L466.8,256.8L498.9,248L505.4,244.6L510.7,239L513.1,235.4L514.6,232.6L517.7,229.3L520.7,223.5L523.8,220.4L527.3,220.3L529.3,220.6L531.6,221.3L532.7,221.9L533.4,222.4L534.1,222.9L534.6,223.6L535.3,224.8L535.7,225.7L535.9,226.6L535.9,227.5L535.9,228.2L535.7,229.2L535.3,232.9L535.6,236.3L535.5,237.5L534.9,239.1L534.1,240.9L532.7,244.5L531.7,246.4L530.7,248L527.2,251.6L525,254.5L520.6,261.6L515.4,268.4L513.8,271.4L512.3,275.4L511.8,277.9L511.6,279.7L499.4,275.5L498.1,274L419.3,275.9L421.2,269.3L424.4,247.4L458,253.5L463.1,257.1Z"><title>Beni Suef</title></path>
<path id="r-EG-MNF" data-de="al-Minufiyya" data-en="Monufia" data-cx="518.2" data-cy="129.9" d="M518.2,150.4L516.6,150.3L515.3,149.9L514.3,149L513.9,147.7L513.8,145.7L513.6,144.8L513.1,144.5L513,144.2L512.1,143.8L511.3,143.6L510.5,143.3L510.3,143.2L509.8,142L509.6,141.2L509.6,140.2L509.5,139.4L508.9,139.1L506.9,138.6L504.4,140.3L503,139.6L502.5,138.4L503.1,137.2L506.6,136.2L506.1,135.3L503.9,133.8L503.7,132.5L503.9,131.3L504.3,130.1L504.4,129.3L504.3,128.4L503.9,127.4L502.9,125.4L503.4,124.6L504,123.6L504.4,122.5L504.4,121.2L503.8,121L503.2,121.1L502.7,121.2L502.3,120.7L502.1,120L502.1,119.3L502.5,118.7L503.4,118.3L503.4,117.7L501.8,116.9L500.8,115.4L500.4,113.3L500.2,109.6L501.2,109L502.2,108.4L503,108.2L506.9,107.7L507.7,107.2L508.6,106.8L509.4,106.6L510.3,106.5L511.2,106.5L512,106.9L513.3,108.3L513.9,108.6L514.6,108.7L515.3,109.6L515.7,109.7L517,109.5L517.7,109.6L518.1,109.7L518.7,109.6L519.1,109.5L520.4,108.9L520.6,108.9L520.9,109.2L522.5,111.8L522.7,112.3L522.9,112.6L523.3,112.5L524.5,112.3L527.2,112.6L528.1,113L529.2,113.5L529.8,113.9L530.3,114.4L530.5,115L530.8,115.6L531.5,116.1L533.1,117.5L533.7,118.5L535.3,119.6L536.2,120.7L535.2,121.1L534.5,120.7L534,120.2L533.5,120.1L533.1,120.7L533,121.6L533.1,122.5L533.5,123.1L533.5,123.7L531.4,125.4L530.2,125.9L530.1,126L529.8,126.2L529.8,126.8L529.9,127.4L529.8,127.8L529.2,128.3L527.9,128.6L527.2,129L526.4,129.9L526.3,130.6L526.4,131.4L526.1,132.6L525.6,133.6L525.4,133.5L525.1,132.9L524.5,132.6L523.8,132.5L523.9,132.8L524,133.8L524,134.4L524.2,134.9L524.2,135.4L523.5,136.1L522.7,136.4L522,136.5L520.3,136.1L521.1,137.3L523.1,138.7L524,139.7L524,140.6L523.7,144.5L524.3,145.1L524.5,146.4L524.5,148.9L524.9,149.9L526.3,151.8L527.2,153.3L526,152.6L525.1,152.1L523.1,150.6L522.2,150.2L521.2,149.3L520.6,149.1L519.9,149.3L518.8,150.1L518.2,150.4Z"><title>Monufia</title></path>
<path id="r-EG-KB" data-de="al-Qalyubiyya" data-en="Qalyubia" data-cx="541" data-cy="138.1" d="M561.8,152L549.9,152.5L546.1,153.2L544.4,154L544,154.3L543,154.7L542.6,154.8L542.2,154.7L541.9,154.5L541.4,154.3L541.1,154.3L540.9,154.3L540.8,154.5L540.7,154.7L540.5,155.4L540.4,155.8L540.2,156.1L540,156.3L539.9,156.5L539.6,156.6L534.3,158.6L534.3,157.8L534,156.9L533.6,156.3L532.8,155.8L529.8,155.5L528.8,155L527.2,153.3L526.3,151.8L524.9,149.9L524.5,148.9L524.5,146.4L524.3,145.1L523.7,144.5L524,140.6L524,139.7L523.1,138.7L521.1,137.3L520.3,136.1L522,136.5L522.7,136.4L523.5,136.1L524.2,135.4L524.2,134.9L524,134.4L524,133.8L523.9,132.8L523.8,132.5L524.5,132.6L525.1,132.9L525.4,133.5L525.6,133.6L526.1,132.6L526.4,131.4L526.3,130.6L526.4,129.9L527.2,129L527.9,128.6L529.2,128.3L529.8,127.8L529.9,127.4L529.8,126.8L529.8,126.2L530.1,126L530.2,125.9L531.4,125.4L533.5,123.7L533.5,123.1L533.1,122.5L533,121.6L533.1,120.7L533.5,120.1L534,120.2L534.5,120.7L535.2,121.1L536.2,120.7L535.3,119.6L535.5,117.6L537.8,118.4L538.8,119.1L539.8,119.1L540.9,118.8L541.5,118.4L543.2,118.8L541.5,120.3L539.5,121.7L538.7,122.8L538.2,123.7L538.1,125.2L537.1,128.3L537,130.7L537.5,131.3L538.9,132.4L539.6,133.9L540.2,134.7L540.9,135.4L541.7,136.3L542.4,137.4L543,139.5L543.7,140.9L544.3,142.7L545,143.5L545.7,144.2L561.8,152Z"><title>Qalyubia</title></path>
<path id="r-EG-GH" data-de="al-Gharbiyya" data-en="Gharbia" data-cx="518.1" data-cy="95" d="M515.7,109.7L515.3,109.6L514.6,108.7L513.9,108.6L513.3,108.3L512,106.9L511.2,106.5L510.3,106.5L509.4,106.6L508.6,106.8L507.7,107.2L506.9,107.7L503,108.2L502.2,108.4L501.2,109L500.2,109.6L500,108.4L499.6,107.4L498.9,107.1L498.5,106.5L499,105.3L499.8,104.1L500.2,103.8L499.9,102.4L499.1,102.4L498.1,102.7L497,102.3L496.9,101.4L497.4,100.2L498.2,99.2L498.6,98.7L500.7,98.2L501.6,97.7L501.8,96.9L501,96.4L499.9,96.4L497.5,96.9L499.3,95.7L499.7,95.2L499.9,94.3L500,93.3L499.7,92.5L498.9,92.2L497.2,91.8L497.4,90.9L498.4,89.7L499.1,88.6L498.7,87.2L496.9,84.4L496.7,83.9L497.7,83.3L498.4,81.6L498.9,81.5L499.5,81.7L499.7,81.8L504.3,83.4L505.2,83.3L506.5,82.8L507.6,82.6L508.9,82.8L509.4,82.5L509.7,82.4L509.5,82.1L509.6,81.9L509.9,81.7L510.8,81.3L511.5,80.8L512.2,80.6L517.8,80.3L519,79.7L519.7,79L520.2,77.3L520.5,76.5L520.7,75.8L520.8,75.3L520.7,73.9L520.7,73L520.8,72.2L521.4,71.4L525.5,71.6L527.3,72.4L528.1,72.4L529.7,70.9L530.6,70.5L531.5,70.4L532.3,70.5L533.1,70.7L533.5,71L535.1,72.4L534.6,72.3L534.5,72.1L534.3,72L534.2,72.2L533.6,76.3L532.9,78.6L532.8,79.2L533.2,79.7L533.6,79.9L534.1,80.1L534.8,80.3L535.1,80.4L535.9,80.1L536.6,79.7L537.4,79.5L538.1,79.4L538.8,79.1L539.2,79.1L539.5,79.4L539.4,79.8L539.6,80.5L539.1,82.9L538.9,83.3L538,83.8L537.1,83.9L536.3,84.2L535.7,85.1L535.5,86.2L535.8,86.8L536.1,87.5L536.2,88.6L535.7,89.3L534.9,90L534.6,90.7L535.7,91.6L535.2,91.7L535,91.9L534.7,92.1L534.1,92.2L534.5,92.5L535.1,92.9L535.5,93.3L535.7,93.7L535.6,94.6L535.4,94.8L535.1,94.9L534.6,95.2L532.8,95.7L532.5,96L532.7,96.7L533,97.3L533.8,98L534.1,101.7L534.6,103.8L534.8,104.1L535.1,104.1L535.5,104.3L535.7,105L535.9,107.3L536.8,111.3L536.7,113.6L535.5,117.6L535.3,119.6L533.7,118.5L533.1,117.5L531.5,116.1L530.8,115.6L530.5,115L530.3,114.4L529.8,113.9L529.2,113.5L528.1,113L527.2,112.6L524.5,112.3L523.3,112.5L522.9,112.6L522.7,112.3L522.5,111.8L520.9,109.2L520.6,108.9L520.4,108.9L519.1,109.5L518.7,109.6L518.1,109.7L517.7,109.6L517,109.5L515.7,109.7Z"><title>Gharbia</title></path>
<path id="r-EG-SHG" data-de="Sauhadsch" data-en="Sohag" data-cx="578" data-cy="468.4" d="M614.1,503.5L613,503.4L611.2,502.4L609.5,501.1L608,499.3L605.7,495.5L604.7,494.5L603.8,494.3L603,494.7L602.5,495L600.8,497.3L599.8,497.9L598.6,498.3L594.2,498.9L593.4,499.3L592.5,499.8L589.5,502.7L557.2,461.9L549.8,455.6L539.1,442.3L546.3,438.4L547.2,437.7L547.9,437L548.4,436.3L548.9,435.4L549.7,434.3L550.3,433.7L550.8,433.4L551.6,433.4L552.6,433.8L554,435.1L554.6,435.9L555.1,436.8L556.4,439.6L557,440.7L557.8,441.6L558.6,442.3L559.8,442.8L560.7,443.1L563.8,442.7L576.7,451.7L580.1,455.1L581.3,458L583.1,461L585.1,463.8L586,465.4L586.4,466.7L586.8,470.6L587,471.6L588.1,473.9L590,476.8L591.2,478.4L592.3,479.5L593.7,480.5L595.7,481.6L598,482.4L603,483.6L604,484L605.2,484.8L606,485.8L606.7,486.8L608.8,490.7L617,501.1L614.9,503.4L614.1,503.5Z"><title>Sohag</title></path>
<path id="r-EG-KN" data-de="Qina" data-en="Qena" data-cx="627.3" data-cy="540.4" d="M603.8,494.3L604.7,494.5L605.7,495.5L608,499.3L609.5,501.1L611.2,502.4L613,503.4L614.1,503.5L614.9,503.4L617,501.1L619.3,500.6L634.9,493L638.9,492.3L641.2,492.1L646.1,492.4L652.1,494.2L653.6,495L655.5,496.3L658.2,498.8L661.2,503L662.3,504.9L663.1,506.9L664.2,511L665,517.3L665.1,520.4L665,522.4L664.6,524.8L663.9,527.1L659.9,535.3L658.5,537.4L656.8,539.3L649.3,546.1L644.2,551.9L643.1,553.6L642.2,555.3L641.3,558.2L641.2,559.4L641.3,564L642.7,570.5L643.5,572.9L644.5,574.8L645.2,575.7L647.6,578L647.1,580L647,584.6L646.8,585.9L646.5,586.7L645.7,587.3L645.1,587.6L643.7,588.8L636.4,583.1L634.8,581.3L634,580.2L633.3,578.9L632.2,575.7L630.1,563.3L627.5,552.8L627.3,551.5L627.4,549.7L627.6,548.8L628,547.9L629.1,546.2L631.4,543.8L642,535.3L643.5,533.6L644.1,532.8L644.5,531.9L644.9,531L645.4,529.1L646,525L646.3,524L646.7,523L649.9,517.3L650.7,515.6L651,514.7L651.2,513.5L651.2,511.8L650.9,510L650.5,509.1L650,508.2L649.4,507.3L648.6,506.6L647.8,506L647,505.6L645.9,505.4L644.5,505.4L641,505.8L638.9,506.4L621.1,514.8L614.3,516.8L610.5,517.4L608.3,517.3L606.9,517L605.8,516.7L603.9,515.8L602.5,515L601.8,514.3L589.5,502.7L592.5,499.8L593.4,499.3L594.2,498.9L598.6,498.3L599.8,497.9L600.8,497.3L602.5,495L603,494.7L603.8,494.3ZM643.5,542.2L644.1,540.9L644.8,539.7L644.9,539L643.4,538.2L641.5,541.9L642.4,542.1L643.5,542.2Z"><title>Qena</title></path>
<path id="r-EG-AST" data-de="Asyut" data-en="Asyut" data-cx="527" data-cy="408.2" d="M490.5,373.3L492.6,374.2L494.1,374.2L496.6,373.7L497.3,373.6L497.8,373.6L502.3,375.4L503.1,375.5L511.4,374.5L511.1,382.2L511.2,384.7L511.5,385.9L512.2,388.3L512.7,389.5L513.3,390.4L514,391.3L514.7,392L521.5,395.9L529.3,399.3L534.2,400.8L535.3,401.4L536.5,402.2L538.2,403.7L539.2,404.9L539.9,406.2L541.1,409.7L541.7,411L542.3,411.7L542.8,412.3L544.6,413.4L547.8,416L552.6,421L553.7,422.4L555.5,425.4L563.8,442.7L560.7,443.1L559.8,442.8L558.6,442.3L557.8,441.6L557,440.7L556.4,439.6L555.1,436.8L554.6,435.9L554,435.1L552.6,433.8L551.6,433.4L550.8,433.4L550.3,433.7L549.7,434.3L548.9,435.4L548.4,436.3L547.9,437L547.2,437.7L546.3,438.4L539.1,442.3L529.4,422.7L528.5,421.3L524.8,417.4L523.4,416.2L522.1,415.3L515,412.4L511.3,410.1L501,400.5L499.8,399L498.4,397.1L491.3,381.8L490.5,379.1L490.2,376.7L490.5,373.3Z"><title>Asyut</title></path>
<path id="r-EG-LX" data-de="al-Uqsur" data-en="Luxor" data-cx="643.2" data-cy="540.2" d="M643.4,538.2L644.9,539L644.8,539.7L644.1,540.9L643.5,542.2L642.4,542.1L641.5,541.9L643.4,538.2Z"><title>Luxor</title></path>
</g>
</svg>
