<svg xmlns="http://www.w3.org/2000/svg" viewBox="0 0 1000 1025.8" class="regionskarte" preserveAspectRatio="xMidYMid meet" data-land="GR" data-minlon="19.3681" data-maxlon="28.4982" data-minlat="34.6069" data-maxlat="41.9585" data-umbruch="0">
<!-- Umrisse: Natural Earth (ne_10m_admin_1_states_provinces),
     gemeinfrei. Erzeugt von tools/regionen_bauen.py, nicht von
     Hand aendern. -->
<g class="regionen">
<path id="r-GR-C" data-de="Westmakedonien" data-en="West Macedonia" data-cx="228.6" data-cy="222.8" d="M169.1,209.2L171.8,207.4L172.9,205.9L173.2,205.2L173.6,204.4L173.5,202.7L174.1,201.4L175.3,200.6L176.7,200.3L177.5,198.8L178.5,198L179.5,197.5L180.2,196.7L180.8,195.3L181,194.2L181,193L181.2,191.4L182.4,186.6L182.8,184L182.6,181.3L181.9,178.8L180.8,176.9L177.9,173.4L174.7,170.6L174.3,169.5L174.1,168.4L173.6,167.4L172.6,166.5L174.5,164.3L175.1,161.4L174.9,154.8L191,154.1L198.8,151.9L201.6,152L205.7,152.8L207.3,153.2L211.1,153.2L214.8,152.4L216.5,151.5L220.5,147.6L223.1,146.5L225.8,146.5L234.1,147.6L234.5,147.6L239.4,151.8L242.4,152.4L243.4,151.8L246,149.3L247.1,148.5L247.7,148.4L249.3,148.5L249.8,148.3L250.2,147.5L250.5,145.7L250.7,145.2L253.8,143.8L259.5,145L261.7,144.6L262.4,149.4L266.1,151.2L267.8,152.9L267.5,154.8L265.6,156.4L263.4,157.2L259.3,158.1L255.3,157.9L254.6,159.7L256.3,161.5L258,167.9L259.2,170L263,171.3L263.1,173.2L260.4,179.3L262.3,180L264.3,179.9L268.8,181.4L270.9,181.3L272.7,182.4L275.1,182.4L272.4,188.5L272.5,192.3L275.5,196.2L274,199.8L274.1,201.7L275.8,203.1L278.2,207.7L279.9,209.5L284,211.3L287.5,213.8L287.6,215.7L289.4,216.7L295.5,215.8L296.4,217.8L296,219.7L296.5,221.7L300.1,225.7L300.6,229.6L301.9,231.7L307,234.1L305.3,237.2L304.9,241.4L303.4,243L299.1,245L298.3,247.2L298.7,249.9L296.1,253L295.1,256.6L291.8,261.8L286.5,267.1L285.5,270.8L283.2,274.6L278.9,277L273.7,281.9L271.5,283.5L275,285.6L275.9,287.6L275.5,289.5L276.4,293.4L276.1,295.3L274.7,296.6L269,295.7L260.8,297.5L256.9,297.3L245.9,294.4L229.7,292.3L225.5,294L223.3,295.6L220.7,299L218.6,300.2L214,301.8L212,301.9L210.6,300.5L210.6,298.6L203.4,294.5L199.5,294.3L193.3,295.7L189.1,297.3L187.3,296.7L185.2,292.5L183.7,284.7L180.3,281.5L183.2,275.8L183.4,271.7L181.7,270.3L177.4,272.3L174.5,268.5L173.1,262.5L171.3,261.1L174.1,256.2L174.5,254L173,248L170.1,241.9L165.4,236.3L163.3,229.8L161.6,227.7L157.5,228.6L156.1,230.3L153.9,231.6L151.9,231.7L150.6,230.6L150.2,230.1L151.9,226L153.1,223.8L153.6,222.7L154,221L153.9,219.5L153.4,215.7L153.6,214.4L154.6,213.4L156.9,212.9L157.8,212.4L158.7,210.9L159.2,209.6L159.8,208.4L161.2,207.5L164.1,207.4L166.7,208.6L169.1,209.2Z"><title>West Macedonia</title></path>
<path id="r-GR-D" data-de="Epirus" data-en="Epirus" data-cx="145.1" data-cy="323.7" d="M129.8,264.2L132.5,263.9L136.6,262L139.3,260.7L140.1,260.2L140.6,259.2L142.2,254.7L142.4,254L141.9,251.4L141.8,250.7L141.5,249.2L141.5,248.3L142.1,247.6L143.7,247.1L144.3,246.6L145.5,243.3L145.5,240.4L145.3,237.6L145.8,234.4L146.6,233.1L147.8,232.3L149,231.7L149.9,230.9L150.2,230.1L150.6,230.6L151.9,231.7L153.9,231.6L156.1,230.3L157.5,228.6L161.6,227.7L163.3,229.8L165.4,236.3L170.1,241.9L173,248L174.5,254L174.1,256.2L171.3,261.1L173.1,262.5L174.5,268.5L177.4,272.3L181.7,270.3L183.4,271.7L183.2,275.8L180.3,281.5L183.7,284.7L185.2,292.5L187.3,296.7L189.1,297.3L193.3,295.7L199.5,294.3L203.4,294.5L210.6,298.6L210.6,300.5L207.6,299.7L205.5,300.5L204.5,302.3L202.3,303.5L201.2,305.6L200.5,307.4L202.3,315.7L202.4,319.5L200.4,319.6L198.7,318.2L194.4,317.9L192.3,319.1L190.8,320.8L192.1,325.2L192.2,329.1L193.9,331.2L195.7,331.9L196.9,333.9L196.3,337.7L197.2,341.6L195.8,343.3L195.5,345.2L197.1,347.3L197.9,349.7L197.5,352L198.3,354.4L203.5,358.6L205.1,363.4L208.9,366.3L214.6,367.1L216.6,366.7L219.3,369.7L220.9,373.8L215.2,384.7L215.6,387.1L218.4,391.3L216,392.1L210.1,396.9L205.9,399L203.9,399.4L190.2,399.7L188.1,400.5L186.3,402.1L185.2,405.8L185.3,407.4L184.8,407.6L182.8,409.8L185.1,411.6L179.1,410.7L179.1,409.8L177.7,409.4L176.5,408.5L175.5,407.6L175,407.3L173.7,408.1L172.6,407.4L171.9,406.2L171.6,404.9L171.8,404.9L172.1,404.3L173.1,404L173.1,403.1L172.3,403.1L171.2,403.8L170,403.8L168.8,403.2L167.9,402L167.1,402L166.5,403.4L164.5,404.5L164.1,405.4L164.6,406.8L165.8,407.1L166.3,407.7L161.8,407.7L163.4,406.9L163.2,405.9L163.2,404.6L162.9,403.7L161.9,404L161.9,403.5L161.8,403.2L161.8,402.9L161.9,402.8L161.9,402L161,401.9L160.4,402.1L160,402.5L159.7,403.1L161,400L160.6,397.7L159.3,396.8L158.1,398.2L157.4,397.3L157,398.3L156.3,399.1L155.5,399.6L154.3,400.1L154.3,401.2L155.9,401.5L155.5,402.7L155.5,404.3L155.1,405.9L154.3,407L153.4,407.6L152.6,408.3L152.2,409.8L150.6,408.7L150.7,410.1L150.9,410.8L151.3,410.9L152.2,410.7L157.3,414.9L159.4,415.9L160.1,416.9L160.3,417.9L160,418.3L159,418.1L157.1,416.9L153.8,415.9L153.2,415.9L152.2,416.4L152.1,417L151,418.7L149.7,419.8L149.1,418.8L148.8,417.5L148,416.5L147.2,415.7L146.9,415L146.7,414.2L146.5,413.7L146.2,413.4L146.1,413L146.4,412.1L146.9,411.6L147.4,411.2L147.6,410.7L146.5,406L144.4,402.7L141.5,400.3L138,398.2L134.5,395.5L125.9,384.8L122.7,382.6L121.7,381.4L122.1,380.1L121.5,378.9L121.3,377.2L121.4,375.6L122.1,374.4L122.1,373.4L120.7,374L119.6,374.1L118.8,373.7L118.3,372.4L116.7,373.3L115.1,373.3L113.7,372.5L112.3,371.4L109.3,372.7L104.8,370.4L101.3,366.3L101.1,361.9L99.6,360.5L98.8,358.8L97.6,357.4L95.1,357.1L95.1,356.1L95.8,356.1L95.8,355.3L94.9,354.2L93.7,352L92.8,351.4L94.7,350.8L97,350.8L98.5,350.5L98.1,348.5L97.1,347.4L92.8,344.6L92.8,343.8L94.7,343.9L96.1,344.2L97.1,344.1L98.1,342.8L98.1,341.8L97,341.1L95.1,340.1L93.5,340.1L93.6,341.8L92.6,341L91.4,340.2L90.1,340L91.3,338.9L89.3,338.4L87.4,338.2L85.6,338.4L83.8,338.9L84.7,337.8L85.2,336.5L85.3,335L85.3,333.2L86.1,334.1L86.8,334.1L87.6,333.3L88.3,332.3L88.4,331.9L88.3,330L88.3,329.4L88.5,329.3L89.6,328.6L89.8,328.5L89.1,325.7L87.3,324.4L85.4,323.9L84.6,323.2L84.2,322.6L82.5,321.2L81.9,320.9L80.7,320.6L79.8,319.9L78.9,318.9L74.1,317.8L71.6,316.9L70.3,316L69.7,316.2L69.2,316L71,314.9L74.6,316.2L79,317.5L84,320.1L87.1,322.9L89.4,323.9L91.1,323.5L91.5,322.8L91.5,321.8L91.6,320.7L92.4,319.7L93.3,319.4L94.2,319.4L95.2,319.7L96.2,320.3L96.5,317.3L98.1,315.7L100.2,314.5L101.7,312.7L102,311.2L101.7,310.5L101.1,309.9L100.7,308.6L100.5,308.2L99.7,307.2L99.4,306.8L99.5,306.3L100.2,304.7L100.4,303.9L100,302.8L99.4,302.3L99.1,301.7L99.9,300.6L100.8,300.3L101.9,300.4L102,300.5L106.1,302L108,303.2L109.9,303.4L111.8,301.5L112.7,298.7L112.3,296.2L107.2,288L104.6,285.5L104,284.7L102.4,276.2L101.8,275.1L103.2,274.7L108.6,274.5L110.4,274.2L110.9,271.7L111.8,269.2L113.1,267L114.5,265.3L116.6,264.4L120.2,264.8L122,263.8L124,263.3L129.8,264.2Z"><title>Epirus</title></path>
<path id="r-GR-B" data-de="Zentralmakedonien" data-en="Centre Macedonia" data-cx="387.6" data-cy="181.7" d="M378.7,86.2L388.7,86.9L410.4,90.1L415,89.6L417.5,88.9L418.7,88.3L419.7,87.3L420.2,85.9L420.4,83.4L420.8,82.3L422.4,80.9L424.8,79.4L427.4,78.3L429.3,78.2L431.3,79.6L432.4,81.2L433.5,82.2L435.8,82L437.8,80.9L441.1,78.6L443.2,77.9L454,78.3L461.2,81.8L464.9,82L466.2,81.1L466.3,81.4L465.6,84.3L467.3,90.3L476.5,94.6L476.5,96.5L475.4,98.3L474.6,102L475.4,104L480.6,108.4L487.2,116.1L492.8,120.2L498.6,121.6L502,124.9L504,122.9L506.1,122.5L508,122.9L510.1,124.4L512.5,128.7L517.7,133.1L520.2,134.3L519.5,136.1L520.7,140.2L520.3,142L519.1,143.7L519.1,145.7L517.6,147.3L511.4,151.9L509.1,155.4L503.3,160.1L501.1,161.2L491.7,163.3L491.4,164.1L491.4,164.3L490,164L486.4,164.4L480.4,166.8L477.9,168.4L475.6,170.4L474.1,172.6L473.6,176.3L474.5,179.3L476.4,181.4L479,182.1L480.6,183.2L482.4,185.7L484,188.7L484.6,191.2L485.3,191.4L489.1,194.6L490.5,195.1L492.3,195.3L493.9,195.1L495.2,194.6L495.9,196.1L498,198.1L498.1,199.4L497.2,200L489.6,200.9L487.9,202.5L487.5,205.2L488.3,208.9L492.9,215.6L494,216.6L497.4,218.3L498.1,219L502.2,219.9L503.4,220.3L504.6,219.8L507.6,219.4L507.8,219.2L507.9,219.6L507.9,223.1L508,225.5L507.9,227.3L507.5,228.7L506.6,228.1L502.7,224.1L500.4,222.3L498.9,221.7L494.7,222.3L490.7,221.3L489.1,221.4L483.5,224.1L481,224.6L477.8,223.2L477.5,224L476.7,225.2L476.3,225.1L474.4,227.7L473.8,230.1L474,232.4L475.7,236.8L476.3,237.7L477.1,238.5L480.8,241L481.5,243.2L483.1,245L484.6,245.9L485.4,245.7L492.8,249.2L494.2,248.7L496,249.4L497.8,250.8L499.2,252.4L500.8,253.5L505.2,255L506.4,256.7L506.2,257.9L504.8,259.3L504.9,260.6L505.5,261.4L507.5,262.8L507.9,263.9L507.5,265.1L506.7,265.3L506,265.3L505.6,265.8L505.9,267.4L506.6,268L507.6,267.9L508.6,267.2L508.6,268.6L508.7,269.6L508.9,270.3L509.4,271L506.5,273.4L506,274.7L507.2,275.9L507.2,276.8L505.1,276.9L504,277.7L504.3,278.6L506.4,278.7L506.4,279.8L500.7,279.9L498.5,279.4L498.9,277.8L498.9,276.8L498.1,276.8L497.2,277.5L496.4,277.3L496.1,276.4L496.6,274.9L492.8,272.7L492.1,272.5L491.6,270.9L490.3,269.9L488.8,269.6L488.1,270.2L487.9,270.9L488.3,272L484.3,265.5L483.8,263.9L484.5,261.6L484.7,260.2L484.2,259.6L483,259.1L482.4,258L482,256.7L481.5,255.7L471.8,242.9L468.1,240.4L466,239.8L457,239.1L450.8,235.7L445.8,234.3L441.4,234.5L437.8,236.8L435,241.5L434.8,244.2L435.6,246.6L436.7,248.9L437.3,251.4L437.6,252.3L438.5,252.7L440.7,252.9L441.7,253.2L442.3,253.9L443.3,255.7L449.2,263.9L452.4,267.4L463.8,273.5L471.2,275.2L471.5,276.1L471.5,277.3L471.8,278.7L472.9,280.4L474.2,281.6L475.9,282.3L478.2,282.5L479.7,283L478.9,284L476.8,285L474.8,285.5L465.3,284L449.4,277.2L446.7,276.8L438.6,278.1L437.3,278.7L437.9,277.2L439.3,274.5L439.6,272.9L439.2,271.8L437.7,269.6L437.3,268.7L436.4,265.3L434.5,262.9L432.5,260.9L431.3,258.7L432.8,254.2L433.3,248.9L432.7,243.9L430.6,240.4L426.1,238L423.7,237.1L419.7,236.1L417.8,235L416,234.2L414.1,234.7L408.4,230.6L407.3,230.4L406.1,229.4L403.6,228.8L401,227.8L399,224.3L393.8,220.3L391.8,219.4L389.9,219.1L385.6,219.4L386.6,217.2L385.7,214.9L382.5,210.8L382.8,210.7L383.1,210.7L383.3,210.6L383.3,209.9L379.3,205.5L378.3,203.2L380.7,202.2L387.7,201.8L391.4,201.1L393,199.9L393.7,198.6L395.1,197.6L396,196.2L395.3,193.7L392.6,192L391.9,191.8L391.4,191.3L391.6,190.4L392.3,188.8L390.5,185.2L388,183.3L385,183L381.8,184.1L382.6,186.7L382.3,188.8L381.4,190.5L380.3,191.8L378.6,192.6L377.5,193.3L377.6,193.7L375.4,193.6L374.5,193.3L373.5,192.6L371.4,194.1L370,195.8L369.6,197.9L370.5,200.3L369.8,200.3L369,199.4L369,201.4L368.3,201.4L368.3,200.3L367.5,200.3L367,202L366.1,201.9L365,201L363.7,200.3L363.7,199.7L362,199.8L360.3,201.2L360.1,202.9L362.2,204.1L361.2,204.2L360.5,204.5L360.1,205.2L360,206.6L359.5,207.3L358.5,207L356.9,206L354.3,206.1L352.9,206.7L351.7,208L353.3,209.3L354.4,211.3L354.9,213.5L354.7,215.6L356,216.8L357.1,218.4L358.4,219.7L360.4,220.3L360.7,221.8L359.2,225L356.2,230L352.9,239.6L353,241.2L348.8,250L348.5,253.2L349.3,255.5L350.5,257.9L351,261L350.6,264.2L350.8,265.7L352.1,266.3L352.6,267L354,271L359.7,275.8L360.7,276.3L361.3,276.9L363.9,277.7L364.6,278.2L364.8,278.7L365.8,278.7L366,279.2L365.9,281.8L366,282.3L364.9,282.6L359.1,283.5L357.4,282.1L355.5,281.7L346.8,284.1L342.7,282.7L339.3,279.4L336.9,275.2L329.5,270.2L326.2,266.6L324.9,262.6L325.2,256.5L324.4,254.4L320.8,252.3L316.2,253.9L314.3,255.5L312.1,259L309.8,260.9L307.9,260.2L307.1,258.2L307.5,255.9L307.1,253.9L308.2,252.2L308.5,250.4L302.8,249.1L300.6,250.2L299.5,252L298.7,249.9L298.3,247.2L299.1,245L303.4,243L304.9,241.4L305.3,237.2L307,234.1L301.9,231.7L300.6,229.6L300.1,225.7L296.5,221.7L296,219.7L296.4,217.8L295.5,215.8L289.4,216.7L287.6,215.7L287.5,213.8L284,211.3L279.9,209.5L278.2,207.7L275.8,203.1L274.1,201.7L274,199.8L275.5,196.2L272.5,192.3L272.4,188.5L275.1,182.4L272.7,182.4L270.9,181.3L268.8,181.4L264.3,179.9L262.3,180L260.4,179.3L263.1,173.2L263,171.3L259.2,170L258,167.9L256.3,161.5L254.6,159.7L255.3,157.9L259.3,158.1L263.4,157.2L265.6,156.4L267.5,154.8L267.8,152.9L266.1,151.2L262.4,149.4L261.7,144.6L262.6,144.4L264,143L264.4,141.4L264.4,139.9L264.6,138.7L265.7,137.4L269.8,134.7L269.8,134.6L271.3,132L275.2,128.4L276.7,126.2L276.9,125.2L276.9,124.7L277,122.4L277.5,121.1L278.3,120.1L280.1,118.9L281.1,118.1L284.4,116.4L291.5,114.4L292,114L293.1,112.8L293.5,112.6L294.4,112.8L294.7,113.5L294.9,114.2L295.1,114.6L298.8,116.5L299.6,116.8L301.9,116L305.8,112.6L308.3,111.4L310.8,111.2L311.7,111.3L312.9,111.5L317.1,112.8L320.4,113.2L321.4,113.4L321.7,114L321.9,115.8L322.1,116.3L322.8,116.4L323.7,115.8L325.8,115.8L328.5,115.3L329.9,115.4L330.9,115.8L333.2,117.3L334.5,117.8L337.7,117.9L339.5,117.7L341,117.3L343.1,116.7L344.9,116.7L348.4,117.2L350.8,117.1L352.5,116.4L352.9,116.3L354.8,114.8L356.7,112.5L356.9,111.3L356.8,110.1L357.2,109L358.9,108.6L360.1,108.9L360.2,109.1L360.8,109.7L361.3,110.8L362.1,111.9L364,113.6L365.5,114.3L366.7,113.4L367.9,110.6L369,105.2L369.4,94.2L369.5,93.7L370.6,89.8L371.8,88.7L373.8,87L375.5,86.7L378.7,86.2Z"><title>Centre Macedonia</title></path>
<path id="r-GR-A" data-de="Ostmakedonien und Thrakien" data-en="East Macedonia and Thrace" data-cx="630.9" data-cy="100.8" d="M749.6,29L751.2,29.1L752.1,29.7L755,32.9L756.4,34L758.7,34.6L762.9,34.3L765.8,34L767.7,34.6L770.7,37.2L774.9,38.2L776.8,39L778.5,39.5L778.2,41.5L777.2,43.3L783.5,47.7L788.4,50.2L789.5,51.3L791.6,48.3L791.6,49.3L791.7,50.4L791.9,51.3L792.3,52.1L791.9,53.8L792.3,57.4L791.6,58.8L792.8,60.8L793.3,63.2L793.8,68.4L795.6,75.2L796.1,78L796.1,80.9L795.6,83.9L794.6,86.3L793.2,87.6L791.1,87.8L788.8,87.2L786.7,86.1L785.5,84.7L780,90.4L778.8,90.5L778.3,91L778.1,91.6L777.5,92.3L774.4,94.2L771.5,96.7L769.7,97.6L762.7,98.3L761.5,99.4L763.2,101.8L762,104.9L761.5,107.6L761.9,110L763.2,112.5L761.1,115.5L761.1,116.7L762.8,117.1L763.6,117.8L761.7,121.4L762,123.4L763.5,126.6L764.5,128L767.4,129.4L767.5,131L766.7,132.7L765.8,133.4L764.1,133.6L763.2,134.1L762.9,135L763.2,136.3L764.3,137.7L765.4,138.2L765.7,138.7L764.6,140.1L763.1,141.3L760,142.7L758.6,144L758.9,144.6L759.6,145.5L759.7,146.4L758.2,146.8L757.3,146.7L756.5,146.3L756,145.6L755.6,144.8L754.9,144.8L754,147.6L753.4,148.9L752.6,149.7L751.8,149.7L751.7,149.1L751.2,147.8L751.2,149.3L751.1,150L750.6,150.3L749.6,150.6L749.5,151.2L749.7,151.5L749.9,151.5L750.3,151.6L749.2,152.1L748.9,152.6L748.8,153.5L749.6,155L743.7,160L742,162.5L741.1,166.2L738.7,169.1L735.3,170.6L731.2,170.2L731.5,169.7L730.3,167.6L730.1,164.7L729.4,162.2L727,161.1L727,160.2L728.5,160.2L730.5,159.9L732.3,159.4L733,158.8L732.3,157.3L730.6,157.1L728.9,157.6L727.7,158.2L727.3,157.3L727,156.2L726.2,156.2L726.2,157.3L726.7,158L727,159.3L726.2,159.3L724.5,157.3L721.1,155.3L717.5,154.3L715.1,155.4L713.2,154.9L707.3,154.7L706,154L704.8,153.8L697,154.4L692.6,153.5L687.7,151.9L683.1,151L679,152.5L678.1,152.3L675.8,151.8L673.5,150.6L671.9,149.1L670.2,148.1L664.7,146.9L662.8,146.8L658.8,145L654.2,141.9L649.7,140.5L646,143.9L645.3,143.9L645.2,143.2L636.6,141.7L634.3,140.5L633,139.5L632,139.3L631.5,138.9L631.7,137.2L632.2,136L633.1,135.1L634.2,134.5L635.5,134.3L633.4,133L632,132.3L623.1,132.4L621.1,132.9L621.2,135.2L618.9,137.2L617.6,138L615.9,138.2L616.7,140.7L615.7,141.8L613.8,142L611.8,142L610.4,142.4L606.8,144.4L605,144.8L601.9,147L598.7,151.2L595.2,154.2L591.2,152.5L587.1,154.3L585,154.4L582.9,153.5L583.4,153.1L583.5,153L583.7,152.5L579.9,150.5L577.6,152.6L576.9,153.5L576.2,153.5L575.2,151.2L574,149.3L572.6,147.5L573.1,145.8L571.5,145L570.4,144L569.6,142.5L569.4,140.5L564,139.6L562.7,139.1L561.6,139.9L560.3,140.1L559.1,140.5L558.2,142L555.9,141L552.8,141.3L550.2,142.6L548.1,145.7L543.2,149.6L541.6,150.5L542.9,151.6L543.7,152.9L543.6,154L541.3,154.6L540.8,155.1L540.8,155.8L541.2,156.8L541.9,157.2L543.7,157L544.6,157.3L530.5,165.4L519.4,171.7L515.3,172.6L510.6,172.4L505.8,171.1L493.5,164.8L491.4,164.3L491.4,164.1L491.7,163.3L501.1,161.2L503.3,160.1L509.1,155.4L511.4,151.9L517.6,147.3L519.1,145.7L519.1,143.7L520.3,142L520.7,140.2L519.5,136.1L520.2,134.3L517.7,133.1L512.5,128.7L510.1,124.4L508,122.9L506.1,122.5L504,122.9L502,124.9L498.6,121.6L492.8,120.2L487.2,116.1L480.6,108.4L475.4,104L474.6,102L475.4,98.3L476.5,96.5L476.5,94.6L467.3,90.3L465.6,84.3L466.3,81.4L466.2,81.1L466.6,80.9L469.3,78.3L471.4,77.5L475.1,77.5L478.7,78.3L480.4,77.8L482.9,73.9L484.6,73.1L486.5,73.2L488.8,73L491.1,72.4L492.8,71.6L495.8,69L496.7,69.1L501.8,72.7L503.5,72.6L505.3,70.8L505.9,70.4L506.5,70.3L507,70L507.4,69L509.8,70.5L511.1,70.8L512.4,70.2L513,69.1L513.1,68L512.8,64.9L512.5,60.4L515.7,59L520.1,59.3L523.3,60.2L524.2,60.9L524.7,61.7L525.2,62.3L526,62.4L526.3,61.8L526.8,59.7L527.2,58.8L528.8,57.4L529,57.3L530.8,56.2L532.9,55.4L534.8,55.1L536.6,57L538.7,58.4L538.8,59.6L538.5,60.8L538.7,61.5L539.8,61.9L540.5,61.6L541.2,61.2L542.2,61.1L545.1,61.4L546.1,61.3L549.8,60.3L551.5,60.1L553.8,60.5L555.4,60.1L557.6,57.1L560,56.6L563.2,55.4L565.5,57.3L566.8,61L567.2,64.9L567.5,66L568,66.7L568.5,67.2L569.1,68L569.5,68.4L570.5,69.1L571,69.5L571.1,70.2L570.8,71.8L570.9,72.3L572.6,73.8L574.1,74.1L577.9,74.1L577.2,75.5L579.8,75.5L581.9,75.8L583.9,76.7L586,78.5L589.8,83.1L592.1,85.2L594.3,85.3L595.3,83.2L595,80.8L595.3,79L599.6,78.7L601.8,77.9L602.9,77.7L604.4,77.8L607.8,79.8L625.7,87.1L627.5,86.8L628,86.8L628.3,87.1L629.2,88.5L629.6,89L633.7,90.8L634.1,91L636.3,92.7L640.9,98.9L643,100.1L645.6,100.5L648.1,100.3L666.5,94.6L669.3,94.2L670.5,94.3L671.3,94.5L672.2,94.6L673.3,94.2L674.2,93L674.9,91.5L675.8,90.2L677.3,89.7L686.9,90.3L688,90.7L690.3,92L691.3,92.3L692.6,92.1L693.3,91.6L694.1,90.9L695.4,89.9L696.7,89.5L700.5,89.2L704.6,86.6L705.7,86.2L708.1,87.1L711.3,90.5L713.5,91.3L715,91L717.7,89.7L719.3,89.7L720.7,89.9L722,89.8L724.4,88.6L727.4,86.8L728.8,86.1L738.1,84L738.9,84.2L739.6,83.8L740.9,81.9L742.6,78.4L743.8,74.9L744.4,74L745.1,73.8L745.6,73.5L745.8,72.4L745.5,71.5L744,70.1L743.5,69.5L742.4,67L742.6,66.1L743.8,64.8L744.2,63.1L744.4,61.5L744.2,59.9L743.7,58.1L743.1,57.4L741.4,57.1L740.8,56.6L740.6,55.7L740.7,53.5L740.7,52.4L739.6,48.9L739,47.7L738.1,46.6L736.8,46.1L735.3,45.8L733.7,45.1L732.9,43.9L732.4,43.2L731.9,41.6L731.6,39.6L731.7,37.6L732.3,35.9L733,35.1L733.7,34.8L734.5,34.8L735.3,34.5L738.3,32.2L741.2,31.4L747.2,31.2L749.6,29ZM692.5,210.8L693,212.9L691.6,214.2L681.4,217.7L679,217.5L675.2,215.4L667.9,209.7L666.4,207.9L665.4,206L667.4,206.1L673.8,202.4L676.7,201.4L679.9,201.5L688.8,204.1L690.4,205.3L692.3,207L693.3,209L692.5,210.8ZM593.5,170.7L591.2,170.8L590.5,172.3L591.3,174L593.5,174.5L593.5,177.3L591.6,177.9L591.2,179.8L592,184.1L592.7,185.7L593,186.7L592.8,187.9L592,188L590.1,186.8L589.7,187.4L588.9,188.4L586.9,189.1L583.3,189.8L582,190.3L579.3,192.7L577.7,193.7L577.2,192.4L576.4,191.4L574.7,189.8L574.3,189.7L573.4,189.9L573.1,189.8L573.1,189.4L573.2,188.2L573.1,187.9L571.6,186.5L570.9,186L567.8,185.3L565.5,185.2L563.9,184.1L563.4,180.2L564.1,176.6L565.7,173.1L569.4,167.9L577.7,161.1L581.2,162.8L585.7,163.3L587.5,164L587.9,164.8L588.2,166.1L588.8,167.3L590.1,167.9L591.2,168.1L592.3,168.8L593,169.7L593.5,170.7Z"><title>East Macedonia and Thrace</title></path>
<path id="r-GR-69" data-de="Athos" data-en="Mount Athos" data-cx="528.4" data-cy="233.2" d="M507.8,219.2L508.6,218.5L508.6,217.2L507.9,215.4L506.4,212.7L507.2,211.8L506.4,210.8L508.6,210.6L510.5,213L513.2,218.5L514.5,220.1L516.7,222.2L519.3,223.4L521.4,222.3L522.5,223L525.9,224L527,224.2L527.8,224.9L529,228.1L529.7,229L532.9,229.1L536.5,233L542.4,241.5L549.3,248.3L550.5,252L546.9,254.8L542.2,255.9L540.2,255.4L539.3,253.4L538.7,250.9L537.1,249.4L535.1,248.4L533.4,247.2L530.5,242.9L528.4,238.5L525.8,234.9L521.4,232.8L512.6,231.3L509.4,230L507.5,228.7L507.9,227.3L508,225.5L507.9,223.1L507.9,219.6L507.8,219.2Z"><title>Mount Athos</title></path>
<path id="r-GR-E" data-de="Thessalien" data-en="Thessalia" data-cx="313.1" data-cy="333.9" d="M366,282.3L366,282.5L367.5,287.5L368.3,289.3L369.4,290.8L373.6,294.2L376,295.6L377.6,297.1L380.3,300.7L381.4,302.5L382.3,304.9L383,307.7L383.3,310.7L383.8,312.9L387,320.9L389.6,329.2L391.2,331.8L392.6,333.3L398.3,337L403.9,339.2L408.1,342.5L408.5,342.8L408.9,343.4L410.3,347.7L411.6,349.4L420.9,359.9L422.3,362.8L427.5,367.8L429.8,375.3L435.3,385.9L435.4,387.8L434.3,388.5L430.8,391.7L428.7,392.4L424.5,393.1L422.4,393.7L420.8,394.4L421.4,394.8L421.8,395.1L422.3,395.3L423,395.5L423,396.3L422.1,396.6L421.3,397.1L420.6,397.6L420.1,398.2L418.8,397.8L416.3,397.9L413.8,398.6L412.2,399.7L410.4,400.5L407.9,400.4L403.5,399.2L404.5,397.2L405.8,395.5L405.2,393.6L406.7,392.3L410.3,390.6L410.3,392.4L408.8,398.2L416.6,394L417.8,392.4L417,391.1L417.7,390.7L418.7,390.8L419.3,391.1L419.6,391.7L420.4,390.9L421.2,389.4L421.6,387.8L421,386.2L418.2,381.5L417,380.1L417.5,377.8L416.3,375.3L414.4,373.1L412.5,371.4L410.4,369.9L408.5,369.3L400,368.5L400,368L400.1,367.4L399.8,366.7L399.3,365.9L398.2,363.6L397.6,363L396.8,362.9L393.8,363L391.4,362.3L390.8,362.5L391.5,363.8L391.5,364.8L390.4,365.9L390,367.6L390.4,369.3L391.5,370.5L389,371.1L384.6,371.6L380.6,372.6L378.8,374.8L378.5,380.2L378.8,381.9L381.8,390.6L382.5,390.6L383.3,389.1L384.7,387.8L384.3,386.3L384.9,386.2L385.8,387.1L386.3,388.7L387,387.8L388,390L388.4,392.8L389.1,395.4L390.8,397.3L390.8,396.6L390.9,396.5L391.2,396.5L391.5,396.3L391.1,395.4L390.8,394.4L393.5,396.2L394.9,398.6L395.9,401L397.6,403.1L396.9,404.8L397.1,405.2L397.6,405.9L394.1,408L393.3,409.3L393.8,411.6L399.5,408.2L402.5,407.2L405.8,406.9L405.8,407.8L404.9,408.8L401.3,410.7L400.3,411.6L399.9,412.6L399.1,415.5L398.6,416.5L397.8,417.5L397.4,417.9L397.1,417.8L396.4,417.5L394.1,416.4L389.8,418.4L383.5,418.8L380.2,415.6L378.4,414.9L374.4,415.3L368.5,413.6L366.5,413.6L359.6,409L357.4,408.3L349,409.1L344.8,408.8L343,407.8L342.2,405.7L341.8,399.5L342.4,396.2L335.2,396.9L333.5,395.5L332.7,389.2L331,387.8L327.1,385.3L319.4,382.5L314.1,379.3L304.4,390.3L301.1,398.2L298.8,400.1L294.7,401L292.6,402.2L289.7,405.5L285,407.8L280.9,408.7L279,408.4L278.6,406.4L279.3,404.6L278.8,400.7L277.2,398.6L273.5,397.2L269.8,394.3L267.8,394.4L261.6,398.8L259.5,399.6L257.6,399.3L255.9,397.9L255.1,395.8L256.1,392.2L255.3,390.2L251.7,388.1L251.1,382.3L250.3,380.2L248.6,378.8L239.2,381.2L237,382.7L236.3,384.5L234.5,386.2L231.1,383.3L229,383.8L225.1,386.6L219.9,391.9L218.4,391.3L215.6,387.1L215.2,384.7L220.9,373.8L219.3,369.7L216.6,366.7L214.6,367.1L208.9,366.3L205.1,363.4L203.5,358.6L198.3,354.4L197.5,352L197.9,349.7L197.1,347.3L195.5,345.2L195.8,343.3L197.2,341.6L196.3,337.7L196.9,333.9L195.7,331.9L193.9,331.2L192.2,329.1L192.1,325.2L190.8,320.8L192.3,319.1L194.4,317.9L198.7,318.2L200.4,319.6L202.4,319.5L202.3,315.7L200.5,307.4L201.2,305.6L202.3,303.5L204.5,302.3L205.5,300.5L207.6,299.7L210.6,300.5L212,301.9L214,301.8L218.6,300.2L220.7,299L223.3,295.6L225.5,294L229.7,292.3L245.9,294.4L256.9,297.3L260.8,297.5L269,295.7L274.7,296.6L276.1,295.3L276.4,293.4L275.5,289.5L275.9,287.6L275,285.6L271.5,283.5L273.7,281.9L278.9,277L283.2,274.6L285.5,270.8L286.5,267.1L291.8,261.8L295.1,256.6L296.1,253L298.7,249.9L299.5,252L300.6,250.2L302.8,249.1L308.5,250.4L308.2,252.2L307.1,253.9L307.5,255.9L307.1,258.2L307.9,260.2L309.8,260.9L312.1,259L314.3,255.5L316.2,253.9L320.8,252.3L324.4,254.4L325.2,256.5L324.9,262.6L326.2,266.6L329.5,270.2L336.9,275.2L339.3,279.4L342.7,282.7L346.8,284.1L355.5,281.7L357.4,282.1L359.1,283.5L364.9,282.6L366,282.3ZM445.6,392.4L444.4,392.1L443.2,391.9L442.1,392L441.1,392.4L441.5,390L442.8,389L444.2,388.8L444.8,388.2L445.3,386.7L446.5,385.1L448,383.8L449.3,383L451.1,384.1L453,385.7L454,387.9L453.1,390.6L451.4,389.3L449.8,390.8L448.2,394.4L447.4,394.2L446.5,393L445.6,392.4ZM471.1,396.3L470,395.7L466.6,392.3L465.8,391.1L465.4,389.2L462.1,383.9L463.7,383L463.8,383.7L464.1,383.9L464.5,383.8L465.1,383.9L467.7,386.6L470.7,389.1L474.1,391.1L477.8,392.4L477.4,394.5L479.5,394.8L482.4,394.8L484.6,395.5L484.6,396.3L481.1,400.2L479,401.6L476.3,402L475.2,401.7L473.7,400.4L470.7,399.9L469.9,399.2L469.9,398.3L471.1,397.3L471.1,396.3ZM500.4,381.9L498.7,386.2L495.9,390.2L492.5,392.7L489.1,392.4L490.6,390.4L492.1,389.2L493.4,387.7L495.2,382.5L500.7,373.8L502.6,372.4L502.5,372.9L502.4,373.4L502.3,373.9L501.9,374.4L504.3,374.9L503.7,377.8L501.8,380.9L500.4,381.9ZM516.2,363.7L517.2,364.1L517.7,364.6L517.6,366.8L516.3,370.3L514.2,371.4L513.2,370.2L513.3,369.3L513.8,368.9L513.5,368.3L512.3,367.7L511.9,366.7L512.2,365.2L512.9,363.7L513.7,362.4L514.7,362.2L514.9,363.5L515,364.6L515.4,364.1L516.2,363.7Z"><title>Thessalia</title></path>
<path id="r-GR-H" data-de="Mittelgriechenland" data-en="Central Greece" data-cx="350.1" data-cy="457" d="M397.4,417.9L396.9,418.5L396.1,419.2L395.5,419.3L393.9,419.1L393,419.2L392.3,419.8L391.7,420.2L390.8,420.2L391.3,421.7L391.5,422.2L390,422.4L387.8,423.7L386.7,424L385.4,423.7L383.9,423.2L382.4,422.8L381,423.1L380.5,424.1L379.9,427.3L379.1,427.9L376.4,428L375.5,428.6L375,429.8L373.4,429.8L370.9,430.4L368.5,430.6L367.5,429.3L366.9,428.2L365.8,428.5L363.7,429.8L362.8,429.5L361,428.2L360.4,427.9L360.2,427.6L356.4,424.7L355.4,424.9L353.4,426.4L352.8,427L351.9,427.7L350.7,427.9L349.6,428L348.7,428.3L348,428.9L347.3,429.8L346.9,429.5L345.8,428.8L345.8,432.6L351,431.7L351,432.6L348.9,434L350,435.7L352.1,436.3L353.3,434.5L354,434.5L353.3,436.5L354.9,436.4L356.3,436L357.6,435.8L358.5,436.5L363.9,433.7L365.2,433.7L367.9,438L370.2,440.8L371.4,441.5L372.6,442.8L373.5,443.3L374.4,443.2L376.5,442.4L377.6,442.2L379.1,442.7L380.9,443.8L382.4,445.3L383.3,447L385.5,444.8L386.6,444.2L388.5,444.1L389.7,444.7L391.8,446.6L393.4,447L399.6,447.1L402.4,448.2L404.3,450.8L407.7,461.8L409.2,463.3L411.3,463.5L412.4,463.1L413.7,461.8L414.9,461.2L416.3,461.3L417.8,461.1L419.3,459.4L417.2,457.9L416.2,457.6L418.3,456.6L420.2,457.1L423.8,459.4L425.6,460L429.2,460.5L431.3,461.3L433,462.6L434.1,464.4L434.6,466.3L434.3,468L433,469.4L431.4,470.2L429.9,471.5L429.1,474.7L430.2,473.1L431.5,473L432.8,473.9L433.9,475.2L435.1,476.2L438,476.9L439.6,477.7L439.6,478.6L438.6,479L436.1,479L435,479.5L434.1,480.5L433.9,481.4L434.5,482.1L436.2,482.3L443.6,482L454.7,483.9L456.1,482.8L457.3,481L459.9,482.4L463.7,486.2L461.4,487.7L460.6,488L460.6,489.1L462,489.4L463.1,490L463.5,490.9L462.9,491.9L462.9,492.9L466.3,494.6L471.5,502.6L475.6,505.4L477.2,505.5L481.8,504.7L481.4,505.4L478.4,506.8L472.2,508.8L468.4,512.3L466.2,516.1L465.2,529.3L462.3,532.6L458.3,535.3L456.4,534.9L454.8,533.5L451,532.8L449.3,531.7L445.1,525.6L443.4,524.6L441.4,525L439.5,524.6L437.8,523.2L438.2,521.3L439.3,519.6L438.2,517.1L436.5,516L432.4,517.2L430.2,518.4L428.8,520L428,526.4L426.5,528L422.8,527.4L416.6,527.3L421.4,528.9L421.7,529.8L421.2,530L413.6,529L411.9,528.3L414.1,526.4L411.2,523.3L409.8,523L406.3,526.4L405.1,526.8L401.3,526.4L401.3,525.5L403.5,525.5L402.1,523.3L400.5,522.1L398.9,521.6L392.5,520.9L390.5,521.4L389.3,523.5L390.8,523L392.4,523.1L393.8,523.9L394.5,525.5L392.6,525.4L389.3,524.8L387.8,525.5L386.3,518.7L385.6,518.7L384.7,520.7L384.6,520L384.3,519.4L384.1,518.7L382.1,519.4L378.1,519.8L376.5,520.7L372,517.7L373,516.3L374.9,514.6L375.8,513L373.7,512.1L369.6,510.9L367.1,509.1L365.3,508.5L364.6,508.1L364,507.4L362.2,504.4L363.2,502L361.7,499.1L359.1,497.9L356.9,500.5L358.9,500.8L359,501.9L358,502.6L356.6,502L355.3,501.6L354.1,502.7L353.1,504.3L352.6,505.4L352.6,506.2L353.1,506.6L353.5,506.8L353.9,507.1L354.7,507.3L354.7,508.1L353.9,508.7L353.8,509L354,509.4L354,510.1L352.7,511.5L351.4,511.9L349.9,511.4L348,510.1L348,509.7L346.8,507.3L346.5,507.3L346.2,506.5L345.9,506.1L346.1,505.8L347.3,505.4L345.8,502.3L340.5,495.7L339.6,493.6L339,492.9L338.5,492.6L337.4,492.3L332.3,489.1L332.4,490.5L332.9,493L333,494.4L330,496.7L329.2,497.6L330,498.8L330.5,499.3L331,499.3L331.5,498.6L331.9,499.9L331.7,501L331,501.8L330,502.4L330.8,503.4L330.1,504.5L328.5,504.7L326.4,503.9L323.6,503.4L319.5,503.9L318.9,503.1L317.5,502.3L315.9,502L314.9,502.4L314.2,502.4L312.9,502.1L311.2,503.1L309.7,505L309,507.3L308.1,506.3L307.5,504.4L306.8,503.4L305.7,503L304.8,503.1L304.2,503L304.4,501.6L302.8,500.3L299.3,499.3L293.6,496.7L291.5,496.6L289.5,497.6L286.9,495.1L283.7,494.9L280.5,496.1L276.1,499.4L275,499.6L273.4,499.7L272.5,499.2L272,498.2L272.7,495.9L272.4,493.2L274.7,489L279.2,485.1L283.2,484.2L285.3,483L286.4,481.3L285.9,477L287.8,473.1L284.5,469.6L284.4,467.7L285.9,466L285.5,461.7L286.8,458.1L286.3,454.2L288.1,450.7L288.1,448.7L283.8,446.2L283.7,445L279.1,447L277.2,448.6L273,450.6L267.3,450L266.6,451.8L266.8,455.7L262.7,458.8L260.3,459.2L260.7,457.4L259.5,455.3L253.5,456.2L249.7,456L246.1,454.3L240.2,450.3L238.5,448.6L236.9,444.5L236.8,442.6L237.5,440.4L239.4,438.8L245.7,435.6L245.6,433.7L242,432L236.1,430.6L234.3,429.2L232.5,428.9L230.7,427.5L230.3,425.6L230.9,421.8L230.1,419.4L219.2,412.8L218.7,410.8L221.5,405.5L221.5,403.6L222.2,401.8L221.3,399.8L218.5,395.9L218.4,391.3L219.9,391.9L225.1,386.6L229,383.8L231.1,383.3L234.5,386.2L236.3,384.5L237,382.7L239.2,381.2L248.6,378.8L250.3,380.2L251.1,382.3L251.7,388.1L255.3,390.2L256.1,392.2L255.1,395.8L255.9,397.9L257.6,399.3L259.5,399.6L261.6,398.8L267.8,394.4L269.8,394.3L273.5,397.2L277.2,398.6L278.8,400.7L279.3,404.6L278.6,406.4L279,408.4L280.9,408.7L285,407.8L289.7,405.5L292.6,402.2L294.7,401L298.8,400.1L301.1,398.2L304.4,390.3L314.1,379.3L319.4,382.5L327.1,385.3L331,387.8L332.7,389.2L333.5,395.5L335.2,396.9L342.4,396.2L341.8,399.5L342.2,405.7L343,407.8L344.8,408.8L349,409.1L357.4,408.3L359.6,409L366.5,413.6L368.5,413.6L374.4,415.3L378.4,414.9L380.2,415.6L383.5,418.8L389.8,418.4L394.1,416.4L396.4,417.5L397.1,417.8L397.4,417.9ZM581.4,439.4L581.6,439.8L581.9,440.1L582.1,440.7L582.2,441.7L582.1,442.9L581.8,443.1L581.3,442.9L580.7,443.3L580.1,444.2L579.3,445L578.5,445.2L577.7,444.1L576.9,444.1L575.8,445L574.6,444.5L573.5,443.2L573.1,441.7L572.5,441.9L571.1,442.5L569.8,443.8L569.4,446L565.6,441.3L570.2,439.4L569.1,435.3L568.3,434.3L567.1,435.6L566.5,435.6L566.1,434L565.2,433.5L563.9,433.8L562.7,434.5L562.7,433L560.2,432L559.7,429.8L559.3,430.1L558.9,430.8L558.1,429.5L557.1,428.9L556.1,429L555.1,429.8L555,428.4L555.4,427.2L556.2,426.3L557,425.9L557.9,425.2L558,423.7L557.4,421.2L557.5,419.1L557.8,417.3L558.9,416L561.2,415.5L568.7,420.6L570.2,422.2L570.4,423.6L570,427L570.2,428.8L570.7,430.2L571.3,430.8L573.1,431.7L577.7,434.9L580,437L581.4,439.4ZM571.7,530.1L570.7,537.1L570.8,540.6L572.4,543.6L571.5,545.6L570.4,551.7L569.4,554L567.8,555.4L565.6,556.7L563.1,557.6L560.8,557.9L559.6,557.6L559.1,556.8L558.9,555.1L556.4,550.9L555.9,550.7L554.4,549.4L551.5,550.7L549.6,552.8L551.4,554L551.4,555.1L549.7,556.5L548,556.3L546.4,555.1L544.4,552.8L543.9,551.9L543.1,550.2L542.4,549.1L541.7,548.3L541.7,547.5L543.1,546.4L541.8,543.3L540.8,542.3L539.3,542.6L538.7,540.3L536.8,539L534.6,538.8L532.7,539.7L531.2,538.8L530.6,539L529.7,539.7L529.7,539.1L529.8,538.8L530,538.8L530.4,538.7L530.4,535L529.5,534.2L527.7,534.6L527.4,533.5L527.8,532.5L529.9,530.5L530.4,529.2L530.2,527.4L528.6,525.5L527.6,521.9L526.2,520.7L524.5,520.3L522.9,520.7L523.6,522.6L521.2,522L521.7,519.4L523.6,516.6L525.2,515L524.1,513.1L523.3,513.2L522.4,514.1L521.4,515L521.2,515.4L521.2,516L521.1,516.6L520.3,516.9L519.3,516.6L519.3,516L519.6,515.3L519.9,515L519.9,513.9L518.4,513.9L520.6,509.2L518.4,507.9L516,506.9L513.3,506.4L510.1,506.2L512.8,505.4L513.9,504.7L514.7,503.4L513.8,502.1L513.6,500.9L513.7,499.9L513.8,499.7L512.7,497.3L512,496.3L511.6,497.2L505.2,496.7L497.7,497.6L495.5,497.4L491.8,496L490.2,495.7L488.1,496L484.8,496.7L483.1,496.7L475.6,494.8L473.9,495L470.5,496L468.9,495.7L467.7,494.4L465.1,488L464.7,488.6L464.3,489L463.8,489.2L462.9,489.1L464,487L466,484.7L467.4,482.5L466.6,480.5L466.6,479.5L467.4,479.5L467.4,478.6L465.1,474.5L463.5,472.6L461.7,471.8L456.9,471.1L454.6,470.2L453.1,469L452.8,467.9L452.6,465.5L452.3,464.3L449.8,462.3L449.3,461.8L449,461.3L448.2,461.1L447.4,460.5L447.1,458.9L446.6,457.9L445.6,457L442.3,454.9L439.6,453.7L436.5,450.3L435.4,449.9L434.8,449.2L433.7,446.6L433.2,446L430.7,444.6L420,436.6L416.2,434.5L413.5,433.7L412.1,433.5L410.3,433.7L406.9,434.4L405.4,434.2L403.9,433.1L401.8,430.3L400.9,429.9L399.5,429.8L397.7,429.4L396,428.7L394.4,428.3L393,428.8L393,429.8L394.6,429.9L396,430.5L396.9,431.7L396.8,433.7L395.8,434.4L394,435L382,436.1L379.5,437.6L379.4,436L379.6,434.4L380,433.1L380.7,432.6L381.5,432.2L384.1,430.3L385.2,429.8L387.7,429.2L392.6,426.5L395.9,425.7L399.1,424L401.7,423.1L402.1,422.7L402.6,420.8L402.8,420.2L404.1,419.8L406.3,419.7L407.3,419.2L408.1,418L408.5,416.7L408.5,415.5L408.1,414.5L409.7,414L411.8,412L412.9,411.6L419.7,411.6L422,410.8L427.7,407.4L430.6,406.9L431.7,407.5L433.3,409.4L433.9,409.8L435.4,409.9L437,410.5L438.5,411.4L439.6,412.6L438.8,415.3L439.9,417.4L442.1,418.7L444.4,419.2L444.4,420.6L446.2,427L447.1,428.8L447.2,430.3L448.4,432.9L450.4,435.4L455.3,437.5L460,441.6L462.9,442.2L462.9,443.3L462.6,444.3L462.9,444.9L463.5,444.8L464.3,444.1L465.7,445.5L468.8,446.1L470.3,447L471.5,446.2L472.6,447L474.8,445.6L476.9,446L478.7,447.8L479.4,450.3L480.3,452L482.5,453.5L486.8,455.6L491.7,457.1L497,457.6L499.4,458.1L501.6,458.9L503.7,458.8L505.6,456.6L508,457.7L510.5,457.8L513,457.4L515.3,457.6L522.3,460L524.4,461.3L523.2,461.7L522.1,462.5L521.2,463.7L520.6,465.2L520.6,467.5L521.2,468.8L531,477.1L532.7,479.5L529.9,481.6L527.9,486.2L527.5,491L529.7,493.9L529.7,494.8L527.6,495.5L527.9,496.7L530.4,499.7L530.6,501.3L530.7,503.5L530.9,505.4L533.4,508.7L533.7,510L534.2,510.8L534.7,511.2L535,511.6L534.9,514L535,515.3L535.6,516.2L534.5,518L534.2,518.7L535,520.5L536.4,522.2L539.3,524.4L543.1,526.4L543.5,527.2L543.8,528.5L544.3,529.6L545,530.1L548.8,529.4L550.3,529.5L553.4,531.8L557.8,532.3L559.7,533L561.8,531.9L571.7,530.1Z"><title>Central Greece</title></path>
<path id="r-GR-A1" data-de="Attika" data-en="Attica" data-cx="461.5" data-cy="552.7" d="M481.8,504.7L483.4,504.4L486,506L487.2,506.2L497.7,510.7L500,511.1L502,511.8L503.7,513.4L506.4,516.9L511.6,521.1L512.4,522.1L512.9,523L514.9,523.8L515.3,524.9L515.1,526.1L514.8,527.1L514.9,528.1L516.2,529.2L515,529.6L514.4,530.7L514,532.2L513.8,534L513.2,532.1L511.5,532.3L506.1,535.2L506.2,538.1L507.9,544.1L508.3,546.7L509.4,548.6L510.4,550.1L510.9,551.3L510.6,552.6L509.1,555.6L508.6,557L508.6,558.2L508.9,559.5L509.1,561.1L508.6,562.8L509.8,562.7L511.1,563.1L512.1,564L512.4,565.5L512,566.2L508.6,567.5L509.4,568.4L510.4,569.1L511.6,569.4L513.2,569.4L512.4,570.4L513,570.5L514.7,571.3L514,572.5L513.8,573.5L514.1,574.3L514.7,575.1L514.1,575.4L513.6,575.8L513.3,576.3L513.2,577.1L515.8,578.7L516.6,580L516.9,582.3L516.8,585.3L516.3,586.9L513.8,589.5L515.3,590.4L515.3,591.5L513.8,591.5L513.8,592.3L514.5,592.4L514.6,592.9L514.5,593.5L514.7,594.3L514.5,593.9L514.5,593.5L514.3,593.5L513.8,594.3L515.2,595.7L514.3,597.2L512.4,599L510.9,601L509.7,600.1L505.5,598.4L503.7,598L501.8,597.4L501.1,595.6L501.1,590.4L500.4,590.4L498.9,591.3L497.8,588.7L496.6,582.8L496.2,583.1L495.2,583.8L494.4,581.5L492.6,579.2L490.6,577.7L489.1,578L488.6,577.6L488.2,577.3L487.8,576.9L487.5,576.1L486.8,576.1L486.2,579.1L485.1,579.1L484,578.6L483.1,579.9L482.9,579L482.9,578.3L482.5,577.9L481.5,578L482.2,576.3L481.7,574.8L479.4,572.2L479.1,569.6L474.5,562.8L474.1,560.8L472.3,559.9L470.5,560.3L468.6,561.2L466.6,561.7L466.5,561.1L466.6,560.8L467.6,560.3L468,559.9L468.1,559L466.4,559.7L465.5,558.9L464.6,557.6L463.3,557L461.7,556.9L460.3,556.7L459.2,556.1L458.4,555.1L462.3,551.5L463.3,549.4L462.5,546.9L461.5,545.9L460.7,545.8L460,546.2L459.1,546.4L455,546.4L453.8,546.7L453.1,547.4L452.5,548L452,548.3L449.4,548.5L448.2,548.8L447.1,549.4L442.9,553.1L441.1,554L444.8,555.1L442.6,555.9L433.9,555.1L422.6,556L418.5,558.1L415.3,560.6L415.2,560.3L414.9,559.5L413.4,555.5L409.9,549.2L406.2,544.1L406.2,544L408.9,543.6L416.7,541.3L418.6,539.2L420.4,538.7L421.5,537.9L420.8,536.3L419.1,534.6L417,534L417,533.3L417,532.1L418.4,532L420.9,531.3L422.3,531.2L422.3,530.1L421.2,530L421.7,529.8L421.4,528.9L416.6,527.3L422.8,527.4L426.5,528L428,526.4L428.8,520L430.2,518.4L432.4,517.2L436.5,516L438.2,517.1L439.3,519.6L438.2,521.3L437.8,523.2L439.5,524.6L441.4,525L443.4,524.6L445.1,525.6L449.3,531.7L451,532.8L454.8,533.5L456.4,534.9L458.3,535.3L462.3,532.6L465.2,529.3L466.2,516.1L468.4,512.3L472.2,508.8L478.4,506.8L481.4,505.4L481.8,504.7ZM418.3,607L418.6,607.1L423,610.6L423.8,609.6L427.9,613.6L428.4,613.8L428.9,613.9L429.8,614.3L432,616.2L433.2,616.9L434.7,617.2L437.3,615.5L437.1,611.8L435.1,608.1L432,606.7L432,605.7L433.8,604.2L435.9,603.4L441.5,602.9L442.6,604.5L442.1,608.3L440.6,612.2L438.8,614.3L439.9,615.5L441.1,616.3L442.4,616.9L444,617.2L444,618.2L441.9,619L441.1,619.1L441.1,620L441.8,620L442.8,620.5L445.6,621L448.1,622.7L450.3,623.4L455.4,627.7L454.8,628.4L454.6,628.7L454.8,629L455.4,629.6L455.4,630.6L453.2,631.8L446.7,634L446.2,634.1L446.2,631.8L446.2,630.5L445,628.8L440.8,628.8L438.6,629.9L433.2,628.5L431.2,629L428,625.7L426.2,625.4L422.8,622.9L417.4,621.1L415.8,619.3L415.1,617.3L415.7,613.6L418.2,607.6L418.3,607ZM428.2,845.7L430.2,847.3L432.4,848.2L434,850.3L434.3,855.3L433.6,855.3L432.9,854L430.2,851L429.3,849.5L428.6,847.8L427.6,844.8L428,844.7L428.2,844.9L428.2,845.3L428.2,845.7ZM399.1,788.4L406.2,793.6L408.1,795.9L409.2,798.3L408.5,798.9L406.9,799L405.1,799.8L404.2,801.2L403.8,803L403.5,811.2L402.9,811.4L401.3,811.3L399.4,810.7L398.1,811L396.8,812.3L396.4,810.3L395.3,809.4L392.3,808.4L392.1,808L392.3,807.4L392.3,806.8L391.9,806.6L390.4,806.7L390,806.6L389.5,805.7L388.4,803.4L387.8,802.7L388.7,794.8L388.6,791.6L387.8,788.4L387.2,786.9L386.8,785.6L387,784.2L390.4,778.2L391.7,777.1L393,777.9L397.4,786.2L399.1,788.4ZM411.9,651.6L412.5,652.2L414.3,653.3L415.2,654L415.6,655L415.8,656.5L415.6,657.8L414.4,658.4L412.1,657.9L410.8,656.6L409.8,655L408.1,653.6L408.9,652.7L409.8,652.1L410.8,651.7L411.9,651.6ZM462.1,640.1L460.4,641.9L457.8,643.1L455.1,643.5L453.1,643.1L453.5,645.9L452.2,647.2L449.9,647.7L447.5,647.7L441.2,649.6L438.8,649.7L438.8,648.7L448.6,642L451.2,641.2L456.1,641.1L458.4,640.1L462.1,640.1ZM450.1,614.3L450.6,614.2L450.7,614.4L450.7,614.8L450.8,615.3L451.7,616.7L452.7,617.6L453.8,618.1L455.4,618.2L455.4,619.1L453.3,620.3L450.5,620.8L447.7,620.4L445.6,619.1L445.6,618.2L448.7,617.4L449.9,616.4L450.1,614.3ZM457.6,583.8L459.5,584.7L458.8,586.2L457.5,587.9L457.6,589.5L456.1,590.7L455.8,592.2L455.9,593.8L455.4,595.3L454.5,595.8L452,596.5L450.8,597.2L450,596.3L449.4,595.9L447.9,595.3L447.9,594.3L449.2,593.5L449.1,592.2L448.1,591L446.7,590.4L445.4,589.5L444.6,587.6L444.3,585.6L444.4,584.7L457.6,583.8ZM442.5,566.5L441.8,565.5L441.8,564.6L442.6,563.2L444.1,561.7L445.9,560.8L449.1,561.8L450.6,560.5L451.7,558.5L452.3,557L451,557.1L450,557.8L449.2,558.6L448.2,559L447.3,558.7L445.2,557.9L444,557.9L447.9,556L446.4,555.3L444.8,554L446.1,553.9L447.3,554L448.4,554.4L449.3,555.1L449.6,554L449.8,553.8L449.3,553.2L450.2,552.5L451.1,552.2L452,552.1L454.6,552.5L455.9,553.1L456.6,554L456.1,555.1L456.1,555.8L456.4,556.8L457,557.6L457.7,558.1L457.6,558.3L457.6,559L460.6,559L456.9,560.8L457.3,562.3L454.9,564.4L454.6,566.5L453.9,566.5L452.7,565.5L451.7,566.3L450.5,567.7L449,568.5L447.3,568.3L444,567.3L442.5,566.5ZM494.7,713.7L495,714.4L495.2,715L494.7,715.3L493.8,714.7L493.8,713.7L494.7,713.7ZM448.1,702.9L448.6,703.5L449,704.9L448.6,705.3L447.9,704.9L447.6,704L447.6,703.7L447.4,703.5L447.4,702.9L447.1,701.8L447.7,702L448.1,702.9Z"><title>Attica</title></path>
<path id="r-GR-J" data-de="Peloponnes" data-en="Peloponnese" data-cx="343.6" data-cy="653.2" d="M415.3,560.6L413.4,562.1L408.1,564.8L403.5,562.8L402.5,563.2L401.6,563.2L400.7,562.9L399.5,562.8L399.1,563.5L399.1,565.1L398.9,566.7L398,567.5L397.3,568.8L397.7,571.5L399.2,573.6L401.3,573.2L403.2,574.2L405.8,574.5L408.4,574.2L410.3,573.2L413.8,576.7L415.7,578.1L417.8,579L417.3,580.4L417.1,581.7L417.3,582.8L417.8,583.8L416.3,584.1L414.3,585.4L411.8,585.8L411.5,586.2L411.4,587.1L411,588.5L413.8,590.6L415.3,591.3L417,591.5L416,594.6L415.7,596.8L416.1,598.9L417,601.9L415.5,601.9L415.8,605L416.3,606.2L418.3,607L418.2,607.6L415.7,613.6L415.1,617.3L415.8,619.3L417.4,621.1L422.8,622.9L426.2,625.4L428,625.7L431.2,629L433.2,628.5L438.6,629.9L440.8,628.8L445,628.8L446.2,630.5L446.2,631.8L446.2,634.1L433.2,634.7L431.3,634.4L431.5,634.9L431.5,635.3L431.7,635.8L432,636.3L428,635.8L426.6,635.9L426.8,637.4L423,638.2L423,639.6L423.8,640.2L424.9,640.3L426,640.1L425.3,641.2L425.3,642L426.2,642.2L428.2,643.1L426.5,643.9L424.5,644.1L420.4,643.9L418.2,644.4L418.1,645.5L419.1,647.3L420.1,649.7L417.8,650.1L416.3,650.1L414.9,649.6L413.3,648.7L413.3,647.7L415.5,647.7L415.5,646.8L414.2,646.4L412.7,646.7L411.3,646.6L410.3,645L412.5,645.9L412,644.6L411.2,643.7L408.8,642L408,642.9L406.9,643L405.8,642.3L405.8,642L405.5,637.6L405.7,635.9L407,636.8L408.2,637.5L409.3,636.5L410.1,634.6L410.3,632.5L412.7,633.9L413.3,634.4L413.3,633.5L412.8,632.3L412.6,631.4L412.5,630.1L412.3,629.3L411.5,628.9L410.7,628.7L410,628.2L408.4,627.4L404.6,628.4L402.8,627.7L404.3,626.8L402.8,623.9L400.1,625.6L399,626.4L398.3,627.7L396.8,622.7L395.7,620.9L393.8,619.1L393.3,618.9L392.1,619.1L391.5,619.1L391.1,618.6L390.9,618L390.9,617.4L390.8,617.2L389.2,616.5L388.3,616.3L387,616.3L388.4,616.7L388.9,617.2L389.3,618.2L387.1,617.3L385.2,617.5L383.5,618.5L381.8,620L381.1,619.2L378,617.2L378.3,616.7L378.8,615.3L377.4,614.7L376.1,613.6L375.4,612.5L375.8,611.5L374.6,609.7L373.5,608.6L371.1,609.6L369.2,610.8L367.8,612.9L367.5,616.3L367.7,617L368.7,618.7L369,619.6L368.8,620.5L368.3,622.1L368.3,622.9L368.7,624.4L369.3,625.3L369.9,625.9L370.5,626.8L370.6,627.5L370.5,630.1L370.7,630.5L372,631.6L372,633.1L371.2,634.9L371.3,636.3L377,643.3L378,643.9L377.3,645.9L378.8,645.9L378.8,646.8L378,646.8L378,647.7L379.2,648.9L381.8,653.7L382.6,656.2L386.3,663.1L386.7,663.5L387.6,664.8L388.1,666.3L387.4,667L386.9,667.8L386.5,669.6L386.3,673.2L387.2,675L389.3,675.4L391.5,675.1L393,674.6L393.1,675.2L393.3,675.6L393.5,676L393.8,676.5L393.1,677L393.2,677.1L393.8,677.5L393,678.5L394.9,679.2L395.8,680.3L395.5,681L393.8,680.3L394.8,682.8L397.8,687.2L397.6,688.9L398.5,691.2L399.1,693.7L398.5,693.7L397.3,693.8L396.8,693.7L397.1,694.4L397.9,695.9L398.3,696.5L398.5,696.1L398.6,696L398.7,695.9L399.1,695.6L399.4,696.9L399.6,698.1L399.5,699.3L399.1,700.4L400.2,702.3L402.4,707.9L403.2,709.1L402.8,710.2L404.3,712.6L407.3,715.7L408,717.2L408.3,718.8L407.9,720L406.6,720.5L406.6,721.4L407.8,721.4L408.6,721.6L410.3,722.4L409.8,723.5L408.6,724.4L408.1,725.3L408,726L408,726.5L408.1,726.9L408.1,727.6L407.5,729.2L406.1,729L404.6,728.1L403.5,727.2L402.6,728.7L401.2,730.2L400.6,731.6L402.1,732.9L401.8,733.3L401.5,734.3L401.3,734.8L404.3,734.8L401.6,737.3L401.7,740.9L403.3,744.6L405.5,748.1L406.6,750.6L407.1,751L409.3,752L410.5,753L412.5,753.9L413,754.6L413.3,755.3L413.7,755.8L414.8,755.9L413.8,756.7L413.3,756.9L413.3,757.7L413.9,758.5L414,759.3L413.6,759.9L412.5,760.6L414.4,763.4L417.7,765.5L420.1,767.8L419.3,771.1L415.5,769.2L414.4,770.6L413.1,770.9L408.2,769.6L407.2,768.1L406.4,766.5L405.1,765.4L405.1,764.5L405.7,762.6L404.9,760.4L403.4,758.5L401.7,757.7L397,758.8L394.8,758.8L393.8,757.3L393.3,755L390.9,749.6L390,748.2L388.8,747L384.1,743.4L385.6,741.8L385.1,740.1L380.6,735.8L380,735.6L379.5,736.7L378,738.6L377.5,737.9L377.4,736.6L378,733.4L377.8,731.2L376.8,728.2L376,723.2L374.5,720.7L372.1,719.2L369,718.6L363.4,718.5L356.5,719.3L351.5,722.2L351.7,728.1L348.1,730.8L346.7,732.7L345.8,735.8L347.4,735.8L348.5,736.8L348.9,738.5L348.8,740.6L348,740.6L347.8,739.6L347.4,738.6L346.7,737.9L345.8,737.7L344.9,738.5L344.3,739.8L344.1,741L344.6,741.5L346.4,743.1L345.9,746L344.4,747.3L343.5,744.3L341.9,745.3L341.3,746.8L341.2,755L341.6,758.2L342.2,760.8L344.3,766.3L343.8,767.1L344.3,768.3L342.8,769.3L342.4,770.8L342.7,772.4L343.5,774L343.5,775L342.5,774.9L342.3,775.3L342.3,776L342,776.9L340.8,775.3L340.4,772.9L340.3,770.4L339.7,768.3L338.1,766.9L334.3,765.3L333,763.4L332.3,763.4L331.1,764.7L330,764.4L329,763.3L328.1,762.1L327.1,760L327.2,758.5L327.9,756.9L328.5,755L330.3,755.5L330.8,753.8L330.3,751.5L329.2,750.1L329.7,749.4L330.8,747.3L328.5,747.3L328.7,745.6L328.6,743.4L328.9,741.7L330.8,741.5L330.8,740.6L328.6,739.8L328.9,737.4L330.8,732.9L327.5,733.5L325.4,730.1L323.7,725.7L321.7,723.3L321.9,720.5L320.2,717L312.5,706.2L310.2,704.9L307.4,707.1L304.6,704.8L303.4,703.4L302.9,701.4L303.1,701.4L303.7,700.7L304.2,699.4L304.4,698L304.6,696.4L305.1,693.7L305.3,689.9L305,688.9L297.6,687.2L293.5,687L291.6,687.6L287.4,690.2L283.3,691.4L282,692.8L281.4,694.7L280.3,708L279.7,709.7L279.7,711L280.2,712.6L280.8,713.8L281.1,715L280.4,716.7L282.3,718.5L283.5,719.3L285,719.6L285,720.5L283.5,720.6L282.3,721.2L281.6,722.1L281.9,723.3L281.2,724.5L276.7,728.9L276.1,729.6L275.4,730L274.5,730L272.6,726.1L272.2,725.7L268.9,718.6L266.9,718.7L265.2,719.1L262.4,720.5L261.1,719.1L258.6,718L257.9,716.7L257.2,716.7L256.2,717.3L255.6,716.2L255,714.4L254.2,712.9L254.6,711.6L254.5,710.4L254.2,709L254.2,707.1L254.5,705.8L255.9,703.4L256.4,702.2L256.5,699.9L255.7,697.9L254.1,696.8L251.9,697.5L252.9,697L253.3,696.6L253.4,695.6L252.4,695.6L251.9,695.9L251.2,697.5L250.5,692.6L247.7,689L244.4,685.5L242.1,681.2L241.1,675.7L240.9,670.1L241.7,665L243.6,661.2L250.5,655.5L253.5,652.3L255,647.7L254.5,642.1L253.4,639L255.2,638.2L262.5,639.8L266.4,638.9L270,639.8L272.1,638.6L276,633.6L275.2,631.5L275.9,629.7L278.7,626.4L280.5,624.8L282.9,626.7L284.9,625.9L286,624.1L282.8,620.2L272.8,612.1L269.2,610.8L267.2,611.2L265.4,610.9L265.2,595.7L262.9,588.8L263.5,583.2L269.8,572.8L273.8,571.9L274.6,575.8L278.6,577.2L282,579.7L289.4,583.2L291.4,583.1L294.2,579.8L296.3,579L300,579.2L300.5,581.2L302.3,581.9L304.3,581.1L307.2,577.7L313.3,575.3L314.1,573.2L313.3,571.1L311.7,569.3L311.9,565.6L313,563.8L313.4,561.6L313,559.3L313.7,557.5L322,553.9L324.2,552.4L325.2,550.6L325.9,548.8L325.9,546.9L329,539.8L326.4,535.2L327,531.3L327.4,529.6L328.1,530.3L331.4,531.6L332.6,532.6L333.7,533.1L334.9,532.6L335.7,532.4L344.3,534.3L356.2,540.7L362.8,543.1L363.7,544.1L364.8,544.4L373.5,552.2L375.5,555.6L376.1,556L378.2,556.7L381.6,559.7L383.3,560.8L384.9,561.1L386.6,560.8L389.3,559.8L390.1,559.8L391,559.9L391.9,559.9L392.6,559.4L394.9,556L395.1,555.3L394,553.6L392.4,552L391.2,551.3L389.5,550.7L386.8,548.5L384.7,548.3L385.1,547.9L385.5,547.7L381.8,547.5L384.2,545.5L385.2,544.8L386.7,544.5L388.1,544L390.5,541.4L391.5,540.7L394.5,540.9L399.9,543.2L402.1,542.6L405.3,544.1L406.2,544L406.2,544.1L409.9,549.2L413.4,555.5L414.9,559.5L415.2,560.3L415.3,560.6ZM262.4,726.2L264.2,727.1L264.3,728.7L264,730.9L263.9,733.8L263.3,733L262.9,732.6L262.6,732.2L262.4,731L260.9,732L261.6,728L261.9,726.5L262.4,726.2ZM255,728.1L255.1,723.2L255.5,721L256.4,719.6L257,719.9L257.4,720.3L257.9,720.5L258.6,720.5L258.6,721.4L258.1,721.6L257.6,722.1L257.2,722.4L257.2,723.8L256.6,725.1L255.7,726.5L255,728.1Z"><title>Peloponnese</title></path>
<path id="r-GR-G" data-de="Westgriechenland" data-en="West Greece" data-cx="259.7" data-cy="572.3" d="M253.4,639L252.7,636.6L245.2,622.2L241.1,615.8L239,613.5L229.5,606.7L227.3,605.6L226,604.3L223.9,601.5L222.8,600.4L216.3,598.5L214.2,599.1L213.6,602.9L212.9,602.9L212.7,601.6L212.7,600.2L212.5,598.9L211.5,598L212.8,595.2L213.2,592.9L212.9,590.5L211.1,584.2L209.9,582.3L208.4,581.2L203.6,578.6L192.1,575L191.1,574.2L190.5,572.5L191,570.4L190.4,569.4L193.4,559.8L194.1,559.8L196.7,562.2L201.5,559.9L206.3,555.7L209.1,552.2L210.7,552.7L212,551.9L213.2,550.5L214.4,549.4L214.4,548.3L214,548L213.9,547.9L213.9,547.8L213.6,547.5L212.6,547.9L211.5,548.7L210.6,549.5L209.9,550.2L214.8,542.6L215,541.7L218.9,535.5L219.4,534L219.7,532.2L219.9,523.8L219.7,521.6L220.9,522.9L222.4,525.4L223.5,526.4L223.4,524.7L223.1,523.4L222.7,522.4L223.2,523.3L224.8,524.1L226.7,524.4L229.1,524.4L230.7,525L236.1,529.2L244.8,531.2L246.9,530.8L249.1,529.7L252.7,527.3L255.6,523.7L260,514.7L262.4,511.1L270.8,505.8L271.8,504.7L279,506.2L281.4,506.2L282.4,506L283.4,505.4L284.5,506.3L285.9,507.2L287.5,507.9L289.1,508.1L290.5,508.6L291.2,509.9L291.6,511.5L292.4,513L293.6,514L296.9,515.6L298.1,515.8L298.9,515.7L300.2,515L300.7,515L301.6,516L302.4,516.6L303.3,516.9L304,517.6L305.1,521.2L305.9,522.6L306.9,523.1L310.8,524.4L311.2,524.7L311.6,525.4L312.2,526.1L313.1,526.4L316.5,526.4L321.2,527.6L322.5,528.3L324.5,527.4L326.3,528.5L327.4,529.6L327,531.3L326.4,535.2L329,539.8L325.9,546.9L325.9,548.8L325.2,550.6L324.2,552.4L322,553.9L313.7,557.5L313,559.3L313.4,561.6L313,563.8L311.9,565.6L311.7,569.3L313.3,571.1L314.1,573.2L313.3,575.3L307.2,577.7L304.3,581.1L302.3,581.9L300.5,581.2L300,579.2L296.3,579L294.2,579.8L291.4,583.1L289.4,583.2L282,579.7L278.6,577.2L274.6,575.8L273.8,571.9L269.8,572.8L263.5,583.2L262.9,588.8L265.2,595.7L265.4,610.9L267.2,611.2L269.2,610.8L272.8,612.1L282.8,620.2L286,624.1L284.9,625.9L282.9,626.7L280.5,624.8L278.7,626.4L275.9,629.7L275.2,631.5L276,633.6L272.1,638.6L270,639.8L266.4,638.9L262.5,639.8L255.2,638.2L253.4,639ZM272,498.2L271.4,497.2L270.8,496.7L269.8,497L264.4,501.6L263.6,503.2L263.3,505.8L262.3,506.5L260.1,505.2L257.2,502.4L250.8,502.4L249,502.9L247.4,503.8L245.9,504.2L244.4,503.4L237.4,508.5L236.1,511.1L235.4,511.1L234.4,510.2L232.9,509.8L231.5,509.8L230.9,509.6L230.1,508.7L225.7,506.2L227.5,505.7L229.3,506.7L230.9,508.2L232.4,509.2L232.4,508.1L231.9,507.5L231.6,507.1L231.7,506.4L232.4,505.4L231.3,504.6L230.9,504.4L230.9,503.4L231.3,503.2L232.4,502.4L230.2,502.4L230.9,500.5L229.9,501L229,501.2L228.1,501.1L227.2,500.5L226.6,501.1L226.1,501.3L225,501.6L225.7,498.8L224.3,497.4L222.1,496.8L220.1,496.7L219.3,495.4L218.2,487.1L215.9,484.3L214.6,483.3L214.1,483.1L213.6,483.2L212.5,483.4L212.9,484.5L217.4,491.9L215.9,491.9L216.1,492.5L216.2,492.6L216.4,492.6L216.7,492.9L216.3,494.3L216,495.9L215.6,497.1L214.8,497.6L213.7,497.9L211.4,499.1L210.6,499.7L210.9,500.2L211,500.2L211.5,500.5L210.6,501.6L209.2,500.6L208.3,501L207.9,501.9L208,502.4L208.6,502.9L207.8,503.9L206.2,505.4L204.9,506.1L204.2,506.4L202,506.2L201.2,505.7L200.3,504.9L199.5,504.7L198.6,506.2L199.2,506.8L199.8,507.1L200.6,507.3L200.1,507.4L198.8,507.8L197.9,508.6L197.9,510.1L195.8,509.9L195,508.5L194.7,506.7L194.1,505.4L192.8,504.9L189.5,504.8L188.1,504.4L189.4,503.8L190.3,503.1L190.7,502.1L190.4,500.5L189.3,501.2L188.9,501.6L189.8,499.4L190.4,498.6L190.1,499.6L191.2,500.2L192.4,499.3L193.4,498.1L194.1,496.7L192.1,495.1L191.3,495.2L190.4,496.7L189.1,496.1L188.2,495.1L187.7,493.6L187.4,491.9L187.7,491.7L187.8,491.6L187.9,491.5L188.1,490.9L189.2,492.3L190.4,493L191.5,492.6L191.9,490.9L190.4,491.9L190.9,490.1L189.8,487.5L190.4,486.2L190.4,485.2L189.3,485.2L188.6,484.9L187.4,484.3L188.4,483.7L188.9,483.5L189.6,483.4L189.2,483.1L188.6,482.5L188.1,482.3L189.1,480.1L189.4,479L189.3,478.1L188.2,477.5L187.4,478.1L186.5,479L185.5,479.5L185.1,480L183.9,481L182.7,481.6L182.1,481L181.8,479.7L180.8,477.7L180.6,476.2L181.4,470.5L181.4,467.5L179.1,464.9L177.4,459.7L176.4,458.5L172.2,458.5L170.7,457.9L169.4,456.6L168.6,454.9L165.9,443.6L164.9,441.4L163.4,440.2L161.8,440.8L160.2,442.4L158.9,444.4L158.1,446L157.3,444.4L156.6,444.7L155.9,445.4L155.1,445.2L153.9,446.2L153.5,445.6L153.3,444.3L152.9,443.3L149.1,440.2L149.1,439.4L149.9,437.6L150.4,435L151.3,432.7L153.3,431.7L155.6,431.8L156.9,431.7L157.4,431.3L157,430.4L156.2,429.6L155.3,429L152.9,427.9L152,425.8L151.8,423.3L152.2,421.2L153.5,418.5L154.1,419.6L154.8,421.9L156.6,423.1L158.7,423.8L160.8,422.7L162.3,420.7L163.4,418.3L164.1,418.3L164.5,419.4L164.6,420.2L164.5,420.7L164.1,421.2L164.3,421.4L164.7,421.7L164.7,422.2L164.1,423.1L166.4,423.1L168.2,422.9L169.5,421.7L170.1,419.2L170.8,419.2L171.9,420.6L173,420.7L174.3,420.3L176,420.2L177.5,420.8L178.6,421.5L179.8,422L181.7,422.2L182,423.1L181.7,425.1L181.5,427L182.5,427.9L183.9,428.3L185.4,429.3L188.1,431.7L188.2,430.5L188.5,429.8L188.9,429.3L189.6,428.8L189.6,427.9L188.8,426.1L189.9,425.3L192,425.3L193.7,426.4L196.3,429.5L196.4,429.8L197,430.2L197.6,430.5L198.2,430.1L198.6,428.8L197.7,428L197.3,427.4L197,425.3L196.6,425.1L196.1,425.3L195.7,424.9L194.3,422.5L194.1,421L194.9,419.2L194.3,418.1L194.6,416.8L195.5,416.1L196.4,416.4L196.3,413.1L193.6,409.6L188.1,404L187.3,404.9L186.9,405.8L186.9,406.8L187.4,407.8L185.9,407.2L185.3,407.4L185.2,405.8L186.3,402.1L188.1,400.5L190.2,399.7L203.9,399.4L205.9,399L210.1,396.9L216,392.1L218.4,391.3L218.5,395.9L221.3,399.8L222.2,401.8L221.5,403.6L221.5,405.5L218.7,410.8L219.2,412.8L230.1,419.4L230.9,421.8L230.3,425.6L230.7,427.5L232.5,428.9L234.3,429.2L236.1,430.6L242,432L245.6,433.7L245.7,435.6L239.4,438.8L237.5,440.4L236.8,442.6L236.9,444.5L238.5,448.6L240.2,450.3L246.1,454.3L249.7,456L253.5,456.2L259.5,455.3L260.7,457.4L260.3,459.2L262.7,458.8L266.8,455.7L266.6,451.8L267.3,450L273,450.6L277.2,448.6L279.1,447L283.7,445L283.8,446.2L288.1,448.7L288.1,450.7L286.3,454.2L286.8,458.1L285.5,461.7L285.9,466L284.4,467.7L284.5,469.6L287.8,473.1L285.9,477L286.4,481.3L285.3,483L283.2,484.2L279.2,485.1L274.7,489L272.4,493.2L272.7,495.9L272,498.2Z"><title>West Greece</title></path>
<path id="r-GR-M" data-de="Kreta" data-en="Crete" data-cx="608.1" data-cy="927.8" d="M521.4,991.1L520.7,992.4L520.6,993.8L521.1,995.1L522.1,995.8L522.1,996.8L519.2,996.6L516.8,995.2L512.4,992L512.4,991.1L513.7,991.1L514.7,990.7L515.5,990L516.2,989.2L517.5,989.2L518.8,989.4L521.4,990.1L521.4,991.1ZM761.6,927L760.6,929.5L759,931.2L757.2,932.7L755.5,934.7L757.5,941.9L759.2,945.1L761.6,943.3L760.5,945.5L758.7,947.7L757.6,949.9L758.6,951.9L757.8,954.5L756.8,957L755.6,959.2L754.4,961L753.9,962.2L752.8,965.5L752.2,966.2L750.9,966.4L749.8,967L748.8,967.7L742.5,970.6L740.9,971L737.9,971L737.7,970.7L736.1,968.8L735.3,968.2L732.7,967.8L730.6,968.1L728.6,968L726.6,966.7L725.6,965.8L724.7,965.5L723.8,965.8L722.9,966.7L722,966.9L718.1,966.2L713.4,967.2L705.4,970.2L682.7,969.1L675.8,971.4L674.1,972.4L672.3,973.1L662.3,971.8L654.9,972.1L652.8,972.7L650.1,973.1L649.1,973.6L647.5,974.8L641.3,977.4L639.6,977.7L633.4,977.1L631,977.7L630.3,978.2L629.4,979.3L628.7,979.6L627.5,979.6L626.8,979.3L626.2,978.9L625.3,978.7L623.4,978.8L621.8,979.2L618.9,980.5L617.2,979.8L615.1,979.5L588.2,980.5L588.2,979.6L589.7,978.4L590,976.8L589.7,971.5L589.9,969.8L590.6,967.1L590.5,965.2L590.1,963.8L589.5,961.9L588.7,960.2L587.8,959.4L587.3,959.1L586.7,958.5L586,957.8L584.8,957.5L575.1,957.4L572.5,956.8L570.9,955.7L570.2,955.7L569.2,956.1L567.9,955L565.6,951.9L564.2,950.8L562.2,949.7L560,949.2L558.2,950L551.6,946.5L551.4,945.2L551.4,944.3L539.4,945.5L531.2,944.3L530.7,943.9L530.2,943.2L529.8,942.6L529.7,942.3L528.9,942.3L528.3,942.7L527.9,943.1L527.4,943.3L519.5,943.3L517.6,942.4L516.6,942.4L516.2,943.8L515.7,943.7L512.8,944.3L510.8,943.4L507.7,939.3L506,938.4L496.6,938.7L492,938L488.3,935.7L487.4,936.4L486.8,936.8L486.1,936.8L485.4,936.6L483.5,938.2L475.7,937.9L472.6,939.4L471.1,937.8L464.7,938.2L462.1,937.5L461.6,936.7L461.8,935.5L461.4,934.7L460.6,934.2L459.1,934L458.4,933.7L457.5,932.7L456.8,931.7L456,930.7L454.6,929.9L455.4,929L454.9,928.9L454.7,928.9L454.6,928.7L454.6,928L456.2,927.1L456.8,927L457.6,927L457.8,926.6L457.7,926.3L457.8,926.1L458.4,926.1L457.7,925.1L457.1,924L457,922.8L457.6,921.3L456.8,918.8L458,915.6L459.7,912.5L460.6,910.3L460.4,909.4L459.9,908.5L459.4,907.9L459.1,907.9L459.2,907L460.3,903.5L461.1,902.2L461.2,901.1L459.8,900.2L459.8,899.3L460.3,898.7L460.5,898.3L460.3,898L459.8,897.4L461.5,893.8L461.8,892.2L461.4,890.6L463.6,886.8L464,885.5L464.4,888.3L464.4,894L465.1,896.4L465.7,897.8L466.1,898.2L467,898.3L467.8,898.5L467.9,899.1L467.8,899.7L468.1,900.2L469,900.7L470,901L472.6,901.2L474.8,900.8L476.5,899.4L477.5,897L477.8,893.6L477.2,890.9L476.2,888.4L475.9,886.3L477.1,884.9L476,882.4L475.7,880.4L476.2,878.6L477.4,876.8L479,875.1L479.9,875.2L481,876.2L483.1,877.3L483.1,878.3L481.9,879.7L481.9,881.5L483.1,885.9L483,889.5L483.1,890.6L485.4,895L487.3,896.3L496.5,897.4L499.6,898.3L501.2,897.7L507.4,898.4L510.1,898.3L511.2,897.9L512.2,897.3L512.9,896.4L513.2,895L513.6,893.8L514.8,893.4L517.6,893.6L516.3,888.6L519.9,887.1L524.9,887.6L527.4,889.2L529.6,895.4L529.3,896.4L528.8,896.8L527.9,898.7L527.4,899.3L526.3,899.9L525.3,900.1L522.9,900.2L518.7,899.2L516.2,899.1L514.7,900.2L515.2,901.4L517.1,902.7L519.1,903.7L522.4,904.7L526,907.3L527.8,907.9L529.7,907.5L531.7,906.6L533.5,905.4L535,904.1L536.2,910.5L536.4,913.2L536.2,918.1L536.4,919.3L537.2,920L539.5,920.2L540.5,920.8L544.6,922.4L554.2,919.4L558.2,920.4L560.5,919L569.4,917.3L572.3,916.4L579.2,912.7L581.5,911.9L583.8,911.4L586.3,911.3L597.2,913.3L599.4,914.6L600.5,913.8L602.3,912.8L605.4,911.7L612.2,914.6L612.8,913.7L613.3,913.4L613.5,912.9L613.7,911.7L618.9,913L620.1,914.7L622,914.4L622.7,914.6L622.8,915.5L622.6,916.3L622.2,917L622,917.9L622.9,921.4L625.3,922.9L628.5,923.2L633.6,922.9L636.7,922.1L638.4,922.2L638.8,922.5L639.3,923.2L640.1,923.8L641.1,924.1L644.4,924.1L650.5,923.1L653.2,924L654.8,924.1L656.5,923.1L657.2,924.1L658,923.1L660,925.1L661.5,927.3L663.4,929.2L666.5,929.9L669.6,929.5L686.8,922.7L689.1,922.2L690.4,922.5L692.7,923.8L694.4,924.1L700.8,924.1L700,926L698.8,927.6L696.2,929.9L697,930.8L696.4,932.1L696.3,933.2L696.7,934L697.8,934.7L697.7,932.2L698.2,931.1L699.1,931.3L700,932.7L699.4,933.6L699.4,934.1L700,934.7L699.4,935.7L698.8,935.2L698.4,935.1L697.9,935.5L697,936.6L697.4,937.8L696.5,939.4L695.7,941.5L696.2,944.3L694.9,945.4L695.1,946.7L695.8,948L696.2,949.5L696.6,952.3L697.8,952.7L699.3,952.4L701.2,953.3L702.6,954.5L704,954.9L706.4,954.8L707.8,953.9L709.7,949.9L711,949.1L711.9,949L712.5,948.8L713.6,948L714.9,945.5L715.1,945.2L716.4,944.8L719.9,944.6L724,943.7L724.8,943.3L728.2,941L729.2,940L730,939.4L731.1,939.2L731.8,939.3L732.4,939.3L733,938.4L733.8,938.4L735.3,939.8L739.5,940.9L738.2,942.3L740.6,943.6L743.4,943.3L746,942L748,940.4L747.5,940.1L747.5,940L747.3,939.4L750.3,936.5L752.4,933.5L754.8,931.3L758.6,930.8L757.8,929L758.9,929L759.3,929L759.1,928.5L758.8,927.5L758.6,927L761.6,927Z"><title>Crete</title></path>
<path id="r-GR-L" data-de="Südliche Ägäis" data-en="South Aegean" data-cx="941.3" data-cy="807.3" d="M833.3,910.8L836.2,910L837.2,909.9L837.4,910.8L836.7,911.3L835.9,911.7L836.7,914.6L836.7,915.5L835.1,915.5L832.4,916.1L831.4,916.5L830,917.4L829,918.4L828,919.1L826.6,919.3L825.6,919.8L823.7,921.7L822.4,922.2L821,921.6L819.9,920.3L819.3,919L819.7,918.4L820.8,917.8L822.7,915.2L823.5,914.6L823.9,914.1L824.6,912.2L825,911.7L825.9,911.9L827.1,912.6L827.6,912.7L831.6,911L833.3,910.8ZM859.1,898.3L861.4,900.6L861.9,902.1L861.4,905.1L858.6,904.3L855.7,905.5L853.6,908.2L853.1,911.7L853.3,911.3L853.5,910.9L853.9,910.7L854.6,910.8L854.1,911.9L853.2,913L852.1,913.9L850.8,914.6L851.6,912.3L850.7,911.5L849.2,911.3L847.8,910.8L846.8,909.5L846.1,907.9L846.2,906.5L847.8,905.9L847.8,905.1L847.1,905.1L847.1,904.1L848.9,903.6L849,902.1L847.8,898.3L847.9,896.3L848.2,895.1L848.4,894.1L847.8,892.6L847,891.8L844.1,890L843.3,888.8L843.5,886.9L844.3,885L845.3,883.6L846,883L848.6,881.3L849.5,877.8L849.9,874.2L852.8,870.8L853.6,866.7L853.7,862.5L853.1,860.1L853.1,859.2L854.6,858.1L855.4,858.1L855.4,859.2L856.1,859.2L856.7,858.3L858.4,856.2L859.3,855.4L860.1,855.2L860.8,855.5L861.4,856.2L861,858.1L859.5,860.7L859.1,862.5L859.1,865.8L859.3,867L859.8,868.4L859.9,869.6L859.2,870.7L858,872L856.7,873.6L856.1,875.8L855.7,877.1L854.6,878.4L853.5,880.1L853.1,882.5L853.1,884.6L853.3,885.6L856.1,887.8L858.8,892.8L859.5,893.6L860.1,894.1L859.6,895L858.8,896L858.4,896.4L858.3,897.3L858.2,897.4L858.4,897.4L859.1,898.3ZM697.4,777.9L698.9,777.3L700,776.2L701,775.4L704.8,777.1L708.4,780.3L710.5,780.7L709.6,782.5L708.6,782.3L707.6,781.3L706.4,780.7L704.7,781L703.4,781.7L701.9,782L699.1,781.4L698.6,781.5L698.3,781.4L697.6,780.3L697.1,779.4L696.8,778.4L697.4,777.9ZM971.7,771.1L970.2,773.1L971.3,779.4L969.1,780.7L968.6,781.5L967.9,786.4L967.1,787.9L964.7,790.9L964.2,792.6L963.9,796.6L963.3,798.3L962.4,799L961.7,799.9L960.3,804.2L959.7,805.5L959.4,805.4L957.5,805.4L956.8,805.5L956.5,806.1L956.3,807.1L955.9,808L954.8,808.4L952.2,815.2L953.2,815.9L954.1,816.4L954.9,816.8L956,817L955.7,818.1L955.3,819.1L954.6,820L953.8,820.9L954.2,821.5L955.3,823.7L949.6,821.9L947.3,821.8L944.7,822.8L939.8,826L938,827.9L933.6,835.3L930.5,839.7L926.5,843.5L921.4,846.8L916.9,843.5L916.2,843.3L915.9,842.3L913.9,838L915.4,836L918.5,826.2L919.2,822.8L918.8,819.6L917.7,818L916.2,816.8L913.5,813.7L913.4,813L914.1,811.9L913.9,811.3L912.9,810.4L912.2,810.6L911.6,810.6L910.9,809.4L912.7,808.6L916.9,805.5L919.5,804.6L920.5,803.8L920,802.7L920.9,801.9L921.1,801.1L921.1,800.2L921.4,799L922.1,797.2L922.9,795.9L923.9,793.7L924.4,793.2L927.6,792.2L928.1,791.7L928.9,790.5L932.6,786.6L933.4,785L934.4,784L941,781.6L953.2,774.9L954.8,773.5L958.4,771.7L965.6,772.2L968.9,767.9L969.8,767.8L970.8,768.7L971.7,770.2L971.7,771.1ZM658.7,764.5L662.6,765.8L666.4,768.6L669.3,772.2L670.7,775.9L670.4,778.7L669.4,781.5L667.8,783.6L665.8,784.5L663.6,784.3L658.5,782.7L656.5,781.6L657.7,781L660.3,781L661.7,780.7L662.8,779.8L663.8,777.6L664.7,776.9L664,773.2L663.4,771.8L662.4,771.1L662.4,770.2L663.1,768.5L661.4,767.5L657.2,766.3L657.2,765.4L657.7,765.1L658.2,764.7L658.7,764.5ZM879.4,770.2L878.3,772.7L879.7,774.2L882,774.4L883.9,773.1L884.3,773.5L884.5,773.9L884.6,775L884,776.4L882.8,777.7L881.5,778.4L880.2,777.9L879.6,778.6L878.6,777.9L877.3,778.1L875.9,776.5L875.1,774.2L875.6,772.1L874.2,771.3L872.9,771.6L871.9,772.7L871.2,774L870.4,774L869.8,772.8L868.4,771.8L868.2,770.6L868.2,767.8L868.4,766.5L868.8,765.4L869.9,767.6L871.5,767L873.3,765.4L874.9,764.5L876.3,765.5L877.7,769.4L879.4,770.2ZM766,742.4L769.5,742.6L773.5,745.1L776.7,748.2L777.4,750.1L776.8,750.8L776.2,750.9L775.7,750.4L775.1,749.2L773.4,750.7L771.9,751.2L768.7,751.1L767.3,751.5L766.1,752.8L764.6,755.9L764.5,757.7L764.7,759.5L763.8,760.3L761.2,760.6L759.3,759.8L757.3,756.1L755.5,755L755.8,754L755.9,753.6L756.3,753.1L755.3,751.4L755,749.4L755.6,748.3L757.1,749.2L758.7,748.2L760.5,749.4L762.4,751.2L763.8,752L764.8,751.5L765.9,749.6L766.5,749.2L767.7,749.3L768.7,749.6L769.5,749.7L770.6,749.2L769.1,748.3L768.5,747L769,745.8L769,745.4L767.9,745L766.9,744.3L766,743.4L766,742.4ZM931.2,749.2L931.3,750.8L931.5,752L931.9,753.1L930.9,753.7L930.4,753.9L931,754.2L931.4,754.6L931.7,755.2L931.9,755.9L929.5,757.4L928.2,757.8L926.6,757.7L926.6,756.9L927.3,756.6L928.2,755.6L928.9,755L924.2,753.3L922.7,752.3L924.4,751.1L919.2,751.1L919.9,749.8L921.1,748.3L922.1,746.8L922.2,745.3L922.7,745.3L923,745.1L923.7,744.3L923.7,745.3L925.5,743L928.1,741.5L930.2,741.2L930.4,742.4L927.4,743.4L926,744.4L925.2,746.3L926.2,745.9L926.7,745.9L927.4,747.3L931.2,744.3L931.4,744.8L931.5,745L931.6,745L931.9,745.3L931.3,745.8L931,746.4L930.7,746.9L930.4,747.3L931.2,746.8L931.6,746.9L931.5,747.8L931.2,749.2ZM602.4,738.6L611.2,744.3L612.9,747.3L612.9,748.2L610.1,748L608.4,747.4L605.4,744.3L603.6,743.1L601.9,742.4L600.4,741.2L599.4,738.6L601.7,738.5L602.4,738.6ZM632.9,731L637.2,731.1L636.9,731.5L636.8,732.1L636.9,732.9L631,739.3L627.1,742.6L624.2,742.4L628.3,733.8L629.6,733.4L631.8,731.4L632.9,731ZM559.3,727.2L563.5,724.8L565.7,724.3L567.1,726.2L566.8,727.7L567.1,735.3L566.2,736.3L564.1,737.4L560.4,738.6L547.3,738.9L543.1,740.6L542.7,738.6L543.6,735.5L543.1,733.8L543.6,733.4L544.1,732.6L544.6,732L543.6,731.2L543.1,731L544.2,729.9L545.1,727.4L546.1,726.2L546.7,727L547.4,727.7L548.2,728.5L549.1,729.1L550.6,728.7L551.9,732.7L554,733.8L557.8,733.8L559,733.2L558.6,731.6L557.6,730L556.7,729.1L555.2,729.9L554.1,729L553.2,727.5L552.1,726.2L552.1,725.3L553.4,723.8L554.8,724.7L556.7,726.3L559.3,727.2ZM577.7,721.4L579.2,722.2L580.2,723.3L580.5,724.8L579.5,726.7L577.9,727.2L576.3,725.7L573.9,722.4L575.4,720.5L577.3,720.5L577.8,720.8L577.7,721.4ZM646.8,731L647,730.7L647.1,730.6L647.3,730.5L647.5,730L646.6,730.1L644.4,730L645,728.7L645.6,726.8L645.9,725.1L645.6,724.3L650.5,720.5L651.8,722.3L653.7,725.7L655,727.2L656.9,728.2L658.9,728.9L660.6,729.8L661.7,732L660.3,732.3L659.6,733.2L659.5,734.6L660.1,735.8L660.1,736.7L657.7,740.2L653.9,738.2L646.8,731ZM573.9,714.8L573.9,715.7L573.1,716.7L570.1,722.3L568.3,722.5L566.4,722L565.6,720.9L565.3,719.3L564.7,718.3L564.4,717.4L565,715.7L565.8,714.8L567.3,713.9L568.9,713.4L570.2,713.8L570.9,714.4L571.5,714.7L572.2,714.6L573.1,713.8L573.3,714.2L573.3,714.5L573.4,714.6L573.9,714.8ZM663.2,715.3L664,713.6L665.8,711.8L668.4,709.9L669.2,709.9L668.4,711L669,711L669.3,711.4L669.2,714.9L667,716.3L664.4,716.6L663.2,715.3ZM866.7,704.7L867.8,707L873.3,708.4L874.9,711L871.3,713L859.4,716.5L856.8,718.1L850.1,725.3L847.9,725.6L845,725.2L842.5,724.3L841.1,723.3L835,726.3L833.3,728.1L834.4,731L832.8,731.5L832.1,733L832.2,734.9L832.9,736.7L831,736.3L829,734.8L827.5,732.9L826.9,731.5L827.2,726.6L827.8,724.6L829.1,725.3L829.6,724.5L830.9,723.1L831.4,722.4L832,722.9L834.4,724.3L835.9,722.8L836.7,721.5L838.2,718.6L842,715.2L842.6,714.3L853.9,707.1L865,705.3L866.7,704.7ZM683.5,708.1L684.2,706.7L685.3,706L686.7,705.4L688,704.2L689.1,704.8L691.8,707.1L690.7,708.7L688.6,708.8L686,708.3L683.5,708.1ZM727,700.4L728.5,702.3L730.3,704L732.3,705.3L734.5,706.1L734.6,706.8L734.4,706.9L734.1,706.9L733.8,707.1L731.9,706.3L729.9,706.7L728.1,707.3L727,707.1L725.4,708.8L720.7,712.2L719.2,712.9L717.8,714.1L714.7,719.3L713.2,720.5L704.3,723.6L699.6,724L697.8,720.5L699.4,721.4L700.2,719.9L701.6,718.8L703.3,718.5L704.5,719.6L705.3,719.6L706,718.8L707,718.6L709.5,718.6L709.9,718.1L711.4,714.8L710.1,715.5L709.5,714.7L709.3,713.5L709.5,712.9L710.7,712.7L723.3,706.1L723.3,705.3L722.7,704.9L722.3,704.6L721.9,704.4L721,704.2L721,703.3L724,702.4L725.3,701.6L726.2,700.4L727,700.4ZM625.7,698.5L624.2,698.1L622,696.2L620.2,693.4L619.7,690.8L620.7,688.8L622.7,687.1L624.8,686L626.5,686L624.5,693.3L623.4,695.6L624.1,696.3L624.7,696.9L625.7,698.5ZM584.5,687L585.8,689.1L589.7,693.9L591.1,697.9L591.2,699L590.9,699.5L589.3,700.3L589,700.9L585.2,705.3L583.5,702.6L581.7,698.7L580.6,694.9L581.4,692.8L581.4,691.8L580.3,690.8L579,688.5L577.7,688L577.7,687.3L577.9,686.9L578.5,686L578,685.9L577.8,685.9L577.7,685.7L577.7,685.1L579.2,685.1L581.8,687.3L582.8,687.8L583.7,687L584.5,687ZM826.2,699.5L827.2,697.6L827.7,697L828.4,696.5L827.7,694.4L828.2,692.7L829.2,691.3L829.9,689.9L830.1,689.6L830.6,688.9L830.9,688L830.6,687L829.7,686.2L828.8,686.4L828.1,686.8L827.6,687L826.8,686.1L826.3,685.3L825.3,683.2L824.5,682.3L823.7,682L823.4,681.3L823.8,679.4L825.1,681.1L834.4,685.1L834.4,686L832.9,686L834,687.9L835.4,688.7L836.6,689.6L836.7,691.8L837.6,690.7L838.5,690.1L839.5,690.2L840.4,690.8L840.8,692.4L839.9,694.9L840.4,696.5L839.9,697.4L839.7,697.9L839.6,698.5L840.4,698.5L840.4,697.5L841.1,697.5L840.3,699.6L838.5,699.6L835.2,698.5L834.6,699.3L834.4,700.6L834.1,701.7L833.3,702.2L832.2,702L831.4,701.5L830.6,701.4L829.9,702.2L829.1,701L828.2,699.9L827.3,699.3L826.2,699.5ZM705.3,677.5L705.1,678L705,678.2L704.9,678.2L704.5,678.5L702.3,674.6L704.2,674.7L705.6,674.2L708.3,672.7L708,673.7L707.6,674.6L708.5,676L709.1,676.5L708.5,677.6L707.7,678.3L706.6,678.4L705.3,677.5ZM647.5,685.1L646.3,685.5L645.7,686.3L645.2,687.5L644.4,688.9L643.7,689.9L642.3,691.2L639.2,693.4L637.5,693.9L633.6,693.7L632.6,693.3L630.2,691.2L629.1,690.8L628.2,690.1L628.1,688.5L629.2,683.1L630.6,681.5L634,679.4L633.2,678.8L632.5,678.6L631.7,678.8L633.3,676.5L636.4,673.8L639.8,671.8L643,670.7L641.4,673.1L642.3,674.1L645.3,674.6L646.8,672.7L646.5,672.1L646,670.7L647.5,670.6L649,670.7L648.8,671.8L648.4,672.8L648,673.8L647.5,674.6L645.7,679.4L645.6,681.3L647.5,682.2L647.5,683.2L646,683.2L646,684.2L647.5,684.2L647.5,685.1ZM674.5,664.5L675.3,663.9L677.1,664.8L679.8,667L681.1,669.5L681.7,672L682,678L681.8,680.6L680.7,686.3L680.5,689.4L677.4,696.2L676.8,696.7L676,696.9L674.5,697.5L670.7,701.4L669.4,701.9L667.4,702.4L666.1,703.3L665.9,702.4L665.5,702.2L664.7,701.4L664.2,700.4L663.6,697.6L663.2,696.5L662.5,695.6L659.5,693.7L659.9,693L660,692.1L659.7,691.3L659.1,690.4L658.6,689.3L658.4,688.1L658.6,687.3L658.7,687L657,683.6L655.8,681.9L654.3,681.2L654.3,680.3L654.9,679.7L655.5,679.5L655.9,679.6L656.5,680.3L657.6,679.5L661.7,674.6L668.8,669.3L669.5,668.5L671.1,665.5L671.9,665.1L674,664.9L674.5,664.5ZM555.9,667L555.1,666L558.6,663.7L560.5,663.1L561.9,664L562.7,664L563.2,663.3L563.7,663.1L564.3,663.4L565,664L565.6,666L565.9,668.5L565.9,671.2L565.6,673.7L565,671.7L564.1,671.7L564.2,673.5L563.8,674.7L563,675.7L561.9,676.5L561.6,676.1L561.6,675.9L561.5,675.8L561.2,675.5L561.1,674.8L561.3,674.7L561.6,674.7L561.9,674.6L561,674L560,673.8L559.1,674L558.2,674.6L557.9,673.3L557.7,672.7L557.3,672.9L556.7,673.7L555.7,673.1L554.9,673.2L554.2,673.7L553.6,674.6L553.2,673L553.5,672.6L554.5,671.7L553.7,671L553.7,670.3L554.2,669.6L555.1,668.9L554.7,667.8L554.9,667.4L555.9,667ZM547.6,634.4L548.4,630.7L550.7,628.1L553.3,626.1L555.1,623.9L555.9,623.9L555.9,625.9L555.6,627L554.9,629L554.5,629.6L558.7,632.2L560.2,634.3L559.7,637.4L558.1,636.8L556.9,638.4L556.2,640.8L555.9,643.1L554.4,644.6L552.4,646.7L549.9,648.1L547.6,648.7L548.6,643.8L549.6,641.5L551.4,640.1L551.4,639.3L550.9,639L550.4,638.5L549.9,638.2L549.9,637.4L550.8,635.9L550.6,634.4L549.4,633.7L547.6,634.4ZM660.1,633.5L658.8,633.3L650.5,634.4L650.7,633.3L650.7,632.9L650.6,632.7L650.5,632.1L650.7,631L651.2,630.7L651.8,630.7L652,630.6L652.6,627.3L652.2,626.2L650.5,625.9L651.1,623.8L652.4,622.8L653.8,622.2L655,621L658.2,626.7L658.7,626.4L659.1,623.5L660.2,623L663.6,623.9L664,624.2L664.6,624.9L665.4,625.6L667.6,626.3L667.8,627.2L667.6,628.4L666.9,629.6L665.3,630.4L663.2,630.3L661.5,630.9L660.9,633.5L660.1,633.5ZM610.7,631.1L610.9,631.5L611.6,631.9L612.4,632.6L612.9,633.5L613.1,635L612.9,635.8L612.1,636.5L605.5,640L603.9,641.2L603.9,639.8L603.9,638.8L604.2,638L604.7,637.4L604.7,636.3L603.9,636.4L601.7,636.3L602,635.1L602.4,634L603.1,633.2L603.9,632.5L603.5,632.3L602.4,631.6L604.4,631.1L605.7,629.3L606.2,626.9L606.2,624.9L605.5,621.8L605.4,620.7L606.4,620.6L609.2,621L610.2,622.2L611.2,624.1L611.9,626.2L612.2,627.7L611.9,628.7L610.9,630L610.7,631.1ZM626.9,610.6L625.7,610L622,605.7L617.8,603.7L616.6,602.9L615.9,601.7L615.1,600.1L614.8,598.4L615.2,597.2L616.6,596.7L622.7,597.2L623.2,597.4L624.2,598L624.2,599.1L623.4,599.1L623.4,600L624.5,600.1L625.3,600.5L626,601.1L626.5,601.9L628.2,600.7L630.3,601L632.2,602.2L633.2,603.8L634.9,601.8L638,602.4L641.3,604L643.8,604.8L643,605.7L643.9,606.1L644.5,607L645,608.2L645.3,609.6L642.6,613.3L641.8,616.9L640.5,617.5L635.5,616.7L632.4,614.8L630.6,614.3L629.5,613.7L628.2,611.2L626.9,610.6ZM548.4,596.1L551.4,600.4L550.7,604.7L547.9,608.8L544.6,612.4L541.6,616.8L539.5,618.5L537.5,617.7L537.5,615.8L538,608.8L537.8,607.6L537.8,605L539,601.8L540.8,599.7L542.4,600L543.2,599.1L543.9,598L542.8,598.1L542.4,598L542.4,597.2L543.5,596.4L544.5,596.1L545.4,596.3L546.1,597.2L546.9,597.2L546.9,596.3L547.3,596.2L547.8,596.3L548.4,596.1ZM615.9,584.7L616.2,586.7L615.3,589.2L613.7,591.6L612.2,593.3L612.4,593.9L612.9,596.1L612.2,596.1L611.3,594.8L608.9,592.8L607.7,591.5L605.6,585.6L605,584.7L603.4,584.5L602.1,583.9L601,582.9L599.8,581.3L598,577.8L596.8,576.9L594.9,578L594.3,574.1L592.3,571.6L589.9,569.6L588.2,567.5L587.5,567.5L586.7,568.8L585.8,569.2L585.3,568.5L586,566.5L585,565.4L583.5,562.9L582.2,561.7L583.5,561.3L583.6,560.7L583.2,559.7L582.9,558.5L583.3,557.1L584.2,556.2L590.2,552.8L592.7,552.3L594.3,553.2L594.1,554.7L594.4,555.5L595,555.9L596.1,556L597.2,556.5L598.2,557.5L598.7,558.5L598.3,559L598.3,559.6L599.1,562.8L599.4,563.7L600.2,564.2L603.2,565.5L611.8,565.5L612.9,566.8L612.4,569.6L610.7,574.2L615.2,578L614.5,578.7L614.2,578.8L613.7,579L613.8,580.8L613.1,582L612.3,582.9L612.2,583.8L613,584.6L614.7,583.9L615.9,584.7ZM897.9,797.2L903.4,797.6L903.7,798.2L903.7,799.6L903.2,800.8L902.7,801.2L901.9,801.1L899.7,801.8L898.2,801.4L896.2,801.3L894.1,801.9L892.7,801.2L892.6,799.2L893.6,797.9L894.4,797.7L896,797.4L897.9,797.2ZM856.3,745.5L857.2,746.7L858.5,749.5L857.6,752.1L855,753.2L853.6,753.2L851.3,752.8L850.1,752L849.7,750.5L850.9,747.7L854.2,745.6L856.3,745.5ZM821.9,673.2L822.5,673.9L823.5,675.6L823.5,677.1L822.7,677.4L822.3,677.4L822.2,677.9L821.7,678.2L820.7,678.3L819.5,678.1L818.1,677.3L818.1,676.2L819.3,675.4L819.7,674.5L818.7,674.4L817.3,675.3L815.9,675.2L815.1,673.8L815.6,672.6L815.9,671.4L814.7,670.7L813.5,670.2L812.7,669.3L811.4,668.2L811,666.4L812.3,665.2L813.8,665.3L814.1,665L814,664.1L814.9,663.9L815.9,664.7L816.5,664.9L816.9,664.8L817.4,665L817.8,665.2L818.5,665.5L819.5,665.7L819.8,666.5L819.1,668L818.8,669.3L819.9,669.8L821,670.5L821.6,672.2L821.9,673.2ZM792,642.3L792.5,643.1L792.8,644.5L792.2,644.8L791.6,644.2L790.9,643.8L790.5,643.7L790.1,643.5L789.1,643.4L788.1,644.2L787.7,645.2L787.5,645.9L787.1,646.2L786.5,646.3L787,647.3L788.3,648.9L788.6,653.6L787.4,654L786.2,653.2L786.3,652.3L786,651.6L784.7,651.2L784.3,649.9L784.9,646.5L785.2,645.6L785.4,644.7L785.1,643.5L784.8,641.6L785.1,639.9L786.1,639.8L787.3,640L788.7,639.6L790,640.2L791,641L791.7,641.8L792,642.3ZM588.3,606.2L588.1,607.1L588.5,608.8L586,609.1L581,608.1L579.6,607.2L581.6,606.8L583.3,606L584.4,604.7L585.8,603.8L587.6,603.7L588.5,604.5L588.3,606.2Z"><title>South Aegean</title></path>
<path id="r-GR-K" data-de="Nördliche Ägäis" data-en="North Aegean" data-cx="750.9" data-cy="388.4" d="M766,596.1L764.1,599.9L761.3,603.4L751.6,612.2L749.8,613L740.4,614.3L738.2,615.3L737.1,616.1L735,618.3L733.8,619.1L732.7,619.4L731.9,619.4L731.1,619.2L729.6,619.1L725.4,620.3L723.8,619.9L723.3,617.2L724.2,615.3L727.7,611.7L728.5,610.1L729.3,608.1L731,605.8L733,603.9L734.5,602.9L737.2,602.7L743.5,603.6L745.8,602.9L748,603.7L751.3,602.6L754.2,600.9L757.1,597.6L760.7,596.6L766,596.1ZM841.1,590.4L842.3,589.5L843.1,590.2L843.2,591.7L842.6,593.3L840,592.4L836,593.3L826.1,597.3L825,597.9L823.8,599.1L823.2,600.1L823,600.8L822.6,601.3L821.6,601.9L820.7,602.1L813.7,601.9L812.6,601.6L812.2,600.7L811.9,599.6L811.5,598.6L809.7,595.7L808.6,594.7L806,594L804.9,592.6L804,592.3L803,592.5L801.3,593.1L798.4,593.5L796.6,594.3L795.2,595.5L794.6,597.2L793.8,597.2L793.8,596.1L793.1,596.1L791.9,597.4L791,596L790.3,593.6L790.1,591.9L789.9,588.5L790.3,586.9L791.5,585.6L793.4,585.1L795.4,584.8L796.9,584.1L797.5,582.3L798.5,581.3L810.9,578.3L814.7,578.2L818.6,579L820.1,579.9L823,582.3L826.8,583.4L831,586.3L832.2,587.6L832.6,586L832,584.8L830.9,583.5L829.9,581.8L831.7,582.4L833,582.4L834.1,581.9L835.2,580.8L835.3,582.5L838.2,583.4L843.3,583.8L840.2,585.3L839.6,585.6L839.4,586.8L839.9,587.8L840.5,588.9L841.1,590.4ZM744.3,476.6L742.9,478.3L742.7,481.1L742.2,483.6L739.7,484.3L740.6,485.6L741.1,485.9L742,486.2L741.3,487.1L743.3,487.2L743.3,488L742,490L741.7,492.1L741.6,493.9L742.8,504.4L744.3,510.1L741.4,510.5L738.8,512.7L737.6,515.8L738.7,519.2L738.7,521.3L736,522.7L730.8,524.4L729.9,525.9L729.2,529L728.5,530.1L727.5,530.5L725.2,529.5L723.6,529.2L722.5,528.4L720.1,525.1L719.6,524.9L719.2,525.1L718.1,524L717.1,522.3L716.6,520.7L716.1,521L714.8,521.3L714.3,521.6L714.4,520.6L714.3,518.7L714.3,517.7L712.5,518.9L711.7,518.1L711.9,516.1L712.8,513.9L713.9,513L715.3,512.5L717.3,512L717.9,511.6L719.2,510.1L721.9,510.3L722.5,510.1L723.2,508.5L723.3,506.8L723.7,505.3L725.5,504.4L725,502.8L725.2,499.4L724.8,497.6L724.6,498.2L724.6,498.3L724.4,498.4L724,498.6L723.5,497.6L722.8,496.7L722,496.2L721,495.7L721.6,494.5L721.5,492.6L721,490.6L720.2,489.1L718.9,487.7L717.7,487.3L716.2,487L714.3,486.2L712.7,484.9L709.2,480.4L708.3,478.6L708.1,476.4L708.7,474.9L709.4,473.4L709.8,471.4L725.9,468L728.1,468.3L733.4,470L733.6,471L738.2,476.6L738.5,476L738.7,475.4L739,474.9L739.7,474.7L739.8,474.1L739.7,473.9L739.4,473.9L739.1,473.8L740.7,473.2L742.1,473.6L743.3,474.8L744.3,476.6ZM681.4,467L682,468.1L685,470.9L685.1,471.5L684.9,471.7L684.6,471.7L684.2,471.8L683.3,476.8L683.1,477.7L681.6,477.4L680.5,476.9L679.5,476.8L678.3,477.7L677.9,476.4L678.1,475.4L678.4,474.6L678.3,473.8L677.8,473.1L676.6,471.8L676,470.9L674.7,469.8L674.2,469L674.5,468L675.2,467.7L675.9,468L676.4,468.6L676.7,469L677.4,468L678.2,467.3L679.1,467.2L679.8,468L680.5,468L680.5,467L681.4,467ZM793.4,405.9L793.4,407.2L793.2,409.6L791.8,411.2L788.6,409.8L786.8,410.7L785.5,410.1L784.4,408.8L783.3,407.8L784.1,406.9L783.1,406.2L782.9,405.5L783.1,404.8L783.3,404L783.4,403.6L784,402L784.1,401.2L782.8,400.1L782.6,399.7L781.8,397.6L780,397L776.2,397.3L774.2,398.4L776,400.8L780.3,404L784.3,409.9L786.3,411.6L786.3,412.6L786,413.2L785.9,413.2L786,413.3L786.3,414.5L783.5,415.8L780,416.6L772.8,417.4L771,417.1L767.5,415.8L763.6,415.2L762,414.5L759.3,412.6L756.7,411.3L750.2,409.9L744.5,409.7L743.4,409.3L742.4,408.3L739,403.5L737.8,402.4L736,402L736,401.2L736.7,400.9L737.6,400.1L738.3,399.9L738.8,400L739.2,400.1L739.7,400.1L743.9,399.2L744.4,398.8L746.2,395.9L747.3,395L748.6,394.8L749.8,394.8L751.1,394.4L754,391.6L757.3,389.1L757.4,388.7L758.5,388.1L758.2,386.8L757.1,385.4L755.9,384.8L752.4,384L751.1,383.9L748.8,384.1L746.9,384.6L745.4,385.6L743.9,387.2L742.3,391.1L742,391.1L737.1,398.1L735.4,399.5L733.4,400.1L731.1,399.8L721.8,396.4L720.2,395.5L718.6,394.2L717.6,393.7L716.2,393.5L714.2,392.6L710.4,388.8L708.3,387.8L708.3,386.7L709.5,386.3L709.9,385L710.1,383.4L710.5,381.9L710.1,381.8L709.8,381.6L709.5,381.3L709.1,381L709.9,380.4L710.3,379.8L710.5,379L710.5,377.6L710.9,376.6L711.8,376.1L712.8,375.7L713.6,375.3L716.6,372.4L717.3,371.4L718.1,371.4L719.4,374.2L723,373.9L727.1,372.9L730,373.4L730.5,372.6L730.9,372L731.3,371.4L731.5,370.5L732.1,371.8L732.3,372.4L733,372.4L734.4,370.5L736.7,369.5L741.3,368.7L744.2,367.7L745.3,366L745.1,363.5L744.3,360L764,359.4L766,360L765.2,363.1L767.3,364.4L770.2,365.2L772.1,366.7L771.4,368L768,373.4L768.2,374.2L772.8,378.6L776.6,380.1L777.5,380.8L777.9,381.4L781.7,387L783.1,388.3L785.5,389.7L784.1,390.6L784.5,391.8L785.3,392.9L786.3,393.9L786.4,395.3L786.7,396.2L787.4,396.5L788.6,396.3L788.4,399.1L789.8,402.3L791.9,404.9L793.4,405.9ZM618.2,334.1L622,336.7L621.3,340.2L615.9,347.7L615.2,347.7L614,341L614.3,337.8L616.6,336L616.2,334.9L616.5,334.4L617.2,334.2L618.2,334.1ZM666.1,268.2L665.2,269.6L664.7,270.1L664.7,271L665.2,270.9L665.3,271.2L665.3,271.6L665.7,272.8L665.8,274.2L666.1,274.9L663.6,276.3L660.8,278.3L659.1,281L659.5,284.5L657.9,284.5L656.7,284.8L655.8,285.5L655,286.3L656.5,287.3L657.2,287.4L655.5,288.3L654.3,289.5L654.1,290.8L655.8,292L654.4,293.6L655,295.1L656.4,296.5L657.2,297.8L657.4,298.8L657.2,298.9L656.7,299L655.8,299.8L655.6,300.7L655.5,302.1L655.1,302.9L653.9,302.1L653.2,301.7L650.1,300.7L649.2,300.1L649,298.8L649,297.5L648.6,296.9L646.8,296.2L645,293.4L643,293.1L645.5,291.4L646.9,290L647.5,288.8L647,286.7L645.8,285.4L644.3,284.7L643,284.5L638.4,288.2L639.5,288.2L640.3,288.4L640.9,288.7L641.5,289.3L639.6,289.6L638.1,290.9L637.1,292.8L636.3,294.9L637.2,294.5L637.4,294.3L637.8,294L639,295.5L640.4,297.7L641.1,299.8L640.4,300.7L638,300.6L636,300.2L632.5,298.8L635,294.9L635.5,294.4L634.9,292.9L633.7,293.4L632.4,294.8L631.7,295.9L631,295.9L630.9,294.9L630.7,294.3L630.5,293.8L630.2,293.1L623.9,295L622.7,295.9L622,295.9L622.4,295.1L622.8,294.3L623.3,293.7L624.2,293.1L623.6,292.8L622.8,292.3L622,292L622.2,290.8L622,290.2L622.7,289.6L623.4,289.3L623.4,288.2L622.7,288.2L622.7,287.4L623.2,287.2L623.5,287L624.2,286.3L623.4,286.3L624.3,284.3L623.9,283.1L622.8,282.1L622,280.6L621.9,278.6L622.1,276.8L621.8,275.4L620.5,274.9L620.5,273.9L624.4,273.7L631.3,272L632.4,272.3L633.1,273L633.6,273.6L634,273.9L635.7,273.7L641.5,272L643.9,272.9L645.4,274.6L646.7,276.6L648.3,278.7L648.1,279.8L650.5,278.9L653.5,277.1L655,275.9L655,274.6L657.3,271.3L658.7,270.1L659.1,270.2L662.1,270.1L663,269.9L666.1,268.2Z"><title>North Aegean</title></path>
<path id="r-GR-F" data-de="Ionische Inseln" data-en="Ionian Islands" data-cx="132" data-cy="514.9" d="M167.9,581.3L169.8,585.1L177.3,590L178.3,594.3L176.9,592.5L173.7,590.9L170.1,589.8L167.1,589.5L165.5,590.3L164.5,591.5L163.8,592.7L163,593.3L161.6,594L161.6,595.6L162.2,597.2L162.6,598L162.5,599.9L162,600.7L160.8,601L158.5,601L157.7,600.3L154.3,596.1L148.9,591.6L146.4,588.9L146.1,586.6L143.7,584.5L139.6,578.7L137.1,577.1L137.8,575.5L137.3,573.1L138,572.2L137.1,571.3L141.5,564.8L144.3,562.2L146.9,562.8L146.9,563.2L147,563.6L147.5,564.2L147.4,564.5L149.6,568.8L150.5,571.6L151.6,572.6L154.3,574.2L157.8,573.3L162.3,575.2L166.3,578.3L167.9,581.3ZM149.6,543.6L147.9,543.1L146.5,541.8L143.9,538.7L140.7,536.8L136.5,535.6L132.8,536.2L131.1,539.7L129.1,538.1L125,536.9L123.6,535L123.2,533.7L123,531.2L122.8,530.1L121,526.9L120.6,525.5L121.9,525.8L123.7,527.7L125,528.3L125,527.3L123.3,525.6L122.2,523.5L119.3,515.9L118,513.8L116.9,513.5L116.1,515.8L116.1,518.1L117,522.7L116.8,525.5L115.8,527.9L114.4,528.9L112.9,529.6L111.5,531.2L110.8,531.2L110.2,528.8L107,526.9L106.3,524.4L106.8,523.3L107.6,521.9L108.3,520.5L108.1,519.2L107.7,518L108,517L108.6,516.2L109.3,515.8L110.8,514.1L112.2,510.5L112.8,505.9L113,501.6L113.6,503.5L113.8,504.4L114.5,504.4L116,501.7L116.9,502.7L117.7,505.2L119.1,507.3L119.9,506.1L120.4,506.9L120.7,508.4L121.7,509.2L122.8,508.7L124.7,506.7L127.2,505.3L128.2,502.9L128.3,500.1L127.4,497.6L129.6,498.6L128.3,493.9L128.1,492.9L128.3,491.1L128.7,489.6L128.8,488.3L128.1,487.1L128.1,486.2L131.8,486.2L137.8,503.3L138,504.4L137.8,506.5L137.1,507.7L136.1,508.6L134.8,510.1L135.7,511.4L138.3,516.4L139.6,517L141.2,515.7L142.7,513.9L143.9,513L143.6,513.5L143.3,514.4L143.1,515L145.2,515.4L145.8,516.9L146.1,518.8L146.9,520.7L151.5,524.9L152.7,528.6L156.6,534L157.4,536.2L157.7,538.5L157.4,540.8L156.3,543.1L155.7,543.3L152.9,542.6L151.8,542.8L150.6,543.5L149.6,543.6ZM147.6,497.6L149,498L150.1,498.7L152.2,500.5L151.7,500.4L150,500.5L150.7,504.3L151.4,505.6L152.9,506.2L152.9,507.3L149.8,507.7L148,508.3L146.5,507.9L144.6,505.4L145.4,504.4L143.7,502.6L142.3,500.5L140.1,495.7L139.9,494.7L139.6,491.5L139.3,490L138.5,489.2L137.3,488.4L136.5,487.2L137.1,485.2L138.8,486.4L139.8,485.6L140.9,482.3L142.8,482.9L143,484.7L142.4,486.7L141.6,488L143.5,487.9L144.7,488.4L145.7,489.3L146.9,490L146.2,492.9L145.4,495.3L143.1,499.7L144,500.2L145,500.5L146.3,500.7L147.6,500.5L147.6,499.7L146.1,498.6L148.3,498.6L147.6,497.6ZM172.3,468L169.9,471.5L168.8,473.8L168.6,475.7L167.1,475.7L167.1,474.7L171.3,468.2L172.3,468ZM133.3,466.1L132.3,467.5L131.1,469.5L129.6,472.9L128.9,472.9L128.9,469.4L130.8,455.9L132.9,451.3L133.3,448.5L135.2,443.3L136.3,442.7L137.2,441.3L138.6,438.4L139.9,436.8L141.9,435L144.4,433.7L144.6,434.2L144.8,435L146.1,435.6L147.8,437.6L148.3,439.7L148.4,441.7L149.1,443.3L148.5,444.9L148.6,446.2L148.9,447.4L149.1,448.5L149.1,449.7L149,450.4L148.6,451.2L146,455L145.5,456.1L145.7,457.1L146.5,457.4L147.1,456.3L147.6,454.8L148.3,453.7L148.5,455.7L148.2,463.3L147.6,464.9L146.9,465L146.1,463.3L145.4,463.3L145.6,463.9L146.1,466.1L145.7,465.8L144.6,465.2L144.5,466.2L144.3,466.8L144,467.2L143.9,468L142,467.1L140.3,467.4L139.4,468.6L140.1,470L140.1,470.9L139,470.8L138.3,470.3L138.1,469.3L138.6,468L136.4,467.7L135.2,464.9L133.3,466.1ZM84.6,379.1L86.3,380.9L88.2,382.5L90,384.5L91.3,387.8L89.1,387.7L87.7,387.3L86.6,386.4L84.4,383.6L83.2,381.7L82.9,379.9L84.6,379.1ZM79.3,352.3L79.8,353.8L80.8,358L82.1,360.1L82.1,361.1L80.8,361.9L79.8,361.1L77.1,360.3L74.6,358.5L72.8,357.7L70.8,357.2L69.1,357.1L68.2,356.5L65.4,354.1L64.3,353.4L62.4,353.1L60.9,353.1L59.6,352.8L59.1,352.1L59.9,352.3L60.6,351.7L61.3,350.4L57.5,349.2L56,348.5L56,348.9L55.9,349.4L56,349.6L54.5,347.4L53.3,344.6L52.5,341.7L51.8,335.8L50.5,333L48.4,330.6L45.6,328.5L43,327.3L41.7,326.3L38.7,319.9L38.4,318.9L36.5,318.9L35.2,318.8L34.3,317.9L33.5,316L33.8,312.8L33.3,311.8L31.2,313.1L31.3,310.9L30.9,309.3L30,308.5L28.3,308.4L29.4,307.3L32.2,303.4L32.8,302.1L33.8,301.9L44,301.5L47.2,300.8L50,299.6L53,297.8L54.5,298.3L55.5,299.1L56.4,299.9L57.5,300.7L60.3,301.6L61.4,302.3L62,303.6L62.8,303.6L62.8,302.5L63.5,302.5L63.3,306.9L62,309.4L59.7,310.9L53,313.7L51.9,314.6L51.2,316.2L51.6,318L52.5,319.3L53.7,319.9L53.7,320.9L52.2,320.9L52.2,321.8L58.7,325L61.3,325.6L60.8,328.6L60.1,329.3L58.3,328.5L59.6,331.4L61.8,346L62.3,346.8L63.5,347.7L65,348.2L68.1,348.9L69.5,349.5L71.8,351.2L72.8,351.5L74.7,351.4L76.3,350.8L77.3,350.2L78.2,350.4L79.3,352.3ZM172.7,461.3L173.4,461.8L173.6,463.2L172.4,464.8L171,465.9L169.4,466.9L168.5,467.3L167.6,467.8L166.4,469.1L165.5,470.8L164.6,471.1L164.2,469.7L164.5,468.1L166.5,464.6L168.2,462.7L170.1,461.9L172.7,461.3ZM156.9,459.5L157.4,459.5L157.4,460L157,460.7L156.5,461.5L155.6,462.4L152.8,463.2L152.4,464.8L153.9,466.1L154.8,467L155,467.3L155.8,467.9L156.8,469.3L155.4,468.7L151.5,465L149.9,461.4L151,459.8L152.7,459.4L155,458.2L155.6,458.7L156,459.1L156.6,458.9L156.8,459L156.7,459.5L156.9,459.5Z"><title>Ionian Islands</title></path>
</g>
</svg>
