<svg xmlns="http://www.w3.org/2000/svg" viewBox="0 0 1000 955.6" class="regionskarte" preserveAspectRatio="xMidYMid meet" data-land="PK" data-minlon="60.3582" data-maxlon="77.5351" data-minlat="23.2937" data-maxlat="37.4553" data-umbruch="0">
<!-- Umrisse: Natural Earth (ne_10m_admin_1_states_provinces),
     gemeinfrei. Erzeugt von tools/regionen_bauen.py, nicht von
     Hand aendern. -->
<g class="regionen">
<path id="r-PK-GB" data-de="Gilgit-Baltistan" data-en="Gilgit-Baltistan" data-cx="839.7" data-cy="113.3" d="M909.3,67L909.5,68.1L909.9,69.8L908.8,75.1L908.8,77.8L909.3,78.8L910.7,80.6L911.3,81.5L911.5,82.7L910.7,83.2L909.7,83.7L908.9,84.5L908.8,85.3L909.3,86.5L909.3,87.2L909,87.7L908.5,88.1L905.7,89.8L904.9,90.5L904.5,91.6L904.8,93.9L906.1,96.1L907.9,97.7L909.7,98.5L914.2,98.8L915.9,99.7L917.3,102.1L917.8,104.7L918.1,107.5L918.7,109.9L920.3,111.3L921.7,111.4L924.4,110.7L925.8,110.5L927,110.7L927.9,111.1L928.8,111L930.9,109.6L932,109.6L933,109.8L934.1,109.6L934.5,109.2L935.2,108L935.8,107.6L936.4,107.4L937.1,107.3L938.4,107.3L939.7,106.9L941.9,104.8L943,105.1L943.5,107.3L942.7,112.8L943.9,115L945.8,116L950,117.5L951.9,118.8L953.3,120.7L954,121.5L955.1,122L955.9,122.1L963.8,140.2L971.7,158.2L971.3,158.5L970.2,159.9L970.4,161.5L970.9,163.4L970.5,165.4L969.6,166.6L966.1,169.3L965,170.5L964.3,171L963.4,170.9L961.8,169.9L960.3,169.5L958.2,169.7L956.2,170.3L954.7,171.4L954.3,173L954.5,176.6L953.9,177.9L948.6,182.8L947.9,183.1L942.8,184.2L941.8,184.2L940.9,183.8L938.4,182L936.1,181.7L933.9,182.5L925.9,187L919.7,188.5L917.7,188.6L914,187L912,187.5L911.1,188.3L909.9,190.2L909.1,191.2L908.7,191.4L907.1,191.9L903.3,194.6L899.9,198L898.7,198.9L897.7,199.2L895.2,198.8L894,198.8L890.6,199.6L888,199.5L872.7,195.6L870.3,194.4L868,192.8L867,191.8L866.2,190.5L865.5,190.1L865.5,190L865.6,189.4L867.1,186.1L867.3,184L866.9,181.7L865.9,179.5L864.5,177.7L861.8,175L860.6,174.4L860.5,174.4L859.5,174.7L857.5,176.5L856.3,177.1L854,177.6L852.7,178L850.9,178.3L848.2,178.3L844.6,177.3L840.7,175.7L832.7,171.2L831.1,169.7L829.9,167.5L827.6,162.6L826.2,160.3L824.5,158.5L822.7,157.6L821.2,157.3L818.1,158.1L814.6,159.4L809.9,159.8L809.8,159.8L804.5,159L804.4,159L802.2,159L801.5,159L801.4,158.6L801.4,158.4L801.1,158.2L800.3,157.5L800.2,157.1L800.1,156.9L800.2,156.6L800.2,156.4L800.1,156.2L800,156.2L799.9,156.1L798.8,156.1L797.2,156L796.3,155.9L796,155.8L795.7,155.6L794.7,154.7L794.6,154.5L794.4,154.3L794.3,154.1L794.1,153.9L793.9,153.9L793.7,153.9L792.8,153.9L792.4,154L791.9,154.3L791.8,154.2L791.5,154.2L791.2,154L789.8,152.3L789.2,152.1L789,152L788.3,151.7L788.2,151.7L787.7,151.6L786.6,152L786.3,152L786.2,152L786,151.9L784.8,150.7L783.8,150.1L783.3,150L783.1,149.9L783,149.9L782.6,149.8L781.2,149.8L781,149.9L780.8,149.9L780.6,150.1L779.4,151.3L779.2,151.4L779,151.5L778.8,151.6L778.6,151.6L778.6,151.5L778.3,151.4L778,151.1L777.6,150.5L777.6,150.1L777.6,149.9L777.8,149.5L777.9,148.5L777.9,148.2L777.8,147.9L776.1,145L776,144.8L776,144.5L776,144.2L776.2,142.4L776.2,142.2L776.1,141.8L776.2,141.6L776.2,141.3L776.4,141L777.7,138.8L778.1,138.1L778.1,137.8L778.2,137.7L778.3,137.5L779.2,136.8L780.7,136L781.2,135.8L781.5,135.7L781.6,135.5L781.7,135.3L781.6,135.1L781.5,134.9L781.5,134.6L781.3,131.8L781.3,131.6L780.9,130.5L780.9,130.4L780.1,130.1L772.6,129L768.9,129.1L765.4,129.7L765.3,129.6L763.1,128.1L763,128L761.7,127.8L759.8,128.7L759.8,128.6L759.1,127.2L759,126.9L758.8,126.5L758.6,126.3L758.2,126L757.8,125.7L757.7,125.7L757.3,125.5L756.6,125.4L756.3,125.4L755.1,125.5L754.9,125.5L754.1,125.3L754,125.2L753.9,125.2L753.8,125.2L753.7,125L753.4,124.3L753.3,124L752.9,123.7L752.9,123.6L752.4,123.3L750.6,122.2L750.2,121.8L750,121.5L749.2,120.9L743.9,117.4L743.5,117.1L743.3,116.8L743.2,116.4L743.1,116L743.1,115.4L743.5,111.9L743.5,111.7L743.7,111.5L744.8,110.5L744.9,110.3L745,110L744.9,109.8L744.7,109.5L744.6,109.5L743.5,108.8L742.9,108.4L742.3,107.9L741.5,107.1L741.3,106.9L741.2,106.7L741.1,106.6L741,106.5L740.9,106.5L740.7,106.7L740.2,107.3L739.9,107.5L739.7,107.7L739.4,107.8L739,107.9L738.4,107.9L737.8,107.9L736.9,107.6L736.5,107.4L736.4,107.3L736,107.1L735.1,106.6L735,106.6L734.7,106.5L734.3,106.4L728.5,106.7L728.1,106.8L727.6,107L725.4,108.2L725.2,108.5L724.9,108.9L724.7,109.1L724.2,109.2L723.9,109.2L721.4,108.7L715.9,108L715.8,108L710.2,105.7L707.8,104.7L712,97.3L712.1,97.1L712,96.9L711.6,95.9L711.5,95.3L711.1,94.8L709.3,93.3L709.1,93L709,92.8L708.9,92.6L708.7,92.1L708.6,91.6L708.6,91.3L708.6,90.9L708.7,90.6L708.9,90.3L710.4,88.5L710.5,88.1L710.4,87.7L710,87L709.9,86.7L709.9,86.5L710,85.4L710.6,82.7L710.8,82.2L711.1,81.8L711.4,81.3L711.9,80.8L712.4,80.4L713.1,79.8L714,79.5L714.6,79.4L715.2,79.4L715.9,79.4L717.4,80L717.8,80L718.1,79.9L719.3,78.2L719.6,77.9L720.7,77.2L721.6,76.8L722.4,76.6L722.8,76.4L723.4,76L725.6,73.6L726.1,73.2L726.6,73L728.4,72.6L728.8,72.3L729.2,71.7L729.4,71.4L729.4,71.1L729.3,70.3L729.3,68.6L729.5,67.7L729.6,67.4L729.9,67.1L730.5,66.8L731.7,66.6L733.4,66.6L734.9,66.4L735.1,66.3L735.3,66.1L735.4,65.6L735.3,65.2L735.1,64.8L734.9,64.5L734.8,64.2L734.8,63.9L735,63.7L735.3,63.5L738.4,62.4L738.8,62.1L739.2,61.8L739.6,61.2L739.8,60.7L740,59.8L740.2,59.5L740.9,58.4L741.5,57.5L741.5,57.3L741.5,57.1L741.4,56.5L740.5,54.3L740.2,53.4L740.2,51.9L740.1,51.6L740.1,51.3L740.2,51.1L740.5,50.9L741.6,50.8L743.6,50.3L744.2,50L746,48.7L746.3,48.6L746.6,48.7L747.2,49.1L748.1,49.9L748.4,50.1L748.7,50.1L750.1,49.9L751.7,49.7L752.7,49.8L753.2,49.8L754.3,49.5L760.2,47.5L761,47.5L762.4,47.8L765.9,48.8L766.2,48.9L767.5,48.8L768.2,48.8L768.4,48.9L768.9,49.1L769.2,49.1L769.6,49L770.4,48.6L770.6,48.6L770.9,48.8L771.4,49.5L771.7,49.9L771.9,50.1L772.2,50.3L772.6,50.3L774.1,50.3L774.5,50.3L775.2,50.7L775.5,50.7L775.8,50.6L776.5,50.3L777.6,49.3L778,49.1L778.4,49.2L778.8,49.3L780,49.9L780.3,49.9L780.7,49.8L781.8,49L782,49L782.7,49L784.5,49.5L785.7,50L786.9,50.2L787.2,50.2L787.5,50L787.7,49.6L787.7,49.2L787.6,48.9L787.6,48.7L787.6,48.4L787.9,47.8L787.9,47.5L787.9,47.2L787.7,46.6L787.6,46.2L787.3,45.8L786.6,45.2L786.5,45.2L783.3,43.2L783.3,43.1L782.5,42.3L782.4,42.3L781.7,41.9L781.1,41.6L778.9,41.3L778.5,41.1L778.2,41L778.1,40.9L777.9,40.8L777.6,40.4L777.4,40.1L777.4,40L777.2,39.2L777.4,37.9L781,38L784.5,38.6L786.3,39.3L791.1,42.1L792.8,42.5L794.6,43.2L796.2,43.2L799.7,42.1L800.2,41.4L800.5,39.1L800.9,38.2L801.7,37.6L802.7,37.4L806.5,37.8L807.9,37.3L810.8,35.2L815.6,32.3L817.1,31.1L819.6,30.5L820.8,30.4L821.9,30.8L822.2,30.9L822.4,31.1L823.4,32.6L824.5,33.5L825.5,33.3L825.9,31.1L826.1,30.6L826.2,30.1L826.1,29.7L825.8,29.3L826.9,28.7L830.6,27.8L832.8,27L833.7,27.2L834.5,28.3L836.1,29.6L840.3,29.7L842.2,31.1L843.9,33.5L844.3,34.3L844.7,36.4L845,37L845.8,36.7L846.1,36.1L846.6,34.1L847.2,33.2L848,32.7L849.1,32.3L851.1,31.8L853.3,31.8L858.2,31.1L859.3,31.3L860.1,31.8L861.8,33.1L863.8,34.2L870.7,35.5L872.9,36.4L874.4,37.9L875.4,39.9L875.8,42.5L875.9,45.2L876.3,47.8L877.6,49.4L881.1,49.6L881.5,49.1L881.6,48.4L882,47.8L885.6,46.5L890.2,47.3L894.8,49.4L898.4,51.8L901.9,54.7L903.3,56.4L909.3,67Z"><title>Gilgit-Baltistan</title></path>
<path id="r-PK-KP" data-de="Khyber Pakhtunkhwa" data-en="Khyber Pakhtunkhwa" data-cx="683.4" data-cy="228.4" d="M773.2,37.7L777.3,37.9L777.4,37.9L777.2,39.2L777.4,40L777.4,40.1L777.6,40.4L777.9,40.8L778.1,40.9L778.2,41L778.5,41.1L778.9,41.3L781.1,41.6L781.7,41.9L782.4,42.3L782.5,42.3L783.3,43.1L783.3,43.2L786.5,45.2L786.6,45.2L787.3,45.8L787.6,46.2L787.7,46.6L787.9,47.2L787.9,47.5L787.9,47.8L787.6,48.4L787.6,48.7L787.6,48.9L787.7,49.2L787.7,49.6L787.5,50L787.2,50.2L786.9,50.2L785.7,50L784.5,49.5L782.7,49L782,49L781.8,49L780.7,49.8L780.3,49.9L780,49.9L778.8,49.3L778.4,49.2L778,49.1L777.6,49.3L776.5,50.3L775.8,50.6L775.5,50.7L775.2,50.7L774.5,50.3L774.1,50.3L772.6,50.3L772.2,50.3L771.9,50.1L771.7,49.9L771.4,49.5L770.9,48.8L770.6,48.6L770.4,48.6L769.6,49L769.2,49.1L768.9,49.1L768.4,48.9L768.2,48.8L767.5,48.8L766.2,48.9L765.9,48.8L762.4,47.8L761,47.5L760.2,47.5L754.3,49.5L753.2,49.8L752.7,49.8L751.7,49.7L750.1,49.9L748.7,50.1L748.4,50.1L748.1,49.9L747.2,49.1L746.6,48.7L746.3,48.6L746,48.7L744.2,50L743.6,50.3L741.6,50.8L740.5,50.9L740.2,51.1L740.1,51.3L740.1,51.6L740.2,51.9L740.2,53.4L740.5,54.3L741.4,56.5L741.5,57.1L741.5,57.3L741.5,57.5L740.9,58.4L740.2,59.5L740,59.8L739.8,60.7L739.6,61.2L739.2,61.8L738.8,62.1L738.4,62.4L735.3,63.5L735,63.7L734.8,63.9L734.8,64.2L734.9,64.5L735.1,64.8L735.3,65.2L735.4,65.6L735.3,66.1L735.1,66.3L734.9,66.4L733.4,66.6L731.7,66.6L730.5,66.8L729.9,67.1L729.6,67.4L729.5,67.7L729.3,68.6L729.3,70.3L729.4,71.1L729.4,71.4L729.2,71.7L728.8,72.3L728.4,72.6L726.6,73L726.1,73.2L725.6,73.6L723.4,76L722.8,76.4L722.4,76.6L721.6,76.8L720.7,77.2L719.6,77.9L719.3,78.2L718.1,79.9L717.8,80L717.4,80L715.9,79.4L715.2,79.4L714.6,79.4L714,79.5L713.1,79.8L712.4,80.4L711.9,80.8L711.4,81.3L711.1,81.8L710.8,82.2L710.6,82.7L710,85.4L709.9,86.5L709.9,86.7L710,87L710.4,87.7L710.5,88.1L710.4,88.5L708.9,90.3L708.7,90.6L708.6,90.9L708.6,91.3L708.6,91.6L708.7,92.1L708.9,92.6L709,92.8L709.1,93L709.3,93.3L711.1,94.8L711.5,95.3L711.6,95.9L712,96.9L712.1,97.1L712,97.3L707.8,104.7L710.2,105.7L715.8,108L715.9,108L721.4,108.7L723.9,109.2L724.2,109.2L724.7,109.1L724.9,108.9L725.2,108.5L725.4,108.2L727.6,107L728.1,106.8L728.5,106.7L734.3,106.4L734.7,106.5L735,106.6L735.1,106.6L736,107.1L736.4,107.3L736.5,107.4L736.9,107.6L737.8,107.9L738.4,107.9L739,107.9L739.4,107.8L739.7,107.7L739.9,107.5L740.2,107.3L740.7,106.7L740.9,106.5L741,106.5L741.1,106.6L741.2,106.7L741.3,106.9L741.5,107.1L742.3,107.9L742.9,108.4L743.5,108.8L744.6,109.5L744.7,109.5L744.9,109.8L745,110L744.9,110.3L744.8,110.5L743.7,111.5L743.5,111.7L743.5,111.9L743.1,115.4L743.1,116L743.2,116.4L743.3,116.8L743.5,117.1L743.9,117.4L749.2,120.9L750,121.5L750.2,121.8L750.6,122.2L752.4,123.3L752.9,123.6L752.9,123.7L753.3,124L753.4,124.3L753.7,125L753.8,125.2L753.9,125.2L754,125.2L754.1,125.3L754.9,125.5L755.1,125.5L756.3,125.4L756.6,125.4L757.3,125.5L757.7,125.7L757.8,125.7L758.2,126L758.6,126.3L758.8,126.5L759,126.9L759.1,127.2L759.8,128.6L759.8,128.7L761.7,127.8L763,128L763.1,128.1L765.3,129.6L765.4,129.7L768.9,129.1L772.6,129L780.1,130.1L780.9,130.4L780.9,130.5L781.3,131.6L781.3,131.8L781.5,134.6L781.5,134.9L781.6,135.1L781.7,135.3L781.6,135.5L781.5,135.7L781.2,135.8L780.7,136L779.2,136.8L778.3,137.5L778.2,137.7L778.1,137.8L778.1,138.1L777.7,138.8L776.4,141L776.2,141.3L776.2,141.6L776.1,141.8L776.2,142.2L776.2,142.4L776,144.2L776,144.5L776,144.8L776.1,145L777.8,147.9L777.9,148.2L777.9,148.5L777.8,149.5L777.6,149.9L777.6,150.1L777.6,150.5L778,151.1L778.3,151.4L778.6,151.5L778.6,151.6L778.8,151.6L779,151.5L779.2,151.4L779.4,151.3L780.6,150.1L780.8,149.9L781,149.9L781.2,149.8L782.6,149.8L783,149.9L783.1,149.9L783.3,150L783.8,150.1L784.8,150.7L786,151.9L786.2,152L786.3,152L786.6,152L787.7,151.6L788.2,151.7L788.3,151.7L789,152L789.2,152.1L789.8,152.3L791.2,154L791.5,154.2L791.8,154.2L791.9,154.3L792.4,154L792.8,153.9L793.7,153.9L793.9,153.9L794.1,153.9L794.3,154.1L794.4,154.3L794.6,154.5L794.7,154.7L795.7,155.6L796,155.8L796.3,155.9L797.2,156L798.8,156.1L799.9,156.1L800,156.2L800.1,156.2L800.2,156.4L800.2,156.6L800.1,156.9L800.2,157.1L800.3,157.5L801.1,158.2L801.4,158.4L801.4,158.6L801.5,159L800,159.4L799.3,159.9L798.9,160.4L798.6,160.8L798.1,161.9L798,162.3L798,162.6L798.1,162.8L798.2,163L798.3,163.1L798.4,163.2L798.6,163.3L798.6,163.4L799.3,163.7L799.6,163.9L799.9,164.2L800.1,164.7L800,165L799.9,165.2L799.5,165.4L799.2,165.7L798.6,166.3L798.1,166.9L797.9,167.4L797.9,168L797.9,169L797.8,169.6L797.5,170.2L797.4,170.3L797.3,170.4L796.6,170.9L796.3,171.3L796.2,171.4L795.9,172.1L795.6,173.2L795.5,173.4L795.2,173.7L795.1,173.8L794.9,174L794.2,174.3L793.6,174.5L793.3,174.6L792.9,174.7L792,174.8L791.6,174.9L791.5,174.9L791.1,175.3L790.8,175.5L790.5,175.8L790.1,176.5L790,176.6L789.8,176.8L789.8,176.9L789.3,177.2L789,177.4L788.8,177.5L787.8,178.3L787.6,178.4L787.4,178.5L784.9,178.2L783.7,178.5L783.5,178.6L782.4,179.3L782.3,179.3L781.9,179.6L781.6,179.7L781.2,179.7L780.1,179.7L779.7,179.9L779.1,180.2L777.8,181.1L777.2,181.7L776.8,182.2L776.4,182.9L775.9,184.4L775.6,184.9L773.9,187.5L773.8,187.8L773.7,188.1L773.8,188.4L773.9,188.7L774.3,189.3L774.4,189.7L774.4,190L774.4,190.4L773.2,193.6L772.6,194.7L772.4,195L772.3,195.1L772,195.1L771.8,194.9L771.7,194.7L771.5,194.3L771.4,194L771.3,193.8L771.2,193.7L770.9,193.5L770.5,193.5L770.4,193.5L769.9,193.5L769.4,193.5L768.9,193.7L768.2,194.1L767.1,194.6L767,194.6L766.8,194.6L766.7,194.6L766.5,194.6L765.3,194.4L765,194.4L764.9,194.4L764.7,194.4L763,194.7L762.4,194.9L762.2,195.2L762,195.5L762,195.8L761.9,196.1L761.9,196.7L761.9,196.9L761.8,197.2L761.5,197.7L761.4,197.9L761.4,198.2L761.5,200L761.4,200.2L761.4,200.5L761.3,200.6L761,201.2L760.9,201.4L760.8,201.7L760.8,203.8L760.8,204.1L760.7,204.3L760.4,205.5L760.1,206.3L759.5,207.5L759.3,207.8L759.7,209.2L762,212.5L762.5,213.4L762.7,214.1L763.6,215L764.5,219.8L764.6,220.9L764.5,223.1L764.5,223.3L764.5,223.7L764.5,224.4L764.5,224.5L765.6,228.5L766.2,232.5L766.2,232.6L765.6,232.4L765.3,232.1L765,231.9L764.6,231.9L764.2,232.3L763,232.8L762.7,232.9L762.3,233.1L762,233.4L760.9,235.1L760.7,235.4L760.3,235.7L759.8,235.8L759.4,235.8L759.2,235.7L758.6,235.3L758.2,235.2L757.9,235.2L757.5,235.3L757.2,235.5L756.8,235.9L756.7,236.5L756.8,236.9L757,237.1L757.1,237.3L757,237.5L755.2,239.9L754.9,240.5L754.7,241L754.7,241.3L754.6,241.6L754.4,241.9L754.1,242.1L752.8,242.7L751.8,243.3L750,244L748.6,245.2L747.2,246.1L744.4,245.9L743.3,246.4L742.9,246.9L742.7,247.1L742.4,247.4L741.1,247.9L739,248.2L738.5,248.3L737.8,248.6L736.9,249.2L736.4,249.7L735.8,250.4L734.6,251L731.8,251.5L731.7,250.7L731.8,250.5L731.8,250.3L731.7,250.1L731.4,250L730.6,250.1L730.2,250.1L729.9,250L729.2,249.6L728.9,249.5L727.6,249.6L727.2,249.6L726.9,249.6L726.8,249.2L726.7,248.7L726.8,247.7L727.1,247.2L727.4,246.9L727.8,246.8L728.2,246.6L728.4,246.4L728.6,246.2L728.7,246L728.8,245.7L728.8,245.5L728.6,245.2L728.2,244.9L727.8,244.7L727.4,244.8L727,244.9L726.8,245L726.5,245L726.3,244.9L726,244.8L725.8,244.6L725.7,244.4L726,244L726.5,243.7L726.6,243.5L726.7,243.3L726.8,243L726.8,242.1L726.8,241.8L726.8,241.4L726.5,241.1L726.3,240.9L725,241L724,239.9L723.7,239.6L723.7,239.4L723.7,239.1L723.8,238.8L724.2,238.1L724.2,237.8L724,237.5L723.7,237.2L723.4,236.9L723.1,236.7L722.8,236.6L722.4,236.7L722,237L720.8,238.2L720.7,238.4L720.6,238.7L720.6,238.9L720.7,239.3L720.7,239.5L720.6,239.7L720.4,239.7L719.7,239.9L719.4,240.1L719.2,240.5L718.7,241.5L718.4,242L718.2,242.2L717.9,242.4L717.7,242.6L717,242.8L716.2,242.9L715.8,242.8L715.3,242.5L714,241.5L713.7,241.2L713.6,240.9L713.6,240.5L713.7,240.2L713.9,239.9L714.6,239.2L714.9,238.9L715.4,238.6L715.6,238.5L715.8,238.3L715.9,238L715.7,237.7L715.4,237.4L714.6,237.1L713.6,236.9L711,236.6L710.7,236.4L710.3,236L709.9,235.5L709.3,233.9L708.4,231.7L707.4,231.6L705,231.8L702.8,232.4L701,233.6L699.1,235.2L698.1,235.8L692.6,236.9L691.8,237.3L690.9,239.8L691.8,246.3L691.4,248.9L690.8,248.4L690,248.2L689.3,248.4L688.6,248.9L687.8,248.5L686.7,248.2L684.5,248L682.9,247.3L682.6,247.4L681.4,248.9L680.8,249.3L679.6,249.7L679,250.3L678.4,252.3L678.1,252.6L677.7,253.2L676.6,255.8L676.3,256.8L676.1,260.3L675,262.1L675,262.8L675.2,263.7L675,265.1L674.6,265.8L672.1,267.7L671.8,268.1L671.5,269L671.3,269.5L670.8,270.1L670.4,270.7L670.3,271.3L670.7,272.1L670.1,272.2L669.8,272.6L669.6,273L669.1,273.4L668.6,273.5L666.9,273.4L665.9,273.6L662.7,275.3L661.6,276.7L661.6,277.9L661.8,279.1L661.3,280.1L660.6,281.1L660.3,282.2L660.5,283.3L661.5,284L661.1,284L661.9,285L662.7,285.8L663.3,286.8L663.5,288.2L663.2,289.6L662.7,290.5L662,291.2L661.5,291.9L661.1,293.1L660.9,294.3L661,295.7L660.3,296.5L657.5,295.3L657,294.9L656.4,294.3L655.4,293L654.8,292.2L654.5,291.4L654.3,291L654.3,290.5L654.2,288.5L654.1,288L653.9,287.6L653.5,287.1L652.8,286.5L651.3,285.5L650.9,285.4L648.5,286.2L648,286.2L647.5,286.1L645.9,285.4L645.5,285.1L645.1,284.7L644.9,284.3L644.4,283.9L643.9,284.3L643.8,284.9L643.5,286.4L643.6,287.2L643.8,287.8L644.1,288L644.3,288.2L644.4,288.4L644.5,288.7L644.5,289L644.5,289.3L644.5,289.6L644.5,289.8L645,290.7L645.5,291.4L645.6,291.7L645,294.7L645,295.3L645.1,295.6L645.3,295.6L645.5,295.6L645.7,295.5L646,295.5L646.2,295.6L646.5,295.9L646.7,296.3L646.8,296.6L646.8,296.9L646.6,297.4L646.4,297.9L645.7,299L645.3,299.3L644.9,299.5L644.2,299.7L643.5,299.7L642.9,299.9L642.1,300.3L641.7,300.4L641.2,300.3L640.8,300.4L640.3,300.6L639.7,300.9L639.2,300.8L639,300.7L638.8,300.5L638.6,300.4L637.9,300.2L637.6,300.1L637.2,299.8L637,299.7L636.8,299.7L633.1,301.2L632.5,301.6L631.6,302.1L630.9,302.3L630.5,302.7L630,303.1L628.6,305.4L628.2,306.3L628,307.4L627.5,312.4L627.3,313.4L626.7,314L626.1,314.2L625.9,314.4L625.7,314.7L625.9,315.4L627.9,319.6L628.2,321L628.2,322.3L628.2,322.8L628.8,325.2L629.1,327.1L629.3,327.7L629.7,328.2L630.4,328.5L630.8,328.6L631.3,328.6L633.8,328.1L634.1,328.1L634.4,328.1L634.6,328.3L634.8,328.7L634.7,329.9L633.8,332.7L634,333.6L634.4,334.3L634.7,334.6L634.9,334.8L635.2,334.9L635.4,334.7L635.7,334.4L635.8,334.1L636,333.6L636.2,333.4L636.4,333.2L636.7,333.2L637,333L637.1,332.9L637.2,332.7L637.3,332.5L637.5,332.1L637.7,331.9L638,331.8L638.5,331.8L638.9,332L639.1,332.3L639.2,332.6L639.2,333.1L639.3,333.3L639.6,333.5L639.9,334.3L639.7,338.9L639.4,340.1L638.8,341.2L636.7,344.1L636.1,345.2L635.8,346.4L635.8,347.7L635.6,348.4L635.4,349L634.2,350.9L633.9,351.7L633.3,354.5L632.9,355.8L632.1,356.9L631.6,357.3L629.9,358.2L629.3,358.6L627.3,361L626.7,361.8L626.4,362.6L626.2,363.6L626.2,364.9L626.1,365.5L625.8,366L623.6,368.2L622.7,369.3L621.7,372.1L620.9,373.1L620,374L619.1,375L618.6,376.3L618,379L617.6,380.3L615.1,385.3L614.1,386.9L613.7,387.7L613.7,388.7L614,389.8L614,390.2L613.9,390.8L611.1,398.3L611.6,399.4L611.9,399.8L612.6,400.7L612.9,401.1L612.9,401.4L612.6,401.6L612.1,401.7L611.9,402L611.8,402.5L612.3,404L612.3,404.5L612.2,406.1L612,406.9L611.8,407.3L611.5,407.6L610.7,408.1L609.8,408.4L609.5,408.7L609.3,408.9L608.8,411L609.1,411.5L609.1,411.8L609,412.2L608.8,412.6L607.5,414L606.6,415.7L605.5,415.2L605.1,414.9L604.4,414.1L604.1,413.9L603.8,413.8L603.4,413.7L602.9,413.8L602.1,414L599.5,415.1L599,415.2L598.2,415L597.6,414.8L595.6,413.9L594.5,413.6L593.9,413.7L593.3,413.9L591.9,415L591.4,415.3L591,415.5L590.1,415.6L589.6,415.6L588.7,415.5L588.2,415.6L587.8,416L587.1,416.9L586.7,417.4L586.6,417.8L586.4,418.3L586.3,418.6L586.2,418.7L585.6,419L584.6,418.9L575.1,386.8L574.1,385.2L574,384.8L573.4,381L573.4,380.7L573.6,379.9L573.8,378.8L573.8,378.3L573.7,376.5L573.6,375.8L571.4,368.5L569.1,366.6L568.5,365.4L568,362.9L567.1,360.6L565.5,358.2L565.3,357.8L565.3,357.6L565.3,357.4L565.5,356.4L565.6,355.9L566.3,354.9L566.9,354.3L568.3,353.1L570.6,351.6L570.9,351.4L571.3,350.9L572,349.8L572.6,348.4L573,348.1L573.3,347.8L573.6,347.6L573.8,347.5L574,347.5L575.8,347.3L576.1,347.3L576.8,347.6L577.1,347.6L577.3,347.6L577.6,347.6L577.8,347.5L578.4,347.2L579.7,346.4L581.2,345.1L581.5,344.7L582.7,342.8L583,342.5L584.9,340.9L586.2,339.4L586.5,338.7L586.8,338L587.1,337L587.6,335.4L588,334.6L588.3,334.2L588.6,334.1L588.8,334L589,334L589.2,334L589.6,334L590.1,334.2L593.9,336.4L594.3,336.4L594.7,336.4L595.3,336.1L595.5,335.8L595.6,335.5L595.6,335.3L595.5,334.8L595,333.5L585,321.1L584.1,319.8L583.9,319.7L583.3,319.6L583.2,319.5L583.1,319.3L583.4,318.2L583.4,317.8L583.5,317.3L583.2,315.4L583.3,312.1L583.4,311.8L583.5,311.3L583.8,311.3L584,311.2L584.2,311.3L584.6,310.8L585.1,310L586.9,306.8L588.5,304.6L588.8,303.8L590.2,299.4L590.3,299.2L590.9,298.9L591.3,298.7L592.1,297.9L592.9,297.3L593.3,297.2L593.6,297.1L595,297.6L595.3,297.6L595.6,297.6L596.1,297.6L597.4,297.7L597.6,297.7L597.9,297.8L598.1,297.8L598.8,297.6L599.1,297.5L600,297.3L601.1,296.9L602.5,296.7L603,296.5L603.8,296.2L604.2,295.7L605.2,294.6L605.6,294.3L606,294.1L607.4,293.8L611.1,289.7L612,288.3L612.1,287.9L612,287.6L611.9,287.3L611.6,287L611.3,286.9L609.9,286.4L608.7,286.1L608,285.8L607.6,285.7L607.3,285.7L606.7,285.7L606.5,285.7L605.8,285.5L605.5,285.4L604.3,285.5L602.4,285.3L601.8,285.1L601.6,285L601.5,284.8L601.5,284.6L601.5,284.4L601.8,283.3L601.7,283.2L601.5,283.1L601.1,283L600.4,283L600.1,282.9L598.2,282.2L597.9,282.1L597.2,282.1L596.7,282L596.2,281.9L595.4,281.5L593.9,279.5L593.4,277L593,276.3L592.4,276.1L590.5,275L589.7,274.4L589.4,274L589.3,273.7L589.3,273.5L589.4,273L589.5,272.8L589.6,272.6L589.8,272.3L590.5,271.8L590.9,271.6L591.8,271.4L592.6,271.3L593.3,271.1L593.9,271.1L594.8,271.1L595.1,271.1L595.4,271.1L595.7,270.9L596.3,270.5L598,268.6L598.4,268.3L598.6,268.2L598.9,268.2L600.1,268.1L601.2,267.9L602.8,267.3L603.1,267.3L603.4,267.3L603.8,267.2L604.1,266.9L604.2,266.6L604.3,266.3L604.2,265.7L604.1,265L604.1,264.8L604.1,264.6L604.1,264.4L604.4,263.4L605.2,261.4L605.5,261L605.9,260.8L606.9,260.6L608.8,261.9L609.7,262.2L619.1,263.1L619.5,263.1L620.8,262.5L621.4,262.1L622,261.6L622.4,261.3L623.1,261.1L625.4,260.5L625.7,260.4L625.7,260.2L625.6,259.9L625.4,259.8L625.1,259.6L624.9,259.5L624.7,259.4L624.5,259.3L624.4,259.1L624.4,258.9L624.5,258.7L624.6,258.5L624.9,258.1L625.1,257.9L625.8,257.5L628,256.7L627.9,255.9L627.1,254L627,253.7L627.1,250.9L627.2,250.6L627.4,250.5L627.7,250.5L628.7,250.8L629.1,251L630,251.7L630.3,251.8L630.7,251.7L631,251.8L631.2,251.8L631.4,252L631.6,252.3L631.9,253L632,253.2L633,254.2L634.3,255.1L637.1,256.5L638.1,257.1L638.6,257.6L638.9,257.9L639.6,258.2L640,258.2L640.4,258.1L640.8,257.7L641.2,257.4L641.8,257.3L644.3,257.1L645.6,256.7L646,256.7L646.4,256.7L647.2,256.9L654.6,257.4L655.2,257.2L655.9,257.1L656.3,257.1L656.6,257.1L656.8,257.3L656.9,257.5L657.1,257.7L657.2,258L657.2,258.3L657.2,258.6L657.2,258.8L657,259L656.7,259.3L656.2,259.6L655.6,259.9L653.6,260.5L653,260.8L652.7,261.1L652.5,261.3L652.4,261.6L652.4,261.8L652.8,262.3L653.2,262.5L653.8,262.8L655.1,263.3L657.5,263.6L658.8,263.4L660.3,262.7L663.7,260.7L664.5,260.2L665.1,259.8L667.2,259.2L667.7,258.9L668,258.8L668.2,258.6L668.3,258.4L668.4,258.1L668.4,257.9L668.4,257.7L668.2,257.6L667.6,257.1L665.6,255.8L665.4,255.6L665.4,255.5L665.3,255.3L665.4,255L665.5,254.8L666.8,253.4L667.1,252.9L667.4,252.3L669.2,249.8L669.4,249.4L669.6,248.9L669.5,248.6L669.4,248.2L669.2,248L669,247.9L667.5,247.9L665.6,247.6L665.1,247.4L664.7,247.2L664,246.6L663.7,246.2L663.5,245.7L663,244.3L662.7,243.9L662.4,243.7L662.2,243.8L662,244L661.7,244.4L661.4,245.2L660.3,247.2L659.5,248L657.6,249.3L654.4,250.9L651.7,251.4L651.1,251.4L650.5,251.4L650.1,251.3L649.9,251.2L649.7,251.1L649.5,250.8L649.2,250.1L648.7,248.3L648.6,247.9L648.6,247.4L648.7,246.2L648.7,245.9L648.6,245.6L648.4,245.3L648.3,245.1L647.7,244.5L645.5,243L644.7,242.3L644.5,242L644.4,241.8L644.4,241.6L644.4,241.4L644.6,240L644.5,239.6L644.3,238.1L643.8,237.2L643.4,236.7L642.9,236.2L642.4,235.8L642,235.4L641.6,234.5L641.5,234.1L641.5,233.7L641.5,233.1L641.5,233L641.5,232.4L641.6,232.3L641.6,232.1L641.9,231.5L642,231.1L642,230.4L641.7,229L641.6,228.8L640.9,227.9L640.8,227.8L640.9,227.5L640.9,227.4L641,227.3L641.1,227.1L641.3,227L641.5,226.8L641.6,226.7L641.6,226.5L641.6,226.2L641.6,225.6L641.5,225.3L641.5,225.1L641.2,224.9L640.7,224.6L640.5,224.5L640.3,224.4L640.1,224.4L639.9,224.3L639.7,224.2L639.5,224L639.4,223.9L639.3,223.8L639.5,223.5L639.5,223.4L639.5,223.3L639.5,223.2L639.4,222.9L639.4,222.8L639.4,222.7L639.5,222.7L639.6,222.5L639.8,222.2L644.3,221L644.4,220.9L644.5,220.7L644.6,220.7L644.5,220.6L644.9,220.3L645.8,219.7L645.9,219.6L646,219.5L646.4,219.3L648.2,217.8L648.8,216.9L650.4,215.6L650.6,215.3L650.8,214.6L650.8,214.5L650.8,214.4L650.8,214.3L650.7,214.3L650.6,214.3L650.5,214.2L650.5,214.1L650.4,214.1L650.4,214L650.8,212.8L650.8,212.7L650.7,212.6L650.7,212.5L650.6,212.2L650.6,212.1L650.6,212L650.7,211.9L651.8,211L652,210.8L652.1,210.6L652.1,210.5L652,210.2L652.1,210L652.1,209.9L652.2,209.8L652.4,209.7L652.5,209.6L652.9,209.3L653.7,208.4L653.8,208.4L653.9,208.4L654.1,208.5L654.2,208.5L654.4,208.5L654.5,208.6L654.6,208.6L654.8,208.8L655,209.1L655.1,209.1L655.2,209.2L655.3,209.2L655.6,209.3L655.7,209.3L655.7,209.2L655.7,209.1L655.7,208.9L655.7,208.4L655.7,208.3L655.7,208.1L655.8,207.5L655.8,207.4L655.9,207.3L656.2,207.2L656.4,207.1L656.7,207.2L656.9,207.1L657.1,207L657.5,206.8L657.7,206.7L657.8,206.6L657.8,206.5L657.7,206.5L657.6,206.3L657.5,206.2L657.5,206.1L657.5,206L657.5,205.9L657.6,205.7L657.7,205.1L657.8,204.9L657.9,204.8L658,204.7L658.4,204.3L658.5,204.3L658.8,204.2L658.9,204.1L659,204.1L659.1,203.9L659.4,203.8L659.9,203.6L659.4,202.2L659.1,201.9L659,201.9L658.9,202L658.7,202L658.5,202L658.1,201.9L658,201.8L657.9,201.8L657.8,201.6L657.8,201.5L657.8,201.4L657.8,201.3L657.9,201L657.9,200.9L657.8,200.6L657.6,199.9L657.6,199.8L657.7,199.6L656.8,196.9L658,195.7L658.2,195.3L658.2,194.7L658.2,194.3L658.7,192.1L658.9,191.6L659.1,191.2L659.3,191.2L659.4,191.1L659.5,191L659.6,191L659.7,190.9L660.1,190.7L660.9,189.7L661.1,189.6L661.5,189.2L661.6,189.2L661.7,189.2L661.8,189.3L662,189.5L662.1,189.5L662.2,189.5L662.4,189.5L663.6,188.6L664,186.5L664,185.8L663.9,185.2L663.8,184.8L663.8,184.7L663.7,184.5L663.6,184.4L663.5,184L663.6,183.8L663.8,183.7L664.2,183.7L664.4,183.6L664.5,183.4L665.1,182.6L665.4,182.4L665.7,182.3L666,182.2L666,182L665.7,181.5L665.5,181.1L665.2,180.5L664.9,180.2L664.7,180.1L664.3,180.2L664.1,180.2L663.8,180.2L663,179.9L662.6,179.7L662.2,179.6L660.1,179.3L659.8,179.3L659.4,179.4L658.6,179.7L656,181L655.6,181.1L655.2,181L654.4,180.6L653.4,179.7L653.3,179.5L653.3,179.4L653.3,179L653.3,178.7L653.1,178.1L652.9,177.7L652.8,177.4L652.8,177.3L652.7,176.9L652.7,176.8L652.7,176.6L652.6,176.5L652.4,176.2L652.4,176.1L652.4,176L652.2,175.4L652.2,175.2L652.1,175.1L652,175.1L651.6,175L651,174.8L649.7,174.6L648.6,174L648.4,173.8L646.5,171.5L645.6,170.1L645.5,169.9L646.3,169.5L646.9,169.1L647.3,168.4L647.8,166.8L648.3,166.1L648.9,165.6L649.3,165.1L649.4,164.5L649.1,163.8L649.2,160.8L650.7,159L654.7,156.4L656.2,154.2L656.7,152.9L656.4,152L654.7,150.6L651.4,147.1L650.4,145.4L650.5,143.6L652.3,141.3L655.1,139L655.7,138L655.8,136.7L655.3,135.8L654.5,134.9L654.1,134.4L653.8,133.9L653.4,132.4L653.7,131.1L654.1,129.9L654.1,128.6L653.6,127.6L652.6,126.9L649.4,125.4L648.2,124.5L647.7,123.4L648.4,122L649.5,120.8L649.8,119.5L649.5,118.3L648.8,117.2L648.4,116.8L647.6,116.1L647.2,115.7L647,114.9L647,114.3L647,113.7L647,113L646.6,112.1L644.6,108.7L643.8,107.7L641.2,106L640.5,104.9L640.3,102.7L639.4,101.8L637.7,101.1L636.1,100.7L634.5,100.1L633,98.6L632.2,98L630.1,96.9L629.5,96.4L629.4,96.1L629.2,95.1L629.8,94.1L631.6,92.3L631.9,91.7L632.2,90.2L632.5,89.7L634.8,88.3L636.6,87.5L637.1,87.2L637.5,86.5L637.8,85.1L638.1,84.7L641.8,83.5L643,82.6L647.4,77.9L648.4,77.3L649.5,76.9L650.9,76.7L652,76.1L651.7,75.2L651.1,74.2L651.4,73.1L652.9,71.8L653.3,71.1L653.8,70L654.5,67.9L655.1,67.3L656.2,67.2L657.3,67.6L660.7,69.8L662.4,71.5L663.3,71.8L664.2,71.8L665.1,71.4L665.8,70.7L665.6,69.8L664.6,67.9L664.6,65.8L665.8,65.1L669.5,64.9L670.5,64.5L671.2,63.9L671.9,63.2L672.7,62.6L675.5,61.1L676.4,60.2L677.6,59.6L680,59L681,58.2L681,57.6L680.8,57L680.7,56.5L681.2,55.9L681.9,55.5L683.4,55.1L686.7,54.6L687.8,54.1L687.3,53L686.5,51.7L686.7,50.8L687.6,50.2L690.2,49.2L695.3,48.1L697.9,47.9L700.3,47.2L703,47.4L704.2,47.1L707.8,44.2L710.7,42.8L714.4,42L718.3,41.7L723.1,42.4L728.3,42.2L730,41.7L731.4,41L732.8,40.7L734.6,41.4L735.4,41.4L736.1,41.1L737.5,40.2L738.4,39.9L747.1,39L749,39.2L750.7,39.6L751.5,39.7L752.4,39.6L755.3,38.7L758.1,38.9L761.9,38.4L763.7,38.6L765.6,38.9L773.2,37.7Z"><title>Khyber Pakhtunkhwa</title></path>
<path id="r-PK-TA" data-de="Stammesgebiete unter Bundesverwaltung" data-en="Federally Administered Tribal Areas" data-cx="593" data-cy="300.5" d="M622.3,196L623.4,195.5L624,194.1L624.2,192.5L624,191.1L623.5,189.6L623.6,188.5L624.2,187.7L628.3,184.6L630.6,183.4L631.4,182.7L634.4,178.5L635.3,176.2L636.4,174.1L638.5,172.6L645.5,169.9L645.6,170.1L646.5,171.5L648.4,173.8L648.6,174L649.7,174.6L651,174.8L651.6,175L652,175.1L652.1,175.1L652.2,175.2L652.2,175.4L652.4,176L652.4,176.1L652.4,176.2L652.6,176.5L652.7,176.6L652.7,176.8L652.7,176.9L652.8,177.3L652.8,177.4L652.9,177.7L653.1,178.1L653.3,178.7L653.3,179L653.3,179.4L653.3,179.5L653.4,179.7L654.4,180.6L655.2,181L655.6,181.1L656,181L658.6,179.7L659.4,179.4L659.8,179.3L660.1,179.3L662.2,179.6L662.6,179.7L663,179.9L663.8,180.2L664.1,180.2L664.3,180.2L664.7,180.1L664.9,180.2L665.2,180.5L665.5,181.1L665.7,181.5L666,182L666,182.2L665.7,182.3L665.4,182.4L665.1,182.6L664.5,183.4L664.4,183.6L664.2,183.7L663.8,183.7L663.6,183.8L663.5,184L663.6,184.4L663.7,184.5L663.8,184.7L663.8,184.8L663.9,185.2L664,185.8L664,186.5L663.6,188.6L662.4,189.5L662.2,189.5L662.1,189.5L662,189.5L661.8,189.3L661.7,189.2L661.6,189.2L661.5,189.2L661.1,189.6L660.9,189.7L660.1,190.7L659.7,190.9L659.6,191L659.5,191L659.4,191.1L659.3,191.2L659.1,191.2L658.9,191.6L658.7,192.1L658.2,194.3L658.2,194.7L658.2,195.3L658,195.7L656.8,196.9L657.7,199.6L657.6,199.8L657.6,199.9L657.8,200.6L657.9,200.9L657.9,201L657.8,201.3L657.8,201.4L657.8,201.5L657.8,201.6L657.9,201.8L658,201.8L658.1,201.9L658.5,202L658.7,202L658.9,202L659,201.9L659.1,201.9L659.4,202.2L659.9,203.6L659.4,203.8L659.1,203.9L659,204.1L658.9,204.1L658.8,204.2L658.5,204.3L658.4,204.3L658,204.7L657.9,204.8L657.8,204.9L657.7,205.1L657.6,205.7L657.5,205.9L657.5,206L657.5,206.1L657.5,206.2L657.6,206.3L657.7,206.5L657.8,206.5L657.8,206.6L657.7,206.7L657.5,206.8L657.1,207L656.9,207.1L656.7,207.2L656.4,207.1L656.2,207.2L655.9,207.3L655.8,207.4L655.8,207.5L655.7,208.1L655.7,208.3L655.7,208.4L655.7,208.9L655.7,209.1L655.7,209.2L655.7,209.3L655.6,209.3L655.3,209.2L655.2,209.2L655.1,209.1L655,209.1L654.8,208.8L654.6,208.6L654.5,208.6L654.4,208.5L654.2,208.5L654.1,208.5L653.9,208.4L653.8,208.4L653.7,208.4L652.9,209.3L652.5,209.6L652.4,209.7L652.2,209.8L652.1,209.9L652.1,210L652,210.2L652.1,210.5L652.1,210.6L652,210.8L651.8,211L650.7,211.9L650.6,212L650.6,212.1L650.6,212.2L650.7,212.5L650.7,212.6L650.8,212.7L650.8,212.8L650.4,214L650.4,214.1L650.5,214.1L650.5,214.2L650.6,214.3L650.7,214.3L650.8,214.3L650.8,214.4L650.8,214.5L650.8,214.6L650.6,215.3L650.4,215.6L648.8,216.9L648.2,217.8L646.4,219.3L646,219.5L645.9,219.6L645.8,219.7L644.9,220.3L644.5,220.6L644.6,220.7L644.5,220.7L644.4,220.9L644.3,221L639.8,222.2L639.6,222.5L639.5,222.7L639.4,222.7L639.4,222.8L639.4,222.9L639.5,223.2L639.5,223.3L639.5,223.4L639.5,223.5L639.3,223.8L639.4,223.9L639.5,224L639.7,224.2L639.9,224.3L640.1,224.4L640.3,224.4L640.5,224.5L640.7,224.6L641.2,224.9L641.5,225.1L641.5,225.3L641.6,225.6L641.6,226.2L641.6,226.5L641.6,226.7L641.5,226.8L641.3,227L641.1,227.1L641,227.3L640.9,227.4L640.9,227.5L640.8,227.8L640.9,227.9L641.6,228.8L641.7,229L642,230.4L642,231.1L641.9,231.5L641.6,232.1L641.6,232.3L641.5,232.4L641.5,233L641.5,233.1L641.5,233.7L641.5,234.1L641.6,234.5L642,235.4L642.4,235.8L642.9,236.2L643.4,236.7L643.8,237.2L644.3,238.1L644.5,239.6L644.6,240L644.4,241.4L644.4,241.6L644.4,241.8L644.5,242L644.7,242.3L645.5,243L647.7,244.5L648.3,245.1L648.4,245.3L648.6,245.6L648.7,245.9L648.7,246.2L648.6,247.4L648.6,247.9L648.7,248.3L649.2,250.1L649.5,250.8L649.7,251.1L649.9,251.2L650.1,251.3L650.5,251.4L651.1,251.4L651.7,251.4L654.4,250.9L657.6,249.3L659.5,248L660.3,247.2L661.4,245.2L661.7,244.4L662,244L662.2,243.8L662.4,243.7L662.7,243.9L663,244.3L663.5,245.7L663.7,246.2L664,246.6L664.7,247.2L665.1,247.4L665.6,247.6L667.5,247.9L669,247.9L669.2,248L669.4,248.2L669.5,248.6L669.6,248.9L669.4,249.4L669.2,249.8L667.4,252.3L667.1,252.9L666.8,253.4L665.5,254.8L665.4,255L665.3,255.3L665.4,255.5L665.4,255.6L665.6,255.8L667.6,257.1L668.2,257.6L668.4,257.7L668.4,257.9L668.4,258.1L668.3,258.4L668.2,258.6L668,258.8L667.7,258.9L667.2,259.2L665.1,259.8L664.5,260.2L663.7,260.7L660.3,262.7L658.8,263.4L657.5,263.6L655.1,263.3L653.8,262.8L653.2,262.5L652.8,262.3L652.4,261.8L652.4,261.6L652.5,261.3L652.7,261.1L653,260.8L653.6,260.5L655.6,259.9L656.2,259.6L656.7,259.3L657,259L657.2,258.8L657.2,258.6L657.2,258.3L657.2,258L657.1,257.7L656.9,257.5L656.8,257.3L656.6,257.1L656.3,257.1L655.9,257.1L655.2,257.2L654.6,257.4L647.2,256.9L646.4,256.7L646,256.7L645.6,256.7L644.3,257.1L641.8,257.3L641.2,257.4L640.8,257.7L640.4,258.1L640,258.2L639.6,258.2L638.9,257.9L638.6,257.6L638.1,257.1L637.1,256.5L634.3,255.1L633,254.2L632,253.2L631.9,253L631.6,252.3L631.4,252L631.2,251.8L631,251.8L630.7,251.7L630.3,251.8L630,251.7L629.1,251L628.7,250.8L627.7,250.5L627.4,250.5L627.2,250.6L627.1,250.9L627,253.7L627.1,254L627.9,255.9L628,256.7L625.8,257.5L625.1,257.9L624.9,258.1L624.6,258.5L624.5,258.7L624.4,258.9L624.4,259.1L624.5,259.3L624.7,259.4L624.9,259.5L625.1,259.6L625.4,259.8L625.6,259.9L625.7,260.2L625.7,260.4L625.4,260.5L623.1,261.1L622.4,261.3L622,261.6L621.4,262.1L620.8,262.5L619.5,263.1L619.1,263.1L609.7,262.2L608.8,261.9L606.9,260.6L605.9,260.8L605.5,261L605.2,261.4L604.4,263.4L604.1,264.4L604.1,264.6L604.1,264.8L604.1,265L604.2,265.7L604.3,266.3L604.2,266.6L604.1,266.9L603.8,267.2L603.4,267.3L603.1,267.3L602.8,267.3L601.2,267.9L600.1,268.1L598.9,268.2L598.6,268.2L598.4,268.3L598,268.6L596.3,270.5L595.7,270.9L595.4,271.1L595.1,271.1L594.8,271.1L593.9,271.1L593.3,271.1L592.6,271.3L591.8,271.4L590.9,271.6L590.5,271.8L589.8,272.3L589.6,272.6L589.5,272.8L589.4,273L589.3,273.5L589.3,273.7L589.4,274L589.7,274.4L590.5,275L592.4,276.1L593,276.3L593.4,277L593.9,279.5L595.4,281.5L596.2,281.9L596.7,282L597.2,282.1L597.9,282.1L598.2,282.2L600.1,282.9L600.4,283L601.1,283L601.5,283.1L601.7,283.2L601.8,283.3L601.5,284.4L601.5,284.6L601.5,284.8L601.6,285L601.8,285.1L602.4,285.3L604.3,285.5L605.5,285.4L605.8,285.5L606.5,285.7L606.7,285.7L607.3,285.7L607.6,285.7L608,285.8L608.7,286.1L609.9,286.4L611.3,286.9L611.6,287L611.9,287.3L612,287.6L612.1,287.9L612,288.3L611.1,289.7L607.4,293.8L606,294.1L605.6,294.3L605.2,294.6L604.2,295.7L603.8,296.2L603,296.5L602.5,296.7L601.1,296.9L600,297.3L599.1,297.5L598.8,297.6L598.1,297.8L597.9,297.8L597.6,297.7L597.4,297.7L596.1,297.6L595.6,297.6L595.3,297.6L595,297.6L593.6,297.1L593.3,297.2L592.9,297.3L592.1,297.9L591.3,298.7L590.9,298.9L590.3,299.2L590.2,299.4L588.8,303.8L588.5,304.6L586.9,306.8L585.1,310L584.6,310.8L584.2,311.3L584,311.2L583.8,311.3L583.5,311.3L583.4,311.8L583.3,312.1L583.2,315.4L583.5,317.3L583.4,317.8L583.4,318.2L583.1,319.3L583.2,319.5L583.3,319.6L583.9,319.7L584.1,319.8L585,321.1L595,333.5L595.5,334.8L595.6,335.3L595.6,335.5L595.5,335.8L595.3,336.1L594.7,336.4L594.3,336.4L593.9,336.4L590.1,334.2L589.6,334L589.2,334L589,334L588.8,334L588.6,334.1L588.3,334.2L588,334.6L587.6,335.4L587.1,337L586.8,338L586.5,338.7L586.2,339.4L584.9,340.9L583,342.5L582.7,342.8L581.5,344.7L581.2,345.1L579.7,346.4L578.4,347.2L577.8,347.5L577.6,347.6L577.3,347.6L577.1,347.6L576.8,347.6L576.1,347.3L575.8,347.3L574,347.5L573.8,347.5L573.6,347.6L573.3,347.8L573,348.1L572.6,348.4L572,349.8L571.3,350.9L570.9,351.4L570.6,351.6L568.3,353.1L566.9,354.3L566.3,354.9L565.6,355.9L565.5,356.4L565.3,357.4L565.3,357.6L565.3,357.8L565.5,358.2L567.1,360.6L568,362.9L568.5,365.4L569.1,366.6L571.4,368.5L573.6,375.8L573.7,376.5L573.8,378.3L573.8,378.8L573.6,379.9L573.4,380.7L573.4,381L574,384.8L574.1,385.2L575.1,386.8L584.6,418.9L585.1,421.9L584.8,422.7L584.5,422.7L582,422.9L581.6,423L581.1,423.1L579.8,423.8L578.8,424.1L576.7,425.1L576.4,425.5L576.3,425.8L576.3,426.1L576.4,427.2L576.8,428.6L576.8,429.1L576.8,429.6L576.7,429.9L576.2,430.9L576,431.2L575.6,431.1L575.5,431L575.2,430.7L574.7,428.4L574.6,426.8L574.7,424.1L575.6,418.4L575.5,413.9L575.6,413.2L576.3,410.3L576.4,409.6L576.3,409.1L576.2,408.7L576,408.4L575.4,407.4L575.2,406.8L575,405.9L575.1,404.9L575,404.2L574.9,403.5L574.7,403.2L574.4,402.9L574.3,402.8L574.1,402.8L574,403L573.8,403.3L573.4,403.7L572.8,404.8L572.5,404.9L572.3,405L572,405L571.8,405.1L571.6,405.3L571.2,405.8L570.9,406.5L570.5,407L570.2,407.3L569.9,407.5L569.7,407.6L569.5,407.6L568.5,407.4L568.1,407.4L567.8,407.6L567.6,407.7L567.5,407.9L567.3,408.1L567.1,408.1L566.7,408L566.2,407.6L565.9,407.4L565.7,407.5L565.6,407.7L565.5,407.9L565.4,408.3L565.1,409L565,409.6L564.9,409.8L564.4,410.4L564.1,410.7L564,411.1L563.8,411.8L563.8,412.4L563.8,413.6L563.8,413.8L563.7,413.9L563.5,413.9L563,413.6L562.8,413.3L562.6,412.9L562.6,412.2L561.6,404.9L560.7,403.3L560.1,403L559.7,403L559.1,402.9L557.2,402.1L556.8,401.8L556.6,401.5L556.4,400.8L556.3,400.4L556.3,400L556.4,399.2L556.9,397.7L557,396.9L557.3,392.6L557.5,391.1L557.3,386.5L557.3,385.5L557.2,381.7L557.4,380.3L557.8,379L558.1,375.5L558,375.2L557.9,375L557.6,374.9L557.4,374.9L557.1,375.1L556.9,375.2L556.2,376.7L555.6,377.4L555.3,377.7L555.1,377.9L554.7,378.1L554.4,378.2L554.2,378.3L553.9,378.3L553.7,378.2L553.3,378L553,377.7L552.6,377.4L552.3,376.8L552.1,376.3L552,376L552,375.6L552,375.4L552.1,375L553.3,373L553.5,372.5L553.6,371.8L553.6,371.5L553.4,371.2L553.2,371L552,370.4L551.3,369.8L550.7,369.3L550.1,368.6L550,368.1L550.1,367.6L550.5,366.8L551,365.4L551.1,364.5L550.9,364.2L549.3,364L544.9,364.9L544.3,365L541.7,366L540.7,366.8L539.2,368.9L538.3,370L537.3,370.9L536.3,371.6L534.3,372.1L533.3,371.9L524.6,372.6L523.4,372.8L522.6,372.8L522.2,372.2L520.6,372.1L520.8,371.7L520.7,370.8L518.9,365.7L517.7,359.3L517.8,357.8L518.2,355L518.2,352.1L518.6,349.2L518.7,347.8L518.5,346.4L517,342.6L516.4,339.7L516.7,336.9L517.8,334.3L519.5,332.2L520.7,331.4L523.1,330.6L524.1,329.8L527.2,325.2L527.9,323.9L528.1,323.1L527.5,320.8L527.4,319.7L527.2,319.2L526.8,318.9L526.3,318.7L525.8,318.3L525.4,317.9L525.1,317.3L525,316L525.6,315.1L527.6,313.7L529,311.7L530.6,310.6L530.9,310.3L531.5,308.3L530.4,301L530.9,299.9L531.5,298.7L533,296.8L535,295.6L537.3,295.3L538.5,295.3L540.4,295L541,295.1L541.5,295.3L542,295.4L543,295.2L545.8,293.3L548,292.9L551.9,294.8L554.4,294.6L558.7,292L559.3,291.9L561,292L561.7,291.7L562.2,291.1L564.1,287.5L564.8,287.3L566.2,287.7L567.5,287.8L568.6,287.2L578.5,279.1L578.9,276.9L578,274.8L574.9,271.4L574.6,270.9L574.2,269.9L573.7,269.5L572.1,269L571.7,268.7L570.9,267.7L570.3,266.5L570.1,265.2L570.2,263.9L571.4,259.6L571.5,258L571.2,257.5L570.8,257.2L569.8,256.8L569.3,256.3L569,256L568.7,255L568.2,252.3L567.6,251.6L565.1,252L562,250.7L561.1,250.6L559.7,250.4L558.8,249.8L558.3,248.5L557.8,247.2L557.3,246.2L555.9,244.2L555.4,243.2L554.7,240.6L554.1,239.7L552.4,238.1L552.1,237.1L552.8,236.1L553.9,235.1L554,234.1L553.8,233.1L553.9,232L554.9,231.1L555.8,230.7L556.4,230.5L559.5,230.1L561.5,230.2L574.1,234.5L577.4,234.8L579.4,235.7L580.4,236L585.1,236.2L589.9,237.2L591.7,237.3L599.5,236.2L607.4,236.3L611.5,235.5L612.6,233.5L612.8,232.7L613.4,232.5L615,233L616,233.1L616.9,232.8L617.5,232.2L618.2,231.3L619.4,230.9L622.3,230.3L623.2,229.5L623.5,228.2L623.3,227.2L623.2,226.1L623.8,224.7L625.5,222.9L625.8,222L625.9,220.4L625.7,219L625.2,216.7L625.2,215.4L626.9,210.7L626.6,209.1L622.5,206.9L620.7,205.2L619,203.3L617.8,201.5L617.3,200.3L617,198.7L617,197.3L617.7,196.1L618.6,195.7L618.7,195.6L619.9,195.6L622.3,196Z"><title>Federally Administered Tribal Areas</title></path>
<path id="r-PK-BA" data-de="Belutschistan" data-en="Balochistan" data-cx="302.3" data-cy="605.9" d="M501.8,392.3L503.3,391.7L505.4,390.2L507.3,388.5L508,387.3L508.9,386.7L509.8,385.8L516.1,376.1L517.7,374.4L520.5,372.3L520.6,372.1L522.2,372.2L522.6,372.8L523.4,372.8L524.6,372.6L533.3,371.9L534.3,372.1L536.3,371.6L537.3,370.9L538.3,370L539.2,368.9L540.7,366.8L541.7,366L544.3,365L544.9,364.9L549.3,364L550.9,364.2L551.1,364.5L551,365.4L550.5,366.8L550.1,367.6L550,368.1L550.1,368.6L550.7,369.3L551.3,369.8L552,370.4L553.2,371L553.4,371.2L553.6,371.5L553.6,371.8L553.5,372.5L553.3,373L552.1,375L552,375.4L552,375.6L552,376L552.1,376.3L552.3,376.8L552.6,377.4L553,377.7L553.3,378L553.7,378.2L553.9,378.3L554.2,378.3L554.4,378.2L554.7,378.1L555.1,377.9L555.3,377.7L555.6,377.4L556.2,376.7L556.9,375.2L557.1,375.1L557.4,374.9L557.6,374.9L557.9,375L558,375.2L558.1,375.5L557.8,379L557.4,380.3L557.2,381.7L557.3,385.5L557.3,386.5L557.5,391.1L557.3,392.6L557,396.9L556.9,397.7L556.4,399.2L556.3,400L556.3,400.4L556.4,400.8L556.6,401.5L556.8,401.8L557.2,402.1L559.1,402.9L559.7,403L560.1,403L560.7,403.3L561.6,404.9L562.6,412.2L562.6,412.9L562.8,413.3L563,413.6L563.5,413.9L563.7,413.9L563.8,413.8L563.8,413.6L563.8,412.4L563.8,411.8L564,411.1L564.1,410.7L564.4,410.4L564.9,409.8L565,409.6L565.1,409L565.4,408.3L565.5,407.9L565.6,407.7L565.7,407.5L565.9,407.4L566.2,407.6L566.7,408L567.1,408.1L567.3,408.1L567.5,407.9L567.6,407.7L567.8,407.6L568.1,407.4L568.5,407.4L569.5,407.6L569.7,407.6L569.9,407.5L570.2,407.3L570.5,407L570.9,406.5L571.2,405.8L571.6,405.3L571.8,405.1L572,405L572.3,405L572.5,404.9L572.8,404.8L573.4,403.7L573.8,403.3L574,403L574.1,402.8L574.3,402.8L574.4,402.9L574.7,403.2L574.9,403.5L575,404.2L575.1,404.9L575,405.9L575.2,406.8L575.4,407.4L576,408.4L576.2,408.7L576.3,409.1L576.4,409.6L576.3,410.3L575.6,413.2L575.5,413.9L575.6,418.4L574.7,424.1L574.6,426.8L574.7,428.4L575.2,430.7L574.5,444.1L575.1,446L575.2,447L575.2,447.6L574.8,448L574.5,448.1L573.4,448.3L573.1,448.4L568.3,455L568,455.2L567.8,455.2L566.4,455.3L566,455.5L565.6,456L565.1,457L564.7,458.8L564.6,459.7L564.7,460.3L564.8,460.6L565.4,461.6L565.5,462L565.6,462.4L565.4,463L565.1,463.8L560.1,472.4L559.4,474.2L558.9,477.9L557.8,482L557.4,483L557.2,483.5L557.2,484L557.4,484.4L557.7,484.5L558.4,484.8L558.6,485L558.7,485.2L558.8,485.5L558.8,486.9L558.8,487.4L558.8,487.6L558.9,487.9L559.1,488L559.3,488.1L559.5,488L559.7,487.9L560.2,486.9L560.4,486.6L560.6,486.4L560.8,486.2L561.2,486L561.4,486L561.7,485.9L562.3,485.9L563,486L563.3,486.2L563.6,486.3L563.8,486.7L563.8,487.5L563.4,488.8L561.9,491.8L561.6,492.3L560.9,492.9L560,493.8L559.7,494.3L559.4,495.1L559.2,496.3L559.1,497L559.1,498.6L558.3,501.2L555.3,507.6L552.5,514.7L551.9,515.8L551.4,516.4L550.3,517.3L548.8,518.3L548.5,518.6L546.7,521.6L545.4,522.7L541.9,523.3L540.8,523.7L539.8,524.2L539.5,524.4L539.3,524.6L539,525L538.3,526.1L538,526.9L537.9,527.8L537.8,529.8L538,532L536.3,540.3L536.3,541.1L536.4,541.5L536.7,541.7L536.9,541.9L537.3,542L539.7,542.2L540.4,542.4L540.6,542.6L541.1,542.9L541.5,543.3L541.7,543.5L541.8,543.8L541.9,544.1L542,544.8L542,545.8L541.8,547.5L541.8,548.2L541.9,548.8L543.1,550.6L543.3,550.8L543.5,550.9L543.7,550.9L543.9,550.8L544.1,550.6L544.5,550.2L544.9,549.8L545.1,549.7L545.3,549.5L545.6,549.5L545.9,549.4L546.2,549.5L546.4,549.8L546.4,550.5L546.3,551.6L544.3,561.8L543.6,563.1L543.2,563.7L542.8,563.9L542.1,564.3L541.6,564.6L541.2,565L540.5,565.8L537.6,570.6L536.3,572.2L535.5,572.9L533.9,574.1L533.7,574.3L533.4,574.7L533.1,575.5L532.7,576.7L532.4,578.4L532.3,579.2L532.4,579.8L532.4,580L532.5,580.2L532.6,580.3L533,580.7L533.6,581.3L533.8,581.5L533.9,581.9L534,582.3L533.7,583.6L530.5,591.3L529.2,593.6L527.7,595.6L527.3,596L526.8,596.3L525.8,596.8L523.6,597.7L523.3,597.9L523,598.2L522.7,598.6L522.5,599.1L522.4,599.6L522.4,600L522.5,600.3L525.5,605.2L517.8,605.4L490,606.7L480.1,606L474.1,606.8L472.4,607.3L472.1,607.5L471.6,607.8L470.8,608.6L470.4,609.1L467.5,613.9L467.3,614.2L467.1,614.4L466.8,614.6L466.3,614.9L461.3,617.1L458.7,619L457.6,620.2L444.8,630.3L443.1,632.4L440.5,636.5L426.5,643L418.9,645L412.4,645.9L410.1,647.2L409.4,648.5L406.6,655.3L402.5,660.7L398.6,667.9L397.9,669.6L397.5,670.9L397.1,673.1L395,683L394.6,686.1L394.5,688.4L395.2,695L395.6,723.4L395.7,728.9L396.1,732.2L396.7,735.2L397.2,736.6L412.1,765.5L412.7,767.9L412.9,769.7L411.9,775.8L411.9,777L412.3,780.5L412.3,782.3L412,784.4L411.4,786.8L408.4,795.1L407.6,796.4L405.8,798.6L403.7,801.3L402.8,803.1L402.5,804.1L402.1,804.7L401.6,805.1L400,806L399.6,806.7L396.6,812.3L396.2,813.2L396.1,813.8L396.1,814.2L396.4,815.6L396.5,816.3L396.4,816.9L396.2,817.8L394.7,821.8L394.3,822.5L393.9,823.1L392.8,824L391.1,825.5L389.1,828.1L388.6,828.9L388.2,829.5L388.2,829.9L388.2,830.3L388.2,831.5L388.2,832.1L387.9,833.1L387.3,834.2L386.1,835.9L384.7,837.6L383.9,838.1L383.2,838.6L382.4,838.9L380.1,839.2L379.8,839.2L379.4,839.4L378.6,839.8L369.5,847.7L369.5,847.3L368.1,846.5L368.1,843.9L369,838.7L369.2,834.7L369.5,833.4L370,832.3L371.1,830.8L371.4,829.7L371.4,828.2L370.5,826.1L370.2,824.9L369.8,824.3L367.7,822.3L366.8,821.9L366.2,821.4L363.1,818.2L361.1,816.9L360.3,815.8L360.7,814.5L362.2,814.9L362.9,813.5L362.6,811.7L361.3,810.8L360.5,809.6L360,807.3L359.4,805.5L358.3,806.2L358.2,805.9L358,805.5L357.9,805.2L357.1,805.5L356.8,805L356.6,804.1L356.3,803.4L354.3,801.2L353.9,800.1L352.4,800.6L351,800.5L350.1,799.7L350.3,798.2L349.3,799L348.2,799.4L346.1,799.7L345.4,799.6L344.2,799.2L343.5,799.2L343.3,799.3L342.9,799.7L342.4,800L340.3,800.4L339.1,801.2L338.2,802.3L337.5,803.4L336.4,805.8L336.1,806.2L335.5,806.4L334.8,807L334.3,807.8L333.9,808.4L335.5,808.4L340.1,807.5L340.9,807.3L341.5,806.8L342.3,805.7L342.5,805.5L342.7,805.3L343,805.3L343.3,805.2L343.5,805L343.5,804.6L343.4,804.1L343.5,803.8L344.7,803.4L346.5,803.1L348,803.1L348.7,803.6L349,804.3L349.6,804.7L350.4,804.9L351.1,805.2L351.6,805.9L352.4,807.3L353.1,808L353.9,807.3L355,807L356.2,807.2L357.1,808L355.1,809.8L357.4,811.4L358.2,812.5L357.5,813.6L356.6,813.4L355.6,812.7L353.9,811.2L349.4,809.1L346.6,808.4L344.7,808.9L343.1,808.6L341.2,809.1L339.3,809.9L337.7,810.3L332.5,810.4L328.7,811.5L324.1,812.2L321.6,812.1L320.2,812.3L318.2,813.3L316.8,813.8L314.8,815L312.4,815.4L309.3,817L308.2,817.2L306.9,817.1L298.7,814.6L297.5,814.5L296.2,814.8L294.9,815.3L293.6,815.7L292.5,815.4L292.8,815.1L293.2,814L291.4,814.1L289.8,814.5L288.5,815L287.3,815.8L285.4,814.8L283.8,815.5L282.5,817L281.2,819.5L280.7,820L280.1,820.3L279.3,820.5L278.6,820.5L277.1,820.1L275.5,819.8L273.7,819.2L272.7,819.1L269.1,819.1L265.6,818.4L263.8,818.3L262.1,819.1L260.9,818.5L259,818.3L255.4,818.6L253.8,819.2L252.5,820.4L251.5,821.8L250.9,823.2L250.6,825L250.6,825.8L250.9,826.5L251.6,826.9L252.6,827.2L253.3,827.6L253.4,828.4L252.9,828.4L250.2,829.3L249.3,829.2L247.8,828.8L247,828.8L248.5,826.2L248.6,825L247.6,823.5L246.5,822.8L244.9,822.2L243.3,821.8L242.2,821.9L241.5,822.5L240.7,823.9L240,824.2L239.2,824.2L238.1,824.6L237.6,824.6L236.3,824.2L234.3,822.1L233,821.4L230.5,820.7L228,820.5L227.5,820.3L226.7,819.4L226.3,819.1L222.7,819L217.5,817.8L217.5,816.9L218.1,815.6L218.2,814.5L217.9,814.1L217.4,813.7L216.9,813.2L216.6,812.4L216.9,811.7L217.5,811.3L218.2,811.2L218.9,811.2L220.2,811.5L220.8,811.3L221.1,810.3L220.8,810L220.2,809.9L219.4,809.8L216.8,810.5L215.3,810.7L214.7,810.1L211.4,811.8L210.7,812.6L211.5,812.3L211.8,812.1L212.3,813.3L212.7,813.7L213.3,813.3L214.1,812.4L214.9,812.4L215.6,813.5L216.6,815.8L215.9,817.1L215.5,817.2L214.5,817.2L212.3,817.6L211.3,817.6L210.3,817.2L208.8,817.9L206.6,817.4L200.7,815.2L196.8,814.5L192.8,814.6L189,815.2L187.1,815.8L186.1,816.4L185.1,817.2L183.5,819.1L182.7,820.8L182,821.3L181.1,820.9L181.4,822L181.8,822.9L183.6,825.2L183.9,825.4L184,825.6L183.9,826L183.8,826.5L183.6,826.9L183.3,827.3L182.9,827.4L181.1,827L177.7,825.5L175.7,825.1L171.7,825.6L170.8,825.4L168,824.2L164.2,823.1L162.2,822.9L160.4,823.2L156.8,825.3L155.4,825.6L150.4,825.1L140.4,822.8L130.8,822.5L126.3,822.6L123.4,823L122.7,824.5L122.8,825.4L124.1,826L122.9,826.5L121.4,826L119.7,826.5L118,827.5L116.9,828.4L116.2,829L115.6,830L115.2,831L115.3,832L116.1,832.8L117.3,833.1L118.1,833.6L117.8,834.6L115.4,834.6L112.5,834.4L110.5,833.8L111.9,832.6L112.1,832.4L112.3,832.2L112.5,832L113,831.8L113.5,831.8L113.9,831.7L114.1,830.9L113.3,829.2L112.9,828L111.6,827L110.4,826.2L108.7,826L106.7,825.6L104,825.7L101.6,826.6L100.2,827.2L99.5,828.4L99,829.6L99.8,830.3L100.1,831.8L100.8,832.5L101.2,833.2L100,833.7L97.7,833.5L94.9,833.2L91.5,833.1L88.7,833.5L88,834.8L87.8,835.4L87.3,836L86.7,837.9L86,837.9L84.8,838.7L83.4,839.3L81.3,839.6L79.8,839L79.3,837.9L79.6,836.5L80.2,835.8L79.8,834.9L80,834.3L81,833.4L81.6,832.7L81.8,832.2L81.8,831.4L82,830.6L82.8,829.5L83,828.8L82.9,827.8L82.7,827.6L82.4,827.7L82,827.9L81.8,828L81.3,828.6L81,828.8L80.7,828.7L79.9,828L79.6,827.9L78.9,827.8L78.6,827.5L78.3,827.2L77.8,826.9L77.1,826.9L75.2,826.9L74.3,826.7L73.7,826.7L73,826.9L71.6,826.8L73.5,821.2L73.8,815.5L74.2,808.8L74.6,803L74.8,799.1L75,798.1L75.3,797.5L76.2,796.6L76.6,796L76.7,793.7L76.1,791L75.8,788.6L77,786.8L78.3,786.5L79.4,786.5L80.4,786.3L81.3,785.1L81.6,783.9L82.2,779.2L83,773.6L83.5,769.4L84,765.8L84.5,761.7L85,759.6L85.9,757.8L87.3,756.6L94.3,754.6L96.4,753.1L97.5,752.5L98.7,752.2L101.1,751.7L101.6,751L101.8,749.4L102.8,747.7L105,748.1L107.6,749L109.8,749.3L111,748.6L111,747.7L110.4,746.4L110.1,744.9L110.5,744L112.3,742.2L112.9,741L112.9,740.6L112.6,740.2L112.5,739.8L112.6,739.2L112.9,738.7L113.5,738.3L114.6,737.9L115.1,737.6L115.8,737L116.3,736.8L116.8,736.7L118.1,736.8L118.7,736.6L119,736.3L119.5,735.4L119.9,735L120.5,734.9L130.2,733.8L131.4,733.4L131.9,733L132.4,732.5L132.9,732.2L133.5,732.3L134.1,732.6L134.6,732.7L136.4,732.2L136.9,732L137.4,731.8L137.8,731.5L138.4,730.3L138.8,729.7L139.5,729.5L143.4,729.6L148,729.7L153.2,729.9L155.5,730.2L157.8,730.3L159.5,729.9L160.1,730L160.6,730.2L161,730.5L161.4,730.8L162,730.8L163.3,729.5L163.9,726.8L164.4,717L164.8,715.9L165.8,715.4L168.2,715L169,714.2L169.2,712.9L168.7,711.8L168,710.7L167.5,709.5L167.2,701.9L167.3,701.1L167.5,700.4L168.1,699.5L168.4,698.8L169,697.7L170.1,697.2L171.4,697.2L172.4,697.6L170.4,693L169.6,691.8L169,691.1L168.4,690.7L167,690.2L166.3,689.8L164.8,688.3L164.1,688.1L163.5,688L160.3,689.1L159.6,689.1L158.6,689L157.1,689.1L154,690.1L152.5,690.3L149.1,691L147.5,691.1L145.7,690.7L144.3,689.9L143.9,689.7L143.5,689.8L142.7,690.3L142.2,690.3L141.3,689.8L138.8,687.5L139.7,687.4L140.3,687L140.6,686.2L140.9,685.3L141,684.2L140.7,683.4L139.6,682L142.7,674.9L143,672.1L142.7,668.6L142.1,662.4L141.8,659L141.4,653.5L141,649.5L139.5,643L138.4,638.4L139.3,630.7L140.2,623.8L139.9,621.4L138.6,620.6L129.1,622.6L127.9,621.8L124.2,617.7L123.4,616.3L123,615.1L122.6,614.4L122,614L121,613.7L120.1,613.2L119.5,612.3L119,611.4L118.3,610.6L116.7,609.8L109,608.2L104.2,606L102.3,605.5L98.4,605.2L96.7,604.6L93.9,603L90.4,602L89.3,601.4L87.5,599.2L83.8,595.7L81.4,592.6L75.4,587L73.7,584.9L72,581.2L70.3,579.3L70,578.2L69.9,577.1L69.6,575.8L67.1,570.1L66.6,569.4L65.9,568.8L65.2,568.5L64.7,568.1L64.6,567.7L64.8,567.3L65.2,566.9L65.7,566.3L65.9,565.7L65.8,565.1L65.2,564.6L64.2,564.2L63.7,563.2L63.4,562.1L62.8,561.1L62.2,560.8L61.7,560.7L61.1,560.5L60.5,559.8L60.2,559L60.1,557.4L59.9,556.6L59.1,555.4L57.3,553.4L56.7,552L56.7,550.7L57.4,548.3L57.5,547L57,545.3L56,544.5L54.8,544.1L53.6,543.1L48.8,537.3L44.3,531.8L39.9,526.5L36.1,521.9L33,518.3L28.3,512.6L30.1,513.5L34.3,514.8L39.1,516.4L44,518L48.8,519.6L53.7,521.2L58.5,522.7L63.4,524.3L68.2,525.9L73.1,527.5L77.9,529L82.8,530.6L87.6,532.2L92.5,533.8L97.3,535.4L102.2,536.9L107,538.5L111.8,540.1L117.4,541.9L123.4,543L130.7,542.3L132.3,542.2L135.2,541.9L138,541.6L140.9,541.4L143.8,541.1L146.6,540.8L149.5,540.5L152.3,540.3L155.2,540L158,539.7L160.9,539.5L163.7,539.2L166.6,538.9L169.4,538.6L172.3,538.4L175.2,538.1L178,537.8L186.9,537L199.7,539.5L210.4,541.6L217,544.5L218.6,543.8L220.7,539.6L222.1,537.9L224.1,536.8L239.8,532.1L241.1,532.1L251.8,532.2L259.8,532.2L269.5,534L272.4,534.1L280.8,531.6L284.2,530.6L287.6,529.6L290.9,528.6L294.3,527.6L297.7,526.6L301.1,525.6L304.5,524.6L307.8,523.6L311.2,522.6L314.6,521.6L318,520.6L321.4,519.6L324.7,518.6L328.1,517.6L331.5,516.6L334.9,515.6L339.8,514.2L344.5,510.8L346,508.8L347.2,506.7L347.6,506.5L348.1,506.3L348.3,506L347.8,505.4L346,504L343.6,501.5L341.6,500.1L341.2,499.2L341.4,498.1L342.2,495.5L346,487.8L346.2,486.6L346.1,482.5L347.2,473.6L347,472.2L346.7,470.8L346.3,469.9L344.9,468.1L343.9,465.4L344.1,462.5L349.8,440.8L350.3,439.9L351.3,439.3L359.2,437.7L360.5,437.1L365.9,431.5L367.1,430L369,422.4L370.4,421.4L372.7,421.1L374.2,420L375.5,418.4L377.3,416.9L381.2,415L383.4,414.4L386.8,414.3L387.6,414.7L388.1,415.7L388.2,417.2L388,417.7L387.7,418.1L387.5,418.5L387.6,419.1L388,419.4L388.7,419.7L390.1,419.9L391.2,419.9L393.5,419.4L394.6,419.3L395.8,419.7L397.9,420.8L399.1,421.3L400.1,421.4L403.1,421.2L406.8,421.6L407.9,421.4L411.9,419.7L415.4,419.2L417.5,418.3L420.6,417.7L421.7,417.3L425.4,414.9L426.2,414.2L427,413.6L427.9,413.4L430.3,413.5L431.2,413.1L431.8,411.8L431.5,409L429.4,408.3L424.6,408.9L423.4,408.6L422.3,407.9L421.4,406.9L421.1,404.2L420.3,403.1L419.5,402L419,401L419.8,399.8L421.6,399.8L425.4,400.6L427.2,400.4L429,399.7L430.2,398.9L432.1,397.5L435.7,393.5L437.4,392.7L438.2,392.7L439.9,393L442.3,392.9L442.9,392.5L443.6,391.6L444.5,390.8L447.6,389.1L447.9,388.7L448.1,387.2L448.4,386.6L450.3,384.9L450.6,384.4L451,383.7L452.2,380.8L453,379.9L454.2,379.9L455.6,380.4L456.9,381.1L458.4,382.3L459,383.2L459.7,383.9L461,384.1L463.3,384L465.6,384.1L471.7,386.3L473.9,386.7L474.9,386.3L476.1,385.6L476.9,384.7L476.4,384.1L475.2,384L471.8,384.1L470.5,383.9L469.5,383.4L469.3,382.8L470.4,381.9L472.9,380.6L474.3,380.1L475.6,380.1L477.6,380.8L481,382.7L484.2,383.3L485,383.7L485.3,384.6L485.5,387.3L486,388.3L487.5,390L490.1,393.9L491.7,394.9L494,394.7L497.7,392.8L499.7,392.2L501.8,392.3Z"><title>Balochistan</title></path>
<path id="r-PK-PB" data-de="Punjab" data-en="Punjab" data-cx="697.8" data-cy="444.9" d="M869.8,345.7L871.4,347L873,348.9L873.3,350.5L872.7,351.8L870.8,353.9L870.4,355L869.8,357.3L869.6,358.1L867.7,357.9L867,358.1L865.6,358.5L863.8,359.4L862.5,360.7L862.6,362.3L861.8,362.2L860.5,361.8L860,362L859.3,362.6L858.8,362.9L858.4,362.8L854.8,361.5L853.7,361.7L854.2,363.6L853.6,363.7L852.2,363.6L851.6,363.8L851.2,364.5L850.9,365.1L850.5,365.6L849.8,365.9L848.4,366.1L847.1,366L846,366.2L845,367.3L842.4,366.4L841.4,367.9L840.9,370.2L839.8,372L838.6,372.2L834.9,371.5L833.2,374.6L832.5,375.2L831.5,375.5L827.1,378.9L826.2,379.8L825.7,380.9L825.5,382.4L825.5,383.2L825.3,383.6L825.1,383.8L824.6,384.4L824.5,384.7L824.4,385.5L824.2,385.8L824.1,386L823.6,386.2L823.5,386.3L822.9,387.4L822.7,387.6L823.3,388.4L826.5,394.3L828.2,400.7L830,403.3L830.1,404.6L829.8,405.9L829.1,407L828.2,408.2L827.5,409.3L825.2,415.1L824.8,416.7L824.8,419.7L823.8,422.4L823.7,423.8L823.9,425.1L824.2,426L824.7,426.9L825.4,427.8L826.4,428.2L828.9,427.8L830.1,427.8L831,428.3L832.1,429.3L832.5,429.9L829.2,431.8L827.9,432.7L827,433.9L827,435.3L826.1,436.1L825.3,437.2L824.4,438.1L823.3,438.5L822,438.6L820.9,438.7L819.9,439.2L818.9,440.2L818.3,441.3L818,442.3L817.6,442.8L816.3,442.7L814.8,442.3L814.1,442.2L813.4,442.4L812.8,442.8L812.3,443.4L811.9,444.1L812.3,445.3L811.7,446.5L810.5,447.4L809.3,447.8L809.1,448.1L809.7,449.4L809.7,449.9L809.3,450.4L808.4,451L807.9,451.5L806.7,453.3L805.8,454.1L805.3,454.7L804.9,456L804.1,456.7L803.9,457.2L803.7,458.2L803.3,458.6L801.9,458.8L800.7,459.5L799.8,460.1L799,460.8L798.1,461.9L797.5,463.2L797.6,464.3L797.8,465.6L797.5,467.2L796.8,468.1L794.4,468.7L794,469.3L793.6,470.2L790.6,474.3L790.1,474.8L789.3,474.9L788.4,474.6L788.5,475L788.6,476L788.7,476.4L787.7,476.3L786.5,476.9L785.6,477.9L785.2,479L785,479.3L787.9,480.8L789.1,482.6L790.4,485.5L791.2,488.4L791.1,489.3L791,490.4L781.3,498.5L779,499.8L768.5,502.2L758.4,507L757.5,508L755,516.2L752.6,524.4L749.5,534.3L746.3,540.6L743.5,546.2L738.9,555.1L735.3,560.1L733.8,562.7L731.9,567.3L731.2,568.3L730.2,569L722.7,573L716.1,576.6L708.4,580.7L700,585.1L698.4,586.3L694.1,591.7L692.7,594.5L689.3,608L688.1,611.2L686.5,614.2L684.2,616.6L677.1,622.6L672.4,628.9L671.8,630.2L671.4,631.5L670.8,639.7L670.4,640.7L669.7,641.4L660.4,644.3L652.2,646.9L647.3,647.3L642.7,646.9L637.7,647.4L632.7,648.5L628.3,650L621.1,653.7L614.5,657.1L609.7,658.2L605.7,657.6L602.7,655.5L600.4,652.1L598.6,647.8L598.4,646.5L598.7,644L598.2,642.6L597.5,641.8L595.8,640.4L593.9,638.1L592.5,637L590.8,636.1L589.1,635.5L587.9,635.3L586.8,635.6L584.5,636.6L582.3,636.9L581.2,637.3L580.2,638L576.9,641.7L572.9,644.7L572.3,645.3L565.6,642.1L562,639.8L561.1,639.1L560,637.9L556.4,632.4L555.5,630.5L551.9,619.4L551.7,618.1L551.5,617.7L551.3,617.1L550.7,616.4L550.5,615.9L550.3,615.3L550.4,613L550.3,612.6L550.1,612L549.6,611.4L548.9,610.8L548.4,610.5L547.9,610.3L547,609.5L545.7,606.6L544.1,606.1L538.6,605.4L538.3,605.2L538.1,605L538,604.8L538,604.3L537.9,604L537.8,603.7L537.7,603.5L537.4,603.2L537.1,603.1L535.6,602.6L534,602.4L532.5,602.4L531.7,602.4L525.5,605.2L522.5,600.3L522.4,600L522.4,599.6L522.5,599.1L522.7,598.6L523,598.2L523.3,597.9L523.6,597.7L525.8,596.8L526.8,596.3L527.3,596L527.7,595.6L529.2,593.6L530.5,591.3L533.7,583.6L534,582.3L533.9,581.9L533.8,581.5L533.6,581.3L533,580.7L532.6,580.3L532.5,580.2L532.4,580L532.4,579.8L532.3,579.2L532.4,578.4L532.7,576.7L533.1,575.5L533.4,574.7L533.7,574.3L533.9,574.1L535.5,572.9L536.3,572.2L537.6,570.6L540.5,565.8L541.2,565L541.6,564.6L542.1,564.3L542.8,563.9L543.2,563.7L543.6,563.1L544.3,561.8L546.3,551.6L546.4,550.5L546.4,549.8L546.2,549.5L545.9,549.4L545.6,549.5L545.3,549.5L545.1,549.7L544.9,549.8L544.5,550.2L544.1,550.6L543.9,550.8L543.7,550.9L543.5,550.9L543.3,550.8L543.1,550.6L541.9,548.8L541.8,548.2L541.8,547.5L542,545.8L542,544.8L541.9,544.1L541.8,543.8L541.7,543.5L541.5,543.3L541.1,542.9L540.6,542.6L540.4,542.4L539.7,542.2L537.3,542L536.9,541.9L536.7,541.7L536.4,541.5L536.3,541.1L536.3,540.3L538,532L537.8,529.8L537.9,527.8L538,526.9L538.3,526.1L539,525L539.3,524.6L539.5,524.4L539.8,524.2L540.8,523.7L541.9,523.3L545.4,522.7L546.7,521.6L548.5,518.6L548.8,518.3L550.3,517.3L551.4,516.4L551.9,515.8L552.5,514.7L555.3,507.6L558.3,501.2L559.1,498.6L559.1,497L559.2,496.3L559.4,495.1L559.7,494.3L560,493.8L560.9,492.9L561.6,492.3L561.9,491.8L563.4,488.8L563.8,487.5L563.8,486.7L563.6,486.3L563.3,486.2L563,486L562.3,485.9L561.7,485.9L561.4,486L561.2,486L560.8,486.2L560.6,486.4L560.4,486.6L560.2,486.9L559.7,487.9L559.5,488L559.3,488.1L559.1,488L558.9,487.9L558.8,487.6L558.8,487.4L558.8,486.9L558.8,485.5L558.7,485.2L558.6,485L558.4,484.8L557.7,484.5L557.4,484.4L557.2,484L557.2,483.5L557.4,483L557.8,482L558.9,477.9L559.4,474.2L560.1,472.4L565.1,463.8L565.4,463L565.6,462.4L565.5,462L565.4,461.6L564.8,460.6L564.7,460.3L564.6,459.7L564.7,458.8L565.1,457L565.6,456L566,455.5L566.4,455.3L567.8,455.2L568,455.2L568.3,455L573.1,448.4L573.4,448.3L574.5,448.1L574.8,448L575.2,447.6L575.2,447L575.1,446L574.5,444.1L575.2,430.7L575.5,431L575.6,431.1L576,431.2L576.2,430.9L576.7,429.9L576.8,429.6L576.8,429.1L576.8,428.6L576.4,427.2L576.3,426.1L576.3,425.8L576.4,425.5L576.7,425.1L578.8,424.1L579.8,423.8L581.1,423.1L581.6,423L582,422.9L584.5,422.7L584.8,422.7L585.1,421.9L584.6,418.9L585.6,419L586.2,418.7L586.3,418.6L586.4,418.3L586.6,417.8L586.7,417.4L587.1,416.9L587.8,416L588.2,415.6L588.7,415.5L589.6,415.6L590.1,415.6L591,415.5L591.4,415.3L591.9,415L593.3,413.9L593.9,413.7L594.5,413.6L595.6,413.9L597.6,414.8L598.2,415L599,415.2L599.5,415.1L602.1,414L602.9,413.8L603.4,413.7L603.8,413.8L604.1,413.9L604.4,414.1L605.1,414.9L605.5,415.2L606.6,415.7L607.5,414L608.8,412.6L609,412.2L609.1,411.8L609.1,411.5L608.8,411L609.3,408.9L609.5,408.7L609.8,408.4L610.7,408.1L611.5,407.6L611.8,407.3L612,406.9L612.2,406.1L612.3,404.5L612.3,404L611.8,402.5L611.9,402L612.1,401.7L612.6,401.6L612.9,401.4L612.9,401.1L612.6,400.7L611.9,399.8L611.6,399.4L611.1,398.3L613.9,390.8L614,390.2L614,389.8L613.7,388.7L613.7,387.7L614.1,386.9L615.1,385.3L617.6,380.3L618,379L618.6,376.3L619.1,375L620,374L620.9,373.1L621.7,372.1L622.7,369.3L623.6,368.2L625.8,366L626.1,365.5L626.2,364.9L626.2,363.6L626.4,362.6L626.7,361.8L627.3,361L629.3,358.6L629.9,358.2L631.6,357.3L632.1,356.9L632.9,355.8L633.3,354.5L633.9,351.7L634.2,350.9L635.4,349L635.6,348.4L635.8,347.7L635.8,346.4L636.1,345.2L636.7,344.1L638.8,341.2L639.4,340.1L639.7,338.9L639.9,334.3L639.6,333.5L639.3,333.3L639.2,333.1L639.2,332.6L639.1,332.3L638.9,332L638.5,331.8L638,331.8L637.7,331.9L637.5,332.1L637.3,332.5L637.2,332.7L637.1,332.9L637,333L636.7,333.2L636.4,333.2L636.2,333.4L636,333.6L635.8,334.1L635.7,334.4L635.4,334.7L635.2,334.9L634.9,334.8L634.7,334.6L634.4,334.3L634,333.6L633.8,332.7L634.7,329.9L634.8,328.7L634.6,328.3L634.4,328.1L634.1,328.1L633.8,328.1L631.3,328.6L630.8,328.6L630.4,328.5L629.7,328.2L629.3,327.7L629.1,327.1L628.8,325.2L628.2,322.8L628.2,322.3L628.2,321L627.9,319.6L625.9,315.4L625.7,314.7L625.9,314.4L626.1,314.2L626.7,314L627.3,313.4L627.5,312.4L628,307.4L628.2,306.3L628.6,305.4L630,303.1L630.5,302.7L630.9,302.3L631.6,302.1L632.5,301.6L633.1,301.2L636.8,299.7L637,299.7L637.2,299.8L637.6,300.1L637.9,300.2L638.6,300.4L638.8,300.5L639,300.7L639.2,300.8L639.7,300.9L640.3,300.6L640.8,300.4L641.2,300.3L641.7,300.4L642.1,300.3L642.9,299.9L643.5,299.7L644.2,299.7L644.9,299.5L645.3,299.3L645.7,299L646.4,297.9L646.6,297.4L646.8,296.9L646.8,296.6L646.7,296.3L646.5,295.9L646.2,295.6L646,295.5L645.7,295.5L645.5,295.6L645.3,295.6L645.1,295.6L645,295.3L645,294.7L645.6,291.7L645.5,291.4L645,290.7L644.5,289.8L644.5,289.6L644.5,289.3L644.5,289L644.5,288.7L644.4,288.4L644.3,288.2L644.1,288L643.8,287.8L643.6,287.2L643.5,286.4L643.8,284.9L643.9,284.3L644.4,283.9L644.9,284.3L645.1,284.7L645.5,285.1L645.9,285.4L647.5,286.1L648,286.2L648.5,286.2L650.9,285.4L651.3,285.5L652.8,286.5L653.5,287.1L653.9,287.6L654.1,288L654.2,288.5L654.3,290.5L654.3,291L654.5,291.4L654.8,292.2L655.4,293L656.4,294.3L657,294.9L657.5,295.3L660.3,296.5L661,295.7L660.9,294.3L661.1,293.1L661.5,291.9L662,291.2L662.7,290.5L663.2,289.6L663.5,288.2L663.3,286.8L662.7,285.8L661.9,285L661.1,284L661.5,284L660.5,283.3L660.3,282.2L660.6,281.1L661.3,280.1L661.8,279.1L661.6,277.9L661.6,276.7L662.7,275.3L665.9,273.6L666.9,273.4L668.6,273.5L669.1,273.4L669.6,273L669.8,272.6L670.1,272.2L670.7,272.1L670.3,271.3L670.4,270.7L670.8,270.1L671.3,269.5L671.5,269L671.8,268.1L672.1,267.7L674.6,265.8L675,265.1L675.2,263.7L675,262.8L675,262.1L676.1,260.3L676.3,256.8L676.6,255.8L677.7,253.2L678.1,252.6L678.4,252.3L679,250.3L679.6,249.7L680.8,249.3L681.4,248.9L682.6,247.4L682.9,247.3L684.5,248L686.7,248.2L687.8,248.5L688.6,248.9L689.3,248.4L690,248.2L690.8,248.4L691.4,248.9L691.8,246.3L690.9,239.8L691.8,237.3L692.6,236.9L698.1,235.8L699.1,235.2L701,233.6L702.8,232.4L705,231.8L707.4,231.6L708.4,231.7L709.3,233.9L709.9,235.5L710.3,236L710.7,236.4L711,236.6L713.6,236.9L714.6,237.1L715.4,237.4L715.7,237.7L715.9,238L715.8,238.3L715.6,238.5L715.4,238.6L714.9,238.9L714.6,239.2L713.9,239.9L713.7,240.2L713.6,240.5L713.6,240.9L713.7,241.2L714,241.5L715.3,242.5L715.8,242.8L716.2,242.9L717,242.8L717.7,242.6L717.9,242.4L718.2,242.2L718.4,242L718.7,241.5L719.2,240.5L719.4,240.1L719.7,239.9L720.4,239.7L720.6,239.7L720.7,239.5L720.7,239.3L720.6,238.9L720.6,238.7L720.7,238.4L720.8,238.2L722,237L722.4,236.7L722.8,236.6L723.1,236.7L723.4,236.9L723.7,237.2L724,237.5L724.2,237.8L724.2,238.1L723.8,238.8L723.7,239.1L723.7,239.4L723.7,239.6L724,239.9L725,241L726.3,240.9L726.5,241.1L726.8,241.4L726.8,241.8L726.8,242.1L726.8,243L726.7,243.3L726.6,243.5L726.5,243.7L726,244L725.7,244.4L725.8,244.6L726,244.8L726.3,244.9L726.5,245L726.8,245L727,244.9L727.4,244.8L727.8,244.7L728.2,244.9L728.6,245.2L728.8,245.5L728.8,245.7L728.7,246L728.6,246.2L728.4,246.4L728.2,246.6L727.8,246.8L727.4,246.9L727.1,247.2L726.8,247.7L726.7,248.7L726.8,249.2L726.9,249.6L727.2,249.6L727.6,249.6L728.9,249.5L729.2,249.6L729.9,250L730.2,250.1L730.6,250.1L731.4,250L731.7,250.1L731.8,250.3L731.8,250.5L731.7,250.7L731.8,251.5L726.2,254.3L724.9,256L724.6,257.8L725.3,259.5L726.3,260.9L727.5,261.9L728.9,262.1L730.3,261.8L731.5,261.2L732.4,260.5L734.4,259.3L736.6,258.5L737.7,258.3L738.7,258.3L739.8,258.6L740.6,259.2L741.3,260.1L741.9,261.3L742.3,262.5L742.2,263.6L741.8,264.5L741.6,265.2L742,265.9L742.8,266.4L744.3,267.1L745.5,267.4L746.6,267.1L746.8,267L746.9,266.9L747,266.7L747.7,265.8L749.5,264L749.9,263.4L752,258.4L752.7,257.5L754.2,255.9L754.6,255L754.6,254.3L754.2,253.6L751.9,251.9L750.1,250L749.3,249.3L748.5,248.7L743.8,246.7L743.3,246.4L744.4,245.9L747.2,246.1L748.6,245.2L750,244L751.8,243.3L752.8,242.7L754.1,242.1L754.4,241.9L754.6,241.6L754.7,241.3L754.7,241L754.9,240.5L755.2,239.9L757,237.5L757.1,237.3L757,237.1L756.8,236.9L756.7,236.5L756.8,235.9L757.2,235.5L757.5,235.3L757.9,235.2L758.2,235.2L758.6,235.3L759.2,235.7L759.4,235.8L759.8,235.8L760.3,235.7L760.7,235.4L760.9,235.1L762,233.4L762.3,233.1L762.7,232.9L763,232.8L764.2,232.3L764.6,231.9L765,231.9L765.3,232.1L765.6,232.4L766.2,232.6L769.7,239.2L769.9,241.5L769,246.4L769.5,248.2L770.2,249.2L770.7,250.3L770.9,251.5L770.9,252.8L770.7,253.7L769.6,255.9L769.5,256.5L769.6,256.9L769.3,257.9L769.5,258.4L771.1,259.7L771.8,260.6L772.4,261.8L772.8,263.1L772.9,264.1L772.7,264.8L772.3,265L772,265.1L771.8,265.6L771.8,266.2L772.2,268.4L772.4,268.9L772.5,269.5L772.5,270.1L772.2,270.4L772.1,270.4L771.7,270.5L771.6,270.5L771.2,270.8L770.6,272.9L769.9,273.7L769.4,274.5L769.5,275.7L770.1,276.6L770.8,277.5L771.1,278.2L770.9,278.9L770.8,279.4L770.5,280.1L770.6,281.4L770.9,282.7L770.9,284L770.7,284.2L770.3,284.4L770.2,284.4L769.9,284.5L769.7,284.5L769.8,285.2L770,285.3L770.2,285.2L770.6,285.2L770.9,285.1L771,285.1L771.5,284.9L771.8,285L771.8,285.1L771.8,285.5L771.9,286L772.1,286.3L773.3,287.1L773.8,287.5L774.1,288.2L774.1,289L773.8,289.7L773.5,290.2L773.5,291L772.2,292.2L773.3,293.7L775.1,294.9L778.6,296.4L780.4,297.6L781,298.6L781.7,299L782.9,299.6L783.9,299.7L784.2,299.6L784.3,299.6L785.3,299L785.4,299L786,298.8L786.8,298.7L788.8,298.6L789.9,298.9L790.9,299.4L791.3,299.9L791.6,300.2L791.8,300.5L791.9,300.6L792.9,302.3L793.2,302.7L812.6,312.6L812.6,312.7L812,313.5L812.6,314.7L813.4,315.7L814.3,316.4L815.6,316.6L816.7,316.3L818.6,315.2L819.7,315.1L820.7,315.6L822.4,317.3L823.4,317.8L824.5,317.8L827.6,317.3L828.7,317L829.9,316.1L830.4,315.1L830.7,314L831.2,312.6L832.2,311.6L833.3,311.4L834.1,312L834.3,313.5L833.9,315L832.4,317.8L832,319.3L832,320.8L832.5,323.5L832.4,324.9L831.9,326L831.3,327.2L830.8,328.4L831,329.8L832.8,334.5L834.3,336.3L836.4,337L838.6,336.9L840.7,336.2L843,336.1L847,338.1L849.4,337.8L851.9,336.8L853.8,336.7L855.6,337.4L857.8,339.1L859.7,340.3L863.8,341.3L865.8,342.5L869.8,345.7Z"><title>Punjab</title></path>
<path id="r-PK-SD" data-de="Sindh" data-en="Sindh" data-cx="495.4" data-cy="765.5" d="M572.3,645.3L567.3,650.7L566.6,652L562.3,665L560.9,667L556,672L552.5,677.8L545.6,684.6L541.9,687.3L536.6,692.8L534.2,697L532.7,702.1L531.4,710.4L530.2,718.5L530.6,721.3L532.5,723.4L541.5,727.3L543.9,728.9L548.1,732.8L550.6,733.8L564.6,733.2L566.8,733.8L568.9,735L570.5,737.2L570.8,739.7L570.5,745.3L570.7,747.9L570.5,749.1L569.9,750.5L569.6,751.8L569.7,753.1L570.1,755.8L569.9,758.3L569,760.8L565.9,766.3L565.6,767.4L565.6,769.8L565.1,773.3L565.1,774.3L566.2,777.7L568,781L570.3,783.8L572.7,786L573.8,787.4L575,791.1L575.8,792.7L576.7,793.4L579,794.3L582.3,795L589.1,794.8L591.4,794.3L593.6,793.3L595.8,792.6L598.1,793.1L599.4,795L599.6,797.7L599.3,803.6L599,811.4L599.4,813.7L600.4,815.1L602.7,817.8L603.2,819.5L603.4,821.1L604.1,822.4L606.1,824.7L609.7,828.1L610.7,829.4L611.4,831.1L613.3,840.3L614.6,844.1L616.2,847.6L619.7,853.4L621.7,859.3L622.8,861.2L623.3,861.9L622.1,862.8L618.2,864.8L617.4,866.4L616.9,868.5L617.1,870.4L618.2,871.5L618.4,871.9L618.5,872.3L618.4,872.7L618.2,873.2L618.1,874.5L618,875.1L618,875.6L618,876.1L618.2,876.6L619.5,877.4L621.9,877.8L623.9,878.5L624.4,880.2L623.8,880.8L621,881.9L620.4,882.6L620,883.4L619.3,883.9L618.2,883.8L616.9,883.3L615.8,883.2L614.7,883.5L611.2,886.1L610.3,887.3L610.5,888.5L611.2,889.6L610.9,890.1L609.9,890.3L608.7,890.8L606.5,892L605.3,892.3L597.5,891.7L595.4,890.5L594.4,889.5L593.9,888.6L593.7,885.9L593.1,883.5L593.1,882.8L593.5,882.3L594.5,881.6L594.8,880.9L594.1,879.3L591.7,879.3L585.6,880.8L582.9,882.8L581.9,883.2L578.7,883.4L577.6,884L575.4,885.6L574.3,885.9L573.1,886L569.7,887.2L567.7,887.4L567,887.8L566.4,888.9L565,893.1L564.4,894.3L562.3,896.2L559.7,896.8L547.9,897L544.7,896.6L542.1,895.2L537.6,890.1L535.9,889.3L519.5,888.8L515.1,890.5L512.8,890.9L511.7,890.6L508.5,888.9L507,888.5L505.9,888.7L503.6,890.1L502,890.7L500.9,890.6L500.1,889.7L499,887.5L498.6,887L498.1,886.5L497.5,886.3L496.7,886.4L496.4,886.8L496.3,887.3L496.1,887.9L494.3,891.5L493.7,892L492.6,891.1L492.3,887.1L491.4,885.7L488.4,885.6L487.1,888.4L487.1,893.8L487.1,900.9L487.1,910.3L482.5,910.3L476.8,910.2L470,910.2L467.3,910.6L465.5,912L465.5,911.5L465.4,910.9L465.2,910.3L464.8,910.1L464.1,910.2L464.1,910.8L464.3,911.4L464.4,911.9L463.9,912.8L463.2,913.6L462.4,914L461.5,913.6L461.2,913L461.1,912.4L460.8,912.1L460.3,912.3L459.7,912.7L459.6,913.3L459.6,913.9L459.6,914.4L459.7,914.5L459.9,914.7L460,915L459.8,915.2L459.6,915.2L459,915.1L458.9,915.2L458.4,915.4L457.4,915.9L457,916.2L455.6,918.5L455.5,918.6L455.5,918.5L454.1,914.3L454,916.4L454.1,917.1L454.2,917.5L454.7,918.4L454.8,918.7L454.6,920.1L453.5,922.7L453.2,924.1L453.3,925.3L453.9,927.2L454.1,928.4L453.6,928.6L452.5,927.6L450.8,925.9L450.6,927.6L449.6,927.6L448.5,926.6L448,925.2L448.2,924.7L449,924.1L449.2,923.8L449.2,922.6L449.2,922.2L449.6,921.1L450,920.8L450.8,920.8L450.8,920.4L450,919.7L449.1,918.6L448.3,917.3L448,915.7L448.5,913.9L448.6,913.1L447.7,913.3L446.3,912.3L445.7,912L447.3,917.9L448,919.5L447,921.9L446.3,923.2L445.7,923.6L445.4,923.2L445.1,922.4L444.9,921.6L444.8,921L444.5,920.7L443.9,920.8L443.3,921.1L443.3,921.3L442.7,921.1L442,920.8L441.5,920.4L441.3,919.7L441.1,919.2L440.6,919.1L440,919.2L439.6,919L439.3,918.3L439.4,917.4L439.1,916.9L438.6,916.7L438.1,917.1L437.3,918L437,917L436.9,914.5L436.5,913.9L436.1,915.4L435.5,919.9L435.1,920.8L433.4,920.6L431.7,920L428.5,918.5L429.2,919L429.8,919.9L430,920.8L429.3,921.8L428.3,922L427,921.9L424.9,921.3L424.3,921.2L423.8,921.3L423.4,921.2L423.3,920.6L423.4,919.8L423.6,919.2L423.9,918.7L424.1,918L424.6,914.2L424.9,913.4L424.9,913L424.6,913L424.6,912.9L424.6,912.7L424.5,912.5L423.8,913.6L423.8,916.4L423.3,917.6L422.4,918.1L421.6,917.8L421,916.9L420.9,915.7L420.1,916.6L419.6,916.3L419.2,915.5L418.5,914.8L417.7,914.7L417.5,915.3L417.9,916L418.5,916.6L415.3,915.8L414.5,915.3L415.1,915.2L415.5,915.2L415.9,915.2L416.5,914.8L417,914.2L417.7,912.7L418.1,912L417.6,912.3L416.9,912.8L416.3,913.1L415.7,913L415.6,912.3L415.8,911.2L416.1,909.7L413.7,909.2L412.9,908.8L413.9,906.5L414.5,905.8L415.3,906.1L416.9,904.9L417.5,904.2L417.7,903.2L416.3,904.4L415.1,904.3L413.9,903.6L412.3,903.2L409,903.4L407.3,903.2L406.5,902.1L406.3,899.9L405.7,898.2L404.2,895.4L403.9,894.5L403.7,893.6L403.7,890.3L403.5,889.7L402.9,889L403.2,888.5L403.5,887.8L403.7,887.5L403.3,885.7L404.5,884.8L406.3,884.6L407.8,884.7L406.6,884.1L405.6,883.8L403.1,883.8L402.5,883L402.6,881.3L403.4,878.3L403,878.8L402.6,879.1L401.7,879.7L401.6,877.9L401,876.4L400.1,875L398.9,873.6L400.1,872.5L399.9,872L398.6,871.8L398,871L397.7,870.1L397.5,869.1L397.4,868.1L398.3,868.5L399.4,868.6L400.4,868.5L401.4,868.1L399.7,867L398.8,866.5L397.8,866.3L396.7,866.4L396,866.6L395.5,866.4L395.4,865.1L395.8,863.2L396.9,861.5L398.3,860L399.7,858.9L401.4,858L401.5,857.5L400.9,856.5L400.2,855.9L399.7,856L399,856.3L396.9,856.8L396.4,856.6L396.1,855.2L395.8,854.5L395.3,854L394.8,853.7L393.8,853.9L393.1,854.1L392.5,854.2L391.4,853.7L391,854.2L391.5,855.7L390.4,855.2L388,853.3L387,853L385.9,852.5L385.1,851.7L384.6,851L384.2,851L384.2,852.2L384.4,852.8L384.6,853.3L383.2,853.1L382.1,852.3L381,851.3L379.8,850.5L378.2,850.4L376.6,851L375.2,851.3L373.8,850.5L373.2,850.8L370.2,851.2L368.7,851.8L368,851.9L366.5,851.3L366.7,850L367.9,848.6L369.5,847.7L378.6,839.8L379.4,839.4L379.8,839.2L380.1,839.2L382.4,838.9L383.2,838.6L383.9,838.1L384.7,837.6L386.1,835.9L387.3,834.2L387.9,833.1L388.2,832.1L388.2,831.5L388.2,830.3L388.2,829.9L388.2,829.5L388.6,828.9L389.1,828.1L391.1,825.5L392.8,824L393.9,823.1L394.3,822.5L394.7,821.8L396.2,817.8L396.4,816.9L396.5,816.3L396.4,815.6L396.1,814.2L396.1,813.8L396.2,813.2L396.6,812.3L399.6,806.7L400,806L401.6,805.1L402.1,804.7L402.5,804.1L402.8,803.1L403.7,801.3L405.8,798.6L407.6,796.4L408.4,795.1L411.4,786.8L412,784.4L412.3,782.3L412.3,780.5L411.9,777L411.9,775.8L412.9,769.7L412.7,767.9L412.1,765.5L397.2,736.6L396.7,735.2L396.1,732.2L395.7,728.9L395.6,723.4L395.2,695L394.5,688.4L394.6,686.1L395,683L397.1,673.1L397.5,670.9L397.9,669.6L398.6,667.9L402.5,660.7L406.6,655.3L409.4,648.5L410.1,647.2L412.4,645.9L418.9,645L426.5,643L440.5,636.5L443.1,632.4L444.8,630.3L457.6,620.2L458.7,619L461.3,617.1L466.3,614.9L466.8,614.6L467.1,614.4L467.3,614.2L467.5,613.9L470.4,609.1L470.8,608.6L471.6,607.8L472.1,607.5L472.4,607.3L474.1,606.8L480.1,606L490,606.7L517.8,605.4L525.5,605.2L531.7,602.4L532.5,602.4L534,602.4L535.6,602.6L537.1,603.1L537.4,603.2L537.7,603.5L537.8,603.7L537.9,604L538,604.3L538,604.8L538.1,605L538.3,605.2L538.6,605.4L544.1,606.1L545.7,606.6L547,609.5L547.9,610.3L548.4,610.5L548.9,610.8L549.6,611.4L550.1,612L550.3,612.6L550.4,613L550.3,615.3L550.5,615.9L550.7,616.4L551.3,617.1L551.5,617.7L551.7,618.1L551.9,619.4L555.5,630.5L556.4,632.4L560,637.9L561.1,639.1L562,639.8L565.6,642.1L572.3,645.3ZM408.5,903.7L409.4,904.6L410.7,904.7L413.3,903.7L414.5,904.5L414.9,904.7L413.8,905.2L413.5,906.1L413.1,907L411.5,907.4L410.5,907L409.6,906L409.1,905.2L408.9,904.8L408.5,903.7Z"><title>Sindh</title></path>
<path id="r-PK-JK" data-de="Asad Jammu und Kaschmir" data-en="Azad Kashmir" data-cx="813.3" data-cy="235" d="M865.5,190.1L864.8,189.6L862.7,189.6L858.9,190.4L853.4,190.7L832.9,186.7L818.2,181.6L814.5,181L810.8,181.3L807.1,182.7L802.7,185.8L801.2,186.5L792,188.1L791.2,188.4L789.5,189.8L789.4,191.4L789.9,193.1L789.9,195L789,196.4L786.2,198.3L785.3,199.8L785.2,202.4L784.9,203.2L784.4,203.7L782.9,204.5L782.3,204.9L781.4,206.4L781.1,208.1L781.5,209.8L782.8,211.1L784.2,211.9L785.7,212.4L787.2,212.6L788.8,212.5L790.6,212.6L791.5,213.8L792.8,217.1L793.6,218.4L794.1,219.9L793.9,221.3L792.8,222.3L789.4,224L788,225.4L787.5,227.5L788,229.5L789.3,231.3L791,232.5L792.8,232.8L796.8,231.8L798,231.9L801.1,233L803.2,232.9L805.4,232.4L807.5,232.3L809.3,233.5L810,235.7L809.5,237.9L808.1,239.8L806.6,241.4L804.5,242.8L802.5,243.7L796.2,244.7L794.9,245.9L792.8,249.4L792.5,250.2L792.2,251.1L792,251.9L791.9,253.9L792,255L792.3,256L792.8,256.9L795.6,259.2L799.3,261.1L802.4,263.6L803.4,267.3L802.1,272.4L800.3,277.3L799.8,278.5L799.1,279.4L798.4,280.2L797.4,280.9L795.2,281.8L794.3,282.4L793.7,283.6L793.5,286.6L794.3,288.6L795.9,290.2L798,291.7L799.9,293.6L803.2,297.9L805.3,299.1L810.7,300L812.3,301L812.9,302.5L813.1,305.9L813.8,309.4L813.6,310.8L813,312.1L812.6,312.6L793.2,302.7L792.9,302.3L791.9,300.6L791.8,300.5L791.6,300.2L791.3,299.9L790.9,299.4L789.9,298.9L788.8,298.6L786.8,298.7L786,298.8L785.4,299L785.3,299L784.3,299.6L784.2,299.6L783.9,299.7L782.9,299.6L781.7,299L781,298.6L780.4,297.6L778.6,296.4L775.1,294.9L773.3,293.7L772.2,292.2L773.5,291L773.5,290.2L773.8,289.7L774.1,289L774.1,288.2L773.8,287.5L773.3,287.1L772.1,286.3L771.9,286L771.8,285.5L771.8,285.1L771.8,285L771.5,284.9L771,285.1L770.9,285.1L770.6,285.2L770.2,285.2L770,285.3L769.8,285.2L769.7,284.5L769.9,284.5L770.2,284.4L770.3,284.4L770.7,284.2L770.9,284L770.9,282.7L770.6,281.4L770.5,280.1L770.8,279.4L770.9,278.9L771.1,278.2L770.8,277.5L770.1,276.6L769.5,275.7L769.4,274.5L769.9,273.7L770.6,272.9L771.2,270.8L771.6,270.5L771.7,270.5L772.1,270.4L772.2,270.4L772.5,270.1L772.5,269.5L772.4,268.9L772.2,268.4L771.8,266.2L771.8,265.6L772,265.1L772.3,265L772.7,264.8L772.9,264.1L772.8,263.1L772.4,261.8L771.8,260.6L771.1,259.7L769.5,258.4L769.3,257.9L769.6,256.9L769.5,256.5L769.6,255.9L770.7,253.7L770.9,252.8L770.9,251.5L770.7,250.3L770.2,249.2L769.5,248.2L769,246.4L769.9,241.5L769.7,239.2L766.2,232.6L766.2,232.5L765.6,228.5L764.5,224.5L764.5,224.4L764.5,223.7L764.5,223.3L764.5,223.1L764.6,220.9L764.5,219.8L763.6,215L762.7,214.1L762.5,213.4L762,212.5L759.7,209.2L759.3,207.8L759.5,207.5L760.1,206.3L760.4,205.5L760.7,204.3L760.8,204.1L760.8,203.8L760.8,201.7L760.9,201.4L761,201.2L761.3,200.6L761.4,200.5L761.4,200.2L761.5,200L761.4,198.2L761.4,197.9L761.5,197.7L761.8,197.2L761.9,196.9L761.9,196.7L761.9,196.1L762,195.8L762,195.5L762.2,195.2L762.4,194.9L763,194.7L764.7,194.4L764.9,194.4L765,194.4L765.3,194.4L766.5,194.6L766.7,194.6L766.8,194.6L767,194.6L767.1,194.6L768.2,194.1L768.9,193.7L769.4,193.5L769.9,193.5L770.4,193.5L770.5,193.5L770.9,193.5L771.2,193.7L771.3,193.8L771.4,194L771.5,194.3L771.7,194.7L771.8,194.9L772,195.1L772.3,195.1L772.4,195L772.6,194.7L773.2,193.6L774.4,190.4L774.4,190L774.4,189.7L774.3,189.3L773.9,188.7L773.8,188.4L773.7,188.1L773.8,187.8L773.9,187.5L775.6,184.9L775.9,184.4L776.4,182.9L776.8,182.2L777.2,181.7L777.8,181.1L779.1,180.2L779.7,179.9L780.1,179.7L781.2,179.7L781.6,179.7L781.9,179.6L782.3,179.3L782.4,179.3L783.5,178.6L783.7,178.5L784.9,178.2L787.4,178.5L787.6,178.4L787.8,178.3L788.8,177.5L789,177.4L789.3,177.2L789.8,176.9L789.8,176.8L790,176.6L790.1,176.5L790.5,175.8L790.8,175.5L791.1,175.3L791.5,174.9L791.6,174.9L792,174.8L792.9,174.7L793.3,174.6L793.6,174.5L794.2,174.3L794.9,174L795.1,173.8L795.2,173.7L795.5,173.4L795.6,173.2L795.9,172.1L796.2,171.4L796.3,171.3L796.6,170.9L797.3,170.4L797.4,170.3L797.5,170.2L797.8,169.6L797.9,169L797.9,168L797.9,167.4L798.1,166.9L798.6,166.3L799.2,165.7L799.5,165.4L799.9,165.2L800,165L800.1,164.7L799.9,164.2L799.6,163.9L799.3,163.7L798.6,163.4L798.6,163.3L798.4,163.2L798.3,163.1L798.2,163L798.1,162.8L798,162.6L798,162.3L798.1,161.9L798.6,160.8L798.9,160.4L799.3,159.9L800,159.4L801.5,159L802.2,159L804.4,159L804.5,159L809.8,159.8L809.9,159.8L814.6,159.4L818.1,158.1L821.2,157.3L822.7,157.6L824.5,158.5L826.2,160.3L827.6,162.6L829.9,167.5L831.1,169.7L832.7,171.2L840.7,175.7L844.6,177.3L848.2,178.3L850.9,178.3L852.7,178L854,177.6L856.3,177.1L857.5,176.5L859.5,174.7L860.5,174.4L860.6,174.4L861.8,175L864.5,177.7L865.9,179.5L866.9,181.7L867.3,184L867.1,186.1L865.6,189.4L865.5,190L865.5,190.1Z"><title>Azad Kashmir</title></path>
<path id="r-PK-IS" data-de="Hauptstadtterritorium Islamabad" data-en="Islamabad Capital Territory" data-cx="739.6" data-cy="256.9" d="M731.8,251.5L734.6,251L735.8,250.4L736.4,249.7L736.9,249.2L737.8,248.6L738.5,248.3L739,248.2L741.1,247.9L742.4,247.4L742.7,247.1L742.9,246.9L743.3,246.4L743.8,246.7L748.5,248.7L749.3,249.3L750.1,250L751.9,251.9L754.2,253.6L754.6,254.3L754.6,255L754.2,255.9L752.7,257.5L752,258.4L749.9,263.4L749.5,264L747.7,265.8L747,266.7L746.9,266.9L746.8,267L746.6,267.1L745.5,267.4L744.3,267.1L742.8,266.4L742,265.9L741.6,265.2L741.8,264.5L742.2,263.6L742.3,262.5L741.9,261.3L741.3,260.1L740.6,259.2L739.8,258.6L738.7,258.3L737.7,258.3L736.6,258.5L734.4,259.3L732.4,260.5L731.5,261.2L730.3,261.8L728.9,262.1L727.5,261.9L726.3,260.9L725.3,259.5L724.6,257.8L724.9,256L726.2,254.3L731.8,251.5Z"><title>Islamabad Capital Territory</title></path>
</g>
</svg>
