<svg xmlns="http://www.w3.org/2000/svg" viewBox="0 0 1000 492.4" class="regionskarte" preserveAspectRatio="xMidYMid meet" data-land="SK" data-minlon="16.6736" data-maxlon="22.7105" data-minlat="47.6945" data-maxlat="49.6573" data-umbruch="0">
<!-- Umrisse: Natural Earth (ne_10m_admin_1_states_provinces),
     gemeinfrei. Erzeugt von tools/regionen_bauen.py, nicht von
     Hand aendern. -->
<g class="regionen">
<path id="r-SK-ZI" data-de="Žilinský kraj" data-en="Žilina" data-cx="419.8" data-cy="121.5" d="M458.8,13.9L459.7,14.3L461.1,14.9L463.9,19.7L465.2,21L469,23.6L471,28.6L474.1,41.3L476.7,49.2L477.6,51L480.4,53.2L483.9,54.1L490.5,54.2L489.7,55.8L489.5,57.1L489.6,61.1L489.2,64L489.2,64.1L498.8,67.3L502.4,67.7L505.7,67.3L511.3,65.1L512.8,66.3L514.3,71L515.2,75.2L516.1,87.3L515.9,88.4L514.6,90.2L514.5,91.3L515.1,92.1L517.4,93.8L517.6,94.4L517.7,94.5L518.9,95.8L519,95.9L519.3,96.9L518.9,98.4L518,98.9L516.9,99.2L516.2,99.8L509.9,109.9L509.2,113.2L511.4,116.2L515.5,117.7L523.2,118.3L526.9,116.9L529.2,114.5L529.4,115.3L532.9,121.2L533.7,123.2L534.3,125.6L534.4,128.6L534.6,130.2L535.4,131.6L535.9,132L536.4,131.8L536.7,131.4L537.2,130.7L537.9,130.4L539.1,130.2L540.1,130.4L541.1,131.3L541.9,132.7L543,135.2L543.6,136.1L544.1,136.3L544.6,135.8L545,135.6L545.5,135.9L546,136.8L546.5,137.5L547,138L547.7,138L550.9,137.4L553.2,136.3L554,136.1L554.9,136L555.4,137L555.5,139L554.5,146.4L554.4,149.1L554.2,151.2L553.4,154.8L553.3,158L553,159.5L552.4,160.2L551.2,160.3L549.5,161.2L548.6,161.2L547.4,161L546.8,161.2L546.6,161.8L546.8,162.9L552.5,170.2L553.5,171.2L554.3,172.2L554.8,173.4L555,175.6L555.7,178.1L556.1,179.1L556.4,179.8L556.9,180.3L557.7,180.6L559.6,181L560,181.5L559.6,182.6L557.8,184.4L556,185.8L550.4,188.3L548.2,186.7L547.5,186.6L546.6,186.6L543.7,188L541.7,188.2L541.3,188.4L525.4,188L520.8,186.7L519.2,186.7L511.6,188.9L509.7,190L509,190L508.4,189.8L507.6,188.9L507.1,188.4L506.6,187.9L506,187.6L504.4,187.2L503.7,186.8L502.8,185.8L501.6,184.8L490.9,180.9L478.4,179.3L450.6,184.1L445,190.9L441.5,192.9L439.8,195.2L439.5,196.2L439.3,197.8L439.1,198.3L438.9,198.7L438.5,199.1L437.7,199.8L436.8,200.1L430,201.1L429.5,201.1L429.2,200.9L429.6,199.9L429.7,199.6L430,199.5L430.6,199.4L430.7,199.2L430.8,198.6L430.7,197.7L430.4,195.7L430.1,194.8L429.7,194.2L429.2,194L428.9,193.7L428.7,192.8L428.4,192.4L427.1,192.3L399.7,196.3L391.9,195.8L390,200.3L389.5,200.9L388.7,201.7L385.9,203.1L385.6,203.7L385.6,204.5L386.5,207.6L386.6,209.1L386.5,210.1L385.8,211.1L385.4,211.7L385.1,212.5L385.3,213.6L386.3,215.3L388.5,217.4L388.7,217.7L388.8,218.5L388.7,219.7L388.2,222.7L387.8,224.2L385.5,228.4L371.4,227.5L368.6,226.9L368.6,226.5L368.2,225.8L367.9,225.5L367.7,225.2L367.4,224.8L367.3,224.3L367.1,223.8L366.8,223.4L364.8,224.1L357.7,229.1L357.3,226.7L356.8,225.9L351.1,218.8L350,217.1L349.4,215.8L348.9,214.1L348.9,213.2L349,212.6L349.3,212.1L349.3,211.9L348.8,211.5L347.8,210.9L345.2,208.4L344.5,208.2L344.1,208L343.5,207.6L343.1,207.4L342.3,207.2L341.9,207L341.5,206.7L337.7,203.3L337,202.4L336.7,201.6L336.6,200.1L336.9,198.6L336.9,197.9L336.9,197.3L336.6,196.2L336.6,195.5L336.7,194.8L337.2,193.3L337.3,192.3L337.2,191L336.2,187.2L336.2,186.3L336.4,185.7L336.9,185L337.1,184.5L337.3,184L337.3,183.5L337.5,183.2L337.7,183L338.1,182.8L338.4,182.5L338.8,182L339.1,181.6L340,180.8L336.6,176.5L336,176L335.1,175.5L331.9,175.2L325,173.4L319.7,175L318.1,174.9L317.8,174.5L316.7,172.4L316.3,172L315.9,172L313.8,174.4L313.5,174.8L313.4,175.2L313.4,175.6L312.8,176.5L311.6,177.5L307.2,180.1L306,180.4L305.3,180.3L303,179.5L300,179L298.6,177.9L297.7,175.9L302.5,173L303.2,172.4L304.2,171.5L305.7,168.8L306.7,167.8L307.7,167.2L312.7,165.8L314.3,164.5L316.2,162.3L318.3,159.1L319.2,157.5L319.6,156L319.1,152.7L319.1,152.2L319.2,151.7L319.5,151L319.6,150.6L319.6,150.2L319.5,149.9L319.4,149.5L319.5,149.1L319.8,148.1L319.8,147.6L319.8,147.2L319.6,146.9L319.3,146.6L319,146.4L318.3,146L318.1,145.8L317.9,145.5L317.5,144.4L317.2,144L316.8,143.5L316.4,143.2L316.1,143L313.7,142.3L313.1,142.3L312.8,142.2L312.6,141.7L313.2,140.8L317.6,136.1L315.6,133L315.5,132.4L315.3,131.4L315.4,130.5L315.3,128.6L314.8,127.4L313.5,125.6L312.7,124.8L309.6,122.9L308.7,122.6L308,122.4L307.3,121.9L305.3,120L304.8,119.7L304.4,119.5L303.8,119.5L303.5,119.5L299.6,116.9L298.6,116L297.7,114.7L295.6,111L295.4,110.4L295.4,110.2L295.3,109.7L295.2,109.2L294.3,107.6L294.2,107.2L294.2,106.9L294.5,106.2L294.6,105.9L294.4,105.2L293.9,104.4L283.7,87.5L283.6,87.1L283.5,86.6L283.4,86.1L283.4,84.2L280.4,83.2L279.6,82.1L283.5,79L283.8,70.2L283.9,67.1L288.8,68.2L292.5,65.8L299.5,57.3L305,54.4L306.3,53L307.2,50.8L307.6,46.1L308.4,44.1L311.8,41.9L319.2,43L323.9,40.5L325,40.3L326.2,40.5L331.6,43.2L336.4,44.7L341.1,44.4L347.9,38.2L351,37.1L357.7,36.9L374.1,38.4L378.9,41.3L377.5,45.5L377.6,49.1L378.4,52.5L378.9,56.2L378.2,64.4L379.1,67.3L382.3,67.9L386.5,67.5L392.9,63.9L396.6,63L398.1,63.5L401.4,65.9L403,66.7L404.7,66.8L408.8,66L413.9,64L415.1,62L415.6,58.9L416.7,54L417.2,53.9L419.2,53.8L420,53.3L420.4,51.6L420,50.4L419.5,49.6L419.2,49.4L421.9,41.2L424.1,37.7L426.6,35.4L429.3,34.1L432.4,33.4L437.5,33.5L439.3,33.2L441.6,32.3L442.9,31.2L457.2,15.6L457.8,14.4L458.8,13.9Z"><title>Žilina</title></path>
<path id="r-SK-PV" data-de="Prešovský kraj" data-en="Prešov" data-cx="750.4" data-cy="138.6" d="M759.8,52.2L762.1,52.7L771.4,57.6L787.5,62.1L790.3,62.1L796.4,60.7L798.9,61.4L801.9,60.2L804.4,59.2L816.2,57.9L819.3,58.7L821,59.8L824.1,62.8L825.8,63.9L827,64.1L829.6,63.5L831.2,64L834,66.8L839.6,75.3L842.1,77.4L843.9,76.2L846.2,73.5L849.1,70.9L852.4,70.3L855.5,72L861.5,77.5L870.4,81.9L876.4,87.5L881.2,95.1L883.3,104L884.4,112L889.1,115.4L900.8,117.6L906.2,121L908.1,121.9L909.8,122L913.7,121.5L915.1,121.8L916.9,123.8L916.9,125.5L916.5,127.1L916.8,128.7L918.1,129.8L925.8,132.1L935,131.8L938.5,133.2L946.9,141.6L953,143.4L966,144L971.7,146.8L970.4,150.9L969.2,156.6L968.5,162.4L968.5,166.7L966,168.8L959.6,169.8L956.7,172.1L953.1,182.6L951,187L950.8,188.3L950.8,191.5L950.5,193.1L949,195.3L945,198.7L943.7,200.5L943.6,200.4L936,198.4L935.2,198.5L930.9,199.8L925.5,200.1L924.6,199.8L924,199.2L923.9,197.9L923.8,196.3L921.2,190.3L920.9,189.1L920.9,188.1L920.7,187.2L920.1,186.2L917.3,184.5L912.8,184.6L906.6,193L903.1,194.5L902.6,195L902.1,195.7L902,196.2L902,196.8L902.1,197.4L902.8,199.7L903.3,202.1L903.3,203.3L903.1,204.1L902.8,204.3L902.2,204.4L892.7,204.7L887.7,205.5L884.6,205.4L881.1,204.5L873.6,199.9L872.6,199L872.6,198.6L872.2,198.2L871.3,197.7L869.1,196.6L853,191.4L846.8,191.2L846.6,197.5L846.7,198L846.9,198.5L847,199.2L847,202.5L847.1,203.5L847.8,206.1L847.9,206.6L847.8,208.1L847.9,208.8L848.1,209.5L849,211.7L849.3,212.8L849.3,213.7L849,214.8L848.5,216.1L847.9,216.9L846.9,217.4L843.8,218.5L841.1,220.9L837.3,221.7L836.2,222.2L836,222.5L835.8,223.4L835.5,223.8L835.1,224.1L834.4,224.5L833.5,224.8L832.2,225.1L830.6,224.9L828.8,224.3L825.7,222L824.5,221.5L823.1,221.4L820.2,221.5L816,220.7L805.6,216.6L800.8,207.9L800,206.7L799,204.8L798.5,203.3L798.3,200.8L798.1,199.5L796.2,194.7L793.8,195.9L793.4,196.3L792.7,196.8L791.3,197.2L790.1,197L787.9,195.9L787.2,195L786.8,194.2L786.7,193.6L786.5,193L786.2,192.9L785.8,193.4L785.7,195.3L785.5,196.3L785.2,196.8L784.7,196.7L784.1,195.9L782.9,194.9L782.3,194.7L781.5,194.8L779.9,195.3L779.3,195.7L779.1,196.2L779.7,197.2L779.9,197.8L779.9,198.6L779.5,201.8L779,203.6L778.5,204.7L778,205.2L777.4,205.5L776.8,205.7L774.2,206L772.2,206.8L771.5,206.9L769.1,206.9L768.2,207L767.6,207.3L767.2,207.7L767,208.2L766.8,208.8L766.9,209.3L767,209.8L767.3,210.2L768.1,210.8L768.3,211.1L768.3,211.3L768.2,211.5L767.7,211.7L765.5,212L763.5,211.8L761.7,210.8L758.7,208.1L756.9,205.2L756.8,204.6L756.8,204.1L756.9,203.5L757.3,203L758.2,201.8L758.5,201.3L758.8,200.8L759.8,199.9L760,199.5L760.1,199.1L759.8,198.2L759.7,197.8L759.5,197.5L759,197.4L758,197.8L757.1,197.9L756.3,197.7L755.1,196.8L754,196.3L752.4,196.2L750,195.3L746.6,196L745.6,195.6L744.1,194.2L743.3,193.3L742.8,192.6L742.5,192.1L742,191.6L741.4,191.1L740.6,190.7L740.1,190.3L739.5,190.1L738.7,190L735.7,191L734.9,191L731.7,190.6L725.4,188.5L723.1,188.8L722.6,188.9L722,189L721.4,188.8L720.7,188.2L719.7,186.8L719.4,185.9L719.2,185.4L719.2,184.9L718.7,184.2L716,181.6L715.2,180.5L714.9,179.3L714.9,178.6L714.9,178.1L714.9,177.4L714.4,176.1L713.8,175.8L712.8,175.7L710.5,176L709.6,176.3L709,176.7L708.9,177L708.7,177.3L707.9,177.1L703.3,174.1L699.8,173.6L696.5,170.7L691.3,171.8L690.5,171.7L689.4,171.5L687.5,170.6L687,169.9L687,169.3L687.7,168.6L687.5,168.1L686.6,167.6L684,167L680.1,165.2L678.3,164.8L677.8,164.9L677.6,165.6L677.7,166.1L678.1,166.9L678.2,167.6L678.1,168.3L677.9,169.3L677.8,169.9L677.8,170.4L678,170.6L678.3,170.9L679.1,171.5L679.4,171.8L679.4,172L679.1,172.2L678.5,172.5L668.1,170.7L665.1,170.9L664.1,171.2L663.4,171.6L663.2,171.9L663.2,172.3L663.3,172.7L663.7,173.7L663.8,174L663.7,174.2L662.9,175.2L662.4,175.6L661.7,176L660,176.8L657.9,177L656,176.9L655,176.4L653,173L652.7,172.4L651.8,172L650.4,171.7L647,171.3L643,169L638.6,165.6L637.7,164.8L637.4,164L637.8,162.2L637.6,161.6L636.8,161.2L636,161.5L634.7,162.8L634.2,163.7L634,164.5L634.9,166L634.9,166.4L634.4,166.8L630.4,168.1L630,168.3L629.9,168.7L630,169.3L630.2,170.5L630.5,171.2L630.8,171.6L631.1,171.8L631.3,172.1L631.4,172.3L631.1,172.1L630.4,171.4L627.8,167.7L624.1,165.2L622.9,164.9L622.7,164.6L622.3,164.2L621.9,164.1L621.2,164.4L618.7,166.9L617.9,167.3L617.4,167.4L617,167.2L616.6,167.2L616.1,167.5L615,168.5L607.7,171.7L605.5,173.1L604.7,173.9L602.6,176.9L600.7,178.7L600.6,179.2L601,179.8L603,180.1L605.1,180.8L607.5,183.8L602.6,187L601.7,187.9L600.6,189.6L598.6,194.5L596.2,196.8L589.4,192.8L588.2,191.9L587.3,191.4L584.1,190.3L581,188.8L579.9,188.8L577.4,191.1L574.2,191.3L550.4,188.3L556,185.8L557.8,184.4L559.6,182.6L560,181.5L559.6,181L557.7,180.6L556.9,180.3L556.4,179.8L556.1,179.1L555.7,178.1L555,175.6L554.8,173.4L554.3,172.2L553.5,171.2L552.5,170.2L546.8,162.9L546.6,161.8L546.8,161.2L547.4,161L548.6,161.2L549.5,161.2L551.2,160.3L552.4,160.2L553,159.5L553.3,158L553.4,154.8L554.2,151.2L554.4,149.1L554.5,146.4L555.5,139L555.4,137L554.9,136L554,136.1L553.2,136.3L550.9,137.4L547.7,138L547,138L546.5,137.5L546,136.8L545.5,135.9L545,135.6L544.6,135.8L544.1,136.3L543.6,136.1L543,135.2L541.9,132.7L541.1,131.3L540.1,130.4L539.1,130.2L537.9,130.4L537.2,130.7L536.7,131.4L536.4,131.8L535.9,132L535.4,131.6L534.6,130.2L534.4,128.6L534.3,125.6L533.7,123.2L532.9,121.2L529.4,115.3L529.2,114.5L532.4,111.2L535.4,109L540.7,108.4L545.3,110.8L553.9,118.8L559.4,121.4L562.6,119L564.3,112.7L565.3,103.9L567.3,101.5L568.5,98.7L569.4,95.7L572.6,88.7L573.5,87.4L573.9,87.8L577.6,88.2L579.2,86.7L582.8,82.5L585.3,81.1L598.1,79.9L598.9,78.8L600.1,75.4L601,71.8L601.3,69.5L601.9,67.9L603.6,66.7L605.6,66.6L612.4,69.1L620.9,68.8L620.9,64.5L623.5,63.9L637.5,71L641.1,71.9L645,70.5L646.9,68.7L649.6,65.5L651.3,64.5L652.8,64.4L656.4,65L662.6,64L665.2,64.4L679.9,81.8L682.6,83.7L686.3,84.3L689.1,84.1L691.7,84.5L694.8,86.8L697.5,89.6L700.2,91.5L703.2,92.1L707.1,90.7L710.7,87.6L716.1,79.8L719.5,76.5L722.1,75.9L725.6,75.9L728.7,75.3L730,73L728,69.2L724.2,66.9L722.2,64.6L725.5,60.9L728.1,59.7L734.8,58.4L737.4,58.6L740.4,60.7L742.7,63.3L745.2,65L748.8,64.4L751.7,61.8L756.8,54.2L759.8,52.2Z"><title>Prešov</title></path>
<path id="r-SK-KI" data-de="Košický kraj" data-en="Košice" data-cx="762.3" data-cy="246.6" d="M943.7,200.5L943.4,200.9L942.3,204L942.2,205.9L942.5,208L942.9,216.5L942.5,218.2L941.4,221.1L939.9,223.1L938.4,224.4L937.1,226L936.6,229.4L936.8,234.7L935.7,240.1L933.7,244.7L931.1,248.3L929.1,249.6L924.6,251L922.6,252.4L921.3,254.2L919.6,258.2L918.6,260L907.8,268.8L905.3,272.9L904.9,277.9L906.9,288.1L906.3,292.1L904.5,296.1L904.3,314.2L901.2,318.3L898.3,320.6L895.2,321.5L885.3,320.5L882.3,320.7L879.2,321.8L870.6,322.2L868.2,323.2L863.1,326.1L856,327.2L847.4,331.6L842.4,332L837.2,330.2L832.8,327L828.9,322.3L819.6,308L818.3,305.3L816.1,294.9L814.7,292.1L811.8,291.4L805.7,291.5L803.1,290.3L802,288.5L800.5,283.7L799.4,281.5L798,280.2L795,279L789.4,275.7L787,275L778.4,277.7L772.7,277.8L770,278.4L766.7,280.3L765.3,282.7L764.4,285.3L762.5,288.1L760,289.5L758.1,288.7L756.1,287L753.1,285.6L747.6,286.9L734.8,293.1L730.6,292.1L727.2,288.8L722.6,286.7L717.7,285.8L713.6,286.1L707.7,285.6L698.7,280L693.5,279.5L691.1,278.8L686.1,274.3L683.6,273L680.9,273L645.8,281.1L635.6,281.8L630.8,283.8L630.6,285.7L630.6,287.8L630.9,292.1L631,293L631,293.9L630.9,294.8L630.8,295.7L628.6,299L628.2,299.4L628.1,299.3L625.3,297.3L621.7,297.3L620.5,297.7L617.6,299.4L616.3,299.4L613.7,299.1L606.7,299.7L605.9,299.6L605.9,299.3L606,298.9L606.2,298.5L606.5,298L606.6,297.6L606.3,297.1L603.3,295.3L602.6,294.5L602.1,293.7L602.2,293.1L602.3,292.4L602.3,291.7L602.1,291L601.5,289.8L601.3,289L601.3,287.9L601.6,286.3L602,285.1L602.7,283.9L603.6,282.5L604,281.4L605.2,275.5L605.7,274.1L606.1,273.2L606.5,272.4L606.9,271.8L607.2,271.2L607.5,270.4L608.1,267.1L608.6,265.4L608.5,265L608.2,264.7L606.7,264.1L605.3,263.4L604.7,263.2L602.9,262.9L601.8,262.6L600.3,261.8L599.6,261.2L599.4,260.7L599.3,260.2L599.4,259.7L599.6,259.2L599.7,258.7L598.6,254.1L595.2,244.1L594.2,242.2L585.7,235.2L585.4,234.9L583.5,234.5L582.2,233.3L581.6,231.7L581,228.8L580.9,227.3L581,226.2L581.4,225.5L582,224.8L582.9,224L583.7,223L584.4,221.9L584.3,220.6L583.8,218.1L583.8,216.2L583.9,213.7L584,213.1L584.1,212.3L583.9,211.1L584.6,209.7L592.4,198L596.2,196.8L598.6,194.5L600.6,189.6L601.7,187.9L602.6,187L607.5,183.8L605.1,180.8L603,180.1L601,179.8L600.6,179.2L600.7,178.7L602.6,176.9L604.7,173.9L605.5,173.1L607.7,171.7L615,168.5L616.1,167.5L616.6,167.2L617,167.2L617.4,167.4L617.9,167.3L618.7,166.9L621.2,164.4L621.9,164.1L622.3,164.2L622.7,164.6L622.9,164.9L624.1,165.2L627.8,167.7L630.4,171.4L631.1,172.1L631.4,172.3L631.3,172.1L631.1,171.8L630.8,171.6L630.5,171.2L630.2,170.5L630,169.3L629.9,168.7L630,168.3L630.4,168.1L634.4,166.8L634.9,166.4L634.9,166L634,164.5L634.2,163.7L634.7,162.8L636,161.5L636.8,161.2L637.6,161.6L637.8,162.2L637.4,164L637.7,164.8L638.6,165.6L643,169L647,171.3L650.4,171.7L651.8,172L652.7,172.4L653,173L655,176.4L656,176.9L657.9,177L660,176.8L661.7,176L662.4,175.6L662.9,175.2L663.7,174.2L663.8,174L663.7,173.7L663.3,172.7L663.2,172.3L663.2,171.9L663.4,171.6L664.1,171.2L665.1,170.9L668.1,170.7L678.5,172.5L679.1,172.2L679.4,172L679.4,171.8L679.1,171.5L678.3,170.9L678,170.6L677.8,170.4L677.8,169.9L677.9,169.3L678.1,168.3L678.2,167.6L678.1,166.9L677.7,166.1L677.6,165.6L677.8,164.9L678.3,164.8L680.1,165.2L684,167L686.6,167.6L687.5,168.1L687.7,168.6L687,169.3L687,169.9L687.5,170.6L689.4,171.5L690.5,171.7L691.3,171.8L696.5,170.7L699.8,173.6L703.3,174.1L707.9,177.1L708.7,177.3L708.9,177L709,176.7L709.6,176.3L710.5,176L712.8,175.7L713.8,175.8L714.4,176.1L714.9,177.4L714.9,178.1L714.9,178.6L714.9,179.3L715.2,180.5L716,181.6L718.7,184.2L719.2,184.9L719.2,185.4L719.4,185.9L719.7,186.8L720.7,188.2L721.4,188.8L722,189L722.6,188.9L723.1,188.8L725.4,188.5L731.7,190.6L734.9,191L735.7,191L738.7,190L739.5,190.1L740.1,190.3L740.6,190.7L741.4,191.1L742,191.6L742.5,192.1L742.8,192.6L743.3,193.3L744.1,194.2L745.6,195.6L746.6,196L750,195.3L752.4,196.2L754,196.3L755.1,196.8L756.3,197.7L757.1,197.9L758,197.8L759,197.4L759.5,197.5L759.7,197.8L759.8,198.2L760.1,199.1L760,199.5L759.8,199.9L758.8,200.8L758.5,201.3L758.2,201.8L757.3,203L756.9,203.5L756.8,204.1L756.8,204.6L756.9,205.2L758.7,208.1L761.7,210.8L763.5,211.8L765.5,212L767.7,211.7L768.2,211.5L768.3,211.3L768.3,211.1L768.1,210.8L767.3,210.2L767,209.8L766.9,209.3L766.8,208.8L767,208.2L767.2,207.7L767.6,207.3L768.2,207L769.1,206.9L771.5,206.9L772.2,206.8L774.2,206L776.8,205.7L777.4,205.5L778,205.2L778.5,204.7L779,203.6L779.5,201.8L779.9,198.6L779.9,197.8L779.7,197.2L779.1,196.2L779.3,195.7L779.9,195.3L781.5,194.8L782.3,194.7L782.9,194.9L784.1,195.9L784.7,196.7L785.2,196.8L785.5,196.3L785.7,195.3L785.8,193.4L786.2,192.9L786.5,193L786.7,193.6L786.8,194.2L787.2,195L787.9,195.9L790.1,197L791.3,197.2L792.7,196.8L793.4,196.3L793.8,195.9L796.2,194.7L798.1,199.5L798.3,200.8L798.5,203.3L799,204.8L800,206.7L800.8,207.9L805.6,216.6L816,220.7L820.2,221.5L823.1,221.4L824.5,221.5L825.7,222L828.8,224.3L830.6,224.9L832.2,225.1L833.5,224.8L834.4,224.5L835.1,224.1L835.5,223.8L835.8,223.4L836,222.5L836.2,222.2L837.3,221.7L841.1,220.9L843.8,218.5L846.9,217.4L847.9,216.9L848.5,216.1L849,214.8L849.3,213.7L849.3,212.8L849,211.7L848.1,209.5L847.9,208.8L847.8,208.1L847.9,206.6L847.8,206.1L847.1,203.5L847,202.5L847,199.2L846.9,198.5L846.7,198L846.6,197.5L846.8,191.2L853,191.4L869.1,196.6L871.3,197.7L872.2,198.2L872.6,198.6L872.6,199L873.6,199.9L881.1,204.5L884.6,205.4L887.7,205.5L892.7,204.7L902.2,204.4L902.8,204.3L903.1,204.1L903.3,203.3L903.3,202.1L902.8,199.7L902.1,197.4L902,196.8L902,196.2L902.1,195.7L902.6,195L903.1,194.5L906.6,193L912.8,184.6L917.3,184.5L920.1,186.2L920.7,187.2L920.9,188.1L920.9,189.1L921.2,190.3L923.8,196.3L923.9,197.9L924,199.2L924.6,199.8L925.5,200.1L930.9,199.8L935.2,198.5L936,198.4L943.6,200.4L943.7,200.5Z"><title>Košice</title></path>
<path id="r-SK-BL" data-de="Pressburger Landschaftsverband" data-en="Bratislava" data-cx="85.3" data-cy="332.8" d="M78.6,414.4L74.8,410.9L69.4,408.9L65.6,406.8L66.5,402.7L64.5,401L63.9,400.6L64.8,395.9L65.7,393.4L67.4,391.3L65.2,388.9L64.4,387.5L61.9,382.9L60.2,381.8L57.5,381.3L55.2,379.9L51.1,375.3L49.9,371.4L49.9,365.9L49.1,361.4L46.5,352.4L46.4,351.2L46.7,348.3L46.5,347.2L45.9,346.4L44.9,346L43,344.3L41.5,343.6L40.3,342.8L39.7,341.3L39.5,340.2L39,338.7L38.4,337.5L38,337L37.2,336.4L37.5,335.2L38.2,333.7L38.6,332.6L37.8,330.6L36.1,328.7L34.4,327.2L33.4,326.7L30.1,326.3L28.8,325.5L28.3,324L28.4,321.3L28.7,320.1L29.1,319.4L29.5,317.8L31,304.4L31.7,300.8L33.4,297.5L37.7,291.2L38.6,287.8L39.8,285.5L42.5,283.2L45.3,280.4L45.6,279.1L46.2,279L56.2,275.9L63.7,275.6L64.2,275.5L64.3,275L64.2,274.4L63.7,273.3L64.7,273.2L66.8,273.8L74.1,277.3L75.7,277.8L76.7,277.6L83.6,274.6L85.8,273.2L88.8,272.3L90.9,272.3L92.1,271.9L92.9,271.2L93.5,269.5L94.2,268.8L94.9,268.3L96.4,267.6L97.7,266.8L98,266.4L98.3,266L98.6,264.9L98.9,264.4L99.3,263.9L100.1,263.1L101.1,262.4L101.4,262.3L101.7,262.2L102,262.1L102.2,261.9L102.3,261.5L107,253.9L108.5,252L109.5,251.1L110.3,251.3L110.8,251.7L111.1,252L111.4,252.3L113.2,252.8L113.8,253.1L114.4,253.6L115.1,254.4L115.7,255.3L116.3,256.5L116.7,258.3L116.8,260.7L115.8,263.5L115,265.3L112,269.2L111.5,269.8L111,270L110.4,270.1L109.9,270L109.3,270.1L109,270.5L107.9,273.7L107.6,274.1L107.2,274.5L105.3,275.4L105.4,277L104.5,279L113.5,288L112,289L111.3,289.7L110.5,290.8L108,294.8L106.6,297.7L107.2,300.5L109.3,301.3L111.6,301.3L111.9,301.3L112.3,301.5L112.6,301.8L113.1,302.3L114.3,303.3L115.3,304.2L115.7,304.5L116.4,304.7L119.4,304.8L119.9,305.1L120,305.6L119.6,306.6L119.2,307.1L119.2,307.6L119.5,308.1L121,309.4L121.6,310.1L122.7,311.9L124,313.2L124.8,314.4L127.5,320L128.2,320.9L128.7,321.3L129.7,321.4L130.3,321.6L130.9,322.2L131.8,323.3L132.3,324.1L132.8,325L133.2,325.5L133.2,326.5L132.8,327.8L131.4,331.1L130.1,333.3L130,333.9L130,334.4L131,337.2L140,344.6L135.4,350.1L134.6,351.6L134.5,352.9L134.8,355.2L135.1,356L135.5,356.4L136.3,356.5L139.7,358.1L140.1,359L140,360.1L139.7,362.8L140.1,363.8L140.4,364.2L141.1,364L141.4,364L141.6,364.2L142,364.8L142.2,365.1L142.2,365.9L142,367L140.9,369.8L140.4,370.8L139.8,371.4L138.9,371.1L137,371.7L131.8,375.8L127.4,377.8L126.6,377.8L125.9,377.5L124.6,376.5L123.8,376.2L121.6,375.9L121.1,375.7L121,375.5L120.9,375.1L121.1,374.6L121.8,373.2L121.6,372.3L121.4,371.9L121.3,371.5L121.2,371.1L120.8,371L120.3,371.2L119.3,371.9L118.6,372.1L118.1,372.5L117.6,373.2L117.2,375.7L117.2,376.4L117.4,376.9L117.6,377.3L118.4,378.2L118.7,378.7L119,379.1L119,379.4L118.8,379.9L118.3,380.4L117.3,380.8L116.7,381L116,381.3L115.3,381.9L114,383.1L112.4,384.2L111.7,384.4L109.9,384.5L106,383.5L105.4,383.5L105,383.8L104.9,384.1L105.9,385.7L105.9,386.2L105.9,386.9L105.7,387.9L105.6,388.5L105.7,389L105.8,389.3L107.2,390.3L108.1,391.2L108.4,391.5L108.8,391.6L111.4,391.4L111.7,391.4L112,391.6L112.2,391.8L112.5,392.3L112.4,392.5L111.7,393.3L109.9,394.4L107.4,396.5L106.2,397L105.4,397.1L105,396.9L104.6,397L104.4,397.5L104.3,399L104.5,400L104.8,401L104.6,401.6L104.1,402.1L102.4,403.1L101.5,403.7L98.4,407.5L97.5,413.8L97.5,413.9L90.7,412L84.7,410.7L78.6,414.4Z"><title>Bratislava</title></path>
<path id="r-SK-TA" data-de="Tyrnauer Landschaftsverband" data-en="Trnava" data-cx="131.7" data-cy="335.5" d="M45.6,279.1L46.5,275.9L45,264.2L45.4,259.4L48,256.2L49.9,252.7L58.3,228.5L62.3,221.6L68,216.6L70.4,213.6L71.4,208.9L72.9,206.6L81.8,200.1L89.2,198.5L97.2,200.6L116.1,210.1L119,209.6L122.2,207.5L121.7,209L120.2,212.7L118.4,215.1L113.3,220L116.9,221.4L118.9,221.9L119.4,221.9L119.8,221.8L120.4,221.3L123.1,217.8L124,217.9L124.8,218.9L126.8,221.7L128.4,223.4L128.7,223.6L129,223.9L129.3,224.1L129.6,224.2L131.1,224.6L131.6,225L132.3,225.8L133.6,227.7L134.5,229.3L135,230.9L134.9,232.6L134.6,233.3L134,234L133.7,234.5L133.5,235.4L133.2,236L132.6,237.2L132.3,237.9L132,238.7L132.1,239.4L132.4,240L133.3,240.8L133.8,241.6L134.3,244.3L134.7,245L135.4,245.9L137,247.5L138.9,250.2L142.5,258.1L146.3,254.8L147.4,254.1L147.8,253.8L148.1,253.5L148.6,253.4L148.9,253.4L151.3,254.7L156.6,253.1L157.1,252.1L157.6,251.5L157.6,251L157.6,250.6L157.6,250.2L157.7,249.9L157.6,249.1L157.7,248L157.8,247.5L157.9,247.1L158.2,247L158.5,247.1L159.7,248.4L160.1,248.5L161.7,248.5L162.3,248.4L162.7,248.2L163.7,247.2L168.9,245L171.7,244.2L173.9,245.4L175.3,247.1L177.1,250.5L177.5,250.9L178.1,251.3L181.1,252.8L184.2,253.3L189.9,253.2L190.9,253L191,252.6L190.9,252.2L190.8,251.9L190.8,251.5L190.9,251.2L191.1,251L191.5,251.2L192.1,251.6L193.4,252.9L194.8,255L195.5,255.7L196.1,255.9L197,255.5L197.6,255.2L198.2,255L199.2,255.1L200,255.4L201,256.6L201.4,257.2L201.6,257.7L217.7,261.2L218.1,262.8L218.3,263.2L218.5,263.7L218.1,264.2L217.3,264.8L209.6,268L208.2,268.2L207.2,268L205.1,266.6L204.6,266.4L204.1,266.3L203.3,267.6L198.2,280.8L197.9,281.3L195.1,284.6L202.4,288.4L202.8,288.4L203.4,288.8L207.1,291.8L214.5,299.3L210.8,303.4L199.2,324.7L196.4,327.5L195.7,331.2L195.4,331.9L195.3,332.9L195.2,333.9L194.5,338.1L194.2,338.8L193.9,339.2L193.5,339.6L193.7,340.4L193.9,340.9L198.2,344.8L197.1,346.9L196.4,347.9L196.1,348.6L196.1,349.2L196.5,349.9L196.5,350.6L196,351.5L195.5,352L195.3,352.8L195.5,353.7L196.1,355.7L196.6,356.4L197.1,356.8L197.5,356.9L197.9,357.3L199.6,359L200.1,359.8L200.4,360.8L200.4,362.2L199.9,364L199.4,364.9L198.7,365.5L196,367.1L194.1,368.7L193.7,368.7L193.3,368.5L191,365.6L190.6,365.4L190.2,365.5L189.6,365.9L188.5,366.4L188.5,367.2L189,368.3L190.4,371.1L190.9,372.5L190.8,374L190.4,375.2L190.1,375.6L189.7,376L189.2,376.3L188.7,376.5L188.2,376.5L187.8,376.3L186.6,375.6L185.5,375.1L184.9,374.9L184,375.1L181.3,376.1L180.6,376.9L180.7,377.8L188,385.9L188.9,387.6L188.8,389.7L187.5,393.2L187.2,394.1L187.3,394.9L187.7,395.5L188.8,396.5L189.6,396.8L190.5,396.7L193.2,395.7L194.2,395.6L194.7,395.9L195,396.8L194.3,398.7L194.3,399.4L194.5,399.8L195.3,400.4L195.8,400.6L197,400.7L197.7,401L198,401L198.5,401L198.9,401.2L199.4,401.5L199.8,402.5L199.8,403.8L199.1,409.3L200.2,418L199.8,424.5L201,425.6L201.2,426.4L201.4,427.3L201.3,428.3L201.1,429.1L200.8,429.9L200.5,432.9L201.6,434.8L202.1,436L201.9,436.9L200.8,437.9L198,439.7L194.1,443.3L192.2,446.1L191,447.1L190.3,447.4L190,447.3L189.6,447.4L189.1,447.9L188.2,448.9L187.6,450.1L187,451.8L186.9,457.2L186.2,458.2L185,459.4L181.9,461.8L180.5,462.6L179.6,462.9L179.2,462.7L178.8,462.7L178.5,462.7L178.2,462.6L177.5,462.2L177.1,462.1L176.7,462.5L176.4,463.4L175.2,469.2L174.6,471.1L173.2,472.5L166.2,468.6L164.4,466.7L163.1,464.1L160.1,461.1L156.6,458.6L154.2,457.3L152.3,457.6L150.6,458.4L148.9,458.5L146.9,456.4L141.3,447.8L139.8,446.8L135.6,445.9L133.9,445.2L132.3,443.6L115.3,420.5L110,416.1L99.2,414.4L97.5,413.9L97.5,413.8L98.4,407.5L101.5,403.7L102.4,403.1L104.1,402.1L104.6,401.6L104.8,401L104.5,400L104.3,399L104.4,397.5L104.6,397L105,396.9L105.4,397.1L106.2,397L107.4,396.5L109.9,394.4L111.7,393.3L112.4,392.5L112.5,392.3L112.2,391.8L112,391.6L111.7,391.4L111.4,391.4L108.8,391.6L108.4,391.5L108.1,391.2L107.2,390.3L105.8,389.3L105.7,389L105.6,388.5L105.7,387.9L105.9,386.9L105.9,386.2L105.9,385.7L104.9,384.1L105,383.8L105.4,383.5L106,383.5L109.9,384.5L111.7,384.4L112.4,384.2L114,383.1L115.3,381.9L116,381.3L116.7,381L117.3,380.8L118.3,380.4L118.8,379.9L119,379.4L119,379.1L118.7,378.7L118.4,378.2L117.6,377.3L117.4,376.9L117.2,376.4L117.2,375.7L117.6,373.2L118.1,372.5L118.6,372.1L119.3,371.9L120.3,371.2L120.8,371L121.2,371.1L121.3,371.5L121.4,371.9L121.6,372.3L121.8,373.2L121.1,374.6L120.9,375.1L121,375.5L121.1,375.7L121.6,375.9L123.8,376.2L124.6,376.5L125.9,377.5L126.6,377.8L127.4,377.8L131.8,375.8L137,371.7L138.9,371.1L139.8,371.4L140.4,370.8L140.9,369.8L142,367L142.2,365.9L142.2,365.1L142,364.8L141.6,364.2L141.4,364L141.1,364L140.4,364.2L140.1,363.8L139.7,362.8L140,360.1L140.1,359L139.7,358.1L136.3,356.5L135.5,356.4L135.1,356L134.8,355.2L134.5,352.9L134.6,351.6L135.4,350.1L140,344.6L131,337.2L130,334.4L130,333.9L130.1,333.3L131.4,331.1L132.8,327.8L133.2,326.5L133.2,325.5L132.8,325L132.3,324.1L131.8,323.3L130.9,322.2L130.3,321.6L129.7,321.4L128.7,321.3L128.2,320.9L127.5,320L124.8,314.4L124,313.2L122.7,311.9L121.6,310.1L121,309.4L119.5,308.1L119.2,307.6L119.2,307.1L119.6,306.6L120,305.6L119.9,305.1L119.4,304.8L116.4,304.7L115.7,304.5L115.3,304.2L114.3,303.3L113.1,302.3L112.6,301.8L112.3,301.5L111.9,301.3L111.6,301.3L109.3,301.3L107.2,300.5L106.6,297.7L108,294.8L110.5,290.8L111.3,289.7L112,289L113.5,288L104.5,279L105.4,277L105.3,275.4L107.2,274.5L107.6,274.1L107.9,273.7L109,270.5L109.3,270.1L109.9,270L110.4,270.1L111,270L111.5,269.8L112,269.2L115,265.3L115.8,263.5L116.8,260.7L116.7,258.3L116.3,256.5L115.7,255.3L115.1,254.4L114.4,253.6L113.8,253.1L113.2,252.8L111.4,252.3L111.1,252L110.8,251.7L110.3,251.3L109.5,251.1L108.5,252L107,253.9L102.3,261.5L102.2,261.9L102,262.1L101.7,262.2L101.4,262.3L101.1,262.4L100.1,263.1L99.3,263.9L98.9,264.4L98.6,264.9L98.3,266L98,266.4L97.7,266.8L96.4,267.6L94.9,268.3L94.2,268.8L93.5,269.5L92.9,271.2L92.1,271.9L90.9,272.3L88.8,272.3L85.8,273.2L83.6,274.6L76.7,277.6L75.7,277.8L74.1,277.3L66.8,273.8L64.7,273.2L63.7,273.3L64.2,274.4L64.3,275L64.2,275.5L63.7,275.6L56.2,275.9L46.2,279L45.6,279.1Z"><title>Trnava</title></path>
<path id="r-SK-TC" data-de="Trenčiansky kraj" data-en="Trenčín" data-cx="235.5" data-cy="187.2" d="M221.8,160.1L227.3,157.6L232.2,153.1L235.7,147.3L236.8,141.8L236.5,130.5L236.5,129L237.1,122.3L239.2,114.1L242.3,106.4L246.3,100L251.2,95.4L273.5,86.8L279.6,82.1L280.4,83.2L283.4,84.2L283.4,86.1L283.5,86.6L283.6,87.1L283.7,87.5L293.9,104.4L294.4,105.2L294.6,105.9L294.5,106.2L294.2,106.9L294.2,107.2L294.3,107.6L295.2,109.2L295.3,109.7L295.4,110.2L295.4,110.4L295.6,111L297.7,114.7L298.6,116L299.6,116.9L303.5,119.5L303.8,119.5L304.4,119.5L304.8,119.7L305.3,120L307.3,121.9L308,122.4L308.7,122.6L309.6,122.9L312.7,124.8L313.5,125.6L314.8,127.4L315.3,128.6L315.4,130.5L315.3,131.4L315.5,132.4L315.6,133L317.6,136.1L313.2,140.8L312.6,141.7L312.8,142.2L313.1,142.3L313.7,142.3L316.1,143L316.4,143.2L316.8,143.5L317.2,144L317.5,144.4L317.9,145.5L318.1,145.8L318.3,146L319,146.4L319.3,146.6L319.6,146.9L319.8,147.2L319.8,147.6L319.8,148.1L319.5,149.1L319.4,149.5L319.5,149.9L319.6,150.2L319.6,150.6L319.5,151L319.2,151.7L319.1,152.2L319.1,152.7L319.6,156L319.2,157.5L318.3,159.1L316.2,162.3L314.3,164.5L312.7,165.8L307.7,167.2L306.7,167.8L305.7,168.8L304.2,171.5L303.2,172.4L302.5,173L297.7,175.9L298.6,177.9L300,179L303,179.5L305.3,180.3L306,180.4L307.2,180.1L311.6,177.5L312.8,176.5L313.4,175.6L313.4,175.2L313.5,174.8L313.8,174.4L315.9,172L316.3,172L316.7,172.4L317.8,174.5L318.1,174.9L319.7,175L325,173.4L331.9,175.2L335.1,175.5L336,176L336.6,176.5L340,180.8L339.1,181.6L338.8,182L338.4,182.5L338.1,182.8L337.7,183L337.5,183.2L337.3,183.5L337.3,184L337.1,184.5L336.9,185L336.4,185.7L336.2,186.3L336.2,187.2L337.2,191L337.3,192.3L337.2,193.3L336.7,194.8L336.6,195.5L336.6,196.2L336.9,197.3L336.9,197.9L336.9,198.6L336.6,200.1L336.7,201.6L337,202.4L337.7,203.3L341.5,206.7L341.9,207L342.3,207.2L343.1,207.4L343.5,207.6L344.1,208L344.5,208.2L345.2,208.4L347.8,210.9L348.8,211.5L349.3,211.9L349.3,212.1L349,212.6L348.9,213.2L348.9,214.1L349.4,215.8L350,217.1L351.1,218.8L356.8,225.9L357.3,226.7L357.7,229.1L357.6,230.7L357.4,231.2L357.1,231.8L356.5,232.7L354.5,236.9L352.2,240.4L351.6,240.8L350.9,241L348.4,241.1L347.5,241.6L346.7,242.6L342.8,250.1L342.1,251L339.8,253L339.2,253.7L338.9,254.2L339.3,256.4L339.2,257.4L338.1,257.7L337.2,257.7L328.1,255.3L323.7,261.7L321.3,264.6L320.5,265.7L320.1,266.4L319.8,267.2L319.7,267.7L319.7,268.1L319.7,268.5L319.7,268.8L319.7,269.3L319.1,270.9L319,271.3L319,271.9L302.7,273.9L300.9,278L289.2,285.1L283.9,289.8L281.5,291.2L281.2,291.5L281,291.8L281,292.1L280.8,292.3L280.4,292.4L279.3,291.4L278.2,289.8L277.9,289.6L277.6,289.8L277.1,290.7L276.8,291.6L276.7,291.8L275.5,291.8L271.5,290.3L269.6,284.6L268,281.1L267.3,280.3L264.1,278.1L263.2,277.2L262.6,276.6L262,276.3L260,276.4L259.2,276.2L258.8,275.7L258.8,274.5L258.2,274L257.8,273.4L257.5,272.4L257.6,270.8L258.9,268.3L260.4,266.1L261.3,263.7L261.2,262.2L259.9,260L258,258.1L255.1,257.4L248,253.2L246.6,251.4L244.8,248L243.9,246.8L240.3,243L238.9,242.2L227.1,239.6L226.9,239.3L226.7,238.2L226.7,237.5L226.7,237L226.2,236.6L225.7,236.3L222.3,236.1L221.1,237L220.3,238.1L220.1,238.7L220.1,239.6L220.5,241.1L220.6,242.2L220.7,243.3L220.7,245L220.8,245.7L221,246.1L221.2,246.3L221.3,246.5L221.5,246.9L221.6,247.7L222.4,249.3L222.5,249.5L222.6,249.6L222.8,249.8L222.9,249.9L223.1,250.3L223.2,250.5L223.4,250.7L223.6,250.9L223.8,251.2L224.1,252.8L224.2,254.2L224.1,255.4L223.8,256.9L223.5,257.6L223.2,257.8L222.5,257.5L222,257.2L221.4,257.4L220.9,257.7L217.7,261.2L201.6,257.7L201.4,257.2L201,256.6L200,255.4L199.2,255.1L198.2,255L197.6,255.2L197,255.5L196.1,255.9L195.5,255.7L194.8,255L193.4,252.9L192.1,251.6L191.5,251.2L191.1,251L190.9,251.2L190.8,251.5L190.8,251.9L190.9,252.2L191,252.6L190.9,253L189.9,253.2L184.2,253.3L181.1,252.8L178.1,251.3L177.5,250.9L177.1,250.5L175.3,247.1L173.9,245.4L171.7,244.2L168.9,245L163.7,247.2L162.7,248.2L162.3,248.4L161.7,248.5L160.1,248.5L159.7,248.4L158.5,247.1L158.2,247L157.9,247.1L157.8,247.5L157.7,248L157.6,249.1L157.7,249.9L157.6,250.2L157.6,250.6L157.6,251L157.6,251.5L157.1,252.1L156.6,253.1L151.3,254.7L148.9,253.4L148.6,253.4L148.1,253.5L147.8,253.8L147.4,254.1L146.3,254.8L142.5,258.1L138.9,250.2L137,247.5L135.4,245.9L134.7,245L134.3,244.3L133.8,241.6L133.3,240.8L132.4,240L132.1,239.4L132,238.7L132.3,237.9L132.6,237.2L133.2,236L133.5,235.4L133.7,234.5L134,234L134.6,233.3L134.9,232.6L135,230.9L134.5,229.3L133.6,227.7L132.3,225.8L131.6,225L131.1,224.6L129.6,224.2L129.3,224.1L129,223.9L128.7,223.6L128.4,223.4L126.8,221.7L124.8,218.9L124,217.9L123.1,217.8L120.4,221.3L119.8,221.8L119.4,221.9L118.9,221.9L116.9,221.4L113.3,220L118.4,215.1L120.2,212.7L121.7,209L122.2,207.5L125.2,205.5L129.2,204.3L131.6,205.5L136.6,210.9L142.7,211.8L161.1,204.6L174.5,199.3L177.5,196.9L183.2,187L185.8,184.8L189.9,184.1L193.4,184.7L196.6,184.5L199.6,181.6L201,178.1L202.3,170.4L203.3,166.6L205.5,162.3L209,160L213,159.4L221.8,160.1Z"><title>Trenčín</title></path>
<path id="r-SK-BC" data-de="Banskobystrický kraj" data-en="Banská Bystrica" data-cx="464.4" data-cy="290" d="M628.2,299.4L623.2,304.8L620.7,308.1L618.8,312L612.3,331.9L608.9,339.1L604.7,345.5L599.9,350.4L596.1,352.4L594.1,351.6L592.3,349.5L589,347.8L587.1,348.6L582.1,353.3L579.3,354.5L576.4,354.2L574.7,353.6L573.3,353.9L571.2,356.4L570.6,358.1L569.7,362.6L568.4,364.9L567.1,366L563.9,367.2L557.4,371.3L556.8,371.6L550.5,373.6L546.7,376L539.2,383.1L535.3,384.6L531.8,383.2L525.5,377.5L521.5,376.1L515.5,378.5L513.9,378.2L512.4,375.9L512.8,373.7L513.7,371.6L513.6,369.1L510.7,365.5L506.8,364.9L499.2,366.4L497.5,365.5L493.9,361L492,359.4L490.4,358.9L488.6,358.8L473.4,362.9L470.5,364.6L468.7,368.2L467.1,377.9L465.2,381.9L465.1,382L465.1,382.1L465.1,382.3L465.2,382.5L465.4,383.8L465.5,385.2L465.4,386.5L465.2,387.8L456.3,394.2L433.9,393.7L424,400.2L422.2,400.6L401.7,398L391.8,399.5L388.5,399.3L388.5,399.2L388.3,396.9L388.3,393.8L388.6,393L390.5,390.2L391,388.9L391.4,388.2L392,387.6L392.9,387.1L393.6,386.5L394.6,385.4L395.8,383.7L396.4,382L396.5,380.3L395.5,375.7L395.4,374.3L395.9,372.5L396.2,371.5L396.5,370.7L397.3,369.7L397.5,369.1L397.5,368.7L397.5,367.9L397.6,367.5L397.4,366.8L397.2,366.4L394.9,363.9L392.2,366.4L391.4,367L390.6,367.5L389.7,367.6L389.2,367.6L388.2,367.4L387.7,367.5L387.1,367.7L384.4,368.4L382,369.6L381.2,369.9L380.1,370.1L378.7,370.5L378.1,370.9L377.5,371.2L376.3,371.6L375.7,372L375.2,372.6L374.7,373.7L374.5,374.5L374.4,375L374.3,375.3L374.1,375.4L373.8,375.4L372.8,375.3L372.1,375.4L370.5,375.9L369.6,376L368.8,375.8L367.5,375.4L367,375.4L366.1,375.6L365.6,375.5L364.9,375.4L364.2,374.9L361,372.3L360.3,371.9L359.3,371.7L358.5,371.6L357.8,371.7L357.3,372L356.8,372.4L356.5,373.3L356.1,373.8L355.7,374.2L355.3,374.3L354.9,374.2L354.5,373.8L353.9,373.1L353.6,372.1L353.4,370.8L353.4,369.3L353.7,368.2L354.6,366.9L355.6,365.9L356.3,365L357.1,364.6L357.4,364.2L357.3,363.4L356.7,361.8L355.3,359.3L355,358.4L355.1,357.7L355.7,357.2L356,356.8L356,356.4L354.5,354.8L354.6,353.9L355.2,352.7L357.1,350.1L359.1,348.1L359.6,346.9L359.9,346L361.3,338.9L354.8,323.9L353.8,322.6L349.5,319L344.7,311.9L342.8,311.3L342,311.6L341.1,312.2L339.5,314.1L337.2,316.5L336.7,317.2L336.1,318.2L335.1,319.3L334.9,319.8L334.9,320.4L334.7,321L334.3,321.5L333.6,322.3L333.5,323.1L333.4,323.9L333.3,324.5L332.9,325.2L327.5,326.9L317.2,328.5L315.1,329.3L313.7,330.8L312.6,332.5L312.3,333L311.1,334L310.7,334.5L310.1,335.6L309.4,335.5L307.7,332.7L308.5,331.5L309.9,330.1L310.3,329.5L310.7,328.9L310.8,328.3L310.9,327.7L311.2,327.2L312.3,326.3L312.9,325.6L313.6,324.6L314,323.4L314.4,321.8L314.5,320.2L314.3,318.2L313.7,314.9L312.4,312.5L311.5,311.4L310.8,311.2L310.3,311.1L309.9,310.8L309.8,310L309.9,308.5L309.9,307.1L309.6,305.6L308.2,303.1L307.7,301.7L307.8,300.1L308.2,299.3L309.6,297.5L309.8,297L309.7,296.8L308.8,296.6L308.5,296.2L308.4,295.5L308.7,293.9L308.8,292.7L308.9,291.5L308.5,290.4L308,289.7L306.6,289.2L305.1,289.2L301.1,290.1L300.7,289.8L300.9,288.8L301.9,286.9L304.4,283.9L304.7,283.3L304.4,282.5L303.3,281.7L300.9,278L302.7,273.9L319,271.9L319,271.3L319.1,270.9L319.7,269.3L319.7,268.8L319.7,268.5L319.7,268.1L319.7,267.7L319.8,267.2L320.1,266.4L320.5,265.7L321.3,264.6L323.7,261.7L328.1,255.3L337.2,257.7L338.1,257.7L339.2,257.4L339.3,256.4L338.9,254.2L339.2,253.7L339.8,253L342.1,251L342.8,250.1L346.7,242.6L347.5,241.6L348.4,241.1L350.9,241L351.6,240.8L352.2,240.4L354.5,236.9L356.5,232.7L357.1,231.8L357.4,231.2L357.6,230.7L357.7,229.1L364.8,224.1L366.8,223.4L367.1,223.8L367.3,224.3L367.4,224.8L367.7,225.2L367.9,225.5L368.2,225.8L368.6,226.5L368.6,226.9L371.4,227.5L385.5,228.4L387.8,224.2L388.2,222.7L388.7,219.7L388.8,218.5L388.7,217.7L388.5,217.4L386.3,215.3L385.3,213.6L385.1,212.5L385.4,211.7L385.8,211.1L386.5,210.1L386.6,209.1L386.5,207.6L385.6,204.5L385.6,203.7L385.9,203.1L388.7,201.7L389.5,200.9L390,200.3L391.9,195.8L399.7,196.3L427.1,192.3L428.4,192.4L428.7,192.8L428.9,193.7L429.2,194L429.7,194.2L430.1,194.8L430.4,195.7L430.7,197.7L430.8,198.6L430.7,199.2L430.6,199.4L430,199.5L429.7,199.6L429.6,199.9L429.2,200.9L429.5,201.1L430,201.1L436.8,200.1L437.7,199.8L438.5,199.1L438.9,198.7L439.1,198.3L439.3,197.8L439.5,196.2L439.8,195.2L441.5,192.9L445,190.9L450.6,184.1L478.4,179.3L490.9,180.9L501.6,184.8L502.8,185.8L503.7,186.8L504.4,187.2L506,187.6L506.6,187.9L507.1,188.4L507.6,188.9L508.4,189.8L509,190L509.7,190L511.6,188.9L519.2,186.7L520.8,186.7L525.4,188L541.3,188.4L541.7,188.2L543.7,188L546.6,186.6L547.5,186.6L548.2,186.7L550.4,188.3L574.2,191.3L577.4,191.1L579.9,188.8L581,188.8L584.1,190.3L587.3,191.4L588.2,191.9L589.4,192.8L596.2,196.8L592.4,198L584.6,209.7L583.9,211.1L584.1,212.3L584,213.1L583.9,213.7L583.8,216.2L583.8,218.1L584.3,220.6L584.4,221.9L583.7,223L582.9,224L582,224.8L581.4,225.5L581,226.2L580.9,227.3L581,228.8L581.6,231.7L582.2,233.3L583.5,234.5L585.4,234.9L585.7,235.2L594.2,242.2L595.2,244.1L598.6,254.1L599.7,258.7L599.6,259.2L599.4,259.7L599.3,260.2L599.4,260.7L599.6,261.2L600.3,261.8L601.8,262.6L602.9,262.9L604.7,263.2L605.3,263.4L606.7,264.1L608.2,264.7L608.5,265L608.6,265.4L608.1,267.1L607.5,270.4L607.2,271.2L606.9,271.8L606.5,272.4L606.1,273.2L605.7,274.1L605.2,275.5L604,281.4L603.6,282.5L602.7,283.9L602,285.1L601.6,286.3L601.3,287.9L601.3,289L601.5,289.8L602.1,291L602.3,291.7L602.3,292.4L602.2,293.1L602.1,293.7L602.6,294.5L603.3,295.3L606.3,297.1L606.6,297.6L606.5,298L606.2,298.5L606,298.9L605.9,299.3L605.9,299.6L606.7,299.7L613.7,299.1L616.3,299.4L617.6,299.4L620.5,297.7L621.7,297.3L625.3,297.3L628.1,299.3L628.2,299.4Z"><title>Banská Bystrica</title></path>
<path id="r-SK-NI" data-de="Nitriansky kraj" data-en="Nitra" data-cx="285.4" data-cy="357.3" d="M388.5,399.3L384.8,399.1L382.3,400.3L374.4,402.1L358.6,405.7L355.7,408.1L351.3,417.5L349.7,418.9L346.5,419.4L345,420.3L342.8,423L343,423.9L344.2,424.9L344.7,427.8L343.1,438.2L342.7,443.5L343.7,448.2L348.6,453L355,457.8L354.7,457.8L350.6,459.3L346.9,460.3L344,462.5L338.5,468.9L334.5,471.5L329.7,472L324.7,471L318.7,468.3L311.2,467.7L277.3,471.7L264.9,476.9L258.8,477.5L238.4,475.3L200.4,477.8L190.8,478.5L177,474.6L173.2,472.5L174.6,471.1L175.2,469.2L176.4,463.4L176.7,462.5L177.1,462.1L177.5,462.2L178.2,462.6L178.5,462.7L178.8,462.7L179.2,462.7L179.6,462.9L180.5,462.6L181.9,461.8L185,459.4L186.2,458.2L186.9,457.2L187,451.8L187.6,450.1L188.2,448.9L189.1,447.9L189.6,447.4L190,447.3L190.3,447.4L191,447.1L192.2,446.1L194.1,443.3L198,439.7L200.8,437.9L201.9,436.9L202.1,436L201.6,434.8L200.5,432.9L200.8,429.9L201.1,429.1L201.3,428.3L201.4,427.3L201.2,426.4L201,425.6L199.8,424.5L200.2,418L199.1,409.3L199.8,403.8L199.8,402.5L199.4,401.5L198.9,401.2L198.5,401L198,401L197.7,401L197,400.7L195.8,400.6L195.3,400.4L194.5,399.8L194.3,399.4L194.3,398.7L195,396.8L194.7,395.9L194.2,395.6L193.2,395.7L190.5,396.7L189.6,396.8L188.8,396.5L187.7,395.5L187.3,394.9L187.2,394.1L187.5,393.2L188.8,389.7L188.9,387.6L188,385.9L180.7,377.8L180.6,376.9L181.3,376.1L184,375.1L184.9,374.9L185.5,375.1L186.6,375.6L187.8,376.3L188.2,376.5L188.7,376.5L189.2,376.3L189.7,376L190.1,375.6L190.4,375.2L190.8,374L190.9,372.5L190.4,371.1L189,368.3L188.5,367.2L188.5,366.4L189.6,365.9L190.2,365.5L190.6,365.4L191,365.6L193.3,368.5L193.7,368.7L194.1,368.7L196,367.1L198.7,365.5L199.4,364.9L199.9,364L200.4,362.2L200.4,360.8L200.1,359.8L199.6,359L197.9,357.3L197.5,356.9L197.1,356.8L196.6,356.4L196.1,355.7L195.5,353.7L195.3,352.8L195.5,352L196,351.5L196.5,350.6L196.5,349.9L196.1,349.2L196.1,348.6L196.4,347.9L197.1,346.9L198.2,344.8L193.9,340.9L193.7,340.4L193.5,339.6L193.9,339.2L194.2,338.8L194.5,338.1L195.2,333.9L195.3,332.9L195.4,331.9L195.7,331.2L196.4,327.5L199.2,324.7L210.8,303.4L214.5,299.3L207.1,291.8L203.4,288.8L202.8,288.4L202.4,288.4L195.1,284.6L197.9,281.3L198.2,280.8L203.3,267.6L204.1,266.3L204.6,266.4L205.1,266.6L207.2,268L208.2,268.2L209.6,268L217.3,264.8L218.1,264.2L218.5,263.7L218.3,263.2L218.1,262.8L217.7,261.2L220.9,257.7L221.4,257.4L222,257.2L222.5,257.5L223.2,257.8L223.5,257.6L223.8,256.9L224.1,255.4L224.2,254.2L224.1,252.8L223.8,251.2L223.6,250.9L223.4,250.7L223.2,250.5L223.1,250.3L222.9,249.9L222.8,249.8L222.6,249.6L222.5,249.5L222.4,249.3L221.6,247.7L221.5,246.9L221.3,246.5L221.2,246.3L221,246.1L220.8,245.7L220.7,245L220.7,243.3L220.6,242.2L220.5,241.1L220.1,239.6L220.1,238.7L220.3,238.1L221.1,237L222.3,236.1L225.7,236.3L226.2,236.6L226.7,237L226.7,237.5L226.7,238.2L226.9,239.3L227.1,239.6L238.9,242.2L240.3,243L243.9,246.8L244.8,248L246.6,251.4L248,253.2L255.1,257.4L258,258.1L259.9,260L261.2,262.2L261.3,263.7L260.4,266.1L258.9,268.3L257.6,270.8L257.5,272.4L257.8,273.4L258.2,274L258.8,274.5L258.8,275.7L259.2,276.2L260,276.4L262,276.3L262.6,276.6L263.2,277.2L264.1,278.1L267.3,280.3L268,281.1L269.6,284.6L271.5,290.3L275.5,291.8L276.7,291.8L276.8,291.6L277.1,290.7L277.6,289.8L277.9,289.6L278.2,289.8L279.3,291.4L280.4,292.4L280.8,292.3L281,292.1L281,291.8L281.2,291.5L281.5,291.2L283.9,289.8L289.2,285.1L300.9,278L303.3,281.7L304.4,282.5L304.7,283.3L304.4,283.9L301.9,286.9L300.9,288.8L300.7,289.8L301.1,290.1L305.1,289.2L306.6,289.2L308,289.7L308.5,290.4L308.9,291.5L308.8,292.7L308.7,293.9L308.4,295.5L308.5,296.2L308.8,296.6L309.7,296.8L309.8,297L309.6,297.5L308.2,299.3L307.8,300.1L307.7,301.7L308.2,303.1L309.6,305.6L309.9,307.1L309.9,308.5L309.8,310L309.9,310.8L310.3,311.1L310.8,311.2L311.5,311.4L312.4,312.5L313.7,314.9L314.3,318.2L314.5,320.2L314.4,321.8L314,323.4L313.6,324.6L312.9,325.6L312.3,326.3L311.2,327.2L310.9,327.7L310.8,328.3L310.7,328.9L310.3,329.5L309.9,330.1L308.5,331.5L307.7,332.7L309.4,335.5L310.1,335.6L310.7,334.5L311.1,334L312.3,333L312.6,332.5L313.7,330.8L315.1,329.3L317.2,328.5L327.5,326.9L332.9,325.2L333.3,324.5L333.4,323.9L333.5,323.1L333.6,322.3L334.3,321.5L334.7,321L334.9,320.4L334.9,319.8L335.1,319.3L336.1,318.2L336.7,317.2L337.2,316.5L339.5,314.1L341.1,312.2L342,311.6L342.8,311.3L344.7,311.9L349.5,319L353.8,322.6L354.8,323.9L361.3,338.9L359.9,346L359.6,346.9L359.1,348.1L357.1,350.1L355.2,352.7L354.6,353.9L354.5,354.8L356,356.4L356,356.8L355.7,357.2L355.1,357.7L355,358.4L355.3,359.3L356.7,361.8L357.3,363.4L357.4,364.2L357.1,364.6L356.3,365L355.6,365.9L354.6,366.9L353.7,368.2L353.4,369.3L353.4,370.8L353.6,372.1L353.9,373.1L354.5,373.8L354.9,374.2L355.3,374.3L355.7,374.2L356.1,373.8L356.5,373.3L356.8,372.4L357.3,372L357.8,371.7L358.5,371.6L359.3,371.7L360.3,371.9L361,372.3L364.2,374.9L364.9,375.4L365.6,375.5L366.1,375.6L367,375.4L367.5,375.4L368.8,375.8L369.6,376L370.5,375.9L372.1,375.4L372.8,375.3L373.8,375.4L374.1,375.4L374.3,375.3L374.4,375L374.5,374.5L374.7,373.7L375.2,372.6L375.7,372L376.3,371.6L377.5,371.2L378.1,370.9L378.7,370.5L380.1,370.1L381.2,369.9L382,369.6L384.4,368.4L387.1,367.7L387.7,367.5L388.2,367.4L389.2,367.6L389.7,367.6L390.6,367.5L391.4,367L392.2,366.4L394.9,363.9L397.2,366.4L397.4,366.8L397.6,367.5L397.5,367.9L397.5,368.7L397.5,369.1L397.3,369.7L396.5,370.7L396.2,371.5L395.9,372.5L395.4,374.3L395.5,375.7L396.5,380.3L396.4,382L395.8,383.7L394.6,385.4L393.6,386.5L392.9,387.1L392,387.6L391.4,388.2L391,388.9L390.5,390.2L388.6,393L388.3,393.8L388.3,396.9L388.5,399.2L388.5,399.3Z"><title>Nitra</title></path>
</g>
</svg>
