<svg xmlns="http://www.w3.org/2000/svg" viewBox="0 0 1000 2613.3" class="regionskarte" preserveAspectRatio="xMidYMid meet" data-land="TG" data-minlon="-0.2246" data-maxlon="1.8408" data-minlat="5.9495" data-maxlat="11.2860" data-umbruch="0">
<!-- Umrisse: Natural Earth (ne_10m_admin_1_states_provinces),
     gemeinfrei. Erzeugt von tools/regionen_bauen.py, nicht von
     Hand aendern. -->
<g class="regionen">
<path id="r-TG-S" data-de="Savanes" data-en="Savanes" data-cx="309.9" data-cy="382.5" d="M58.7,97.2L49.8,94.9L39.9,89.5L31.9,82.1L28.3,74L53,79L78.2,84.2L137.6,96.3L248,118.8L290.2,127.4L344.3,138.5L345.4,139.2L346,140.3L346.3,141.8L345.6,144L345.3,146.1L344.6,148.1L342.9,150L350.7,152L344.8,172.8L405.3,151.5L435.7,145.7L482.3,144.8L545.2,143.6L532.8,173.8L531.4,183.5L532.5,188.8L536.6,198.7L537.3,204L529.7,218.5L528.8,223.7L528,234.9L526.5,239.9L520.3,248.9L494,274L487,290.4L490.9,334.5L490.5,353.6L483.4,380.9L476.6,431.4L477,442.6L480.9,450L517.6,474.4L563.6,505.1L591.5,523.7L582.8,537L580.3,539L576.7,541.1L573.8,541.1L560.9,539.1L557.1,538.9L552.2,539.3L549.2,541.1L543.4,546.7L540.9,547.2L538.6,546.5L534.9,543.6L532.3,542.7L521.5,541.7L518.1,542.9L509.1,547.9L501.4,553.2L498.8,553.4L496.9,552.3L495.7,550.1L494.6,547.8L493.3,545.8L490.9,544.4L487.9,543.4L473.1,542.4L467.8,544.5L465.5,546.6L465.4,548.8L466.2,551.4L467.5,558.2L466.3,564.2L464,569.1L449.8,589L445.1,598.5L443.2,604L441.9,610.1L441.6,625.1L441.9,629.8L441.9,631.8L441.1,634.5L439.7,637.6L437.1,641.7L435.8,645.2L434.4,651.5L432.9,654.8L432.1,657.9L431.9,660.8L432.3,663.3L438.1,679.6L438.7,685.5L438.1,689L437.5,689.3L433.1,688.4L428.2,689.7L425.4,689L421.1,686.4L418.3,685.5L403,687.1L396.8,687L389.4,688.8L383.7,690.8L379.9,691L377.1,690.2L375.2,688.8L371.2,682.7L369.5,681L367.5,679.6L363.1,677.3L361.4,675.5L360,673.6L359.1,671.3L358.6,668.9L359.1,666.6L361.3,662.6L361.6,660.7L360.3,659.2L358.1,658.4L355.3,658.1L350.8,658.4L343.1,656.9L337.2,657L333.5,656.5L330.7,655.4L327.1,652.2L324.8,651.2L316.4,649.8L314.4,648.5L313,646.5L312.4,644L312.2,641.1L313,635.5L313,632.8L312.4,630L311.2,627.4L306.1,619.3L302.6,614.8L299.8,612.3L301.5,604.2L300,594.3L296.1,591.1L290.8,589.8L284.7,585.8L279.9,573.2L282.5,538.5L281.7,522L285.2,515.5L286.6,507.4L288.9,499.9L300.7,491.1L290.9,482.9L286.2,480.7L265,484.2L258.2,484.3L262.5,474.4L257.4,466.6L249.2,459.1L243.7,450.2L244.4,446L246,440.8L245.8,435.4L241,430.6L236.1,429.5L231.7,430.9L227.1,433.1L221.6,434.6L217,433.9L204.1,428.9L202.9,430.3L201.6,433.5L199.5,436.4L195.8,436.7L194.4,435L169.7,389L162.1,380.9L136.5,364.8L132.5,360L126.8,349.1L123,344.5L118.6,341.8L103.4,336.8L99.1,333.8L96,330.9L92.6,328.6L81.4,327.1L75.6,325.6L70.3,323.1L66.1,319.5L61.1,309.4L61.4,299.2L64.4,286.8L66.1,279.9L68.6,259.4L72.3,250.9L79.1,242.2L89,235.5L93.2,231.6L94.1,226.4L91.6,216.7L91.3,212L101.7,162.8L104.1,158.2L108,154.1L112.2,151.4L115.6,148.1L116.7,141.9L118.1,124.6L116.6,109.4L109.3,98L93.1,91.8L84,91.9L67.6,96.3L58.7,97.2Z"><title>Savanes</title></path>
<path id="r-TG-K" data-de="Kara" data-en="Kara" data-cx="506.5" data-cy="862" d="M294,615.3L299.4,613.8L299.8,612.3L302.6,614.8L306.1,619.3L311.2,627.4L312.4,630L313,632.8L313,635.5L312.2,641.1L312.4,644L313,646.5L314.4,648.5L316.4,649.8L324.8,651.2L327.1,652.2L330.7,655.4L333.5,656.5L337.2,657L343.1,656.9L350.8,658.4L355.3,658.1L358.1,658.4L360.3,659.2L361.6,660.7L361.3,662.6L359.1,666.6L358.6,668.9L359.1,671.3L360,673.6L361.4,675.5L363.1,677.3L367.5,679.6L369.5,681L371.2,682.7L375.2,688.8L377.1,690.2L379.9,691L383.7,690.8L389.4,688.8L396.8,687L403,687.1L418.3,685.5L421.1,686.4L425.4,689L428.2,689.7L433.1,688.4L437.5,689.3L438.1,689L438.7,685.5L438.1,679.6L432.3,663.3L431.9,660.8L432.1,657.9L432.9,654.8L434.4,651.5L435.8,645.2L437.1,641.7L439.7,637.6L441.1,634.5L441.9,631.8L441.9,629.8L441.6,625.1L441.9,610.1L443.2,604L445.1,598.5L449.8,589L464,569.1L466.3,564.2L467.5,558.2L466.2,551.4L465.4,548.8L465.5,546.6L467.8,544.5L473.1,542.4L487.9,543.4L490.9,544.4L493.3,545.8L494.6,547.8L495.7,550.1L496.9,552.3L498.8,553.4L501.4,553.2L509.1,547.9L518.1,542.9L521.5,541.7L532.3,542.7L534.9,543.6L538.6,546.5L540.9,547.2L543.4,546.7L549.2,541.1L552.2,539.3L557.1,538.9L560.9,539.1L573.8,541.1L576.7,541.1L580.3,539L582.8,537L591.5,523.7L632.7,551.2L702.1,597.4L753.2,631.5L759.4,648.2L759.4,651.9L760,688L760.9,741.5L761.5,779.5L765.3,802.4L764.6,808.3L763.4,813.2L763.6,823.1L763,828L760,834.3L751.4,847.5L749.4,853.9L750.9,863.9L755.8,875.8L763,883.2L771.3,879.1L776.8,893L780.1,942.6L787.1,962.1L796.3,976.3L796.3,976.4L777.3,991.7L768.2,996.4L759.7,996.1L692.8,1014.9L683.5,1015.4L677.6,1015.1L653.5,1009.8L646.1,1009.8L609.7,1014.8L593.3,1018.7L592.1,1019.6L590.8,1021.1L589.6,1023.1L587.6,1028.2L586.4,1034L586.1,1039.7L587,1048.8L587,1066.8L588.1,1071.8L593.5,1083.3L593,1086L591.2,1089.1L583,1096.3L576.5,1103.1L569.5,1108.8L565.3,1111.1L561.5,1112.6L552.8,1113.5L534.7,1117.2L531.7,1117.3L528.7,1117.1L525.6,1116.6L517.7,1113.7L514.7,1113.2L508.4,1112.8L505.3,1112.3L490,1106.6L488.7,1104.6L487.7,1102.1L487.2,1099.3L485.5,1097.2L482.6,1096L476.4,1096.6L472.1,1096.4L468.6,1095.9L465.2,1095L462.8,1095.6L460.7,1096.9L459.3,1099L458.1,1101.3L457.2,1103.7L455.5,1106.3L453.1,1108.9L442.8,1116.1L441.3,1117.5L440.1,1119.2L440.1,1119.4L439.1,1120.8L434.2,1126L430.8,1127.4L422.1,1129L419.4,1130.5L417.4,1132.4L415.9,1137.5L415.4,1140.4L414.7,1143.2L413.8,1145.7L412.3,1147.6L393,1160.3L390.3,1163L389.5,1165.4L389.7,1168L391.1,1169.6L392.9,1171.1L394,1173.2L394,1176L391.9,1179.8L389.4,1181.6L386.2,1182.5L378.7,1182.7L376.1,1183.7L366.4,1192.6L356.2,1196.5L342.9,1200.3L353.5,1184.9L347.5,1161L324.1,1121.2L324.1,1121.1L324,1121.1L317.5,1105.9L322.5,1091L330.7,1075.8L333.3,1060L333.2,1052.3L336.3,1047.6L347.2,1037.8L353.1,1027.8L352.9,1020L346.9,1002.5L347.4,992.8L351.3,988.1L356.8,984.9L361.7,979.9L363.7,973.7L364.5,959.3L369,934.5L366,923L357.2,915.4L342.8,910.4L342.5,909.9L342.4,909.4L342.5,909L345.7,903.5L346.8,898.5L345.9,893.6L342.8,889.3L317.1,879.9L308,878.4L288.6,879.5L277.7,881.4L270.3,884.7L267.9,888.5L266.4,898.4L264.5,902.6L260.9,905.7L238.7,913.5L229.7,915.3L220.7,914.3L218.5,907.7L222.5,902.1L219.1,894.3L219.1,887.4L239.3,883.3L246.9,880.3L253.1,876L254.9,871L250.7,865.7L243.8,865.3L231.5,867.6L226.4,865.5L221.6,862.1L218.1,859L216.9,857.6L216.7,854.4L219,840.7L220.2,837.5L244.6,840.2L256.2,839.6L264.8,833.9L271.5,838.3L280.4,839.8L288.3,837.6L291.6,830.8L287.5,820.7L277.9,818.8L258.2,823.8L243.2,822.2L235.4,812L235.1,797.6L242,783.7L254.9,797.3L263,801.8L271.7,800.7L276.8,794.7L278.1,786.1L277,777.2L274.8,770L271.6,765.2L268.1,761.3L265.5,756.1L264.8,747L275.2,708.9L275.4,703.3L273.2,683.7L274.2,676.9L278.1,669.4L284.3,662.7L287.7,659.7L288,655.7L284.7,646L278.9,634.4L278.1,631.1L279,626.6L280.7,623.6L281,620.5L278.1,615.6L286.6,614L294,615.3Z"><title>Kara</title></path>
<path id="r-TG-C" data-de="Centre" data-en="Centre" data-cx="595.3" data-cy="1318.9" d="M332.7,1223.1L338,1220.6L339.7,1214.1L340.4,1206.5L342.8,1200.3L342.9,1200.3L356.2,1196.5L366.4,1192.6L376.1,1183.7L378.7,1182.7L386.2,1182.5L389.4,1181.6L391.9,1179.8L394,1176L394,1173.2L392.9,1171.1L391.1,1169.6L389.7,1168L389.5,1165.4L390.3,1163L393,1160.3L412.3,1147.6L413.8,1145.7L414.7,1143.2L415.4,1140.4L415.9,1137.5L417.4,1132.4L419.4,1130.5L422.1,1129L430.8,1127.4L434.2,1126L439.1,1120.8L440.1,1119.4L440.1,1119.2L441.3,1117.5L442.8,1116.1L453.1,1108.9L455.5,1106.3L457.2,1103.7L458.1,1101.3L459.3,1099L460.7,1096.9L462.8,1095.6L465.2,1095L468.6,1095.9L472.1,1096.4L476.4,1096.6L482.6,1096L485.5,1097.2L487.2,1099.3L487.7,1102.1L488.7,1104.6L490,1106.6L505.3,1112.3L508.4,1112.8L514.7,1113.2L517.7,1113.7L525.6,1116.6L528.7,1117.1L531.7,1117.3L534.7,1117.2L552.8,1113.5L561.5,1112.6L565.3,1111.1L569.5,1108.8L576.5,1103.1L583,1096.3L591.2,1089.1L593,1086L593.5,1083.3L588.1,1071.8L587,1066.8L587,1048.8L586.1,1039.7L586.4,1034L587.6,1028.2L589.6,1023.1L590.8,1021.1L592.1,1019.6L593.3,1018.7L609.7,1014.8L646.1,1009.8L653.5,1009.8L677.6,1015.1L683.5,1015.4L692.8,1014.9L759.7,996.1L768.2,996.4L777.3,991.7L796.3,976.4L796.3,976.3L798.8,980.1L837.5,1020.8L867.6,1052.5L877.5,1070L881.4,1081.8L884,1095.2L884.8,1156.5L885.5,1209.9L886.1,1255.4L886.9,1320.9L887.1,1335.5L887.8,1341.3L890.2,1346.8L902.7,1362.7L904.8,1367.5L903,1376.1L887.1,1402.6L886.3,1406.7L886.3,1415.2L883.9,1427.2L885.3,1429.2L707.4,1427L707.5,1430L707.2,1432.1L705.1,1436.4L704.6,1438.8L704.3,1459.9L704.6,1462.9L705.3,1465.5L708.5,1472.3L709.1,1475L709.6,1481.1L710.1,1483.9L711.6,1489L712,1491.7L711,1499.9L711.4,1502.4L712.3,1504.8L713.5,1506.8L715.1,1508.6L718.7,1511.8L719.9,1513.9L720.6,1516.5L721,1519.4L721,1529L720.5,1531.9L718.2,1539.8L717.2,1545.6L716.9,1555L714.6,1566L714.9,1577.9L714.5,1580.8L713.8,1583.4L707.2,1597L706.4,1599.2L706.6,1601.6L707.8,1603.4L710.5,1606.5L710.1,1608L709.7,1608.7L709.3,1609.2L694.5,1619.5L680,1623.9L639.2,1632.3L630.3,1632.8L622.5,1632L615.4,1630.3L610.4,1628L606.5,1626.7L586,1622.5L580.6,1620.6L573.6,1620.5L527.1,1626.5L520.2,1626.5L517.8,1625.4L515.4,1624.9L513,1625.6L508.1,1632.8L506.3,1634.3L504.4,1635.5L499.4,1636.9L460.7,1642L456.2,1643.8L448.6,1648.7L444.9,1651.7L442.2,1654.3L434.7,1657.5L410.4,1659.7L400.5,1661.5L395.8,1629.1L396.2,1610.8L395.9,1601.4L391.5,1583.2L389.7,1560.1L387.1,1548.1L389.5,1544.7L393.3,1541.7L396,1535.4L395.1,1528.6L391.8,1524.4L388,1520.8L386,1515.6L386.6,1509.3L389.1,1507.4L392.8,1506.9L396.8,1505L412.9,1490.4L421,1485.1L442.4,1475.5L450.2,1470.7L453.8,1463.2L451.9,1451.2L450.1,1449.5L444.3,1448.6L442.4,1446.9L442.1,1444.6L442.5,1439.7L441.3,1432.5L441.5,1426.9L440.4,1421.8L421.8,1406.3L415.6,1387.8L407.1,1369.8L375.4,1354.8L362.8,1345.7L351.1,1334.8L342.8,1325.2L323.5,1312L304.2,1284.9L290,1254.2L286.9,1236.3L285.9,1230L289.2,1225.4L295.3,1224.2L301,1226.4L306.2,1237.4L311.3,1231.8L314.5,1223.6L311.9,1221.7L317,1220L321.5,1220.6L326.4,1222.1L332.7,1223.1Z"><title>Centre</title></path>
<path id="r-TG-P" data-de="Plateaux" data-en="Plateaux" data-cx="622" data-cy="1877" d="M405.2,1756.3L403.8,1746.8L404.9,1721.2L400.5,1693.2L400.9,1663.9L400.5,1661.5L410.4,1659.7L434.7,1657.5L442.2,1654.3L444.9,1651.7L448.6,1648.7L456.2,1643.8L460.7,1642L499.4,1636.9L504.4,1635.5L506.3,1634.3L508.1,1632.8L513,1625.6L515.4,1624.9L517.8,1625.4L520.2,1626.5L527.1,1626.5L573.6,1620.5L580.6,1620.6L586,1622.5L606.5,1626.7L610.4,1628L615.4,1630.3L622.5,1632L630.3,1632.8L639.2,1632.3L680,1623.9L694.5,1619.5L709.3,1609.2L709.7,1608.7L710.1,1608L710.5,1606.5L707.8,1603.4L706.6,1601.6L706.4,1599.2L707.2,1597L713.8,1583.4L714.5,1580.8L714.9,1577.9L714.6,1566L716.9,1555L717.2,1545.6L718.2,1539.8L720.5,1531.9L721,1529L721,1519.4L720.6,1516.5L719.9,1513.9L718.7,1511.8L715.1,1508.6L713.5,1506.8L712.3,1504.8L711.4,1502.4L711,1499.9L712,1491.7L711.6,1489L710.1,1483.9L709.6,1481.1L709.1,1475L708.5,1472.3L705.3,1465.5L704.6,1462.9L704.3,1459.9L704.6,1438.8L705.1,1436.4L707.2,1432.1L707.5,1430L707.4,1427L885.3,1429.2L888.2,1430.2L890.6,1434.7L895.8,1476.7L894.9,1532.8L893.7,1610.8L894,1688.3L894.4,1785.4L894.5,1794L894.7,1836.2L894.9,1884.3L895.2,1957.4L895.5,2028.5L895.8,2100.4L887,2103.1L850.4,2102.8L859.9,2137.6L865.3,2145.7L866.1,2146.3L866,2146.3L863.8,2147.4L859.6,2151.1L849.7,2167.1L846.7,2170.9L843.7,2173.6L834.9,2178.3L826.6,2181.2L823.8,2181.7L817.9,2181.4L811.9,2180.3L801.1,2176.8L796.5,2176.5L790.7,2177L779.8,2179.4L770.3,2182.9L736.8,2208L709.6,2235.1L705.4,2233.2L690,2227.9L688,2226.6L686.3,2224.9L680.6,2214.9L680,2214.1L678.8,2213.2L675.8,2211.6L673.4,2210.8L671,2209.8L668.9,2208.4L667.3,2206.6L666.1,2204.5L664.6,2202.8L662.4,2201.8L654,2200.6L651.9,2199.6L651.2,2197.9L652.2,2194.4L651.3,2193.1L649,2192.5L570,2187.9L560.7,2190.1L555.9,2192L551.4,2194.5L549.2,2196.7L547.3,2200L545.5,2205.9L544.6,2211.7L545.6,2235L543.7,2254L540.5,2264.8L538.4,2269.7L536,2273.1L532.6,2277.1L518.4,2290.3L513.8,2296L508.9,2304.2L505.8,2308.1L504,2309.7L487.1,2320.3L479.1,2323.4L459.7,2326.2L454,2327.1L454.2,2324.1L457.2,2317.9L460.6,2313.3L460.9,2308.7L454.7,2302.6L450.3,2301.7L436.8,2302.1L432.3,2301.7L428,2293.9L421.2,2288.8L414.8,2283L412.1,2272.7L416.3,2248L415.8,2240.1L411.7,2232.2L404.7,2225.4L396.2,2220.7L387.9,2219L384.7,2214.7L370.7,2188.4L364.8,2183.8L360.1,2181L358.6,2176.3L361.8,2166L372.1,2148.8L373.2,2140.6L367.5,2130.2L353.7,2119.5L348.2,2112L355.2,2109.8L362.3,2109.3L382.8,2103.9L389,2100.4L398.3,2083.6L398.6,2062.3L396.5,2040.2L398.1,2021L409.8,1991.7L414.3,1969L420.7,1951L421.3,1940.4L413.6,1908.3L410.4,1904L392.6,1910.6L383,1912.4L374.2,1911.2L358.9,1897.6L351.1,1876L348.7,1851.9L350.5,1823.5L352.3,1817.4L355.3,1812.2L360.2,1807.4L366.6,1804.5L374.3,1802.4L380.9,1799L383.6,1792.4L383.5,1779.1L385,1763.9L391.2,1754L405.2,1756.3Z"><title>Plateaux</title></path>
<path id="r-TG-M" data-de="Maritime" data-en="Maritime" data-cx="712.5" data-cy="2342.8" d="M682.7,2539.3L683.9,2522.1L678.2,2514.4L638.1,2509.7L631.5,2506.3L626.3,2500.2L619.9,2490.3L616.2,2486L612.6,2484L609,2482.5L605.1,2479.7L597.6,2468.8L584.9,2429.6L548,2429.4L538.1,2426.8L531.8,2422L516.1,2402.8L503.9,2395.1L480,2383.2L469.8,2372.6L462.1,2360.8L456.3,2349.2L453.3,2337.1L454,2327.1L459.7,2326.2L479.1,2323.4L487.1,2320.3L504,2309.7L505.8,2308.1L508.9,2304.2L513.8,2296L518.4,2290.3L532.6,2277.1L536,2273.1L538.4,2269.7L540.5,2264.8L543.7,2254L545.6,2235L544.6,2211.7L545.5,2205.9L547.3,2200L549.2,2196.7L551.4,2194.5L555.9,2192L560.7,2190.1L570,2187.9L649,2192.5L651.3,2193.1L652.2,2194.4L651.2,2197.9L651.9,2199.6L654,2200.6L662.4,2201.8L664.6,2202.8L666.1,2204.5L667.3,2206.6L668.9,2208.4L671,2209.8L673.4,2210.8L675.8,2211.6L678.8,2213.2L680,2214.1L680.6,2214.9L686.3,2224.9L688,2226.6L690,2227.9L705.4,2233.2L709.6,2235.1L736.8,2208L770.3,2182.9L779.8,2179.4L790.7,2177L796.5,2176.5L801.1,2176.8L811.9,2180.3L817.9,2181.4L823.8,2181.7L826.6,2181.2L834.9,2178.3L843.7,2173.6L846.7,2170.9L849.7,2167.1L859.6,2151.1L863.8,2147.4L866,2146.3L866.1,2146.3L873.3,2151.7L877.6,2157L878.6,2163.8L875,2184.4L875.3,2192.7L877.4,2201.2L881.1,2211.2L883.9,2223L882,2230.6L878.2,2235.7L871,2245.5L867,2256.5L870.1,2262L876.3,2267.1L881.6,2276.9L881.7,2280.7L880.9,2284.8L880.6,2289.3L882.1,2294.3L885,2298.4L888.8,2302.2L892.9,2305.5L896.7,2307.8L901.2,2308.3L906,2307.9L909.5,2309.1L910.1,2314.7L911.4,2318.1L919.5,2324.8L922.5,2329L923.1,2333.9L921.9,2344.4L923,2348.7L926.2,2351.3L936.6,2356.7L940.7,2359.9L953.2,2380.1L962.6,2416.8L971.7,2452.8L961.6,2453.4L899.4,2468.2L889.4,2473.6L892.9,2483.8L892.8,2483.8L800.9,2499.4L724.1,2523.1L689.5,2538.3L685.7,2538.7L682.7,2539.3Z"><title>Maritime</title></path>
</g>
</svg>
