<svg xmlns="http://www.w3.org/2000/svg" viewBox="0 0 1000 916.9" class="regionskarte" preserveAspectRatio="xMidYMid meet" data-land="ZW" data-minlon="24.9847" data-maxlon="33.2775" data-minlat="-22.6008" data-maxlat="-15.4113" data-umbruch="0">
<!-- Umrisse: Natural Earth (ne_10m_admin_1_states_provinces),
     gemeinfrei. Erzeugt von tools/regionen_bauen.py, nicht von
     Hand aendern. -->
<g class="regionen">
<path id="r-ZW-MN" data-de="Matabeleland North" data-en="Matabeleland North" data-cx="269.7" data-cy="406.8" d="M118.5,457.7L115.3,447.6L100.2,434L95.8,424.4L95.1,415L93.7,410.5L90.7,407.8L86,405.4L82.6,402.3L76.9,394.1L75.2,392.3L71.1,389.5L63.2,381L61.6,378.5L61,376.8L59.9,371.4L58.9,368.8L55,362.4L51.1,352.6L48.6,347.9L45,344.9L40.9,342.5L37.6,338.9L32.6,330.3L29.1,321.5L28.3,318.4L28.3,314.8L33.2,303.9L34,304.8L36.3,305.8L39.9,308.7L42.3,309.9L43.5,310.1L47.2,309.9L51.2,311.4L52.5,311.6L61.6,311.6L62.2,311.8L63.4,312.4L64.1,312.6L64.8,312.3L65.9,311.1L66.6,310.8L74.7,309.2L81.1,306.4L84,306.1L85.6,307.1L87,308.4L91.5,309.7L94.2,311L96.6,312.6L97.7,313.9L98.8,315.9L104.3,318.2L106,320.4L104,321.1L103.9,323L104.8,325L106,326.5L113.3,330L118.5,330.2L119.8,330L126.5,326.5L127.3,327.4L128,325.8L130,325.4L132.2,325.3L133.9,324.9L134,324.4L133.8,322.7L133.9,322.2L134.6,322L136.7,321.4L138.8,320.3L141.6,319.7L142.6,319.1L146.9,315.8L148,315.2L149.1,315.6L150,316.7L150.6,317.9L151.3,318.7L152.4,319.1L157.9,319.8L159.1,320.3L160.1,321L160.8,321.8L161.7,322L166.2,321.3L171.7,322.4L181,327.5L186,329.1L189.2,329.7L191.2,330.5L192.8,331.8L194.7,334L196.3,335.4L198.3,336.4L205.1,338.7L206.8,339L208.3,338.5L211.7,335.3L213.3,334.3L215.3,333.8L218.2,333.5L229.5,328.2L232.4,329.1L236.8,326.2L238.1,325.6L243.8,325.4L245.6,324.9L248.9,323L252.4,319.6L256.9,315.1L261,310.1L260.7,307L260.5,303.9L260.7,302.6L262,300.7L293.9,267L306.2,255.5L312.6,248.9L315.9,242.5L318.4,232.4L320.3,227.9L336.8,202.8L341.5,197.5L347.8,193.6L366.4,185.4L366.7,186.4L368.7,195.7L368,200.5L367.6,201.6L367.5,202.3L367.5,202.5L367.5,202.6L368,203.1L369.9,204.2L370.6,205L370.7,206.1L369.1,210.5L368.8,212.8L368.7,213.4L368.9,213.9L369.3,214.4L370.3,215.1L372,215.7L372.7,216.3L373.2,217L373.7,218.5L374.1,219.5L374.6,220.1L375.5,220.4L376.2,220.4L376.9,220.3L377.5,220.2L378.1,220.3L379.5,220.8L380,221.1L380.3,221.6L380.3,222.5L379.9,224L379.8,224.8L379.9,225.6L380.2,226.4L381,227.5L381.3,228.4L381.3,229.7L380.7,231.1L380.8,231.8L381.1,232.6L381.9,233.5L382.3,234.3L382.4,235.4L382.4,237.6L383,239.7L383.1,241L383.5,242.1L383.9,242.8L386.3,244.6L387.4,246.1L388.8,246.9L389.8,247.4L390.7,247.7L391.5,248.5L392,249.2L393.5,254.8L393.1,259.5L392.9,260.7L391.9,263.2L391.8,264.9L391.6,265.5L391.3,265.9L390.9,266.3L390.9,266.4L390.8,266.4L390.2,268.7L389.4,270.7L389.2,271.5L389.1,272.4L389.2,273.5L389.6,275.1L389.7,276.1L389.7,277L389.4,277.6L388.8,278.6L388.5,279.2L387.9,282.3L387.2,284.3L387.2,285.3L388,288.2L388,289.2L387.9,290L384.5,293.6L382.6,295.2L381.8,296.2L381.4,296.5L380.9,296.7L380.3,296.6L379.9,296.2L379.5,295.8L378.9,295.5L378.3,295.4L377.8,295.6L377.3,296L374.1,298.8L373.9,299.5L373.5,301L373,302.3L372.8,303.1L372.9,304L374.2,310L374.2,311.1L374.1,312L372.5,315L371.6,317.6L371.5,318.4L371.5,319.3L371.8,320.5L371.6,321.3L371.3,321.8L370.7,322.2L370.2,322.4L369.7,322.8L369.4,323.3L369.1,324L368.9,325.5L368.6,326.2L368.3,326.8L367.9,327.2L367.5,327.7L365.5,329.2L365.2,329.6L364.8,330.1L364.7,330.2L364.7,330.5L364.6,331L364.8,331.8L365.4,333.8L365.7,335.6L366,336.4L366.5,337.1L367.7,337.8L368.4,337.9L369.1,337.8L369.7,337.5L370.3,337.4L371,337.5L371.5,338L371.7,338.9L371.6,341.5L371.8,343L372.5,344.8L372.6,345.5L372.6,346.2L372.4,346.8L372,347.4L371.6,347.8L370.6,348.5L370.1,349L369.8,349.5L369.6,350.1L369.7,350.9L370.2,351.7L371.5,352.6L372.4,352.9L374.9,353.5L375.6,353.8L376.2,354.3L376.5,355.3L376.2,355.7L375.7,355.9L369.2,356.7L365.8,357.5L365.2,357.8L364.7,358.5L364.2,395.8L364.4,397.7L364.9,399.4L366.2,400.6L367.2,401.3L368.1,401.6L368.9,401.7L370.4,401.7L376.8,400.9L377.6,400.9L378.3,401L380.2,401.9L381.7,402.3L386.6,402.6L388.2,402.8L390.4,403.5L402.4,403.9L403.9,404.2L404.7,404.3L406.2,404.2L408.9,403.6L415.2,403.7L417.5,404.1L419.1,404.2L424.1,403.9L425.2,403.8L428.9,402.5L429.6,402.4L437.3,402.5L437.9,402.3L440,402.2L441.4,401.9L443.9,401.1L444.6,400.9L445.4,400.9L446.2,401L446.9,401.3L448.1,401.9L450.3,402.5L452,402.7L497.1,402.2L498.3,402.4L499.1,403L500.7,406L501.2,407.4L501.3,408.6L500.7,410L499.7,410.8L478.5,419.8L472,421.4L470.8,422L469.9,423.1L469.9,425.5L476.9,457.7L477.4,459.2L478.1,460.6L479.1,461.6L479.9,462.1L481.3,462.6L482.2,463.5L483.2,464.8L485.7,469.2L486.2,470.3L486.2,471.5L486,472.4L485.8,473.2L485.5,473.9L484.8,474.8L484.2,475.5L484,476L483.8,476.7L483.8,480.3L483.8,480.6L484,481.1L485.1,482.6L486.5,483.7L497.4,495.5L498.1,496.7L498.4,497.6L498.5,499.1L498.1,500.1L495.5,504.4L496.1,505.3L511.2,519.8L510.2,522.1L509.6,522.7L508.3,523.6L507.4,523.8L506.4,523.6L505.6,523.1L504.9,522.6L503.8,521.9L502.5,521.5L498.6,520.7L497.9,520.7L497,520.8L496.2,521L495.6,521.5L495.2,522.2L495.2,523.6L495.6,524.5L496.2,525.4L498.1,527.1L498.8,528L499.3,529L499.4,530L499.4,531L499,533L498.3,534.1L497.3,535.5L492,540.2L491.5,540.8L491.1,541.5L491.4,542.4L492,543.2L493.6,544.7L494.4,545.4L495.4,546L496.1,546.7L496.5,547.6L496.6,549L496.5,554.1L496.3,555.1L495.8,557.1L494.9,559.4L494.8,560.2L494.4,561.2L493.7,562.2L490.9,564.3L489.3,564.9L487.9,565.2L480.7,563.8L480.1,563.9L479.6,564.3L479.6,565.1L479.8,565.8L480.3,567.1L481.9,573.8L483.1,576.6L483.1,577L483,577.5L482.8,578.2L480.7,581.5L479.3,582.7L470.8,587.5L465.6,589.7L465,590L464.7,590.6L464.3,591.6L464.3,592.4L464.4,593.1L465.1,595.6L465.1,596.3L464.8,597.1L452.9,611.4L450.7,613.6L448.7,615.1L447.9,617L444.7,620.4L443.1,620.6L442.2,620.5L435.9,615.4L444,613.6L446,612.7L446.9,612.1L447.5,611.3L447.9,610.6L448.2,609.9L448.2,609.2L447.9,608.7L447.4,608.2L445.1,606.6L444.7,606.2L444.3,605.6L444.3,605.1L444.3,604.6L444.5,604.1L445.2,602.7L445.6,601.7L445.8,600.9L445.8,600.3L445.4,599.9L444.5,599.6L443.8,599.3L443.3,598.8L443.1,598.3L443,596.8L442.5,596.3L441.7,596.4L440,597.2L439.2,597.4L438.3,597.4L437.5,597L436.2,595.9L435.6,595.7L435,595.5L434.3,595.5L433.8,595.3L433.5,595.1L433.2,594.8L433.1,594.4L433.1,594L433.2,593.6L433.3,592L433.4,591.5L433.8,590.4L433.7,590.1L433.3,589.9L432.6,589.9L430.2,590.7L427.6,591.1L426.8,591.4L425.4,592.7L424.5,593.2L423.6,593.2L422.4,592.9L415.6,589.2L414.7,589L414.2,589L413.8,589.3L413.6,589.9L413.8,591.5L414.9,596.1L414.9,597.2L414.7,598L414.2,599.2L414,600L413.9,601L413.9,602.3L413.5,603.1L412.8,603.7L411.2,604.7L410.8,605.2L410.9,605.8L411.4,606.4L412.9,606.9L413.9,607L415.4,606.9L416.3,607L418.4,607.6L419.2,607.6L419.8,607.5L421.3,606.9L422.2,606.8L423.1,607.1L424,608.5L425.2,609.8L425.4,611L423.9,614.5L420.8,615.8L404.5,628L403.7,628.2L403,627.6L401.8,625.1L401.3,623.1L400.8,621.9L400.5,621.3L399,619.3L397.7,618L397.4,617.4L397.2,616.7L396.9,616.2L396.4,615.7L395.8,615.4L395.3,615.1L394.8,614.7L394.4,614.2L394.1,613.7L393.9,612.9L393.6,612.4L391.2,610.3L388.6,607.6L388.3,607.1L388.1,605.5L388,604.9L387.7,604.4L386.9,603.3L386.7,602.7L386.6,602L386.4,601.4L386.1,600.8L385.6,600.3L385,600L383.3,599.3L382.6,598.9L382.2,598.5L381.9,597.9L381.4,596.6L381.1,596.2L380.8,595.9L380.4,595.9L379.9,596L375.8,597.7L374.5,597.9L369.4,598.1L368.3,598.4L363.9,600.7L363.4,600.7L362.7,600.4L358.5,593.7L357.8,593L357.3,593.4L356.9,594.4L355.2,599.5L354.5,603.5L354.2,607.2L353.9,608.5L353.3,609.1L349.5,609.1L344.6,608.2L342.9,607.7L341.6,606.8L341,606.2L340.6,605.5L340.2,605.1L339.7,604.7L336.9,603.1L334.9,601.6L325.9,592.9L324,591.4L321.8,590.1L320.9,589.3L316.7,584.6L314.2,580.9L313.6,580.2L312.8,579.6L312,578.8L311.7,578.2L311.4,577.5L311.1,575.2L311,573.6L310.9,572.8L310.7,572.1L310.3,571.6L309.9,571.1L308.4,570L307.6,569L307.2,568.5L306.5,567.4L305.5,567L304,566.6L300.8,566.2L298.1,565.5L296.4,564.6L292.2,561.7L289.9,560.4L287.5,559.9L281,559L280.1,559.1L279.2,559.3L278.2,559.9L276.5,561.4L275.7,561.6L274.6,561.8L272.6,561.6L270.5,561.2L268.6,561.2L267.3,561.5L265.9,561.2L265.2,560.9L264.5,560.4L263.9,560.2L263.2,560.1L262.4,560L259.4,559.6L242.6,561.6L239.9,561.1L237.8,560.9L235.6,561L212,566.7L210.1,567.4L206.2,569.5L204.1,570.8L203.7,570.3L202,569.4L196.5,567.8L194.3,566.8L192.6,565.1L191.7,562.2L190.7,559.8L188.7,557.7L183.8,554.5L181.5,553.6L176.7,552.5L174.5,551.6L172.2,549.4L168.9,544.3L166.2,542.8L162.5,542.2L161.5,541.7L160.1,540.7L160.1,540.5L160.9,540.1L161.8,538.5L162.6,535.9L162.3,534.8L161.2,533.2L160.2,532.2L159,531.3L157.7,530.7L151.3,530.6L145.9,529.1L141.2,526.2L138.1,521.6L126.6,488.8L123.8,483.2L120.2,478.3L117.2,473.2L116.2,470.8L115.8,467.8L116.2,465.2L118.1,460.4L118.6,457.8L118.5,457.7Z"><title>Matabeleland North</title></path>
<path id="r-ZW-MS" data-de="Matabeleland South" data-en="Matabeleland South" data-cx="470.6" data-cy="702" d="M238.3,586.1L234,585.3L220.3,578.4L215.8,577.5L213,577.5L210.6,577L208.5,576L206.7,574.1L205,571.8L204.1,570.8L206.2,569.5L210.1,567.4L212,566.7L235.6,561L237.8,560.9L239.9,561.1L242.6,561.6L259.4,559.6L262.4,560L263.2,560.1L263.9,560.2L264.5,560.4L265.2,560.9L265.9,561.2L267.3,561.5L268.6,561.2L270.5,561.2L272.6,561.6L274.6,561.8L275.7,561.6L276.5,561.4L278.2,559.9L279.2,559.3L280.1,559.1L281,559L287.5,559.9L289.9,560.4L292.2,561.7L296.4,564.6L298.1,565.5L300.8,566.2L304,566.6L305.5,567L306.5,567.4L307.2,568.5L307.6,569L308.4,570L309.9,571.1L310.3,571.6L310.7,572.1L310.9,572.8L311,573.6L311.1,575.2L311.4,577.5L311.7,578.2L312,578.8L312.8,579.6L313.6,580.2L314.2,580.9L316.7,584.6L320.9,589.3L321.8,590.1L324,591.4L325.9,592.9L334.9,601.6L336.9,603.1L339.7,604.7L340.2,605.1L340.6,605.5L341,606.2L341.6,606.8L342.9,607.7L344.6,608.2L349.5,609.1L353.3,609.1L353.9,608.5L354.2,607.2L354.5,603.5L355.2,599.5L356.9,594.4L357.3,593.4L357.8,593L358.5,593.7L362.7,600.4L363.4,600.7L363.9,600.7L368.3,598.4L369.4,598.1L374.5,597.9L375.8,597.7L379.9,596L380.4,595.9L380.8,595.9L381.1,596.2L381.4,596.6L381.9,597.9L382.2,598.5L382.6,598.9L383.3,599.3L385,600L385.6,600.3L386.1,600.8L386.4,601.4L386.6,602L386.7,602.7L386.9,603.3L387.7,604.4L388,604.9L388.1,605.5L388.3,607.1L388.6,607.6L391.2,610.3L393.6,612.4L393.9,612.9L394.1,613.7L394.4,614.2L394.8,614.7L395.3,615.1L395.8,615.4L396.4,615.7L396.9,616.2L397.2,616.7L397.4,617.4L397.7,618L399,619.3L400.5,621.3L400.8,621.9L401.3,623.1L401.8,625.1L403,627.6L403.7,628.2L404.5,628L420.8,615.8L423.9,614.5L426,617L426.5,617L427.2,617L431.1,613.8L431.5,613.7L432.1,613.8L433,614.3L434.4,614.6L435.9,615.4L442.2,620.5L443.1,620.6L444.7,620.4L447.9,617L448.7,615.1L450.7,613.6L452.9,611.4L464.8,597.1L465.1,596.3L465.1,595.6L464.4,593.1L464.3,592.4L464.3,591.6L464.7,590.6L465,590L465.6,589.7L470.8,587.5L479.3,582.7L480.7,581.5L482.8,578.2L483,577.5L483.1,577L483.1,576.6L481.9,573.8L480.3,567.1L479.8,565.8L479.6,565.1L479.6,564.3L480.1,563.9L480.7,563.8L487.9,565.2L489.3,564.9L490.9,564.3L493.7,562.2L494.4,561.2L494.8,560.2L494.9,559.4L495.8,557.1L496.3,555.1L496.5,554.1L496.6,549L496.5,547.6L496.1,546.7L495.4,546L494.4,545.4L493.6,544.7L492,543.2L491.4,542.4L491.1,541.5L491.5,540.8L492,540.2L497.3,535.5L498.3,534.1L499,533L499.4,531L499.4,530L499.3,529L498.8,528L498.1,527.1L496.2,525.4L495.6,524.5L495.2,523.6L495.2,522.2L495.6,521.5L496.2,521L497,520.8L497.9,520.7L498.6,520.7L502.5,521.5L503.8,521.9L504.9,522.6L505.6,523.1L506.4,523.6L507.4,523.8L508.3,523.6L509.6,522.7L510.2,522.1L511.2,519.8L517.3,525.5L519,527.6L520.2,531L523,536.5L523.6,537.3L524,537.9L526.8,540.4L527.4,541.3L527.8,542.1L527.9,543.1L528.8,546L529.9,547.6L533.1,550.8L533.9,552.2L534.8,554.4L535.2,555.6L535.3,556.6L534,562.8L534,564.4L534.3,565.6L534.7,567L535.9,569.5L537.2,569.8L539.3,569.2L541.4,568.3L543.2,568.4L544.2,568.7L552.1,572.6L557.6,576.8L558.3,577.2L559,577.2L564.4,576.1L565.1,575.9L566.3,575.3L566.9,575.1L567.6,575.3L568.1,576.6L568.9,580.5L569.4,582.1L570.5,582.3L578.9,580.3L580.7,580.4L581.5,581.8L582.2,584.9L582.7,585.2L583.1,585.1L584.9,584L585.5,583.9L585.8,584.1L589.6,590.4L589.6,591.6L589.2,593L581.2,609.9L581,610.6L580.4,616.6L580.2,617.5L573.1,634.8L572.9,635.6L572.9,636.7L573.1,640.8L573,641.9L572.7,643.1L571.8,645.6L570.9,647.4L568.8,650L567.9,650.8L566.9,651.3L565.8,650.9L561.8,648.1L560.9,647.7L560.1,647.9L560.1,654.6L559.8,656L558.7,658.8L558.7,660.3L557.9,661.1L557.1,661.7L556.4,662L556,662.6L555.8,663.3L555.5,664.4L555.7,665.1L556,665.7L557.1,666.7L557.9,667.8L558.3,668.9L558.8,670.3L559.5,670.7L560.6,670.5L565.7,668.9L566.4,668.9L566.5,669.8L560.1,699.5L559.8,700.6L559.3,701.4L542.1,713L540.6,714.4L540.6,714.9L540.9,715.4L542.2,716L544.6,716.7L545.2,716.8L548.5,717L552.9,718.1L557.9,718.2L566.3,716.2L570,715.8L572,715.8L573.8,721.9L574.7,723.8L580.1,730.1L580.7,730.5L581.7,730.9L584.5,732.5L585,733L585.2,733.3L584.9,733.5L584.9,734.3L585.1,735.4L586.4,738.1L587,739.2L587.6,739.8L588.6,740L589.3,740.3L590.5,741L591,741.6L591.2,742.6L591.4,746.1L591.6,746.9L591.9,747.3L592.5,747.4L593,747.5L594,747.9L594.4,748.4L594.6,749L594.7,749.7L594.9,750.6L595.2,751L595.8,751.3L596.4,751.6L596.8,751.9L597,752.2L598.9,756.5L599.5,757.7L600,758.4L600.6,758.8L601.9,759.4L602.9,760.2L603.4,760.6L603.8,761L605.2,761.8L605.8,762.3L607.1,763.5L609.1,767L609.7,767.6L611,768.4L613.2,770.4L614.2,772L614.9,772.9L615.5,773.5L616.3,773.8L617.2,774.3L617.7,775L618.2,776.1L618.7,776.5L619.2,776.6L619.5,776.5L619.6,776.5L620.1,776.4L620.7,776.5L622.3,777L623,777.1L624.6,777.1L625.7,777.6L626.1,778.3L626.6,780.1L627.1,780.6L627.7,780.9L628.7,781.2L631.2,782.5L632,782.9L633.1,783.2L633.7,783.6L634.1,784.1L634.3,784.8L634.3,785.5L634.1,787.2L634.4,787.7L634.9,788.1L635.7,788.3L645.4,789.5L646.8,789.9L647.5,790L648.1,789.9L648.7,789.6L649.3,789.4L650.1,789.3L652.9,790.7L655.8,792.8L658.5,793.9L659.4,794.8L663.1,796.2L665.6,796.4L666.5,796.7L666.9,797.2L666.8,797.8L666.1,798.7L665.9,799.2L666,799.7L667.1,801.2L669.5,803.8L670.2,804.7L671.1,806.4L671.7,806.6L672.4,806.7L673,806.6L673.7,806.8L675.1,807.7L677.9,808.8L678.6,808.8L679.3,808.6L680.5,808.1L681.3,808.2L681.7,808.6L681.8,809.3L681.6,810L681.6,810.8L682,811.3L683.7,812.1L684.1,812.7L684.3,813.4L684.2,814.2L684.3,814.8L685.2,817.6L685.5,818.5L686,819L689.1,820.8L689.7,821.5L690.3,822.2L690.6,823L696.1,829.9L696.3,830.4L696.1,831.8L696.2,832.7L697,834.1L697.9,834.9L698.8,835.4L700,836L700.4,836.6L700.4,837.2L700.2,837.8L700.1,838.5L700.1,839.7L700,840.1L699.9,840.2L699.8,840.3L699.6,840.5L699.4,840.9L699.3,841.5L699.6,841.8L700.2,841.9L701,841.9L702,842.1L703.1,842.6L704.8,843.7L705.6,844.5L706.3,845.6L707.1,846.4L708.3,847.4L708.9,848.2L709.6,850L710.1,850.5L710.7,850.6L712.3,850.4L713.4,850.5L714,850.8L714.3,851.5L714.3,852.9L714.5,853.6L714.9,854.2L715.9,855.5L716.3,856.1L716.5,856.8L716.8,858.5L717.3,859.7L717.8,860.4L718.4,860.8L720.2,861.1L721.5,861.5L722.1,862L722.3,862.7L722.1,864.1L722.6,864.5L723.2,864.5L724.7,864.4L725.5,864.5L726.5,864.9L726.9,865.5L727.1,866.2L727.2,867.1L727.4,868.2L728.3,869.6L728.7,870.5L728.7,872.1L729,873L730.3,875L730.7,875.7L730.9,877.4L731.2,878.3L731.8,878.7L732.7,879.1L733.4,879.2L734.1,879.1L734.9,879.2L735.4,879.8L737.1,882.9L737.1,883L735.9,883.2L733.8,882.8L729.7,881L716.6,878L709.3,877.2L705.8,876.3L701.9,877.8L688.5,878.9L686.1,879.6L682.9,881.9L681,882.4L680.2,882.2L678.4,880.9L677.3,880.6L673.8,880.7L666,879.8L663.7,879.8L661.4,880.5L656.8,882.5L654.5,883.2L649.6,884.1L645.2,884.2L641,883.3L637.3,880.6L635.6,879.1L633.8,878L631.5,877.4L628.5,877.1L623.2,877.9L621.1,877.7L618.2,876.3L614.7,873.8L613,873.1L609.4,872.6L609.1,872.2L608.9,871.7L606.7,869.2L605.4,868.6L602.8,868L601.6,867.6L598.4,865.6L596.6,865.1L592.2,864.7L589.3,863.1L585.2,862.3L578.2,857.7L575.7,857L567.6,857.4L566.1,857.9L564,856.4L561.5,856.8L557,858.8L552.9,858.4L550.6,858.9L549.6,861L548.3,862.3L545.3,862L539.3,860.5L536.8,861.1L532.4,863.5L529.8,864.9L528,864.8L527.2,864.6L526.4,864.1L517.2,856.2L516.4,855L515.5,852.5L514.8,851.4L513.7,849.9L513.1,849.5L501.7,849.9L497.2,849.1L492.7,846.8L489.1,842.9L486.8,838.1L485.9,832.7L486.4,827.3L487.7,824.5L489.7,821.5L491.1,818.5L490.9,816L488.9,814.5L484,813L481.9,811.6L478.4,810.7L471.1,810.3L467.4,809.3L449.7,801.2L444.2,799.5L439.5,795.8L437.9,795.3L434.3,794.9L430.4,793.9L429.1,794.1L427.8,794.8L423.6,795.8L421.7,796.6L419.6,797L417,796.4L407.2,791.3L402.4,789.7L398,788.9L383.6,788.7L374.6,786.9L367.6,786.4L365.6,785.8L363.9,784.7L362.5,783.1L361.8,782L360.7,779.4L360.1,778.3L359.2,777.8L358.6,778L358,777.8L357.5,776.6L358.1,775L357.6,774.2L356.8,773.9L356.4,773.7L356.6,772.5L357.5,771L357.9,770L357.6,768.6L354,761.4L352.1,759.3L351.3,758.1L351.1,757.1L351.1,755.1L350.9,754.1L349.7,752.3L345.4,747.1L342.3,742.3L338.7,737.9L330.4,731.8L328.5,729.9L324.4,724.2L323.4,721.8L323.4,719.6L324.9,712.8L325.1,710.1L324.1,703L324.1,701.7L324.4,698.9L324.4,697.4L324.5,695.7L325.2,694.6L326.1,693.5L326.8,692L328.6,681.7L328.3,676.6L325.3,666.5L326.3,661.9L327.7,657.4L328.1,652.4L327.2,650.1L325.5,648.5L323.3,647.6L318.5,647.5L314.3,645.6L307.4,646.8L297.8,645.6L284.1,645.5L279.9,646.1L275.4,648.4L277.3,630L275.1,615.1L268.9,599.3L267.4,597.1L265.2,595.7L262.7,595L260.1,594.6L258.7,594.5L257.5,594.6L256.2,594.5L254.8,594L253.5,592.9L251.4,590L250.3,588.7L246.2,586.5L242.3,586.1L238.3,586.1Z"><title>Matabeleland South</title></path>
<path id="r-ZW-MV" data-de="Masvingo" data-en="Masvingo" data-cx="733.6" data-cy="684.2" d="M752.1,886.8L751.1,886.4L749.2,885.2L748.4,885L747.5,884.3L745.1,881.4L743.8,880.6L742,880.9L738,882.8L737.1,883L737.1,882.9L735.4,879.8L734.9,879.2L734.1,879.1L733.4,879.2L732.7,879.1L731.8,878.7L731.2,878.3L730.9,877.4L730.7,875.7L730.3,875L729,873L728.7,872.1L728.7,870.5L728.3,869.6L727.4,868.2L727.2,867.1L727.1,866.2L726.9,865.5L726.5,864.9L725.5,864.5L724.7,864.4L723.2,864.5L722.6,864.5L722.1,864.1L722.3,862.7L722.1,862L721.5,861.5L720.2,861.1L718.4,860.8L717.8,860.4L717.3,859.7L716.8,858.5L716.5,856.8L716.3,856.1L715.9,855.5L714.9,854.2L714.5,853.6L714.3,852.9L714.3,851.5L714,850.8L713.4,850.5L712.3,850.4L710.7,850.6L710.1,850.5L709.6,850L708.9,848.2L708.3,847.4L707.1,846.4L706.3,845.6L705.6,844.5L704.8,843.7L703.1,842.6L702,842.1L701,841.9L700.2,841.9L699.6,841.8L699.3,841.5L699.4,840.9L699.6,840.5L699.8,840.3L699.9,840.2L700,840.1L700.1,839.7L700.1,838.5L700.2,837.8L700.4,837.2L700.4,836.6L700,836L698.8,835.4L697.9,834.9L697,834.1L696.2,832.7L696.1,831.8L696.3,830.4L696.1,829.9L690.6,823L690.3,822.2L689.7,821.5L689.1,820.8L686,819L685.5,818.5L685.2,817.6L684.3,814.8L684.2,814.2L684.3,813.4L684.1,812.7L683.7,812.1L682,811.3L681.6,810.8L681.6,810L681.8,809.3L681.7,808.6L681.3,808.2L680.5,808.1L679.3,808.6L678.6,808.8L677.9,808.8L675.1,807.7L673.7,806.8L673,806.6L672.4,806.7L671.7,806.6L671.1,806.4L670.2,804.7L669.5,803.8L667.1,801.2L666,799.7L665.9,799.2L666.1,798.7L666.8,797.8L666.9,797.2L666.5,796.7L665.6,796.4L663.1,796.2L659.4,794.8L658.5,793.9L655.8,792.8L652.9,790.7L650.1,789.3L649.3,789.4L648.7,789.6L648.1,789.9L647.5,790L646.8,789.9L645.4,789.5L635.7,788.3L634.9,788.1L634.4,787.7L634.1,787.2L634.3,785.5L634.3,784.8L634.1,784.1L633.7,783.6L633.1,783.2L632,782.9L631.2,782.5L628.7,781.2L627.7,780.9L627.1,780.6L626.6,780.1L626.1,778.3L625.7,777.6L624.6,777.1L623,777.1L622.3,777L620.7,776.5L620.1,776.4L619.6,776.5L619.5,776.5L619.2,776.6L618.7,776.5L618.2,776.1L617.7,775L617.2,774.3L616.3,773.8L615.5,773.5L614.9,772.9L614.2,772L613.2,770.4L611,768.4L609.7,767.6L609.1,767L607.1,763.5L605.8,762.3L605.2,761.8L603.8,761L603.4,760.6L602.9,760.2L601.9,759.4L600.6,758.8L600,758.4L599.5,757.7L598.9,756.5L597,752.2L596.8,751.9L596.4,751.6L595.8,751.3L595.2,751L594.9,750.6L594.7,749.7L594.6,749L594.4,748.4L594,747.9L593,747.5L592.5,747.4L591.9,747.3L591.6,746.9L591.4,746.1L591.2,742.6L591,741.6L590.5,741L589.3,740.3L588.6,740L587.6,739.8L587,739.2L586.4,738.1L585.1,735.4L584.9,734.3L584.9,733.5L585.2,733.3L585,733L584.5,732.5L581.7,730.9L580.7,730.5L580.1,730.1L574.7,723.8L573.8,721.9L572,715.8L578.1,716.6L579.1,716.6L580.4,716.3L582.9,715.1L597.1,703.3L598.7,702.4L599.8,702L601.1,701.9L602.6,701.9L603.4,702.2L604.3,702.7L604.9,703.3L605.7,704L606.6,704.5L607.5,705.3L608.3,706L609.1,706.6L609.7,706.9L611.5,707.6L612.3,708.1L612.8,708.5L614.7,711L615.8,712.1L617.3,712.9L620,713.8L620.8,714.1L621.2,714.6L621.9,715.4L622.6,716.1L623.1,716.4L623.8,716.7L625,717L628,717.4L630.2,717.4L633.4,718L634.3,717.9L635,717.6L635.4,717.3L635.7,717.1L636.3,716.9L636.8,716.6L638.1,715.8L638.5,715.6L639.1,715.7L641.3,717L642.2,717.2L643,717.5L643.8,717.6L644.9,717.5L656.9,706.5L657.8,705.1L658.1,703.1L657.5,693.8L657.6,693.1L658,692.4L659.3,690.8L659.8,690.1L660.1,689.3L660.7,686.3L662.1,683.8L662.2,683L662.2,682.3L661.6,679.6L661.6,678.9L661.8,678.1L662.1,677.4L663.7,674.6L663.9,674L663.9,673.2L663.7,672.6L663.5,671.9L663.2,670.4L663,669.7L662.6,669.2L661.6,668.4L661.1,668L660.7,667.5L660.4,667L660.2,666.3L660,665.6L659.9,664.8L660.1,662.5L660.1,661.7L659.9,661L659.4,659.7L659.4,658.8L659.6,657.8L660.1,656.3L660.2,655.3L660,654.6L655.1,649.1L655,649L654.8,648.3L654.6,647.7L654.5,646.1L654.3,645.4L653.9,644.9L653.5,644.5L650.8,642.7L650.3,642.3L649.9,641.8L649.6,641.2L649.4,640.5L649.1,639.9L648.7,639.4L648.2,639L647.6,638.7L646.2,638.5L645.5,638.3L645,637.9L644.5,637.5L643.7,636.5L643.5,635.9L643.2,635.3L643.2,634.5L643.3,633.8L643.3,633.2L643,632.7L642.6,632.3L641.9,632.2L639.6,632L638.3,631.6L637.7,631.3L637.1,631L636.2,630.2L635.8,629.7L634.1,626.9L633.7,626.5L633.1,626.2L632.8,625.5L632.8,624.1L633.7,621L633.8,618.4L633.7,615.9L633.2,613.9L632.7,612.2L632,611.3L630.4,610.3L628.5,609.7L626.5,609.5L624.4,610.9L623.6,611.2L623.2,611L623.2,607.3L623.8,602.1L625.3,599.4L626.1,594.9L625.9,593.1L625.6,592.1L624.9,591.2L625.3,590.6L626.3,589.9L635.4,585.5L636,585.3L636.8,585.2L655.6,584.4L656.4,584.3L657,584.1L657.6,583.5L656.8,583.4L656.4,583.4L656.2,583.2L656.2,583L656.3,582.6L656.6,581.8L656.6,581.4L656.6,581.1L656.5,580.9L656.3,580.5L656.3,579.9L656.6,578.7L656.9,578.1L659.8,576L660.4,575.1L660.8,574.6L660.9,574.2L660.8,573.9L660.7,573.6L660.5,573.4L660.3,573L660.2,572.6L660.1,571.9L660.1,571.5L660,571.3L659.8,571.1L659.7,571L659.6,570.8L659.5,570.2L659.3,569.9L659.2,569.6L659.3,568.9L660.6,566.4L661.8,565.7L672,565.4L673.2,565.5L674.1,565.8L677.4,567.6L681,568.6L682.5,568.7L684.1,568.6L687.6,567.7L688.4,567.4L689.4,566.9L689.6,566.3L689.4,565.8L689,565.5L688.7,565.1L688.5,564.8L688.3,564.2L688.2,562.8L688.1,561.1L688.5,558.8L689.8,554.7L689.9,554L689.8,550.9L689.9,549.9L692,539.6L692.1,538.3L692,536.9L691.4,535.2L691.1,533.1L692.4,526.3L692.6,515.9L692.8,514.8L693.6,514.2L694.8,513.6L696.4,512.7L697,511.6L696.9,510.7L696.2,510L695.3,509.5L691.6,508.6L690.9,508.3L690.3,507.9L690.6,507.2L691.6,506.3L708.4,492.4L713.6,487.6L713.9,484.9L713.4,483.7L713.2,482.7L713.5,482.2L714.2,482L715.9,481.8L717,481.2L717.7,480.3L719,478.3L719.8,477.7L721.1,477.5L725.3,477.9L725.6,478L726.1,478.2L726.2,478.8L726.1,479.7L725.8,480.7L725.4,481.3L725.4,481.4L725.4,481.5L725.4,481.7L725.5,481.9L725.4,482.4L725.2,482.7L725,483.2L724.6,484.7L724.5,486.3L724.6,487.8L724.8,488.4L725.2,489.1L730.4,489.8L749.3,489.4L750.9,491.4L770.5,503.4L774.9,507.1L776.4,508.1L777.8,508.8L778.6,508.9L779.2,508.7L779.7,508.4L780.3,508L781.2,507.9L782.5,508L783.2,508.2L783.7,508.6L785,509.9L785.6,510.2L786.3,510.5L788.6,511L789.8,511.6L792.9,513.9L793.9,514.7L794.6,515.6L795.1,516.3L795.8,517.2L796.6,517.7L797.3,517.9L797.9,517.7L799.2,517.2L800.1,517.3L800.8,517.7L801.6,518.4L802.7,519L804.4,519.7L805.6,520.1L808.5,520.5L809.4,520.9L809.9,521.3L809.9,521.7L809.9,523.1L810.2,524.1L810.9,525.3L814.5,528.9L815,529.4L815.2,530L815.4,530.7L815.5,531.4L815.8,532.2L816.3,533L817.3,534.2L818.1,534.9L823.7,537.9L825.1,538.9L826,539.7L826.3,540.3L827.1,542.9L827.4,543.4L827.8,544L830.5,547.3L834.3,550.8L835.2,551.8L835.8,552.7L837,556.5L837.3,557.3L837.8,558.2L838.7,559.4L839.3,560L840,560.4L843.2,561.9L844,562.5L844.5,563.1L845.5,565L846.4,566.1L848.2,567.9L850.8,569.8L852.4,570.6L853.6,570.9L854.7,571L856.1,571.4L857,572L857.7,572.7L858.7,573.8L859.5,574.4L860.2,574.6L863,574.2L865.4,574.1L866.3,574.2L867.4,574.5L869,575.1L877,581.3L883.3,584.5L885.5,585.9L885.9,587.1L886.6,588.2L886.5,600.9L880.5,636.8L879.9,654.7L878.9,660.9L877.2,663.3L875.9,670.9L873.4,674.1L872.3,676.1L871.8,678.3L871.6,680.9L869.3,687.5L865,695.6L864.4,698.3L863.9,699.6L862.2,702.5L862.3,703.6L863.4,705.1L863.8,706.3L864.9,712.2L865.3,713.4L866,714.5L868.7,716.6L869.1,717.9L867.7,719.8L876.1,724L876.7,724.7L877.6,727.7L881.9,738L881.8,739.9L883.7,742.4L895.2,749.8L890.9,754.6L885.1,761L878.8,767.9L872.4,774.8L866.1,781.8L859.8,788.7L853.5,795.6L847.2,802.6L840.8,809.5L834.5,816.5L828.2,823.4L821.9,830.3L815.5,837.3L809.2,844.2L802.9,851.1L796.6,858.1L790.3,865L783.9,871.9L777.7,878.8L769.8,884.3L760.2,891L757.4,886.9L756.2,885.9L755,885.9L753.1,886.7L752.1,886.8Z"><title>Masvingo</title></path>
<path id="r-ZW-MW" data-de="Mashonaland West" data-en="Mashonaland West" data-cx="544.8" data-cy="233" d="M585.2,26L590.5,26.5L600.9,29.4L606.1,30L610.8,29.2L615.6,27.8L620.5,27.1L625.3,28.2L628.4,30.3L629.8,30.8L631.7,30.4L632.6,29.8L634.5,28.2L635.5,27.7L638.6,28.2L640.5,29L640.2,30.5L640.2,35.6L640.7,37.4L642.2,39.1L642.8,40.4L643.8,43.2L643.3,45L642.4,46.6L610.9,74.5L610.4,75L610.2,75.3L610.2,75.8L610.2,76.5L610.4,77.1L610.7,77.7L611,78.2L612,79.1L612.5,79.4L615,80.4L615.4,81.1L615.6,82.2L615.1,85.5L615,86.6L615.3,88L615.5,88.6L615.9,89.1L616.2,89.6L617,90.4L617.2,90.7L617.3,91.2L617.2,91.9L617.2,92.6L617.4,93.3L618.1,94.3L618.5,94.7L619,95L619.6,95.2L620.3,95.2L620.9,95.1L621.6,95.1L622.1,95.5L622.4,96.3L622.5,97.5L622.3,98.3L621.9,98.8L618.7,100.9L618.2,101.5L616.7,103.9L616.2,105L616.1,106L616.1,106.8L616.7,111L616.7,112.8L616.5,113.8L616.1,114.5L615.7,115L614.2,116.1L613.6,116.7L612.9,117.9L610.8,122.7L610.7,124L610.9,124.8L611.5,125.1L612.1,125.4L613.4,125.8L614.1,125.8L614.8,125.8L615.3,125.4L615.6,124.9L616.1,123.6L616.4,122.9L616.8,122.5L617.2,122.1L618.5,121.7L619.1,121.5L619.9,121.5L622.5,122.2L623.2,122.2L623.7,122L624.1,121.5L624.9,120.5L625.3,120.1L625.9,119.8L628.6,119.2L629.2,118.9L629.6,118.6L630.1,118.1L630.4,117.6L630.7,117L630.9,116.4L630.9,115.6L630.3,113L630.2,112.2L630.3,111.5L630.5,110.9L630.9,110.4L631.4,110L632.6,109.5L636.9,109L637.7,109L639.3,109.2L640,109.4L640.6,110.1L641.1,111.1L642.2,114.5L642.6,115.3L644.7,117.7L645.1,118L645.6,118.3L646.2,118.4L653.1,118L653.9,118.2L654.8,118.7L655.7,120.4L656.3,122L657.2,124.8L657.3,126.3L657.3,127.4L657.1,128.1L655.5,130.9L655,132L654.9,132.5L654.6,135.7L653.8,139.7L653.3,141L652.6,142.1L652.3,142.7L651.3,145.6L650.4,151.1L650.5,152.2L650.7,153L651.9,154.9L652.8,156.7L653.3,157.3L653.8,157.7L655.7,158.5L656.3,158.8L657.3,159.6L657.9,159.9L659.3,160.1L659.9,160.4L663.8,162.7L664.8,163.2L665.1,163.4L665.4,163.8L667.2,168L667.3,168.9L667.1,169.6L666.8,170.3L666.6,170.9L667.1,171.3L667.6,171.7L668.3,171.9L668.8,172.3L669.5,172.8L670.1,173.7L670.9,175.3L671.2,176.4L671.3,177.4L671.1,178.1L670.5,179.3L668.6,181.8L668.3,182.4L668.1,183.1L668,183.8L667.8,184.6L668.5,195.8L668.8,196.9L669.1,197.4L669.5,197.9L671.4,199.5L671.9,200L672.3,200.7L672.2,201.3L671.9,201.7L671.4,202L670.9,202.3L670.5,202.6L670.4,203L670.5,206.4L671,208.9L671.4,209.5L671.9,209.9L672.5,210L673.3,210L676.3,209.8L677,209.8L677.6,210.1L678.1,210.4L678.7,210.6L679.3,210.7L679.9,210.5L681.3,209.4L682.9,208.4L683.6,208.1L684.2,208.1L684.9,208.6L685.2,209.4L685.4,210.6L685.9,211.1L686.4,211.1L687,210.8L688,210.1L688.5,209.8L689.2,209.6L689.8,209.6L690.6,209.8L692,210.2L692.6,210.6L693.2,211.2L693.4,212L693.4,212.8L692.1,223.3L691.6,224.5L691.3,225.1L689.8,227.2L688.3,229.1L686.5,230.8L686,231.2L685.5,231.7L685.1,232.4L685.3,233L685.7,233.5L686.3,234L686.8,234.6L686.8,235.2L686.6,235.9L682.1,244.7L680.4,247.4L680.1,248.1L679.9,249L681.5,256.2L681.7,258.3L681.7,260L680.2,270.6L680.3,273.6L681,274.2L681.4,274.4L698.4,274.4L699,274.5L699.2,275L698.8,277.2L697.9,279.7L697.7,280.7L697.7,281.8L698.1,282.6L699.3,283.4L705.9,286.1L711.5,289.2L713.2,290.3L714,290.8L714.7,290.8L715.6,290.1L716.2,289.3L716.9,288.6L717.6,288.2L719.9,289L723.2,294.7L721.8,298.6L718.5,302.6L717,303.7L715.7,304.3L714.6,304.5L714,305L713.7,305.9L713.5,307.4L713.5,308.4L713.8,309.1L714.3,309.7L714.6,310.5L714.6,312L713.8,313.6L713.6,314.7L713.9,315.5L714.6,316L717.1,317.4L717.7,318.2L718.3,319.1L718.6,320.3L718.5,321L718,321.5L714,323L710.8,323.6L710.2,323.2L708.5,322.3L705.2,321L704.3,320.5L703.9,320.4L703.5,320.6L703,321.6L702.7,323.3L702.8,324.3L703,325.1L703.4,326.4L703.6,327.1L703.6,327.8L703.3,328.4L702.6,329L702,329.4L700.1,330.1L700.1,330.2L699.9,330.3L699.6,330.8L699.3,331.6L699,333.2L699.1,334.2L699.3,335L701.1,339.2L701,339.8L700.7,340.6L699.1,341.7L698.4,342.5L697.9,343.5L696.8,347.6L696.7,348.3L696.9,349L697.1,349.6L696.9,350.7L696.2,352.3L694.1,355.6L693,357L692.1,357.9L691.5,358.1L690.3,358.7L689.9,359.2L689.5,359.9L689.4,361L689.6,365.2L689.7,365.9L690,366.5L690.3,367.1L691.1,368L696.1,372.6L699.4,376.4L700.1,377.4L700.6,378.6L700.8,379.2L700.7,380L700.2,380.7L699,381.6L698.2,382.3L697.6,383.1L697.3,384.5L697.1,385.5L696.2,403.1L695.9,404.7L695.4,405.7L694.6,406.8L689.4,411.9L683.9,421.4L683.6,421.8L683.3,422.1L682.9,421.3L682.5,421L682.2,420.8L679.4,420.1L678.8,420L678.2,420.2L678,421L678,421.7L678.6,423.7L678.7,424.2L678.4,424.6L678,425.1L676.7,425.3L675.8,425.2L675.1,424.8L674.2,424L673.6,423.6L671.1,422.8L670.4,422.7L669.9,422.9L669.8,423.5L669.9,424.2L670.2,425.4L670.3,426L669.9,426.5L668.9,427.1L666.5,428L665.5,428.1L664.9,428L663,423.4L662.7,423.1L662.4,422.6L662.1,422.1L660.8,418.3L660.6,417.7L660.2,417.2L659.7,416.9L659,417L658,418.3L652.8,429L652.5,430L651.6,436L650.7,437.9L648.6,440L644.3,435.9L643.3,435.1L642.4,434.6L640.8,434L638.1,433.4L635.3,432.1L633.4,431.6L632.5,431.2L631.7,430.5L629.1,427.8L628.1,427L626.6,426L625,425.4L620.8,424.3L620,424.2L617,424.4L615.3,424.3L613.8,423.9L613.1,423.7L610.2,422.1L609.5,421.9L607.2,421.7L603.1,419.8L602.1,419.6L601.3,419.6L599.3,420.2L598.8,420.6L597.9,421.4L597.3,421.7L596.7,421.7L592.1,420.9L591.4,420.6L587.5,418.7L585.7,418.4L584.9,418.1L584.3,417.6L583.7,416.6L583.3,415.9L582.9,415.5L582.4,415.3L581.2,415L578.7,413.8L577.8,413.7L577.1,413.9L576.5,414.1L575.8,414L575.1,413.6L574.2,412.6L573.3,411.8L571.8,410.9L570.8,410.6L569.9,410.3L569.1,410.2L566.1,409.7L565.4,409.7L564.3,410.2L563.6,410.3L562.4,409.8L557.8,406.9L556.3,406.3L555.1,406L554.3,405.7L553.5,405L552.6,403.4L552.1,402.4L551.9,401.5L551.8,400.7L551.8,400L552.2,397.5L551.7,391.6L551.7,390.9L551.9,390.2L552.3,389.7L553.2,388.9L553.5,388.5L553.7,388.2L553.8,387.6L553.7,386.3L553.8,385.5L554,384.8L555.2,381.4L555.4,380.7L555.5,379.9L555.5,379.1L555.1,378.4L554.4,377.8L549.9,375.7L533.3,364.9L532.1,364.4L530.1,364L529.2,363.5L528.1,362.1L527.1,360.4L526.5,359.8L525.7,359.3L523.1,358L522.1,357.3L519.1,353.9L518.5,353.1L518,351.7L517.7,351.1L517.3,350.7L514.1,347.6L513.8,347.1L513.6,346.5L513.4,345.8L513.4,345L513.4,344.3L512.9,343.6L511.2,341.9L510.6,341.1L510.2,340.4L509.9,339L509.7,338.4L509.4,337.9L509.2,337.3L509.1,336.5L509.2,335.1L509.2,334.4L508.9,333L508.7,332.4L508.3,331.2L508.3,330.6L508.4,330.3L508.4,330.2L508.5,330L508.7,329.7L508.9,329.2L509.1,327.8L509.3,327.1L509.6,326.6L510.3,325.5L513.6,317.6L514.9,315.2L515.7,313.2L516,312.6L517.6,310.7L517.9,310L518.1,309.3L518.7,306.1L519,305.4L519.3,304.8L519.8,304.4L521.2,303.2L522,302.2L522.7,301.1L522.9,300.4L522.6,299.6L522.1,298.8L520.9,297.5L520.7,296.8L520.8,296.1L521.2,295.6L523.2,294.1L523.6,293.6L524,293.1L524.2,292.4L524.4,291.7L524.6,291L524.7,287.8L525.1,284.7L524.9,281.7L524.7,281.1L524.3,280.5L522.9,279L522.5,278.2L522.5,277.4L522.7,276.8L523,276.3L523.4,275.8L523.9,275.4L524.4,275.1L525.4,274.2L526.1,273.1L526.6,271.8L526.9,271.2L527.7,270.2L528.6,269.3L530.8,268L531.2,267.6L531.6,267.2L531.8,266.7L532.7,264.5L532.4,263.9L531.6,263.3L529.4,262.6L528.3,262.1L527.5,261.6L519.4,252.2L519.1,251.6L518.9,251.1L518.7,250.4L518.2,247.6L517.8,246.4L516.9,244.7L516.5,244.2L516,243.8L514.9,242.9L514.1,242.4L513.4,242L512.5,241.9L511.6,242L510.3,242.4L509.3,242.6L507.9,242.5L507.2,242.4L499.6,239.7L499,239.3L498.5,238.9L498.1,238.5L497.6,238.1L497,237.8L496.2,237.5L494.2,237.2L493.6,236.9L490.1,234L481.8,231.2L481.2,230.8L480.8,230.4L480,229.4L479.4,228.3L478.6,226.5L478.4,226L477.3,224.4L477,223.9L476.5,221.9L476,220.8L475.4,220L474.7,219.3L474.2,219.2L473.5,219.4L469.8,222.3L469.2,222.6L468.5,222.8L467.5,222.8L464.2,222.3L463.4,222.3L462,222.5L456.3,224.2L455.3,224.7L451.9,226.8L450.9,227.7L450.2,228.5L449.2,230.2L448.7,230.7L448.1,231L447,231.1L444.5,230.7L443.6,230.8L442.7,231.2L441.6,232.1L436.8,237.9L435.5,240.3L434.3,242.8L429.6,248.8L429,249.3L426.8,250.7L426.2,251.4L425.3,252.7L424.8,253L424.1,253L423.1,252.3L422.5,251.7L421.9,251.3L421.3,251.2L420.6,251.7L419.9,252L419.2,252.1L416.4,251.4L414.6,251.3L412.6,251.5L400.5,254.4L399,255.2L397.4,255.6L393.5,254.8L392,249.2L391.5,248.5L390.7,247.7L389.8,247.4L388.8,246.9L387.4,246.1L386.3,244.6L383.9,242.8L383.5,242.1L383.1,241L383,239.7L382.4,237.6L382.4,235.4L382.3,234.3L381.9,233.5L381.1,232.6L380.8,231.8L380.7,231.1L381.3,229.7L381.3,228.4L381,227.5L380.2,226.4L379.9,225.6L379.8,224.8L379.9,224L380.3,222.5L380.3,221.6L380,221.1L379.5,220.8L378.1,220.3L377.5,220.2L376.9,220.3L376.2,220.4L375.5,220.4L374.6,220.1L374.1,219.5L373.7,218.5L373.2,217L372.7,216.3L372,215.7L370.3,215.1L369.3,214.4L368.9,213.9L368.7,213.4L368.8,212.8L369.1,210.5L370.7,206.1L370.6,205L369.9,204.2L368,203.1L367.5,202.6L367.5,202.5L367.5,202.3L367.6,201.6L368,200.5L368.7,195.7L366.7,186.4L366.4,185.4L377.3,180.6L389.2,170.5L397.4,165.2L441.2,147.6L446.9,146.5L450.3,146.5L452,146.3L453,145.3L455.4,143L456.4,140.8L461.1,137.1L462.8,135.1L463.6,130.5L464.1,129.5L467,124.6L467,121.7L465,116.3L464.5,114.1L464.9,111.4L467.8,104.6L465.8,100.9L466.4,95.8L468,90.5L468.6,86.2L468.3,85.6L467.8,84.8L467.2,83.9L467,82.8L467.4,81.4L469,78.8L469.4,77.9L472,74.5L476,70.4L477.8,69.6L478.3,69.4L480.9,68.9L486.4,68.8L489.3,68.2L490.8,66.7L493.4,61.7L494.6,60.4L496.5,58.6L498.9,57.1L501.3,56.5L502.4,55.8L506.7,51.2L533.3,38.6L535.1,38.2L545.5,37.3L547.7,35.9L552.1,32L555,31.2L557.6,31.5L559.9,32.2L562.4,32.6L565.3,32.1L572.2,29.8L577.4,28.9L582.4,26.6L585.2,26Z"><title>Mashonaland West</title></path>
<path id="r-ZW-MC" data-de="Mashonaland Central" data-en="Mashonaland Central" data-cx="772.1" data-cy="162.9" d="M640.5,29L644.3,30.7L647.8,30.6L652.6,28.7L652.7,39L652.9,51.1L653.2,66.4L653.3,75.2L666.9,75.1L675.5,75.1L695.2,74.9L708.2,74.8L713.5,76L718.4,79.5L720.3,81.6L722.1,83L724.1,83.3L726.8,82.1L728.2,80.8L730.5,78.3L732.2,77.3L733.3,77.6L734.2,78.3L735.1,78.4L736.1,76.6L739.1,74.7L744.5,75.1L756.7,78.1L759,78.9L761,80.4L762.7,82.6L765,86.9L766.5,88.7L768.8,90L770,90.9L770.5,92L770.9,93.2L771.7,94.1L772.1,94.1L773.1,93.9L773.6,93.9L774.1,94.2L774.1,94.8L773.9,95.4L774.2,95.8L776.5,96.1L779.1,96.1L781.5,96.5L783.3,97.8L788,100.1L808.1,101.5L811.1,102.9L814.4,105.7L821.7,113.8L824,115.8L829.1,118.5L830.5,119.8L831.6,122L832.2,126.9L833.2,128.8L835.1,129.8L847.7,131.8L871.5,131.2L881,132.7L893.4,137.8L912.5,145.6L927,151.6L928.3,152.9L928.9,154.7L929,157.6L930.2,162.7L933.4,165.2L934.1,165.5L933.6,165.8L930.5,168.9L928.4,169.8L926.2,170.1L919.2,169.5L918.2,169.1L916.1,168L915.1,167.6L898.8,165.6L895.8,165.9L892.7,167.1L886.9,170.6L883.8,171.8L882.1,171.9L877.1,171.7L875.8,172L874.8,172.5L872.8,174L870.5,175.3L867.8,176.3L864.9,177L862.3,177.1L861.2,176.9L859.2,176L858.1,175.8L856.3,176.1L854.4,176.9L851,179L849.8,180.4L848.7,182.3L847.8,184.3L846.5,190.4L845.8,191.7L844.7,192.7L840.8,194.7L839,196.2L837.5,198.1L836.3,200.4L835.6,202.7L834.8,206.9L834.3,208.1L831.5,212.7L829.9,214.8L828,216.6L825.7,218L825,218.5L824.3,219.4L823.3,221.3L822.6,222.2L821.3,223.5L818.2,225.3L816.8,226.4L815.8,228.2L815.6,230.5L815.8,232.9L816.2,235L816.4,238.5L815.2,241.4L813.3,244L803,254.3L801,257.5L800.7,258.7L798.6,260.7L787.6,266.7L787.1,267.4L785.7,269.7L784.5,272.1L783.8,273.3L782.9,274.3L782.2,274.1L781.4,273.8L780.7,273.7L779.5,274.7L773.1,280.9L771.7,281.9L770.5,282.5L766.3,280.8L764.9,281.3L762.2,282.7L761.1,282.9L760.3,281.9L759.7,280.7L759.3,279.3L759.1,278L759.4,276.6L763.4,265.9L763.6,265.1L763.5,264.3L762.6,264.1L743.6,262.3L742,263.2L740.4,264.8L738.5,268.9L735.9,271.9L735.8,272.6L736.5,274.2L737.3,274.7L738.1,274.8L738.4,275.9L738.5,276.9L736.1,287.6L735.7,293.1L734.8,295.1L734,295.9L733.2,296.3L732.4,296.5L730.2,296.4L729,296.9L727.6,297.1L726.4,297L725.8,296.9L725.2,296.5L723.2,294.7L719.9,289L717.6,288.2L716.9,288.6L716.2,289.3L715.6,290.1L714.7,290.8L714,290.8L713.2,290.3L711.5,289.2L705.9,286.1L699.3,283.4L698.1,282.6L697.7,281.8L697.7,280.7L697.9,279.7L698.8,277.2L699.2,275L699,274.5L698.4,274.4L681.4,274.4L681,274.2L680.3,273.6L680.2,270.6L681.7,260L681.7,258.3L681.5,256.2L679.9,249L680.1,248.1L680.4,247.4L682.1,244.7L686.6,235.9L686.8,235.2L686.8,234.6L686.3,234L685.7,233.5L685.3,233L685.1,232.4L685.5,231.7L686,231.2L686.5,230.8L688.3,229.1L689.8,227.2L691.3,225.1L691.6,224.5L692.1,223.3L693.4,212.8L693.4,212L693.2,211.2L692.6,210.6L692,210.2L690.6,209.8L689.8,209.6L689.2,209.6L688.5,209.8L688,210.1L687,210.8L686.4,211.1L685.9,211.1L685.4,210.6L685.2,209.4L684.9,208.6L684.2,208.1L683.6,208.1L682.9,208.4L681.3,209.4L679.9,210.5L679.3,210.7L678.7,210.6L678.1,210.4L677.6,210.1L677,209.8L676.3,209.8L673.3,210L672.5,210L671.9,209.9L671.4,209.5L671,208.9L670.5,206.4L670.4,203L670.5,202.6L670.9,202.3L671.4,202L671.9,201.7L672.2,201.3L672.3,200.7L671.9,200L671.4,199.5L669.5,197.9L669.1,197.4L668.8,196.9L668.5,195.8L667.8,184.6L668,183.8L668.1,183.1L668.3,182.4L668.6,181.8L670.5,179.3L671.1,178.1L671.3,177.4L671.2,176.4L670.9,175.3L670.1,173.7L669.5,172.8L668.8,172.3L668.3,171.9L667.6,171.7L667.1,171.3L666.6,170.9L666.8,170.3L667.1,169.6L667.3,168.9L667.2,168L665.4,163.8L665.1,163.4L664.8,163.2L663.8,162.7L659.9,160.4L659.3,160.1L657.9,159.9L657.3,159.6L656.3,158.8L655.7,158.5L653.8,157.7L653.3,157.3L652.8,156.7L651.9,154.9L650.7,153L650.5,152.2L650.4,151.1L651.3,145.6L652.3,142.7L652.6,142.1L653.3,141L653.8,139.7L654.6,135.7L654.9,132.5L655,132L655.5,130.9L657.1,128.1L657.3,127.4L657.3,126.3L657.2,124.8L656.3,122L655.7,120.4L654.8,118.7L653.9,118.2L653.1,118L646.2,118.4L645.6,118.3L645.1,118L644.7,117.7L642.6,115.3L642.2,114.5L641.1,111.1L640.6,110.1L640,109.4L639.3,109.2L637.7,109L636.9,109L632.6,109.5L631.4,110L630.9,110.4L630.5,110.9L630.3,111.5L630.2,112.2L630.3,113L630.9,115.6L630.9,116.4L630.7,117L630.4,117.6L630.1,118.1L629.6,118.6L629.2,118.9L628.6,119.2L625.9,119.8L625.3,120.1L624.9,120.5L624.1,121.5L623.7,122L623.2,122.2L622.5,122.2L619.9,121.5L619.1,121.5L618.5,121.7L617.2,122.1L616.8,122.5L616.4,122.9L616.1,123.6L615.6,124.9L615.3,125.4L614.8,125.8L614.1,125.8L613.4,125.8L612.1,125.4L611.5,125.1L610.9,124.8L610.7,124L610.8,122.7L612.9,117.9L613.6,116.7L614.2,116.1L615.7,115L616.1,114.5L616.5,113.8L616.7,112.8L616.7,111L616.1,106.8L616.1,106L616.2,105L616.7,103.9L618.2,101.5L618.7,100.9L621.9,98.8L622.3,98.3L622.5,97.5L622.4,96.3L622.1,95.5L621.6,95.1L620.9,95.1L620.3,95.2L619.6,95.2L619,95L618.5,94.7L618.1,94.3L617.4,93.3L617.2,92.6L617.2,91.9L617.3,91.2L617.2,90.7L617,90.4L616.2,89.6L615.9,89.1L615.5,88.6L615.3,88L615,86.6L615.1,85.5L615.6,82.2L615.4,81.1L615,80.4L612.5,79.4L612,79.1L611,78.2L610.7,77.7L610.4,77.1L610.2,76.5L610.2,75.8L610.2,75.3L610.4,75L610.9,74.5L642.4,46.6L643.3,45L643.8,43.2L642.8,40.4L642.2,39.1L640.7,37.4L640.2,35.6L640.2,30.5L640.5,29Z"><title>Mashonaland Central</title></path>
<path id="r-ZW-ME" data-de="Mashonaland East" data-en="Mashonaland East" data-cx="805.7" data-cy="327.2" d="M934.1,165.5L935.2,164.8L936.9,164.1L938.7,163.8L942.5,164L949.9,165.7L953.7,165.9L955.6,165.4L959.3,163L961.3,162.2L962.7,162L961.9,165.7L958.5,179.1L956.4,183.2L954.5,185.7L945.9,194.3L946.1,195.2L952.9,207.5L957.9,216.6L961,223.9L962.7,231.8L962.8,236.5L962.1,236.6L959.5,237.3L950.6,240.9L949.4,241.8L946.6,244.5L938.5,250.4L938,251.1L937.5,251.7L934,259L933.8,259.6L933.7,261.2L933.6,262L933,263.2L932.2,263.9L931.4,264.4L929.6,265.2L928.4,265.6L924.6,267.1L923.9,267.6L923.4,268.3L923.2,269L923,271.3L922.9,272.1L922.7,272.8L922.3,273.5L917.2,279L915.9,279.9L914.9,280.5L914.2,280.6L912.9,281L911.8,281.5L911.1,281.7L908.9,282L904.7,283.9L904.1,284.6L902.5,286.7L900.7,288.7L899.7,289.4L898.8,289.5L897.5,289.1L896.7,288.9L895.9,288.9L894.9,289L893.6,289.5L891.4,290.5L889.5,291.8L884.6,296.8L883.4,297.6L880.7,299.2L879.7,300.1L879.1,300.7L878.4,301.7L877.2,304L876.3,305.3L875.7,306L875.1,306.4L872.5,307.4L870,308.8L866.7,310.1L865.9,310.6L865.4,311.2L865,311.8L864.8,312.5L863.9,317.3L863.8,318.9L864.1,321L864,321.7L863.6,322.3L835.3,351.3L835.2,352.2L835.2,353L835.4,355.2L835,356.5L834.1,358.2L829.6,364.3L829.3,365L829.2,365.8L829,369.9L829.3,372.1L829.7,373.4L829.9,373.9L830,375.2L828.2,378.7L827.8,380.1L828.2,382.5L828,383.8L827.1,384.5L826,384.9L820.7,386.2L819.5,386.6L818.5,387.2L818.1,388.2L817.9,389.5L817.8,390.8L817.6,392L817.3,393.1L816.6,393.6L816.1,394L815.7,394.3L815,395.1L815.5,396.1L816.9,398.3L817.3,400.3L818.3,402.5L818.4,403.5L817.9,404.8L817.2,406.5L817.3,407.4L817.5,408.1L817.8,408.7L818.1,410.1L818.3,410.7L819.4,412.2L820.6,414.4L820.9,415L821.3,415.5L822.6,416.8L823.7,418.4L824.8,419.9L825.1,420.4L825.4,421.2L825.9,423.7L826.4,425.2L826.7,425.7L827.1,426.2L827.6,426.6L828.2,426.9L828.8,427.1L831.1,427.2L831.8,427.3L832.5,427.5L833.1,427.9L833.5,428.3L833.9,428.8L836.6,435.5L838.7,446.6L839,447.3L839.3,447.8L839.7,448.3L840.2,448.6L841.3,449.3L841.7,449.8L841.9,450.4L842,451.1L842.3,451.7L842.6,452.3L843.7,453.8L844.3,454.9L844.9,456.1L845,456.7L845.1,457.3L844.6,462.7L844.7,465L844.4,467.5L844.4,469.2L844.9,472.3L844.2,474.5L843.4,474L842.5,473.6L841.3,473.3L840.4,473.4L838.3,474L837.1,474.2L834.7,473.7L829.9,471.3L825.5,470.1L823.6,468.7L819,464L817.4,462.9L815.4,462.2L813.2,462.4L807.3,463.3L805.1,463.2L801,461.4L798.4,460.6L797.3,460.7L796.8,461.1L797,461.6L797.8,462.6L798.1,463.1L798.3,463.7L798.1,464.3L797.3,466.1L796.4,468.8L794.7,472.5L793.7,474.1L792.9,475.1L790.7,477.4L789.9,477.6L789.1,477.5L788.6,477.2L788,476.8L787.4,476.5L786.6,476.3L785.2,476.3L784.3,476.1L783.6,475.8L783.4,475.2L783.3,474.5L783.3,473.8L783.1,473.1L782.8,472.6L780.5,470.3L779.8,469.9L778.8,469.5L778.2,469.6L777.6,469.9L776.7,470.9L776,471.5L775.2,471.7L774.6,471.6L773.3,471L772.1,470.4L771,470.2L769.4,470L766.2,470.3L765,470.9L764.4,471.6L764.3,472.2L763.9,473L763.8,478L762.5,481.1L762.5,487.3L761.1,488L749.3,489.4L730.4,489.8L725.2,489.1L724.8,488.4L724.6,487.8L724.5,486.3L724.6,484.7L725,483.2L725.2,482.7L725.4,482.4L725.5,481.9L725.4,481.7L725.4,481.5L725.4,481.4L725.4,481.3L725.8,480.7L726.1,479.7L726.2,478.8L726.1,478.2L725.6,478L725.3,477.9L721.1,477.5L719.8,477.7L719,478.3L717.7,480.3L717,481.2L715.9,481.8L714.2,482L713.5,482.2L713.2,482.7L713.4,483.7L713.9,484.9L713.6,487.6L708.4,492.4L705.4,490.7L702.3,490L701.9,489.8L700.3,488.4L698.5,486.1L696.1,484L694.3,482L691.9,480.1L691.5,479.6L691.3,478.9L691.4,478.5L691.4,478.2L691.4,477.9L691.3,477.6L691.2,477.3L691.1,476.9L691.1,476.6L691.1,476.2L691.2,475.8L691.7,473.9L692.2,473.5L692.7,473.4L693.2,473.2L693.3,472.8L693.2,472L693,471.1L692.6,470.1L692,469.1L689.1,465.2L686.7,460.8L686.3,459.6L686.2,458.8L686.4,458.3L687.7,456.3L687.9,455.6L687,455.4L686.3,455.1L685.3,454.5L684.4,454.1L681.8,453.7L678.6,453.7L676.7,453.3L675.5,453.1L674.7,453L673.9,452.6L671.4,450.3L669.6,449.5L667.3,448.9L662,446.7L659,444.5L657.1,442.6L655,441.7L648.6,440L650.7,437.9L651.6,436L652.5,430L652.8,429L658,418.3L659,417L659.7,416.9L660.2,417.2L660.6,417.7L660.8,418.3L662.1,422.1L662.4,422.6L662.7,423.1L663,423.4L664.9,428L665.5,428.1L666.5,428L668.9,427.1L669.9,426.5L670.3,426L670.2,425.4L669.9,424.2L669.8,423.5L669.9,422.9L670.4,422.7L671.1,422.8L673.6,423.6L674.2,424L675.1,424.8L675.8,425.2L676.7,425.3L678,425.1L678.4,424.6L678.7,424.2L678.6,423.7L678,421.7L678,421L678.2,420.2L678.8,420L679.4,420.1L682.2,420.8L682.5,421L682.9,421.3L683.3,422.1L683.6,421.8L683.9,421.4L689.4,411.9L694.6,406.8L695.4,405.7L695.9,404.7L696.2,403.1L697.1,385.5L697.3,384.5L697.6,383.1L698.2,382.3L699,381.6L700.2,380.7L700.7,380L700.8,379.2L700.6,378.6L700.1,377.4L699.4,376.4L696.1,372.6L691.1,368L690.3,367.1L690,366.5L689.7,365.9L689.6,365.2L689.4,361L689.5,359.9L689.9,359.2L690.3,358.7L691.5,358.1L692.1,357.9L693,357L694.1,355.6L696.2,352.3L696.9,350.7L697.1,349.6L696.9,349L696.7,348.3L696.8,347.6L697.9,343.5L698.4,342.5L699.1,341.7L700.7,340.6L701,339.8L701.1,339.2L699.3,335L699.1,334.2L699,333.2L699.3,331.6L699.6,330.8L699.9,330.3L700.1,330.2L700.1,330.1L702,329.4L702.6,329L703.3,328.4L703.6,327.8L703.6,327.1L703.4,326.4L703,325.1L702.8,324.3L702.7,323.3L703,321.6L703.5,320.6L703.9,320.4L704.3,320.5L705.2,321L708.5,322.3L710.2,323.2L710.8,323.6L714,326.6L716.4,327.6L717.9,328L722.5,330L728.4,333.9L731.2,336.3L732.3,336.8L733,337.1L733.5,337L733.9,336.9L734.3,336.7L735.4,336L736,335.7L736.8,335.5L738.3,335.3L739,335L741.1,333.4L741.4,332.9L741.3,332.6L740.2,331.8L739.8,331.3L739.9,330.6L740.3,329.7L742,328.9L743.2,327.5L743.6,325.4L743.7,324.7L743.6,323.3L743.5,322.6L743.1,321.2L743.1,320.8L743.3,320.4L747.7,318.4L748.7,317.7L749.3,317L749.5,315.6L749.7,314.8L750.2,313.9L751.3,312.7L751.9,311.9L752.2,311.2L752.1,310.8L752,310.2L750.8,307.8L750.5,306.7L750.2,305.4L750.1,304.6L750.2,303.2L750.1,302.4L749.7,301.6L749.2,300.8L749,300L749,299.1L749.5,296.9L749.6,295.5L749.5,294.1L749.1,292.7L748.5,292.2L747.3,291.8L743.4,291.9L741.2,291.6L740.3,291.1L739.8,290.3L739.5,289.4L739.3,288.4L738.9,287.9L738.3,287.7L736.1,287.6L738.5,276.9L738.4,275.9L738.1,274.8L737.3,274.7L736.5,274.2L735.8,272.6L735.9,271.9L738.5,268.9L740.4,264.8L742,263.2L743.6,262.3L762.6,264.1L763.5,264.3L763.6,265.1L763.4,265.9L759.4,276.6L759.1,278L759.3,279.3L759.7,280.7L760.3,281.9L761.1,282.9L762.2,282.7L764.9,281.3L766.3,280.8L770.5,282.5L771.7,281.9L773.1,280.9L779.5,274.7L780.7,273.7L781.4,273.8L782.2,274.1L782.9,274.3L783.8,273.3L784.5,272.1L785.7,269.7L787.1,267.4L787.6,266.7L798.6,260.7L800.7,258.7L801,257.5L803,254.3L813.3,244L815.2,241.4L816.4,238.5L816.2,235L815.8,232.9L815.6,230.5L815.8,228.2L816.8,226.4L818.2,225.3L821.3,223.5L822.6,222.2L823.3,221.3L824.3,219.4L825,218.5L825.7,218L828,216.6L829.9,214.8L831.5,212.7L834.3,208.1L834.8,206.9L835.6,202.7L836.3,200.4L837.5,198.1L839,196.2L840.8,194.7L844.7,192.7L845.8,191.7L846.5,190.4L847.8,184.3L848.7,182.3L849.8,180.4L851,179L854.4,176.9L856.3,176.1L858.1,175.8L859.2,176L861.2,176.9L862.3,177.1L864.9,177L867.8,176.3L870.5,175.3L872.8,174L874.8,172.5L875.8,172L877.1,171.7L882.1,171.9L883.8,171.8L886.9,170.6L892.7,167.1L895.8,165.9L898.8,165.6L915.1,167.6L916.1,168L918.2,169.1L919.2,169.5L926.2,170.1L928.4,169.8L930.5,168.9L933.6,165.8L934.1,165.5Z"><title>Mashonaland East</title></path>
<path id="r-ZW-MA" data-de="Manicaland" data-en="Manicaland" data-cx="860.5" data-cy="494.6" d="M967.9,251.6L966.2,254.3L961.5,263.6L960.7,264.6L959.7,265.3L958.9,266.2L958.9,267.6L960.2,271.9L960.7,272.9L962.8,274.6L967.3,276.7L969,278.9L969.5,281.6L969,284L967,288.8L966.6,293.7L966.9,299.2L966.4,303.9L963.4,306L961.4,306.9L960,309.1L959.3,311.7L958.9,314.2L959.1,316.7L960.5,320.3L960.8,322.5L960.3,324.2L959.4,325L958.4,325.7L957.8,326.7L958,327.9L959.5,329.7L959.3,330.8L958.7,333.3L959,336.2L963.2,349.3L963.6,353.5L963.5,354.5L962.4,357.2L961.5,358.9L960.8,359.9L960.6,360.9L961.1,362.8L962.9,365.5L968.6,370.1L970.8,372.6L971.7,375L971.1,376.4L967.7,379.1L965.1,382.8L964.8,382.7L964.9,384L966.5,385.8L966.9,387.1L966.1,389.7L964,391.4L961.3,392.6L959,394L956.8,395.2L954.5,395.9L952.4,396.7L951,398.5L950.7,400.6L951.1,403.2L952.6,407.8L956.2,415.1L957.2,418.5L956.9,422.8L956.1,426.2L954.8,428.9L952.7,430.6L949.5,430.9L944.6,430.5L940.9,431.1L929.3,436.5L929.1,437.7L930,444.6L930.8,446.4L932.3,447.5L931,448.4L929.4,449.3L928.3,450.4L928.1,451.9L929,454.8L929.2,456.2L929,457.8L929.3,459.5L930.2,460.5L931.6,461L933.2,461.1L940.7,459.9L942.8,460.2L944.1,460.7L944.8,461.3L945.2,462.2L945.5,463.6L946.1,465.2L947,466.2L948.1,467.1L949.2,468.4L949.9,472.7L946.4,488.5L946.3,491.7L945.9,494L944.9,496.1L943.2,498.9L938.7,504L938.4,505.3L938.6,509L937.9,514.2L938,516.8L939.3,518.4L941.6,518.5L943.8,518.2L945.5,518.8L946.3,521.6L946.3,523.9L945.5,533.1L945.5,534.3L945.8,535.6L946,537.2L945.5,538.4L944.8,539.5L944.4,540.8L944.8,543.7L946.2,545.1L948.3,545.6L951.1,545.7L953.8,544.9L957.4,541.2L959.7,540.5L961.8,541.7L962,544.3L961,549.2L962,551.5L964,553.5L966.6,555.2L969.3,556.3L970.5,557.7L970.1,560.1L969.3,563.1L969.1,568.4L966.8,575.9L966.3,585.3L967.1,588.3L967.4,589.3L961,589.1L959.3,590.5L958.6,594.4L957.7,596.2L955.8,596.8L953.8,597.2L952.7,598.3L951.8,604.6L951.2,606.5L949.6,609.5L949.3,610.8L949.5,611.7L950.3,613.4L950.3,614.4L949.5,618.3L948.8,620.1L947.9,621.8L942.5,628.4L934.7,638L930.9,645.4L927,653L923.9,656.4L918.7,657.2L913.1,656.5L907.8,657.2L904,662.1L902.8,667.5L902.5,672.8L904.3,686.5L905.9,699.7L905.2,704.6L902.3,710.2L896.3,718L886.9,729.8L887.6,731L889.3,732.1L890.4,733.5L891,733.6L891.5,733.6L891.9,733.8L891.8,734.7L891.4,735.5L890.9,736.2L890.8,736.7L899.6,751.6L899.7,752.1L899.9,752.7L895.2,749.8L883.7,742.4L881.8,739.9L881.9,738L877.6,727.7L876.7,724.7L876.1,724L867.7,719.8L869.1,717.9L868.7,716.6L866,714.5L865.3,713.4L864.9,712.2L863.8,706.3L863.4,705.1L862.3,703.6L862.2,702.5L863.9,699.6L864.4,698.3L865,695.6L869.3,687.5L871.6,680.9L871.8,678.3L872.3,676.1L873.4,674.1L875.9,670.9L877.2,663.3L878.9,660.9L879.9,654.7L880.5,636.8L886.5,600.9L886.6,588.2L885.9,587.1L885.5,585.9L883.3,584.5L877,581.3L869,575.1L867.4,574.5L866.3,574.2L865.4,574.1L863,574.2L860.2,574.6L859.5,574.4L858.7,573.8L857.7,572.7L857,572L856.1,571.4L854.7,571L853.6,570.9L852.4,570.6L850.8,569.8L848.2,567.9L846.4,566.1L845.5,565L844.5,563.1L844,562.5L843.2,561.9L840,560.4L839.3,560L838.7,559.4L837.8,558.2L837.3,557.3L837,556.5L835.8,552.7L835.2,551.8L834.3,550.8L830.5,547.3L827.8,544L827.4,543.4L827.1,542.9L826.3,540.3L826,539.7L825.1,538.9L823.7,537.9L818.1,534.9L817.3,534.2L816.3,533L815.8,532.2L815.5,531.4L815.4,530.7L815.2,530L815,529.4L814.5,528.9L810.9,525.3L810.2,524.1L809.9,523.1L809.9,521.7L809.9,521.3L809.4,520.9L808.5,520.5L805.6,520.1L804.4,519.7L802.7,519L801.6,518.4L800.8,517.7L800.1,517.3L799.2,517.2L797.9,517.7L797.3,517.9L796.6,517.7L795.8,517.2L795.1,516.3L794.6,515.6L793.9,514.7L792.9,513.9L789.8,511.6L788.6,511L786.3,510.5L785.6,510.2L785,509.9L783.7,508.6L783.2,508.2L782.5,508L781.2,507.9L780.3,508L779.7,508.4L779.2,508.7L778.6,508.9L777.8,508.8L776.4,508.1L774.9,507.1L770.5,503.4L750.9,491.4L749.3,489.4L761.1,488L762.5,487.3L762.5,481.1L763.8,478L763.9,473L764.3,472.2L764.4,471.6L765,470.9L766.2,470.3L769.4,470L771,470.2L772.1,470.4L773.3,471L774.6,471.6L775.2,471.7L776,471.5L776.7,470.9L777.6,469.9L778.2,469.6L778.8,469.5L779.8,469.9L780.5,470.3L782.8,472.6L783.1,473.1L783.3,473.8L783.3,474.5L783.4,475.2L783.6,475.8L784.3,476.1L785.2,476.3L786.6,476.3L787.4,476.5L788,476.8L788.6,477.2L789.1,477.5L789.9,477.6L790.7,477.4L792.9,475.1L793.7,474.1L794.7,472.5L796.4,468.8L797.3,466.1L798.1,464.3L798.3,463.7L798.1,463.1L797.8,462.6L797,461.6L796.8,461.1L797.3,460.7L798.4,460.6L801,461.4L805.1,463.2L807.3,463.3L813.2,462.4L815.4,462.2L817.4,462.9L819,464L823.6,468.7L825.5,470.1L829.9,471.3L834.7,473.7L837.1,474.2L838.3,474L840.4,473.4L841.3,473.3L842.5,473.6L843.4,474L844.2,474.5L844.9,472.3L844.4,469.2L844.4,467.5L844.7,465L844.6,462.7L845.1,457.3L845,456.7L844.9,456.1L844.3,454.9L843.7,453.8L842.6,452.3L842.3,451.7L842,451.1L841.9,450.4L841.7,449.8L841.3,449.3L840.2,448.6L839.7,448.3L839.3,447.8L839,447.3L838.7,446.6L836.6,435.5L833.9,428.8L833.5,428.3L833.1,427.9L832.5,427.5L831.8,427.3L831.1,427.2L828.8,427.1L828.2,426.9L827.6,426.6L827.1,426.2L826.7,425.7L826.4,425.2L825.9,423.7L825.4,421.2L825.1,420.4L824.8,419.9L823.7,418.4L822.6,416.8L821.3,415.5L820.9,415L820.6,414.4L819.4,412.2L818.3,410.7L818.1,410.1L817.8,408.7L817.5,408.1L817.3,407.4L817.2,406.5L817.9,404.8L818.4,403.5L818.3,402.5L817.3,400.3L816.9,398.3L815.5,396.1L815,395.1L815.7,394.3L816.1,394L816.6,393.6L817.3,393.1L817.6,392L817.8,390.8L817.9,389.5L818.1,388.2L818.5,387.2L819.5,386.6L820.7,386.2L826,384.9L827.1,384.5L828,383.8L828.2,382.5L827.8,380.1L828.2,378.7L830,375.2L829.9,373.9L829.7,373.4L829.3,372.1L829,369.9L829.2,365.8L829.3,365L829.6,364.3L834.1,358.2L835,356.5L835.4,355.2L835.2,353L835.2,352.2L835.3,351.3L863.6,322.3L864,321.7L864.1,321L863.8,318.9L863.9,317.3L864.8,312.5L865,311.8L865.4,311.2L865.9,310.6L866.7,310.1L870,308.8L872.5,307.4L875.1,306.4L875.7,306L876.3,305.3L877.2,304L878.4,301.7L879.1,300.7L879.7,300.1L880.7,299.2L883.4,297.6L884.6,296.8L889.5,291.8L891.4,290.5L893.6,289.5L894.9,289L895.9,288.9L896.7,288.9L897.5,289.1L898.8,289.5L899.7,289.4L900.7,288.7L902.5,286.7L904.1,284.6L904.7,283.9L908.9,282L911.1,281.7L911.8,281.5L912.9,281L914.2,280.6L914.9,280.5L915.9,279.9L917.2,279L922.3,273.5L922.7,272.8L922.9,272.1L923,271.3L923.2,269L923.4,268.3L923.9,267.6L924.6,267.1L928.4,265.6L929.6,265.2L931.4,264.4L932.2,263.9L933,263.2L933.6,262L933.7,261.2L933.8,259.6L934,259L937.5,251.7L938,251.1L938.5,250.4L946.6,244.5L949.4,241.8L950.6,240.9L959.5,237.3L962.1,236.6L962.8,236.5L962.9,237.8L963.3,240.6L964.6,243.1L965.6,244L968.3,245.5L969.1,246.7L969.2,248.7L968.5,250.7L967.9,251.6Z"><title>Manicaland</title></path>
<path id="r-ZW-MI" data-de="Midlands" data-en="Midlands" data-cx="536.3" data-cy="468.7" d="M648.6,440L655,441.7L657.1,442.6L659,444.5L662,446.7L667.3,448.9L669.6,449.5L671.4,450.3L673.9,452.6L674.7,453L675.5,453.1L676.7,453.3L678.6,453.7L681.8,453.7L684.4,454.1L685.3,454.5L686.3,455.1L687,455.4L687.9,455.6L687.7,456.3L686.4,458.3L686.2,458.8L686.3,459.6L686.7,460.8L689.1,465.2L692,469.1L692.6,470.1L693,471.1L693.2,472L693.3,472.8L693.2,473.2L692.7,473.4L692.2,473.5L691.7,473.9L691.2,475.8L691.1,476.2L691.1,476.6L691.1,476.9L691.2,477.3L691.3,477.6L691.4,477.9L691.4,478.2L691.4,478.5L691.3,478.9L691.5,479.6L691.9,480.1L694.3,482L696.1,484L698.5,486.1L700.3,488.4L701.9,489.8L702.3,490L705.4,490.7L708.4,492.4L691.6,506.3L690.6,507.2L690.3,507.9L690.9,508.3L691.6,508.6L695.3,509.5L696.2,510L696.9,510.7L697,511.6L696.4,512.7L694.8,513.6L693.6,514.2L692.8,514.8L692.6,515.9L692.4,526.3L691.1,533.1L691.4,535.2L692,536.9L692.1,538.3L692,539.6L689.9,549.9L689.8,550.9L689.9,554L689.8,554.7L688.5,558.8L688.1,561.1L688.2,562.8L688.3,564.2L688.5,564.8L688.7,565.1L689,565.5L689.4,565.8L689.6,566.3L689.4,566.9L688.4,567.4L687.6,567.7L684.1,568.6L682.5,568.7L681,568.6L677.4,567.6L674.1,565.8L673.2,565.5L672,565.4L661.8,565.7L660.6,566.4L659.3,568.9L659.2,569.6L659.3,569.9L659.5,570.2L659.6,570.8L659.7,571L659.8,571.1L660,571.3L660.1,571.5L660.1,571.9L660.2,572.6L660.3,573L660.5,573.4L660.7,573.6L660.8,573.9L660.9,574.2L660.8,574.6L660.4,575.1L659.8,576L656.9,578.1L656.6,578.7L656.3,579.9L656.3,580.5L656.5,580.9L656.6,581.1L656.6,581.4L656.6,581.8L656.3,582.6L656.2,583L656.2,583.2L656.4,583.4L656.8,583.4L657.6,583.5L657,584.1L656.4,584.3L655.6,584.4L636.8,585.2L636,585.3L635.4,585.5L626.3,589.9L625.3,590.6L624.9,591.2L625.6,592.1L625.9,593.1L626.1,594.9L625.3,599.4L623.8,602.1L623.2,607.3L623.2,611L623.6,611.2L624.4,610.9L626.5,609.5L628.5,609.7L630.4,610.3L632,611.3L632.7,612.2L633.2,613.9L633.7,615.9L633.8,618.4L633.7,621L632.8,624.1L632.8,625.5L633.1,626.2L633.7,626.5L634.1,626.9L635.8,629.7L636.2,630.2L637.1,631L637.7,631.3L638.3,631.6L639.6,632L641.9,632.2L642.6,632.3L643,632.7L643.3,633.2L643.3,633.8L643.2,634.5L643.2,635.3L643.5,635.9L643.7,636.5L644.5,637.5L645,637.9L645.5,638.3L646.2,638.5L647.6,638.7L648.2,639L648.7,639.4L649.1,639.9L649.4,640.5L649.6,641.2L649.9,641.8L650.3,642.3L650.8,642.7L653.5,644.5L653.9,644.9L654.3,645.4L654.5,646.1L654.6,647.7L654.8,648.3L655,649L655.1,649.1L660,654.6L660.2,655.3L660.1,656.3L659.6,657.8L659.4,658.8L659.4,659.7L659.9,661L660.1,661.7L660.1,662.5L659.9,664.8L660,665.6L660.2,666.3L660.4,667L660.7,667.5L661.1,668L661.6,668.4L662.6,669.2L663,669.7L663.2,670.4L663.5,671.9L663.7,672.6L663.9,673.2L663.9,674L663.7,674.6L662.1,677.4L661.8,678.1L661.6,678.9L661.6,679.6L662.2,682.3L662.2,683L662.1,683.8L660.7,686.3L660.1,689.3L659.8,690.1L659.3,690.8L658,692.4L657.6,693.1L657.5,693.8L658.1,703.1L657.8,705.1L656.9,706.5L644.9,717.5L643.8,717.6L643,717.5L642.2,717.2L641.3,717L639.1,715.7L638.5,715.6L638.1,715.8L636.8,716.6L636.3,716.9L635.7,717.1L635.4,717.3L635,717.6L634.3,717.9L633.4,718L630.2,717.4L628,717.4L625,717L623.8,716.7L623.1,716.4L622.6,716.1L621.9,715.4L621.2,714.6L620.8,714.1L620,713.8L617.3,712.9L615.8,712.1L614.7,711L612.8,708.5L612.3,708.1L611.5,707.6L609.7,706.9L609.1,706.6L608.3,706L607.5,705.3L606.6,704.5L605.7,704L604.9,703.3L604.3,702.7L603.4,702.2L602.6,701.9L601.1,701.9L599.8,702L598.7,702.4L597.1,703.3L582.9,715.1L580.4,716.3L579.1,716.6L578.1,716.6L572,715.8L570,715.8L566.3,716.2L557.9,718.2L552.9,718.1L548.5,717L545.2,716.8L544.6,716.7L542.2,716L540.9,715.4L540.6,714.9L540.6,714.4L542.1,713L559.3,701.4L559.8,700.6L560.1,699.5L566.5,669.8L566.4,668.9L565.7,668.9L560.6,670.5L559.5,670.7L558.8,670.3L558.3,668.9L557.9,667.8L557.1,666.7L556,665.7L555.7,665.1L555.5,664.4L555.8,663.3L556,662.6L556.4,662L557.1,661.7L557.9,661.1L558.7,660.3L558.7,658.8L559.8,656L560.1,654.6L560.1,647.9L560.9,647.7L561.8,648.1L565.8,650.9L566.9,651.3L567.9,650.8L568.8,650L570.9,647.4L571.8,645.6L572.7,643.1L573,641.9L573.1,640.8L572.9,636.7L572.9,635.6L573.1,634.8L580.2,617.5L580.4,616.6L581,610.6L581.2,609.9L589.2,593L589.6,591.6L589.6,590.4L585.8,584.1L585.5,583.9L584.9,584L583.1,585.1L582.7,585.2L582.2,584.9L581.5,581.8L580.7,580.4L578.9,580.3L570.5,582.3L569.4,582.1L568.9,580.5L568.1,576.6L567.6,575.3L566.9,575.1L566.3,575.3L565.1,575.9L564.4,576.1L559,577.2L558.3,577.2L557.6,576.8L552.1,572.6L544.2,568.7L543.2,568.4L541.4,568.3L539.3,569.2L537.2,569.8L535.9,569.5L534.7,567L534.3,565.6L534,564.4L534,562.8L535.3,556.6L535.2,555.6L534.8,554.4L533.9,552.2L533.1,550.8L529.9,547.6L528.8,546L527.9,543.1L527.8,542.1L527.4,541.3L526.8,540.4L524,537.9L523.6,537.3L523,536.5L520.2,531L519,527.6L517.3,525.5L511.2,519.8L496.1,505.3L495.5,504.4L498.1,500.1L498.5,499.1L498.4,497.6L498.1,496.7L497.4,495.5L486.5,483.7L485.1,482.6L484,481.1L483.8,480.6L483.8,480.3L483.8,476.7L484,476L484.2,475.5L484.8,474.8L485.5,473.9L485.8,473.2L486,472.4L486.2,471.5L486.2,470.3L485.7,469.2L483.2,464.8L482.2,463.5L481.3,462.6L479.9,462.1L479.1,461.6L478.1,460.6L477.4,459.2L476.9,457.7L469.9,425.5L469.9,423.1L470.8,422L472,421.4L478.5,419.8L499.7,410.8L500.7,410L501.3,408.6L501.2,407.4L500.7,406L499.1,403L498.3,402.4L497.1,402.2L452,402.7L450.3,402.5L448.1,401.9L446.9,401.3L446.2,401L445.4,400.9L444.6,400.9L443.9,401.1L441.4,401.9L440,402.2L437.9,402.3L437.3,402.5L429.6,402.4L428.9,402.5L425.2,403.8L424.1,403.9L419.1,404.2L417.5,404.1L415.2,403.7L408.9,403.6L406.2,404.2L404.7,404.3L403.9,404.2L402.4,403.9L390.4,403.5L388.2,402.8L386.6,402.6L381.7,402.3L380.2,401.9L378.3,401L377.6,400.9L376.8,400.9L370.4,401.7L368.9,401.7L368.1,401.6L367.2,401.3L366.2,400.6L364.9,399.4L364.4,397.7L364.2,395.8L364.7,358.5L365.2,357.8L365.8,357.5L369.2,356.7L375.7,355.9L376.2,355.7L376.5,355.3L376.2,354.3L375.6,353.8L374.9,353.5L372.4,352.9L371.5,352.6L370.2,351.7L369.7,350.9L369.6,350.1L369.8,349.5L370.1,349L370.6,348.5L371.6,347.8L372,347.4L372.4,346.8L372.6,346.2L372.6,345.5L372.5,344.8L371.8,343L371.6,341.5L371.7,338.9L371.5,338L371,337.5L370.3,337.4L369.7,337.5L369.1,337.8L368.4,337.9L367.7,337.8L366.5,337.1L366,336.4L365.7,335.6L365.4,333.8L364.8,331.8L364.6,331L364.7,330.5L364.7,330.2L364.8,330.1L365.2,329.6L365.5,329.2L367.5,327.7L367.9,327.2L368.3,326.8L368.6,326.2L368.9,325.5L369.1,324L369.4,323.3L369.7,322.8L370.2,322.4L370.7,322.2L371.3,321.8L371.6,321.3L371.8,320.5L371.5,319.3L371.5,318.4L371.6,317.6L372.5,315L374.1,312L374.2,311.1L374.2,310L372.9,304L372.8,303.1L373,302.3L373.5,301L373.9,299.5L374.1,298.8L377.3,296L377.8,295.6L378.3,295.4L378.9,295.5L379.5,295.8L379.9,296.2L380.3,296.6L380.9,296.7L381.4,296.5L381.8,296.2L382.6,295.2L384.5,293.6L387.9,290L388,289.2L388,288.2L387.2,285.3L387.2,284.3L387.9,282.3L388.5,279.2L388.8,278.6L389.4,277.6L389.7,277L389.7,276.1L389.6,275.1L389.2,273.5L389.1,272.4L389.2,271.5L389.4,270.7L390.2,268.7L390.8,266.4L390.9,266.4L390.9,266.3L391.3,265.9L391.6,265.5L391.8,264.9L391.9,263.2L392.9,260.7L393.1,259.5L393.5,254.8L397.4,255.6L399,255.2L400.5,254.4L412.6,251.5L414.6,251.3L416.4,251.4L419.2,252.1L419.9,252L420.6,251.7L421.3,251.2L421.9,251.3L422.5,251.7L423.1,252.3L424.1,253L424.8,253L425.3,252.7L426.2,251.4L426.8,250.7L429,249.3L429.6,248.8L434.3,242.8L435.5,240.3L436.8,237.9L441.6,232.1L442.7,231.2L443.6,230.8L444.5,230.7L447,231.1L448.1,231L448.7,230.7L449.2,230.2L450.2,228.5L450.9,227.7L451.9,226.8L455.3,224.7L456.3,224.2L462,222.5L463.4,222.3L464.2,222.3L467.5,222.8L468.5,222.8L469.2,222.6L469.8,222.3L473.5,219.4L474.2,219.2L474.7,219.3L475.4,220L476,220.8L476.5,221.9L477,223.9L477.3,224.4L478.4,226L478.6,226.5L479.4,228.3L480,229.4L480.8,230.4L481.2,230.8L481.8,231.2L490.1,234L493.6,236.9L494.2,237.2L496.2,237.5L497,237.8L497.6,238.1L498.1,238.5L498.5,238.9L499,239.3L499.6,239.7L507.2,242.4L507.9,242.5L509.3,242.6L510.3,242.4L511.6,242L512.5,241.9L513.4,242L514.1,242.4L514.9,242.9L516,243.8L516.5,244.2L516.9,244.7L517.8,246.4L518.2,247.6L518.7,250.4L518.9,251.1L519.1,251.6L519.4,252.2L527.5,261.6L528.3,262.1L529.4,262.6L531.6,263.3L532.4,263.9L532.7,264.5L531.8,266.7L531.6,267.2L531.2,267.6L530.8,268L528.6,269.3L527.7,270.2L526.9,271.2L526.6,271.8L526.1,273.1L525.4,274.2L524.4,275.1L523.9,275.4L523.4,275.8L523,276.3L522.7,276.8L522.5,277.4L522.5,278.2L522.9,279L524.3,280.5L524.7,281.1L524.9,281.7L525.1,284.7L524.7,287.8L524.6,291L524.4,291.7L524.2,292.4L524,293.1L523.6,293.6L523.2,294.1L521.2,295.6L520.8,296.1L520.7,296.8L520.9,297.5L522.1,298.8L522.6,299.6L522.9,300.4L522.7,301.1L522,302.2L521.2,303.2L519.8,304.4L519.3,304.8L519,305.4L518.7,306.1L518.1,309.3L517.9,310L517.6,310.7L516,312.6L515.7,313.2L514.9,315.2L513.6,317.6L510.3,325.5L509.6,326.6L509.3,327.1L509.1,327.8L508.9,329.2L508.7,329.7L508.5,330L508.4,330.2L508.4,330.3L508.3,330.6L508.3,331.2L508.7,332.4L508.9,333L509.2,334.4L509.2,335.1L509.1,336.5L509.2,337.3L509.4,337.9L509.7,338.4L509.9,339L510.2,340.4L510.6,341.1L511.2,341.9L512.9,343.6L513.4,344.3L513.4,345L513.4,345.8L513.6,346.5L513.8,347.1L514.1,347.6L517.3,350.7L517.7,351.1L518,351.7L518.5,353.1L519.1,353.9L522.1,357.3L523.1,358L525.7,359.3L526.5,359.8L527.1,360.4L528.1,362.1L529.2,363.5L530.1,364L532.1,364.4L533.3,364.9L549.9,375.7L554.4,377.8L555.1,378.4L555.5,379.1L555.5,379.9L555.4,380.7L555.2,381.4L554,384.8L553.8,385.5L553.7,386.3L553.8,387.6L553.7,388.2L553.5,388.5L553.2,388.9L552.3,389.7L551.9,390.2L551.7,390.9L551.7,391.6L552.2,397.5L551.8,400L551.8,400.7L551.9,401.5L552.1,402.4L552.6,403.4L553.5,405L554.3,405.7L555.1,406L556.3,406.3L557.8,406.9L562.4,409.8L563.6,410.3L564.3,410.2L565.4,409.7L566.1,409.7L569.1,410.2L569.9,410.3L570.8,410.6L571.8,410.9L573.3,411.8L574.2,412.6L575.1,413.6L575.8,414L576.5,414.1L577.1,413.9L577.8,413.7L578.7,413.8L581.2,415L582.4,415.3L582.9,415.5L583.3,415.9L583.7,416.6L584.3,417.6L584.9,418.1L585.7,418.4L587.5,418.7L591.4,420.6L592.1,420.9L596.7,421.7L597.3,421.7L597.9,421.4L598.8,420.6L599.3,420.2L601.3,419.6L602.1,419.6L603.1,419.8L607.2,421.7L609.5,421.9L610.2,422.1L613.1,423.7L613.8,423.9L615.3,424.3L617,424.4L620,424.2L620.8,424.3L625,425.4L626.6,426L628.1,427L629.1,427.8L631.7,430.5L632.5,431.2L633.4,431.6L635.3,432.1L638.1,433.4L640.8,434L642.4,434.6L643.3,435.1L644.3,435.9L648.6,440Z"><title>Midlands</title></path>
<path id="r-ZW-HA" data-de="Harare" data-en="Harare" data-cx="731.5" data-cy="312.3" d="M732.4,296.5L733.2,296.3L734,295.9L734.8,295.1L735.7,293.1L736.1,287.6L738.3,287.7L738.9,287.9L739.3,288.4L739.5,289.4L739.8,290.3L740.3,291.1L741.2,291.6L743.4,291.9L747.3,291.8L748.5,292.2L749.1,292.7L749.5,294.1L749.6,295.5L749.5,296.9L749,299.1L749,300L749.2,300.8L749.7,301.6L750.1,302.4L750.2,303.2L750.1,304.6L750.2,305.4L750.5,306.7L750.8,307.8L752,310.2L752.1,310.8L752.2,311.2L751.9,311.9L751.3,312.7L750.2,313.9L749.7,314.8L749.5,315.6L749.3,317L748.7,317.7L747.7,318.4L743.3,320.4L743.1,320.8L743.1,321.2L743.5,322.6L743.6,323.3L743.7,324.7L743.6,325.4L743.2,327.5L742,328.9L740.3,329.7L739.9,330.6L739.8,331.3L740.2,331.8L741.3,332.6L741.4,332.9L741.1,333.4L739,335L738.3,335.3L736.8,335.5L736,335.7L735.4,336L734.3,336.7L733.9,336.9L733.5,337L733,337.1L732.3,336.8L731.2,336.3L728.4,333.9L722.5,330L717.9,328L716.4,327.6L714,326.6L710.8,323.6L714,323L718,321.5L718.5,321L718.6,320.3L718.3,319.1L717.7,318.2L717.1,317.4L714.6,316L713.9,315.5L713.6,314.7L713.8,313.6L714.6,312L714.6,310.5L714.3,309.7L713.8,309.1L713.5,308.4L713.5,307.4L713.7,305.9L714,305L714.6,304.5L715.7,304.3L717,303.7L718.5,302.6L721.8,298.6L723.2,294.7L725.2,296.5L725.8,296.9L726.4,297L727.6,297.1L729,296.9L730.2,296.4L732.4,296.5Z"><title>Harare</title></path>
<path id="r-ZW-BU" data-de="Bulawayo" data-en="Bulawayo" data-cx="429.5" data-cy="603" d="M435.9,615.4L434.4,614.6L433,614.3L432.1,613.8L431.5,613.7L431.1,613.8L427.2,617L426.5,617L426,617L423.9,614.5L425.4,611L425.2,609.8L424,608.5L423.1,607.1L422.2,606.8L421.3,606.9L419.8,607.5L419.2,607.6L418.4,607.6L416.3,607L415.4,606.9L413.9,607L412.9,606.9L411.4,606.4L410.9,605.8L410.8,605.2L411.2,604.7L412.8,603.7L413.5,603.1L413.9,602.3L413.9,601L414,600L414.2,599.2L414.7,598L414.9,597.2L414.9,596.1L413.8,591.5L413.6,589.9L413.8,589.3L414.2,589L414.7,589L415.6,589.2L422.4,592.9L423.6,593.2L424.5,593.2L425.4,592.7L426.8,591.4L427.6,591.1L430.2,590.7L432.6,589.9L433.3,589.9L433.7,590.1L433.8,590.4L433.4,591.5L433.3,592L433.2,593.6L433.1,594L433.1,594.4L433.2,594.8L433.5,595.1L433.8,595.3L434.3,595.5L435,595.5L435.6,595.7L436.2,595.9L437.5,597L438.3,597.4L439.2,597.4L440,597.2L441.7,596.4L442.5,596.3L443,596.8L443.1,598.3L443.3,598.8L443.8,599.3L444.5,599.6L445.4,599.9L445.8,600.3L445.8,600.9L445.6,601.7L445.2,602.7L444.5,604.1L444.3,604.6L444.3,605.1L444.3,605.6L444.7,606.2L445.1,606.6L447.4,608.2L447.9,608.7L448.2,609.2L448.2,609.9L447.9,610.6L447.5,611.3L446.9,612.1L446,612.7L444,613.6L435.9,615.4Z"><title>Bulawayo</title></path>
</g>
</svg>
